<svg width="480" height="480" viewBox="0 0 480 480" fill="none" xmlns="http://www.w3.org/2000/svg"><path d="M372.766 285.846c-8.754 4.907-17.166 9.725-25.776 14.161-5.172 2.665-10.185 11.927-8.823 17.579 1.422 5.902 2.882 11.798 4.488 17.652 1.713 6.244 3.967 12.479-2.78 17.196 11.706 3.277 22.899 5.942 33.769 9.575 12.795 4.278 25.541 8.869 37.887 14.285 14.235 6.245 28.154 13.263 41.942 20.459 12.841 6.701 21.882 16.893 25.489 31.282.438 1.746.588 3.604.595 5.411.05 12.332.028 24.665.026 36.997-.002 7.689-1.86 9.5-9.739 9.5l-390.466.001c-23.498 0-46.995.006-70.493-.005-5.902-.002-8.455-2.511-8.463-8.319-.017-12.165-.05-24.331.007-36.496.072-15.415 7.108-27.379 20.135-34.776 24.007-13.632 48.733-25.973 75.019-34.732 14.45-4.815 29.12-8.972 43.723-13.436-4.543-5.022-3.706-11.286-1.485-17.992 1.901-5.738 3.175-11.725 4.186-17.693.391-2.309.005-5.333-1.238-7.244-12.092-18.595-21.181-38.391-25.258-60.323-.171-.924-.787-1.765-1.039-2.308-12.255 2.649-24.352 4.963-35.88-1.021-9.353-4.856-14.826-12.483-14.63-23.822.34-19.659.423-39.336-.028-58.99-.276-12.027 9.926-23.137 20.047-25.125 3.86-.758 4.37-2.573 4.465-5.711.65-21.254 5.84-41.515 15.35-60.378 17.591-34.886 46.324-55.768 83.96-65.387C211.9.016 236.461-.253 260.862 1.241c28.277 1.73 55.298 9.146 78.627 26.48 13.573 10.085 24.667 22.379 33.159 37.055 9.544 16.494 14.677 34.456 17.903 53.039.844 4.862.913 9.87 1.156 14.82.137 2.786.673 4.32 4.059 4.96 11.61 2.193 20.172 13.08 20.176 24.883.007 18.665-.704 37.365.211 55.985.829 16.855-9.444 27.496-24.19 30.861-1.733 14.372-8.064 26.524-19.197 36.522zm-40.52-187.431c-6.644-7.322-12.642-15.387-20.049-21.831-27.352-23.8-59.499-31.751-94.709-24.801-24.584 4.852-45.263 17.405-61.851 36.715-17.832 20.759-26.191 44.899-26.644 71.779-.375 22.278-.15 44.607.997 66.852.587 11.393 2.687 22.981 5.991 33.91 10.017 33.134 30.312 58.969 59.553 77.266 19.427 12.157 40.742 16.242 63.484 10.693 14.724-3.592 27.577-10.848 39.43-19.916 7.54-5.77 14.516-12.276 19.382-21.033-9.695 1.209-18.954 2.889-28.278 3.403-13.606.75-27.258.718-40.891.907-5.637.079-9.105-2.997-9.427-7.979-.28-4.328 3.886-8.512 8.941-8.745 14.072-.648 28.214-.56 42.203-1.99 13.651-1.394 27.154-4.258 40.696-6.628 1.181-.207 2.576-1.307 3.18-2.381 11.145-19.84 16.262-41.478 16.808-63.933.558-22.919-.334-45.88-.842-68.818-.429-19.375-7.232-36.724-17.974-53.47zm78.816 295.823c-6.855-2.819-13.675-5.723-20.57-8.439-18.709-7.368-37.696-13.856-57.657-16.895-1.815-.276-4.5.779-5.766 2.152-3.001 3.254-5.411 7.057-8.024 10.664-12.084 16.684-24.168 33.368-36.203 50.088-.714.992-1.595 2.407-1.395 3.429 1.807 9.252 3.837 18.46 5.743 27.405h175.498c0-9.987.673-19.687-.21-29.244-.728-7.875-4.448-15.154-11.799-19.09-12.823-6.867-25.964-13.14-39.617-20.07zm-237.953 4.189l-21.593-29.902c-8.817 1.838-17.577 3.251-26.11 5.517-33.069 8.785-63.608 23.69-93.764 39.439-6.574 3.433-12.088 8.604-12.992 16.039-1.328 10.924-1.21 22.024-1.718 33.275h175.87c1.745-8.004 3.336-15.87 5.212-23.666.911-3.782.116-6.691-2.26-9.823-7.567-9.977-14.795-20.212-22.645-30.879zM143.63 76.162c4.264-4.214 8.257-8.752 12.838-12.589 25.505-21.357 54.613-32.324 88.243-30.837 15.695.694 30.699 3.465 45.111 9.852 35.342 15.663 59.205 41.814 71.956 78.168 2.1 5.987 3.461 12.232 5.169 18.38l8.603-2.632c-1.227-8.781-2.222-17.422-3.676-25.984-2.977-17.528-9.693-33.676-20.323-47.828-12.536-16.69-29.479-27.633-49.008-34.8-29.429-10.801-59.63-11.841-90.424-8.305-18.15 2.084-35.099 7.402-51.183 15.778C147.833 42.19 136.727 51.54 128 63.421c-9.992 13.604-16.358 28.962-19.53 45.505-1.755 9.154-2.637 18.475-3.905 27.666l7.422 2.117c4.827-12.36 8.807-24.792 14.492-36.389 4.455-9.088 11.019-17.143 17.151-26.158zm224.534 104.339c0 12.98-.037 25.961.014 38.941.029 7.107 3.118 11.186 8.862 11.508 4.148.232 8.329.232 12.476-.006 5.384-.308 8.511-3.651 8.525-9.001.052-19.803.046-39.607.005-59.411-.012-5.736-3.503-9.13-9.321-9.234-3.161-.057-6.323-.013-9.485-.01-7.587.007-10.846 3.093-11.05 10.737-.137 5.155-.026 10.317-.026 16.476zm-259.646-24.369c-4.665-4.947-10.717-2.012-16.107-2.852-6.897-1.074-11.582 3.477-11.473 11.269.226 15.987.363 31.987-.013 47.968-.394 16.77 1.805 19.137 18.525 18.525 8.075-.296 11.536-3.449 11.541-11.412.011-18.323.081-36.646-.082-54.967-.024-2.657-1.197-5.304-2.391-8.531zm117.811 213.577c-1.579-.985-3.05-2.55-4.753-2.865-18.038-3.341-34.069-10.941-48.252-22.463-5.699-4.629-11.156-9.556-16.801-14.413-.602 2.41-.872 4.387-1.591 6.185-1.731 4.329-.506 7.922 2.115 11.465 9.4 12.708 18.709 25.484 28.044 38.24 6.86 9.374 13.706 18.759 21.039 28.796 6.84-15.218 13.363-29.73 20.199-44.945zm52.324 38.435c.852-1.204 1.689-2.419 2.557-3.612 14.261-19.596 28.57-39.157 42.71-58.84 1.224-1.703 1.956-4.244 1.819-6.324-.199-3.014-1.398-5.962-2.388-9.775-19.645 19.996-42.088 34.357-70.296 38.314l20.885 46.873c1.839-2.567 3.077-4.295 4.713-6.636zm-62.783 32.718l-5.304 21.773H269l-4.408-21.874c-15.916 0-31.853 0-48.722.101zm41.171-20.386l-17.003-39.032-18.654 42.401c11.924 0 22.724.062 33.52-.117.866-.014 1.704-1.683 2.137-3.252zm107.358-149.574c2.593-4.173 5.564-8.163 7.692-12.56 3.31-6.84 2.492-8.604-3.955-11.467-.713-.316-1.45-.579-2.357-.938l-8.976 30.804c2.947-2.229 5.007-3.787 7.596-5.839z" fill="#1371C9"/></svg>