<svg width="312" height="354" fill="none" xmlns="http://www.w3.org/2000/svg"><path d="M267.014 166c0 32.987.054 65.475-.076 97.962-.015 3.601.923 6.166 3.542 8.717 13.707 13.352 27.222 26.901 40.721 40.3l-39.246 39.365-4.626-4.053-.583 5.026H.986v-5.682c0-102.793.04-205.587-.123-308.38-.008-5.104 1.255-6.379 6.338-6.333 29.153.26 58.31.07 87.465.192 4.05.017 5.676-.545 6.536-5.398C104.345 9.988 120.733.198 132.923.64c18.744.678 31.132 10.633 34.101 29.344.57 3.594 2.803 3.057 5.075 3.058 22.991.009 45.982.005 68.974.005 6.997 0 14.005.231 20.987-.088 4.037-.185 5.051 1.148 5.038 5.09-.135 42.483-.084 84.966-.084 127.95zm-56.602 125.086l-24.693-23.994 6.881-7.209-16.177-16.723c-16.482 10.083-34.543 13.788-53.697 10.512-40.556-6.938-69.804-45.243-63.927-87.562 5.266-37.918 41.093-70.113 82.768-66.135 32.59 3.112 54.872 20.317 66.708 50.399 8.686 22.077 6.373 43.924-5.002 64.809-.786 1.443-1.282 4.225-.483 5.154 4.501 5.23 9.439 10.082 14.261 15.098l8.163-7.812 6.798 5.961V68.027h-30.879c-.073 1.062-.145 1.86-.181 2.661-.52 11.572-7.758 18.96-19.326 19.01-31.827.138-63.656.137-95.483-.004-10.1-.045-16.94-6.005-18.875-15.761-.376-1.894-.316-3.874-.454-5.77H35.916V319.53H231.9c1.156-3.962.399-6.841-2.577-9.616-6.329-5.903-12.301-12.189-18.91-18.828zm-196.828 36.41v13.964h240.679c2.335-8.391-5.274-10.273-8.862-15.116.553 5.406-2.281 5.814-6.345 5.808-69.977-.103-139.955-.118-209.932.024-4.647.01-6.187-1.006-6.179-5.959.154-88.471.148-176.942.011-265.413-.007-4.616 1.2-5.973 5.843-5.856 12.604.319 25.221.11 37.916.11v-9.152H13.583v281.59zm182.475-124.979c10.235-23.271 4.814-53.089-13.106-71.142-14.066-14.171-31.042-20.702-51.126-19.721-17.14.838-31.816 7.304-43.442 19.437-15.109 15.769-21.178 35.04-17.545 56.76 6.223 37.213 40.474 59.952 76.887 53.661 11.319-1.955 21.301-6.991 31.386-14.612l22.138 23.264 8.391-7.847-23.269-22.15c3.393-5.976 6.491-11.431 9.686-17.65zm84.361 125.404l14.081-13.55-68.884-69.056-22.017 21.867 67.832 69.824c3.377-3.432 5.923-6.018 8.988-9.085zM244.933 93.5c0 49.156.179 98.314-.183 147.468-.058 7.805 4.956 10.557 9.66 15.21V45.728h-53.193v9.339c13.243 0 26.207.098 39.169-.066 3.434-.044 4.685.925 4.62 4.507-.2 10.994-.073 21.994-.073 33.992zM117.864 19.439c-5.916 6.205-5.355 13.978-5.057 21.603.134 3.438-.938 4.96-4.507 4.59-2.054-.212-4.148-.038-6.269-.038v9.153h64.218c0-1.767.044-3.24-.012-4.71-.055-1.417-.212-2.83-.317-4.162-10.669-.814-10.894-.821-10.608-10.589.295-10.122-3.764-17.66-13.102-21.292-8.633-3.358-16.977-1.973-24.346 5.445zM109.5 77.134h17.494c18.495 0 36.989-.014 55.483.015 2.625.004 5.552-.005 5.639-3.36.241-9.265.083-18.54.083-27.902h-9.334c0 5.74-.26 11.219.083 16.66.27 4.3-1.397 5.307-5.44 5.284-26.324-.154-52.65-.19-78.974.025-4.615.037-5.71-1.596-5.475-5.796.303-5.403.073-10.836.073-16.077H79.76V72.78c0 3.562 2.121 4.415 5.248 4.38 7.83-.085 15.662-.027 24.493-.027z" fill="#0769CD"/><path d="M124 264.717c9.657 0 18.817.139 27.969-.069 3.548-.08 5.087.718 4.958 4.656-.3 9.175.434 7.659-7.838 7.675-25.639.05-51.28-.122-76.918.14-4.97.051-5.343-2.127-5.17-5.975.16-3.532-.708-6.699 5.056-6.567 17.14.393 34.294.141 51.943.14zm12 34.281c-21.631-.001-42.765-.209-63.89.138-5.688.093-4.979-2.949-5.111-6.543-.14-3.815.15-6.043 5.142-5.995 26.453.255 52.912.321 79.362-.033 6-.08 5.17 3.099 5.428 6.847.293 4.253-.843 6.068-5.465 5.68-4.956-.418-9.975-.094-15.466-.094zm20.995-173.136c25.599 11.981 38.285 36.426 32.891 62.878-4.649 22.802-25.042 40.898-47.914 43.516-31.268 3.579-58.292-19.149-61.652-48.359-3.609-31.376 18.3-57.584 47.738-61.939 9.965-1.474 19.361.202 28.937 3.904zm2.817 87.528c14.368-9.938 20.795-23.691 18.977-40.984-3.397-32.3-36.6-47.432-63.504-34.04-22.54 11.221-29.838 39.2-17.008 61.622 11.734 20.505 40.224 26.965 61.535 13.402z" fill="#0769CD"/><path d="M152.893 159.902c2.093-2.154 3.922-4.067 5.979-6.218l8.85 7.801-41.36 42.803-19.799-19.976 8.766-7.119 10.178 11.202c9.485-9.879 18.304-19.066 27.386-28.493z" fill="#0769CD"/></svg>