<svg width="315" height="355" fill="none" xmlns="http://www.w3.org/2000/svg"><path d="M160.903 199.915c4.108.976 8.142 1.286 11.321 3.097 3.891 2.217 7.389 2.243 11.331.984 2.36-.754 4.852-1.116 7.18-1.945 8.977-3.198 17.45-2.056 26.045 1.832 4.474 2.023 9.597 2.61 15.043 4.003 0-3.409.053-5.345-.009-7.278-.254-7.916 3.543-13.677 9.817-17.933 3.423-2.321 7.082-4.324 10.752-6.247 6.977-3.656 12.787-1.983 16.889 4.856 6.824 11.378 13.571 22.803 20.324 34.224a19540.187 19540.187 0 0121.477 36.442c5.628 9.564 4.179 14.733-5.477 20.466-6.706 3.982-13.212 9.158-21.557 7.22-4.158-.966-7.03-.123-10.396 2.686 4.296 6.829 5.188 14.043.155 21.06-5.03 7.013-12.064 8.768-20.15 7.001-3.288 10.196-8.339 14.05-18.786 14.892-1.283.104-3.07 1.251-3.592 2.388-5.73 12.49-12.188 15.566-23.902 12.173-4.133 4.324-7.288 8.882-11.567 11.782-5.254 3.56-11.369 2.969-16.979-.308-1.716-1.003-3.483-1.935-5.116-3.06-4.185-2.88-7.623-3.971-12.554-.098-6.411 5.035-16.841 1.701-22.908-5.706-.971-1.184-3.101-2.128-4.626-2.036-10.365.626-15.598-2.224-20.179-11.2-.539-1.057-1.868-2.217-2.979-2.393-7.924-1.254-13.95-4.838-17.274-12.503-.47-1.083-2.426-2.037-3.765-2.14-7.427-.573-12.405-4.549-15.36-11.027-2.856-6.264-1.779-12.291 2.253-17.829 1.341-1.842 2.607-3.74 4.18-6.005-4.959.937-9.259 2.536-13.499 2.39-9.63-.332-17.126-6.091-23.712-12.243-4.552-4.253-2.71-10.091.31-15.145 9.697-16.22 19.362-32.459 29.011-48.708 4.234-7.129 8.298-14.361 12.62-21.437 5.233-8.568 10.79-9.835 19.464-4.53 3.945 2.412 7.896 4.864 11.561 7.668 5.096 3.897 6.721 9.57 7.412 15.711.163 1.446 1.281 3.287 2.512 4.023 4.958 2.965 10.078 1.896 15.285.226 6.259-2.008 12.654-3.588 19.445-5.353zm1.177 103.5v4.811c12.527 4.972 15.985 13.177 11.416 27.139 3.811 2.154 7.564 4.617 11.603 6.452 3.364 1.529 6.846.816 8.552-2.747 1.569-3.278.954-6.522-2.481-8.637-3.1-1.91-6.344-3.614-9.284-5.741-1.344-.972-2.927-2.741-2.934-4.155-.009-1.9.918-4.733 2.329-5.47 1.67-.873 4.657-.629 6.423.33 7.422 4.027 14.546 8.597 21.889 12.776 4.18 2.378 8.171 1.639 10.067-1.442 2.29-3.72 1.253-7.017-3.408-9.865-7.487-4.575-15.105-8.937-22.582-13.527-3.001-1.843-6.125-3.972-3.839-8.29 1.855-3.504 4.999-3.94 9.377-1.373 10.435 6.119 20.819 12.326 31.267 18.425 5.191 3.03 8.533 2.569 10.735-1.251 2.13-3.695.712-7.242-4.165-10.137-10.549-6.261-21.163-12.414-31.66-18.76-2.954-1.786-5.519-4.322-3.053-8.103 2.305-3.535 5.166-3.659 8.942-1.36 13.88 8.454 27.941 16.613 42.01 24.751 2.085 1.207 4.899 2.801 6.802 2.246 2.239-.653 5.045-3.255 5.395-5.377.338-2.049-1.542-5.51-3.471-6.717-12.079-7.563-24.452-14.656-36.713-21.931-10.08-5.981-20.139-11.998-30.442-18.14-3.173 6.843-7.947 11.338-14.549 13.994-11.207 4.509-20.211-2.877-19.014-12.331 1.534-12.109-3.047-24.958 4.978-36.155-6.379-3.741-11.754-.881-16.977 1.446-10.171 4.531-20.204 6.676-30.546-.556l-32.235 54.477.782 1.206c10.042-4.872 18.473-2.913 25.177 5.469 13.031-8.842 24.806-3.833 30.198 9.468 13.249 1.588 19.336 7.29 19.411 19.075zm48.561-89.64c-3.522-.728-7.183-2.444-10.537-1.974-6.668.935-13.416 2.458-19.629 4.975-3.062 1.24-6.79 5.04-7.119 8.024-.954 8.63-.338 17.433-.338 26.185 7.207-.552 11.117-4.343 11.895-11.248.757-6.715 4.275-8.636 10.008-5.262 20.998 12.357 42.062 24.609 62.847 37.317 4.848 2.965 8.307 2.979 12.057-1.273-.427-.782-.87-1.654-1.366-2.493-4.894-8.283-9.751-16.589-14.72-24.827-2.034-3.373-2.106-6.303 1.461-8.545 3.607-2.266 5.936-.077 7.93 2.651.879 1.202 1.55 2.556 2.323 3.836 4.719 7.818 9.327 15.707 14.206 23.423 2.495 3.945 6.305 5.365 10.73 3.414 3.161-1.394 6.039-3.42 9.162-4.914 3.279-1.569 3.221-3.292 1.443-6.243-9.671-16.049-19.121-32.23-28.66-48.358-4.452-7.526-8.933-15.034-13.592-22.871-3.85 2.304-7.311 4.224-10.615 6.385-5.565 3.639-6.696 8.288-3.493 14.111 1.436 2.612 3.132 5.079 4.644 7.65 2.593 4.407 2.321 7.856-1.038 9.529-3.974 1.978-6.476.147-8.409-3.539-.659-1.254-3.007-2.882-3.924-2.545-8.792 3.231-16.625.028-25.266-3.408zm-115.82 18.516c5.1-8.714 10.267-17.391 15.277-26.157 3.547-6.208 2.241-10.83-3.888-14.597-3.081-1.893-6.192-3.737-9.956-6.005l-44.553 75.173c3.034 1.897 5.538 3.495 8.078 5.033.99.599 2.05 1.094 3.104 1.579 5.774 2.659 10.165 1.344 13.442-4.127 6.044-10.09 12.035-20.212 18.496-30.899zm38.115 75.132c-2.805 3.889-5.832 7.643-8.344 11.713-1.944 3.15-1.644 6.55 1.612 8.835 2.891 2.028 6.47 2.111 8.608-.667 5.433-7.061 10.513-14.411 15.396-21.867 1.934-2.953 1.24-6.43-1.843-8.302-3.215-1.952-6.696-1.816-9.23 1.647-1.952 2.667-3.838 5.382-6.199 8.641zm-12.999-.998c3.343-4.709 6.872-9.3 9.961-14.17 1.864-2.939 2.577-6.886-.885-8.769-2.231-1.214-7.135-1.386-8.35.063-5.912 7.052-11.281 14.627-16.107 22.469-.985 1.601.413 5.902 2.088 7.609 2.287 2.33 5.8 2.216 8.304-.747 1.6-1.894 3.076-3.892 4.989-6.455zm-32.054-19.991c-.973 1.338-2.078 2.601-2.89 4.031-1.73 3.043-1.802 6.072.995 8.553 2.94 2.609 6.473 2.442 8.887-.17 3.218-3.481 6.236-7.438 8.124-11.726.865-1.964-.414-6.613-2.085-7.513-2.11-1.137-5.883-.297-8.424.842-1.833.821-2.825 3.521-4.607 5.983zm58.84 46.1c1.194 5.993 6.472 8.686 10.616 4.914 2.814-2.561 5.192-6.108 6.444-9.678.693-1.977-.644-5.719-2.343-7.157-1.429-1.209-5.769-1.261-6.955-.03-3.072 3.191-5.115 7.373-7.762 11.951z" fill="#1573C9"/><path d="M73.931 316.991c2.821.005 5.484-.695 7.401.2 2.228 1.04 3.803 3.479 5.66 5.311-1.989 1.835-3.945 5.222-5.973 5.265-18.99.407-37.999.53-56.99.138C11.6 327.649.21 314.433.156 301.067.085 283.402.138 265.736.138 248.07c0-73.164-.003-146.327.004-219.49C.143 15.861 7.508 5.36 19.126 1.66c1.857-.591 3.908-.799 5.87-.8C78.325.817 131.656.862 184.987.765c5.065-.01 9.055 1.88 12.449 5.257 16.884 16.798 33.675 33.689 50.567 50.479 4.553 4.525 6.449 10.198 6.492 16.238.201 28.164.098 56.33.064 84.496-.002 1.306.072 3.062-.682 3.826-1.676 1.697-4.008 4.166-5.789 3.954-1.911-.229-3.73-3.008-5.121-5-.63-.902-.142-2.593-.142-3.926-.002-26.832-.09-53.665.091-80.496.029-4.16-1.125-5.435-5.293-5.295-8.99.3-17.996.105-26.996.09-14.549-.027-26.562-12.046-26.573-26.578-.008-10.463-.002-20.925-.002-31.95h-6.226c-49.498 0-98.997.188-148.492-.152-10.379-.072-17.495 5.396-18.152 17.634-.054.997-.01 2-.01 3 0 87.829-.01 175.658.043 263.488.002 3.285.32 6.638 1.031 9.84 1.451 6.533 7.961 11.281 15.2 11.304 15.332.05 30.664.015 46.484.016zM232.855 56.63l-37.669-37.616c0 9.71-.338 17.97.104 26.186.374 6.964 6.169 13.134 13.022 13.643 8.094.601 16.258.26 24.392.22.212-.001.419-1.247.151-2.434z" fill="#1472C9"/><path d="M51.048 126.905c52.129 0 103.767-.002 155.404.011 1.826 0 4.041-.466 5.388.379 2.108 1.325 5.033 3.599 5.014 5.444-.02 1.946-2.947 4.025-4.901 5.699-.685.587-2.253.167-3.417.167-53.97.004-107.939.004-161.908-.002-1.33 0-2.711.139-3.981-.158-2.927-.685-6.009-2.23-5.016-5.544.695-2.317 3.226-4.659 5.525-5.748 2.047-.969 4.901-.232 7.892-.248z" fill="#1975CA"/><path d="M169 106.946c-40.64 0-80.78.013-120.92-.037-2.103-.002-4.531.024-6.22-.965-1.835-1.077-4.296-3.485-4.109-5.024.25-2.042 2.608-4.03 4.446-5.584.803-.678 2.565-.274 3.891-.275 54.131-.008 108.263-.021 162.394.048 2.057.003 4.551.251 6.045 1.411 1.409 1.096 2.521 3.618 2.354 5.379-.141 1.489-2.06 3.301-3.629 4.035-1.846.864-4.162.959-6.277.972-12.491.08-24.983.04-37.975.04z" fill="#1472C9"/><path d="M57.004 59.137h66.93c1.165 0 2.363-.162 3.49.05 3.283.62 5.516 2.268 5.157 6.042-.317 3.328-2.155 5.145-5.509 5.147-27.97.024-55.94.046-83.911-.025-3.38-.009-5.787-1.669-5.716-5.463.067-3.565 2.088-5.569 5.576-5.703 4.489-.173 8.99-.046 13.983-.048z" fill="#1573C9"/><path d="M233.093 56.89c.029.926-.177 2.172-.39 2.172-8.133.04-16.297.382-24.391-.22-6.853-.508-12.648-6.679-13.022-13.642-.442-8.217-.104-16.476-.104-26.186a59008.166 59008.166 0 0137.907 37.876z" fill="#F8FBFD"/></svg>