<svg width="473" height="473" viewBox="0 0 473 473" fill="none" xmlns="http://www.w3.org/2000/svg">
<rect x="15" y="15" width="443" height="443" rx="45" stroke="#0769CD" stroke-width="30"/>
<path d="M193.186 278.428C190.297 243.407 190.405 209.453 192.899 175.589C194.342 155.997 206.424 145.92 224.457 146.649C241.009 147.317 252.31 158.934 253.549 177.451C254.205 187.243 254.188 197.134 253.649 206.935C253.127 216.424 257.106 219.724 266.252 219.228C275.61 218.719 285.021 219 294.404 219.174C308.743 219.438 316.622 225.077 316.892 234.983C317.173 245.273 308.742 251.795 294.06 252.204C284.681 252.465 275.287 252.131 265.903 252.269C261.66 252.332 256.805 251.411 254.496 256.544C255.868 263.47 261.206 261.822 265.253 261.891C278.659 262.116 292.074 262.162 305.479 261.93C316.46 261.741 324.223 266.202 329.199 276.085C342.859 303.216 356.881 330.165 370.406 357.362C377.318 371.261 374.25 382.807 363.034 388.392C351.645 394.063 340.355 389.654 333.409 376.276C322.706 355.66 312.073 334.999 301.926 314.106C298.308 306.655 293.466 303.658 285.191 303.834C265.98 304.24 246.751 304.047 227.534 303.789C208.988 303.54 200.357 297.24 193.186 278.428Z" fill="#0769CD"/>
<path d="M292.817 333.522C297.68 341.737 296.905 348.379 292.461 355.711C270.205 392.427 225.825 412.51 184.455 404.097C138.653 394.782 106.542 360.403 99.8862 313.556C94.1123 272.915 117.035 228.852 154.576 209.989C160.451 207.037 167.314 198.708 174.587 206.889C179.675 212.614 175.191 234.408 168.693 238.488C149.604 250.474 137.049 266.65 132.748 289.268C125.752 326.054 151.009 364.389 187.753 371.818C221.157 378.57 251.599 363.773 268.183 332.868C270.778 328.033 271.445 321.39 279.256 321.071C287.535 320.733 289.088 327.484 292.817 333.522Z" fill="#0769CD"/>
<path d="M251.733 118.35C234.652 138.046 212.413 140.136 197.996 124.227C185.658 110.611 184.762 92.9241 195.71 79.0566C205.699 66.4037 223.478 62.3805 237.966 69.4947C253.246 76.9981 260.479 94.4368 255.254 111.471C254.609 113.573 253.311 115.474 251.733 118.35Z" fill="#0769CD"/>
</svg>
