<svg width="473" height="473" viewBox="0 0 473 473" fill="none" xmlns="http://www.w3.org/2000/svg">
<rect x="15" y="15" width="443" height="443" rx="45" stroke="#0769CD" stroke-width="30"/>
<path d="M103 236C103 227.716 109.716 221 118 221H348C356.284 221 363 227.716 363 236C363 244.284 356.284 251 348 251H118C109.716 251 103 244.284 103 236Z" fill="#0769CD"/>
<path d="M259.462 326.358C253.604 320.5 253.604 311.003 259.462 305.145L339.001 225.606C344.859 219.748 354.356 219.748 360.214 225.606C366.072 231.464 366.072 240.961 360.214 246.819L280.675 326.358C274.817 332.216 265.32 332.216 259.462 326.358Z" fill="#0769CD"/>
<path d="M259.606 145.606C265.464 139.748 274.962 139.748 280.819 145.606L360.358 225.145C366.216 231.003 366.216 240.501 360.358 246.358C354.501 252.216 345.003 252.216 339.145 246.358L259.606 166.82C253.748 160.962 253.748 151.464 259.606 145.606Z" fill="#0769CD"/>
</svg>
