<svg width="473" height="473" viewBox="0 0 473 473" fill="none" xmlns="http://www.w3.org/2000/svg">
<rect x="15" y="15" width="443" height="443" rx="45" stroke="#0769CD" stroke-width="30"/>
<path d="M141.345 328.538C135.487 322.68 135.487 313.182 141.345 307.325L303.979 144.69C309.837 138.832 319.335 138.832 325.193 144.69C331.051 150.548 331.051 160.045 325.193 165.903L162.558 328.538C156.7 334.396 147.203 334.396 141.345 328.538Z" fill="#0769CD"/>
<path d="M315.873 281.795C307.589 281.795 300.873 275.079 300.873 266.795L300.873 154.31C300.873 146.026 307.589 139.31 315.873 139.31C324.157 139.31 330.873 146.026 330.873 154.31L330.873 266.795C330.873 275.079 324.157 281.795 315.873 281.795Z" fill="#0769CD"/>
<path d="M188.164 153.882C188.164 145.598 194.88 138.882 203.164 138.882L315.649 138.882C323.934 138.882 330.649 145.598 330.649 153.882C330.649 162.167 323.934 168.882 315.649 168.882L203.164 168.882C194.88 168.882 188.164 162.167 188.164 153.882Z" fill="#0769CD"/>
</svg>
