<svg width="473" height="473" viewBox="0 0 473 473" fill="none" xmlns="http://www.w3.org/2000/svg">
<rect x="15" y="15" width="443" height="443" rx="45" stroke="#0769CD" stroke-width="30"/>
<path d="M233.893 366.858C225.608 366.858 218.893 360.142 218.893 351.858L218.893 121.858C218.893 113.574 225.608 106.858 233.893 106.858C242.177 106.858 248.893 113.574 248.893 121.858L248.893 351.858C248.893 360.142 242.177 366.858 233.893 366.858Z" fill="#0769CD"/>
<path d="M324.25 210.396C318.393 216.254 308.895 216.254 303.037 210.396L223.498 130.857C217.64 124.999 217.64 115.502 223.498 109.644C229.356 103.786 238.854 103.786 244.711 109.644L324.25 189.183C330.108 195.04 330.108 204.538 324.25 210.396Z" fill="#0769CD"/>
<path d="M143.499 210.252C137.641 204.394 137.641 194.896 143.499 189.038L223.038 109.5C228.896 103.642 238.393 103.642 244.251 109.499C250.109 115.357 250.109 124.855 244.251 130.713L164.712 210.252C158.854 216.109 149.357 216.109 143.499 210.252Z" fill="#0769CD"/>
</svg>
