<svg width="183" height="207" viewBox="0 0 183 207" fill="none" xmlns="http://www.w3.org/2000/svg">
<path d="M0.919868 126C0.919982 90.8336 0.89313 56.1671 0.936564 21.5007C0.949687 11.0248 5.46809 4.39863 14.3306 1.76751C16.1948 1.21407 18.2417 1.08517 20.2047 1.08366C67.2043 1.04758 114.206 1.30108 161.202 0.863315C171.487 0.767509 182.151 7.70096 182.05 21.715C181.892 43.5471 182.008 65.3811 182.008 87.2143C182.008 119.881 182.003 152.547 182.013 185.214C182.015 191.598 180.97 197.828 175.482 201.7C172.265 203.97 168.049 206.081 164.27 206.104C115.772 206.395 67.2713 206.319 18.7717 206.278C8.56939 206.27 1.07519 198.496 0.972369 187.499C0.797873 168.834 0.921531 150.166 0.919909 131.5C0.919765 129.833 0.919883 128.167 0.919868 126ZM169.059 167.5C169.059 118.68 169.064 69.86 169.052 21.0401C169.051 15.0502 167.883 13.756 162.235 13.753C114.915 13.728 67.5946 13.7674 20.2743 13.6951C15.5543 13.6879 13.7048 15.7173 13.7087 20.3113C13.7565 75.9627 13.757 131.614 13.7072 187.266C13.7031 191.888 15.7022 193.946 20.3063 193.943C67.7933 193.908 115.28 193.917 162.767 193.929C167.113 193.93 169.156 191.894 169.085 187.494C168.982 181.164 169.059 174.832 169.059 167.5Z" fill="#0769CD"/>
<path d="M85.9997 86.5897C68.6713 86.5897 51.8428 86.6129 35.0144 86.5801C26.7615 86.564 24.9321 84.7432 24.9221 76.6771C24.9043 62.3479 24.8843 48.0186 24.9319 33.6896C24.9539 27.0647 27.021 24.9382 33.5364 24.9328C72.0252 24.901 110.514 24.9032 149.003 24.93C155.811 24.9348 157.908 27.0608 157.932 33.9515C157.981 47.9473 157.953 61.9433 157.944 75.9392C157.939 84.7133 156.141 86.5717 147.482 86.5821C127.155 86.6066 106.827 86.5899 85.9997 86.5897ZM65.5408 37.7477C56.3864 37.7477 47.2321 37.7477 38.1825 37.7477C38.1825 50.173 38.1825 61.8601 38.1825 73.5016C73.9783 73.5016 109.338 73.5016 144.707 73.5016C144.707 61.4533 144.707 49.7313 144.707 37.7476C118.418 37.7476 92.474 37.7476 65.5408 37.7477Z" fill="#0769CD"/>
<path d="M157.66 177.148C156.552 181.467 153.565 182.731 150.032 182.802C143.045 182.942 136.05 182.983 129.064 182.806C123.648 182.669 121.066 180.132 121.042 174.724C120.943 151.757 120.944 128.79 121.038 105.824C121.061 100.23 123.491 97.936 128.997 97.8597C135.986 97.7628 142.978 97.7622 149.966 97.8599C155.434 97.9364 157.895 100.299 157.902 105.848C157.93 129.476 157.826 153.106 157.66 177.148ZM145.058 118.55C145.058 116.098 145.058 113.646 145.058 111.024C141.148 111.024 137.76 111.024 134.203 111.024C134.203 130.695 134.203 150.081 134.203 169.643C137.861 169.643 141.254 169.643 145.058 169.643C145.058 152.758 145.058 136.147 145.058 118.55Z" fill="#0769CD"/>
<path d="M32.3913 97.8388C39.8463 97.832 46.8467 97.7579 53.8445 97.8579C59.0182 97.9318 61.623 100.268 61.7878 105.411C62.0172 112.57 62.0029 119.746 61.7962 126.906C61.6488 132.013 59.1078 134.525 53.939 134.68C46.9461 134.89 39.9368 134.901 32.9445 134.681C27.174 134.499 24.9949 132.03 24.9373 126.179C24.87 119.347 24.9399 112.514 24.918 105.682C24.9028 100.938 26.9833 98.1178 32.3913 97.8388ZM37.7329 116.436C37.7329 118.047 37.7329 119.658 37.7329 121.433C41.7154 121.433 45.2077 121.433 48.6823 121.433C48.6823 117.776 48.6823 114.527 48.6823 111.01C45.0706 111.01 41.7027 111.01 38.0137 111.01C37.913 112.611 37.8229 114.043 37.7329 116.436Z" fill="#0769CD"/>
<path d="M80.4841 97.8388C87.9391 97.832 94.9394 97.7579 101.937 97.8579C107.111 97.9318 109.716 100.268 109.881 105.411C110.11 112.57 110.096 119.746 109.889 126.906C109.742 132.013 107.201 134.525 102.032 134.68C95.0388 134.89 88.0296 134.901 81.0373 134.681C75.2667 134.499 73.0876 132.03 73.03 126.179C72.9628 119.347 73.0326 112.514 73.0108 105.682C72.9956 100.938 75.0761 98.1178 80.4841 97.8388ZM85.8257 116.436C85.8257 118.047 85.8257 119.658 85.8257 121.433C89.8082 121.433 93.3004 121.433 96.775 121.433C96.775 117.776 96.775 114.527 96.775 111.01C93.1634 111.01 89.7955 111.01 86.1064 111.01C86.0057 112.611 85.9157 114.043 85.8257 116.436Z" fill="#0769CD"/>
<path d="M80.4841 146.033C87.9391 146.026 94.9394 145.952 101.937 146.052C107.111 146.126 109.716 148.462 109.881 153.605C110.11 160.764 110.096 167.94 109.889 175.1C109.742 180.207 107.201 182.719 102.032 182.874C95.0388 183.084 88.0296 183.095 81.0373 182.875C75.2667 182.693 73.0876 180.224 73.03 174.373C72.9628 167.541 73.0326 160.708 73.0108 153.876C72.9956 149.131 75.0761 146.312 80.4841 146.033ZM85.8257 164.63C85.8257 166.241 85.8257 167.852 85.8257 169.627C89.8082 169.627 93.3004 169.627 96.775 169.627C96.775 165.97 96.775 162.721 96.775 159.204C93.1634 159.204 89.7955 159.204 86.1064 159.204C86.0057 160.805 85.9157 162.237 85.8257 164.63Z" fill="#0769CD"/>
<path d="M32.4841 146.033C39.9391 146.026 46.9394 145.952 53.9373 146.052C59.111 146.126 61.7158 148.462 61.8806 153.605C62.11 160.764 62.0957 167.94 61.889 175.1C61.7415 180.207 59.2006 182.719 54.0318 182.874C47.0388 183.084 40.0296 183.095 33.0373 182.875C27.2667 182.693 25.0876 180.224 25.03 174.373C24.9628 167.541 25.0326 160.708 25.0108 153.876C24.9956 149.131 27.0761 146.312 32.4841 146.033ZM37.8257 164.63C37.8257 166.241 37.8257 167.852 37.8257 169.627C41.8082 169.627 45.3004 169.627 48.775 169.627C48.775 165.97 48.775 162.721 48.775 159.204C45.1634 159.204 41.7955 159.204 38.1064 159.204C38.0057 160.805 37.9157 162.237 37.8257 164.63Z" fill="#0769CD"/>
</svg>
