<svg width="100" height="100" viewBox="0 0 100 100" fill="none" xmlns="http://www.w3.org/2000/svg"><path d="M86.886 2.007c1.688 0 3.182-.017 4.675.003 4.894.066 8.407 3.633 8.43 8.537.025 5.55.275 4.894-4.939 4.912-2.532.01-5.064.016-7.597.03-.125 0-.25.061-.715.184v2.347c0 20.391-.126 40.784.08 61.174.058 5.65-4.183 10.03-9.276 9.627-.185-.014-.378.072-.78.156 0 2.416.083 4.87-.049 7.31-.042.778-.473 1.825-1.068 2.19-.46.28-1.57-.136-2.187-.547-1.722-1.145-3.339-2.449-5.043-3.724-1.797 1.34-3.467 2.673-5.238 3.856-.567.379-1.604.707-2.059.437-.573-.34-1.043-1.3-1.08-2.018-.13-2.454-.05-4.918-.05-7.682h-2.356c-16.039 0-32.08-.116-48.116.065-5.339.06-10.126-3.97-9.455-9.584.054-.448.005-.908.007-1.362.012-2.26.556-2.812 2.889-2.828 2.986-.02 5.974-.002 8.96-.009.38 0 .759-.046 1.402-.088V11.11c0-5.608 3.48-9.101 9.085-9.102 21.428-.004 42.857-.001 64.48-.001zM52.008 75.088h7.933c0-.654.12-1.092-.02-1.417-.848-1.974-1.775-3.914-2.633-5.884-.28-.645-.775-1.471-.583-2 1.096-3.01 1.77-6.481 3.77-8.756 1.663-1.894 4.911-2.49 7.554-3.37.819-.273 1.976.347 2.94.672 1.067.358 2.061.951 3.14 1.256 2.007.568 3.65 2.295 4.059 4.29.173.843.478 1.718.946 2.433 1.22 1.86 1.225 3.966.201 5.857-.989 1.825-2.217 3.743-2.428 5.717-.39 3.636-.112 7.343-.112 10.969 4.039.753 6.362-1.18 6.364-5.096.01-19.932-.055-39.865.047-59.797.025-4.779-.961-9.68 1.29-14.308-.364-.04-.556-.081-.749-.081-20.515-.004-41.03-.017-61.545.006-3.504.004-5.28 1.916-5.28 5.531-.008 20.647-.005 41.294.001 61.94 0 .622.076 1.245.128 2.038h34.977zM50.059 85.22h9.804v-6.206H3.793c-.332 3.192.792 5.293 3.264 5.952.982.262 2.055.243 3.087.244 13.175.015 26.35.01 39.915.01zm12.143-24.417c.323 1.273.314 2.307-1.062 3.14-1.33.804-1.246 1.99.1 2.9 1.014.687 1.24 1.478 1.072 2.637-.248 1.706.399 2.363 2.07 1.948 1.3-.323 1.901.247 2.557 1.146.933 1.28 1.948 1.276 2.883-.014.658-.907 1.272-1.448 2.565-1.128 1.666.412 2.335-.27 2.043-1.965-.205-1.19.108-1.94 1.09-2.625 1.346-.938 1.377-2.012.055-2.888-1.008-.667-1.354-1.377-1.145-2.581.292-1.688-.328-2.11-2-2.167-.885-.03-1.946-.45-2.58-1.056-1.234-1.18-1.71-1.167-2.97.04-.63.602-1.739.68-2.593 1.076-.719.332-1.383.782-2.086 1.537zm1.31 23.35v9.22c1.18-.869 2.144-1.482 2.995-2.226 1.275-1.115 2.434-1.242 3.744-.035.831.766 1.817 1.364 2.857 2.128V74.766c-3.199 3.07-6.263 3.066-9.597-.125v9.513zM95.657 7.715c-1.763-2.05-3.917-2.671-5.98-1.722-2.238 1.03-3.178 3.019-2.698 5.81h9.62c-.288-1.386-.54-2.6-.942-4.088z" fill="#0769CD"/><path d="M36.61 35.585v-1.838h38.485v3.26c-.614.045-1.177.122-1.74.122-11.622.007-23.244.005-34.867.005-.96 0-2.087.233-1.877-1.549zm7.799 14.556h13.903v3.677H25.059v-3.677h19.35zm-6.611-26.543h28.915v3.441H33.41v-3.442h4.387zM58.44 41.957h16.619v3.462H46.625c-.043-.67-.057-1.238-.121-1.8-.142-1.245.336-1.717 1.638-1.687 3.366.076 6.735.025 10.297.025zM42.07 58.594h11.38v3.414H25.015v-3.414H42.07zM29.614 45.531h-4.583v-3.444h18.497v3.444H29.615zm12.864-26.599h-4v-3.506H51.66v3.506h-9.182zM26.945 37.134c-.748-.038-1.31-.076-1.958-.12v-3.276h8.394v3.396h-6.436z" fill="#0769CD"/></svg>