<svg width="100" height="100" viewBox="0 0 100 100" fill="none" xmlns="http://www.w3.org/2000/svg"><g clip-path="url(#clip0_121_8)" fill="#0769CD"><path d="M1.268 54.064c-2.799-4.261-.585-8.85 2.956-11.15 1.73-1.124 1.94-1.928.914-3.779-1.143-2.06-2.052-4.185-1.821-6.636.193-2.055 1.228-3.576 2.871-4.734 1.323-.931 2.805-1.5 4.382-1.817 1.732-.348 2.27-.996 2.149-2.787-.102-1.513-.308-3.005-.039-4.54.575-3.278 2.762-5.392 6.09-5.887 1.46-.217 2.884-.09 4.329.024 1.715.136 2.365-.386 2.805-2.044.299-1.13.665-2.237 1.228-3.27 1.929-3.543 5.08-4.846 8.952-3.698 1.093.324 2.11.804 3.066 1.43 1.426.931 2.54.735 3.582-.618.934-1.211 1.937-2.344 3.225-3.202 2.773-1.846 5.71-1.81 8.41.141a11.174 11.174 0 012.785 2.894c1.007 1.516 1.986 1.755 3.584.847C62.57 4.198 64.45 3.39 66.63 3.38c2.379-.011 4.138 1.023 5.484 2.888.989 1.37 1.536 2.937 1.947 4.559.385 1.52 1.095 2.041 2.674 1.947 1.441-.085 2.862-.351 4.33-.085 3.978.723 6.205 3.226 6.366 7.281.04 1.029-.066 2.043-.194 3.064-.213 1.703.29 2.407 1.91 2.911 1.25.389 2.51.75 3.662 1.397 3.532 1.986 4.657 4.817 3.424 8.672a15.81 15.81 0 01-1.448 3.182c-.928 1.582-.755 2.5.704 3.664.972.775 1.901 1.59 2.688 2.558 2.463 3.03 2.434 6.405-.11 9.356a14.673 14.673 0 01-2.396 2.25c-1.667 1.228-1.838 2.087-.83 3.853.865 1.514 1.524 3.092 1.779 4.845.387 2.667-.593 4.696-2.712 6.245-1.333.975-2.858 1.533-4.431 1.987-2.088.601-2.585 1.371-2.2 3.497.27 1.49.215 2.957-.127 4.418-1.021 4.365-4.57 5.815-8.79 5.526-.14-.01-.278-.051-.417-.076-3.108-.551-3.607.349-4.117 2.679-.243 1.109-.724 2.142-1.324 3.114-1.916 3.103-4.666 4.18-8.186 3.203-1.27-.352-2.44-.938-3.592-1.565-1.626-.885-2.588-.644-3.585.855-.792 1.192-1.761 2.217-2.958 3.011-3.142 2.084-6.377 1.793-9.315-.837-.74-.664-1.39-1.411-1.995-2.2-1.17-1.53-2.196-1.713-3.814-.7-1.49.933-3.083 1.62-4.85 1.726-3.522.213-6.09-1.498-7.468-4.94-.34-.85-.596-1.737-.853-2.618-.421-1.447-1.284-2.038-2.751-1.833-1.55.217-3.094.292-4.645-.006-4.963-.955-6.285-4.907-5.905-9.089.025-.28.098-.557.12-.839.18-2.329-.129-2.76-2.406-3.302-1.317-.314-2.578-.756-3.724-1.493-2.77-1.785-3.825-4.482-3.058-7.688.35-1.464.96-2.806 1.7-4.102.858-1.5.652-2.426-.744-3.455-1.202-.886-2.33-1.849-3.205-3.175zm71.496-37.532c-2.379-1.368-3.342-3.654-3.958-6.15-.583-2.367-1.715-2.906-3.95-1.87a74.452 74.452 0 01-3.306 1.445c-2.729 1.102-5.12.51-7.217-1.492-.848-.809-1.615-1.687-2.365-2.585-1.148-1.373-2.594-1.444-3.84-.173-.818.834-1.548 1.753-2.382 2.57-2.15 2.105-4.68 2.624-7.534 1.706a16.1 16.1 0 01-3.09-1.395c-1.917-1.102-3.182-.622-3.946 1.476-.447 1.23-.841 2.485-1.387 3.67-.954 2.068-2.575 3.28-4.866 3.668-1.708.289-3.38.046-5.071-.03-1.793-.08-2.62.777-2.524 2.579.06 1.127.238 2.247.195 3.384-.12 3.232-1.557 5.595-4.535 6.963-1.002.461-2.062.737-3.12 1.022-1.755.472-2.382 1.935-1.496 3.523.623 1.115 1.212 2.241 1.606 3.461.865 2.674.402 5.074-1.411 7.237-.783.934-1.716 1.683-2.66 2.429-1.58 1.25-1.597 2.78-.024 4.047 1.19.959 2.355 1.947 3.226 3.213 1.035 1.503 1.552 3.134 1.228 5.005-.296 1.71-1.013 3.226-1.858 4.708-1.038 1.821-.432 3.254 1.58 3.788.649.172 1.303.338 1.934.564 3.044 1.087 5.038 3.093 5.461 6.408.18 1.412-.006 2.82-.117 4.233-.155 1.983.955 2.998 2.923 2.688 1.026-.162 2.044-.167 3.068-.162 3.553.016 5.687 1.513 6.93 4.854.37.995.686 2.01 1.084 2.993.662 1.638 1.957 2.08 3.5 1.269.907-.478 1.81-.982 2.76-1.355 3.188-1.248 6.036-.727 8.443 1.78.613.64 1.21 1.294 1.791 1.962 1.445 1.656 2.93 1.642 4.336-.08.876-1.071 1.78-2.114 2.882-2.963 1.532-1.18 3.204-1.723 5.163-1.265 1.64.384 3.132 1.1 4.636 1.808 2.28 1.076 3.374.57 3.933-1.86.346-1.5.873-2.929 1.784-4.168 2.15-2.92 5.236-3.27 8.491-2.872 3.09.378 3.815-.403 3.453-3.485-.552-4.707.501-8.173 5.859-9.842.775-.242 1.565-.472 2.296-.817 1.263-.594 1.648-1.767 1.051-3.017-.243-.51-.551-.989-.815-1.49-1.956-3.72-1.807-7.02.449-9.597.773-.883 1.641-1.703 2.663-2.26 1.695-.926 1.384-3.056.163-4.006a23.127 23.127 0 01-2.519-2.276c-1.37-1.435-2.124-3.118-2.051-5.175.075-2.1.922-3.897 1.912-5.666.923-1.65.434-2.953-1.352-3.597-1.164-.42-2.362-.76-3.492-1.257-2.021-.888-3.38-2.399-3.962-4.567-.41-1.532-.441-3.095-.205-4.635.445-2.901-.383-3.823-3.291-3.48-.176.02-.348.073-.524.09-2.003.185-3.96.057-5.931-.956z"/><path d="M32.755 23.22c5.27-3.36 10.985-5.093 17.13-5.064 15.345.07 27.855 10.419 31.13 24.78 3.296 14.453-3.706 29.041-16.912 35.632-16.342 8.157-36.43.667-43.482-16.212-5.986-14.329-1.045-30.337 12.134-39.137zM26.78 63.967c6.194 10.105 17.987 15.126 29.231 12.446C70.17 73.04 79.106 59.518 76.646 45.192c-2.455-14.295-16.318-24.13-30.769-21.935-12.406 1.884-22.64 12.378-23.007 26.321-.135 5.09 1.22 9.863 3.91 14.39z"/><path d="M35.049 48.122c.212-.174.455-.313.72-.385 1.037-.285 1.84.146 2.558.862a1258.71 1258.71 0 016.229 6.237c.393.396.924.759 1.35.4.171-.144.292-.307.43-.444 5.062-5.05 10.12-10.105 15.171-15.166.653-.655 1.35-1.127 2.336-1 .884.116 1.513.552 1.88 1.362.39.857.254 1.658-.297 2.395-.169.225-.38.42-.58.62a54093.914 54093.914 0 01-17.274 17.271c-1.587 1.586-2.73 1.579-4.333-.022-2.781-2.776-5.57-5.544-8.334-8.338-1.284-1.297-1.228-2.665.144-3.792z"/></g><defs><clipPath id="clip0_121_8"><path fill="#fff" d="M0 0h100v100H0z"/></clipPath></defs></svg>