<svg width="100" height="100" fill="none" xmlns="http://www.w3.org/2000/svg"><path d="M0 56.065c.86-1.767 1.961-3.172 3.957-3.539.38-.07.771-.125 1.157-.126 2.702-.01 5.404-.022 8.106.004 1.93.018 3.48.822 4.457 2.507.365.628.77.847 1.47.816 3.46-.153 6.817.256 9.948 1.879 1.162.602 2.215 1.362 3.261 2.137 2.293 1.697 4.862 2.599 7.72 2.617 2.995.02 5.99-.025 8.984.018 4.525.065 8.503 3.061 9.634 7.197.332 1.213.328 2.437.078 3.664-.045.221-.148.435.011.713.924.336 1.812-.037 2.69-.33 9.81-3.263 19.626-6.508 29.416-9.829 2.813-.954 5.3-.742 7.476 1.393.786.772 1.204 1.765 1.608 2.838.034.91.034 1.761.01 2.77-.524 2.09-1.712 3.442-3.414 4.472a6263.982 6263.982 0 00-29.907 18.219c-2.682 1.645-5.506 2.455-8.675 2.44-13.272-.061-26.544-.026-39.815-.024-.514 0-1.02-.056-1.46.364-1.07 1.02-2.396 1.378-3.846 1.374-2.245-.007-4.493-.076-6.733.018-2.943.123-5.036-.993-6.133-3.79V56.064zm84.025 22.69c.75-.46 1.497-.92 2.248-1.376 2.837-1.722 5.677-3.439 8.513-5.163 1.383-.842 1.983-1.925 1.735-3.089-.42-1.962-1.967-2.8-4.022-2.116-9.222 3.066-18.454 6.103-27.647 9.252-2.78.953-5.557 1.468-8.496 1.393-3.74-.096-7.485-.031-11.227-.019-1.006.004-2.012.013-3.012.19-2.232.398-4.154 1.445-5.996 2.708-.948.651-2.038.43-2.586-.412-.552-.847-.362-1.8.556-2.473 3.07-2.253 6.475-3.567 10.325-3.575 3.124-.006 6.249-.02 9.373.011.7.007 1.111-.245 1.311-.892.153-.496.305-.987.314-1.519.047-2.768-2.775-5.597-5.79-5.667-3.058-.071-6.12.006-9.177-.046-3.633-.062-7.07-.946-9.945-3.216-3.2-2.526-6.73-3.702-10.781-3.45-1.287.08-1.293.018-1.293 1.305v30.46c0 1.37 0 1.371 1.397 1.371 12.79 0 25.58-.006 38.37.005 2.273.002 4.343-.587 6.286-1.779 6.461-3.964 12.946-7.89 19.544-11.904zM14.863 60.758c0-.944.013-1.888-.003-2.831-.026-1.46-.492-1.944-1.94-1.955a499.544 499.544 0 00-7.517 0c-1.469.012-1.98.536-2.008 2.02-.022 1.171-.006 2.343-.006 3.514l.002 29.773c0 2.36.368 2.739 2.674 2.743 2.18.005 4.36.008 6.54.001 1.857-.005 2.247-.398 2.248-2.223l.01-31.042z" fill="#0769CD"/><path d="M59.192 1.755c3.358 1.689 6.513 3.578 9.644 5.498 1.513.928 1.81 2.928.876 4.615a158.471 158.471 0 01-1.992 3.47c-.256.435-.307.806.03 1.246a16.031 16.031 0 011.998 3.456c.249.582.622.734 1.212.719 1.3-.034 2.603-.02 3.905-.006 2.142.022 3.52 1.42 3.525 3.57.006 3.19.004 6.379.001 9.568-.001 2.23-1.373 3.67-3.606 3.735-1.268.037-2.54.034-3.807-.013-.69-.026-1.073.237-1.34.861-.488 1.138-1.092 2.222-1.85 3.204-.385.498-.325.92-.022 1.42a82.7 82.7 0 011.905 3.296c1.083 1.988.586 3.877-1.35 5.017a470.527 470.527 0 01-8.115 4.682c-2.204 1.24-4.002.698-5.25-1.5-.595-1.046-1.213-2.08-1.788-3.138-.285-.525-.633-.747-1.256-.64-1.257.216-2.53.221-3.787 0-.62-.108-.975.106-1.264.63a113.744 113.744 0 01-1.896 3.3c-1.224 2.055-3.077 2.559-5.146 1.378a818.151 818.151 0 01-8.196-4.738c-1.877-1.1-2.397-3.054-1.339-4.95a94.412 94.412 0 012.008-3.462c.312-.506.215-.884-.108-1.326a16.52 16.52 0 01-1.856-3.202c-.258-.6-.61-.839-1.257-.82a78.162 78.162 0 01-3.71.003c-2.399-.043-3.748-1.406-3.752-3.778-.005-3.19-.01-6.379.002-9.568.008-2.152 1.392-3.517 3.553-3.531 1.301-.009 2.604-.029 3.905.008.612.018.943-.21 1.192-.764.535-1.187 1.166-2.33 1.967-3.362.353-.456.338-.85.046-1.331a98.51 98.51 0 01-2-3.466c-1.031-1.87-.523-3.788 1.323-4.873a571.78 571.78 0 018.285-4.78c2.014-1.141 3.885-.616 5.067 1.379a95.662 95.662 0 011.847 3.215c.282.521.626.737 1.238.713a47.24 47.24 0 013.904.002c.659.03 1.005-.225 1.298-.776a71.895 71.895 0 011.838-3.221c.961-1.602 2.176-2.12 4.118-1.74zM35.464 49.5l6.329 3.674c.931-1.626 1.855-3.15 2.688-4.722.592-1.117 1.446-1.502 2.651-1.307 1.908.31 3.818.288 5.73.01 1.425-.209 1.898.044 2.627 1.3l2.661 4.577c.175-.013.25.003.3-.025 2.545-1.45 5.084-2.908 7.631-4.352.497-.282.476-.619.224-1.052a536.984 536.984 0 01-2.388-4.144c-.697-1.22-.68-1.663.183-2.74a19.635 19.635 0 002.967-5.135c.484-1.23.941-1.533 2.289-1.541 1.53-.01 3.06-.022 4.59.007.68.013 1.01-.174 1.002-.932a377.65 377.65 0 01-.002-8.008c.006-.69-.268-.912-.929-.901-1.627.027-3.255-.018-4.882.015-1.014.02-1.667-.398-2.02-1.344-.734-1.968-1.748-3.78-3.102-5.39-.676-.804-.718-1.61-.18-2.509.803-1.34 1.525-2.728 2.352-4.053.407-.653.325-1-.341-1.374-2.27-1.275-4.512-2.598-6.77-3.893-.272-.157-.534-.386-.92-.31-.03.034-.08.079-.113.134-.866 1.49-1.724 2.986-2.597 4.473-.71 1.209-1.179 1.426-2.56 1.194-1.944-.326-3.887-.29-5.829-.003-1.338.198-1.787.004-2.477-1.17a249.576 249.576 0 01-2.388-4.144c-.278-.496-.555-.61-1.085-.299a360.056 360.056 0 01-7.026 4.035c-.662.37-.662.723-.297 1.317.818 1.33 1.553 2.71 2.363 4.045.565.93.527 1.764-.176 2.596-1.358 1.608-2.36 3.425-3.1 5.39-.337.898-.958 1.326-1.942 1.306-1.627-.034-3.255.012-4.882-.019-.698-.013-.996.207-.987.949.03 2.669.029 5.338 0 8.007-.009.702.27.9.925.888 1.594-.03 3.19-.007 4.785-.007 1.05 0 1.774.401 2.148 1.465.686 1.952 1.744 3.709 3.068 5.296.644.77.752 1.546.24 2.42-.591 1.01-1.166 2.031-1.742 3.05-1.142 2.022-1.14 2.023.982 3.226z" fill="#0769CD"/><path d="M59.675 17.582c4.602 4.14 6.409 9.209 4.95 15.161-1.416 5.78-5.181 9.545-10.955 11.043-8.727 2.263-17.35-3.612-18.594-12.535-1.175-8.418 4.767-16.195 13.178-17.096 4.215-.451 8.058.646 11.42 3.427zM42.743 38.135c2.163 1.723 4.606 2.59 7.394 2.562 7.03-.069 12.51-6.499 11.272-13.422-.812-4.54-3.497-7.673-7.89-9.095-4.405-1.424-8.4-.39-11.686 2.827-4.694 4.594-4.609 12.522.91 17.128z" fill="#0769CD"/><path d="M42.181 32.298c-2.087-6.003 1.983-11.678 8.2-11.543 4.276.093 7.868 3.712 8.066 8.125.19 4.243-3.119 8.083-7.296 8.627a8.458 8.458 0 01-8.97-5.209zm5.268-7.317c-.232.176-.477.338-.695.531-1.668 1.479-2.113 4.01-1.055 5.959 1.078 1.987 3.347 3.008 5.439 2.438 1.921-.524 3.218-1.744 3.617-3.686.4-1.948-.122-3.69-1.789-4.926-1.702-1.262-3.515-1.365-5.517-.316z" fill="#0769CD"/></svg>