<svg width="473" height="473" fill="none" xmlns="http://www.w3.org/2000/svg"><rect x="15" y="15" width="443" height="443" rx="45" stroke="#0769CD" stroke-width="30"/><path d="M193.186 278.428c-2.889-35.021-2.781-68.975-.287-102.839 1.443-19.592 13.525-29.669 31.558-28.94 16.552.668 27.853 12.285 29.092 30.802.656 9.792.639 19.683.1 29.484-.522 9.489 3.457 12.789 12.603 12.293 9.358-.509 18.769-.228 28.152-.054 14.339.264 22.218 5.903 22.488 15.809.281 10.29-8.15 16.812-22.832 17.221-9.379.261-18.773-.073-28.157.065-4.243.063-9.098-.858-11.407 4.275 1.372 6.926 6.71 5.278 10.757 5.347 13.406.225 26.821.271 40.226.039 10.981-.189 18.744 4.272 23.72 14.155 13.66 27.131 27.682 54.08 41.207 81.277 6.912 13.899 3.844 25.445-7.372 31.03-11.389 5.671-22.679 1.262-29.625-12.116-10.703-20.616-21.336-41.277-31.483-62.17-3.618-7.451-8.46-10.448-16.735-10.272-19.211.406-38.44.213-57.657-.045-18.546-.249-27.177-6.549-34.348-25.361z" fill="#0769CD"/><path d="M292.817 333.522c4.863 8.215 4.088 14.857-.356 22.189-22.256 36.716-66.636 56.799-108.006 48.386-45.802-9.315-77.913-43.694-84.569-90.541-5.774-40.641 17.149-84.704 54.69-103.567 5.875-2.952 12.738-11.281 20.011-3.1 5.088 5.725.604 27.519-5.894 31.599-19.089 11.986-31.644 28.162-35.945 50.78-6.996 36.786 18.261 75.121 55.005 82.55 33.404 6.752 63.846-8.045 80.43-38.95 2.595-4.835 3.262-11.478 11.073-11.797 8.279-.338 9.832 6.413 13.561 12.451zM251.733 118.35c-17.081 19.696-39.32 21.786-53.737 5.877-12.338-13.616-13.234-31.303-2.286-45.17 9.989-12.653 27.768-16.677 42.256-9.562 15.28 7.503 22.513 24.942 17.288 41.976-.645 2.102-1.943 4.003-3.521 6.879z" fill="#0769CD"/></svg>