<svg width="473" height="473" fill="none" xmlns="http://www.w3.org/2000/svg"><rect x="15" y="15" width="443" height="443" rx="45" stroke="#0769CD" stroke-width="30"/><path d="M103 236c0-8.284 6.716-15 15-15h230c8.284 0 15 6.716 15 15 0 8.284-6.716 15-15 15H118c-8.284 0-15-6.716-15-15z" fill="#0769CD"/><path d="M259.462 326.358c-5.858-5.858-5.858-15.355 0-21.213l79.539-79.539c5.858-5.858 15.355-5.858 21.213 0 5.858 5.858 5.858 15.355 0 21.213l-79.539 79.539c-5.858 5.858-15.355 5.858-21.213 0z" fill="#0769CD"/><path d="M259.606 145.606c5.858-5.858 15.356-5.858 21.213 0l79.539 79.539c5.858 5.858 5.858 15.356 0 21.213-5.857 5.858-15.355 5.858-21.213 0l-79.539-79.538c-5.858-5.858-5.858-15.356 0-21.214z" fill="#0769CD"/></svg>