<svg width="320" height="53" viewBox="0 0 320 53" fill="none" xmlns="http://www.w3.org/2000/svg">
<path d="M35.598 18.786H8.38201V22.734H36.69V30H0.150006V0.599991H36.606V7.86599H8.38201V11.772H35.598V18.786Z" fill="#101010"/>
<path d="M68.441 0.599991L86.921 30H77.261L73.943 24.54H54.371L51.095 30H41.435L59.915 0.599991H68.441ZM64.157 8.28599L58.235 18.114H70.079L64.157 8.28599Z" fill="#101010"/>
<path d="M121.342 30H91.774V22.734H121.048C121.328 22.734 121.552 22.65 121.72 22.482C121.916 22.314 122.014 22.09 122.014 21.81V19.71C122.014 19.43 121.916 19.206 121.72 19.038C121.552 18.87 121.328 18.786 121.048 18.786H99.376C96.548 18.786 94.35 18.114 92.782 16.77C91.242 15.426 90.472 13.536 90.472 11.1V8.32799C90.472 5.89199 91.256 4.00199 92.824 2.65799C94.392 1.28599 96.576 0.599991 99.376 0.599991H127.894V7.86599H99.67C99.39 7.86599 99.152 7.94999 98.956 8.11799C98.788 8.28599 98.704 8.50999 98.704 8.78999V10.848C98.704 11.128 98.788 11.352 98.956 11.52C99.152 11.688 99.39 11.772 99.67 11.772H121.342C124.142 11.772 126.326 12.458 127.894 13.83C129.462 15.174 130.246 17.05 130.246 19.458V22.356C130.246 24.764 129.462 26.64 127.894 27.984C126.326 29.328 124.142 30 121.342 30Z" fill="#101010"/>
<path d="M133.561 0.599991H144.103L155.695 13.704L167.287 0.599991H177.829L159.811 20.256V30H151.579V20.256L133.561 0.599991Z" fill="#101010"/>
<path d="M239.668 0.599991L224.59 30H218.836L210.184 11.478L201.532 30H195.778L180.7 0.599991H190.36L198.508 18.45L206.614 0.599991H213.754L221.86 18.45L230.008 0.599991H239.668Z" fill="#101010"/>
<path d="M263.173 0.599991L281.653 30H271.993L268.675 24.54H249.103L245.827 30H236.167L254.647 0.599991H263.173ZM258.889 8.28599L252.967 18.114H264.811L258.889 8.28599Z" fill="#101010"/>
<path d="M275.119 0.599991H285.661L297.253 13.704L308.845 0.599991H319.387L301.369 20.256V30H293.137V20.256L275.119 0.599991Z" fill="#101010"/>
<path d="M0.0440063 51V42.6H7.70001V51H5.76801V43.74L6.21201 44.184H1.53201L1.97601 43.74V51H0.0440063Z" fill="#101010"/>
<path d="M17.9423 51.144C17.2783 51.144 16.6623 51.036 16.0943 50.82C15.5343 50.604 15.0463 50.3 14.6303 49.908C14.2223 49.516 13.9023 49.056 13.6703 48.528C13.4463 48 13.3343 47.424 13.3343 46.8C13.3343 46.176 13.4463 45.6 13.6703 45.072C13.9023 44.544 14.2263 44.084 14.6423 43.692C15.0583 43.3 15.5463 42.996 16.1063 42.78C16.6663 42.564 17.2743 42.456 17.9303 42.456C18.5943 42.456 19.2023 42.564 19.7543 42.78C20.3143 42.996 20.7983 43.3 21.2063 43.692C21.6223 44.084 21.9463 44.544 22.1783 45.072C22.4103 45.592 22.5263 46.168 22.5263 46.8C22.5263 47.424 22.4103 48.004 22.1783 48.54C21.9463 49.068 21.6223 49.528 21.2063 49.92C20.7983 50.304 20.3143 50.604 19.7543 50.82C19.2023 51.036 18.5983 51.144 17.9423 51.144ZM17.9303 49.488C18.3063 49.488 18.6503 49.424 18.9623 49.296C19.2823 49.168 19.5623 48.984 19.8023 48.744C20.0423 48.504 20.2263 48.22 20.3543 47.892C20.4903 47.564 20.5583 47.2 20.5583 46.8C20.5583 46.4 20.4903 46.036 20.3543 45.708C20.2263 45.38 20.0423 45.096 19.8023 44.856C19.5703 44.616 19.2943 44.432 18.9743 44.304C18.6543 44.176 18.3063 44.112 17.9303 44.112C17.5543 44.112 17.2063 44.176 16.8863 44.304C16.5743 44.432 16.2983 44.616 16.0583 44.856C15.8183 45.096 15.6303 45.38 15.4943 45.708C15.3663 46.036 15.3023 46.4 15.3023 46.8C15.3023 47.192 15.3663 47.556 15.4943 47.892C15.6303 48.22 15.8143 48.504 16.0463 48.744C16.2863 48.984 16.5663 49.168 16.8863 49.296C17.2063 49.424 17.5543 49.488 17.9303 49.488Z" fill="#101010"/>
<path d="M33.4975 50.136V44.184H30.6175L30.5815 45.408C30.5575 45.928 30.5215 46.42 30.4735 46.884C30.4335 47.348 30.3695 47.772 30.2815 48.156C30.1935 48.532 30.0775 48.852 29.9335 49.116C29.7975 49.38 29.6255 49.568 29.4175 49.68L27.3415 49.416C27.6295 49.424 27.8655 49.324 28.0495 49.116C28.2415 48.908 28.3935 48.616 28.5055 48.24C28.6175 47.856 28.6975 47.408 28.7455 46.896C28.8015 46.384 28.8415 45.828 28.8655 45.228L28.9615 42.6H35.4175V50.136H33.4975ZM27.0655 52.74L27.0775 49.416H36.5935V52.74H34.7935V51H28.8655V52.74H27.0655Z" fill="#101010"/>
<path d="M47.2586 45.36C48.2666 45.36 49.0466 45.588 49.5986 46.044C50.1506 46.492 50.4266 47.168 50.4266 48.072C50.4266 49.032 50.1186 49.76 49.5026 50.256C48.8946 50.752 48.0506 51 46.9706 51H43.1906V44.184H40.8266V42.6H45.1106V45.36H47.2586ZM46.8626 49.56C47.3666 49.56 47.7586 49.436 48.0386 49.188C48.3266 48.94 48.4706 48.58 48.4706 48.108C48.4706 47.644 48.3266 47.312 48.0386 47.112C47.7586 46.904 47.3666 46.8 46.8626 46.8H45.1106V49.56H46.8626Z" fill="#101010"/>
<path d="M57.7553 45.984H61.7993V47.496H57.7553V45.984ZM57.8993 49.44H62.4713V51H55.9673V42.6H62.3153V44.16H57.8993V49.44Z" fill="#101010"/>
<path d="M68.1815 51V42.6H69.7895L73.3655 48.528H72.5135L76.0295 42.6H77.6375L77.6495 51H75.8255L75.8135 45.396H76.1615L73.3415 50.112H72.4775L69.5975 45.396H70.0055V51H68.1815Z" fill="#101010"/>
<path d="M89.6362 42.6H91.5802V51H89.6362V42.6ZM85.8202 51H83.8762V42.6H85.8202V51ZM89.7802 47.556H85.6762V45.912H89.7802V47.556Z" fill="#101010"/>
<path d="M97.8248 51V42.6H99.7568V48.072L103.765 42.6H105.589V51H103.669V45.54L99.6608 51H97.8248Z" fill="#101010"/>
<path d="M117.256 51L114.64 46.956L116.212 46.008L119.464 51H117.256ZM111.796 51V42.6H113.728V51H111.796ZM113.164 47.616V45.996H116.092V47.616H113.164ZM116.392 47.016L114.604 46.8L117.328 42.6H119.38L116.392 47.016Z" fill="#101010"/>
<path d="M124.515 51V42.6H126.447V48.072L130.455 42.6H132.279V51H130.359V45.54L126.351 51H124.515Z" fill="#101010"/>
<path d="M151.617 50.136V44.184H148.737L148.701 45.408C148.677 45.928 148.641 46.42 148.593 46.884C148.553 47.348 148.489 47.772 148.401 48.156C148.313 48.532 148.197 48.852 148.053 49.116C147.917 49.38 147.745 49.568 147.537 49.68L145.461 49.416C145.749 49.424 145.985 49.324 146.169 49.116C146.361 48.908 146.513 48.616 146.625 48.24C146.737 47.856 146.817 47.408 146.865 46.896C146.921 46.384 146.961 45.828 146.985 45.228L147.081 42.6H153.537V50.136H151.617ZM145.185 52.74L145.197 49.416H154.713V52.74H152.913V51H146.985V52.74H145.185Z" fill="#101010"/>
<path d="M160.245 51.132C160.101 51.132 159.95 51.12 159.79 51.096C159.638 51.072 159.469 51.04 159.285 51L159.406 49.356C159.518 49.388 159.633 49.404 159.753 49.404C160.081 49.404 160.337 49.272 160.521 49.008C160.705 48.736 160.837 48.348 160.917 47.844C160.997 47.34 161.05 46.728 161.074 46.008L161.193 42.6H167.65V51H165.729V43.74L166.173 44.184H162.465L162.861 43.716L162.79 45.936C162.766 46.76 162.71 47.492 162.622 48.132C162.534 48.772 162.398 49.316 162.214 49.764C162.03 50.212 161.778 50.552 161.458 50.784C161.138 51.016 160.733 51.132 160.245 51.132Z" fill="#101010"/>
<path d="M178.675 51V48.348L179.155 48.768H176.851C176.123 48.768 175.495 48.648 174.967 48.408C174.439 48.168 174.035 47.82 173.755 47.364C173.475 46.908 173.335 46.364 173.335 45.732C173.335 45.076 173.483 44.516 173.779 44.052C174.083 43.58 174.507 43.22 175.051 42.972C175.595 42.724 176.235 42.6 176.971 42.6H180.595V51H178.675ZM173.359 51L175.447 47.988H177.415L175.411 51H173.359ZM178.675 47.724V43.68L179.155 44.184H177.019C176.467 44.184 176.043 44.312 175.747 44.568C175.459 44.824 175.315 45.204 175.315 45.708C175.315 46.196 175.455 46.572 175.735 46.836C176.015 47.1 176.427 47.232 176.971 47.232H179.155L178.675 47.724Z" fill="#101010"/>
<path d="M194.378 51V42.6H196.31V48.072L200.318 42.6H202.142V51H200.222V45.54L196.214 51H194.378Z" fill="#101010"/>
<path d="M214.134 42.6H216.078V51H214.134V42.6ZM210.318 51H208.374V42.6H210.318V51ZM214.278 47.556H210.174V45.912H214.278V47.556Z" fill="#101010"/>
<path d="M222.322 51V42.6H226.234C227.21 42.6 227.97 42.788 228.514 43.164C229.058 43.54 229.33 44.076 229.33 44.772C229.33 45.46 229.074 45.996 228.562 46.38C228.05 46.756 227.37 46.944 226.522 46.944L226.75 46.44C227.694 46.44 228.426 46.628 228.946 47.004C229.466 47.38 229.726 47.924 229.726 48.636C229.726 49.372 229.446 49.952 228.886 50.376C228.334 50.792 227.526 51 226.462 51H222.322ZM224.254 49.56H226.39C226.838 49.56 227.178 49.472 227.41 49.296C227.642 49.12 227.758 48.848 227.758 48.48C227.758 48.128 227.642 47.868 227.41 47.7C227.178 47.524 226.838 47.436 226.39 47.436H224.254V49.56ZM224.254 46.08H226.066C226.49 46.08 226.81 45.996 227.026 45.828C227.242 45.652 227.35 45.396 227.35 45.06C227.35 44.724 227.242 44.472 227.026 44.304C226.81 44.128 226.49 44.04 226.066 44.04H224.254V46.08Z" fill="#101010"/>
<path d="M234.456 51L238.2 42.6H240.12L243.876 51H241.836L238.764 43.584H239.532L236.448 51H234.456ZM236.328 49.2L236.844 47.724H241.164L241.692 49.2H236.328Z" fill="#101010"/>
<path d="M249.261 51.132C249.117 51.132 248.965 51.12 248.805 51.096C248.653 51.072 248.485 51.04 248.301 51L248.421 49.356C248.533 49.388 248.649 49.404 248.769 49.404C249.097 49.404 249.353 49.272 249.537 49.008C249.721 48.736 249.853 48.348 249.933 47.844C250.013 47.34 250.065 46.728 250.089 46.008L250.209 42.6H256.665V51H254.745V43.74L255.189 44.184H251.481L251.877 43.716L251.805 45.936C251.781 46.76 251.725 47.492 251.637 48.132C251.549 48.772 251.413 49.316 251.229 49.764C251.045 50.212 250.793 50.552 250.473 50.784C250.153 51.016 249.749 51.132 249.261 51.132Z" fill="#101010"/>
<path d="M262.903 51V42.6H264.835V48.072L268.843 42.6H270.667V51H268.747V45.54L264.739 51H262.903Z" fill="#101010"/>
<path d="M282.407 50.136V44.184H279.527L279.491 45.408C279.467 45.928 279.431 46.42 279.383 46.884C279.343 47.348 279.279 47.772 279.191 48.156C279.103 48.532 278.987 48.852 278.843 49.116C278.707 49.38 278.535 49.568 278.327 49.68L276.251 49.416C276.539 49.424 276.775 49.324 276.959 49.116C277.151 48.908 277.303 48.616 277.415 48.24C277.527 47.856 277.607 47.408 277.655 46.896C277.711 46.384 277.751 45.828 277.775 45.228L277.871 42.6H284.327V50.136H282.407ZM275.975 52.74L275.987 49.416H285.503V52.74H283.703V51H277.775V52.74H275.975Z" fill="#101010"/>
<path d="M294.972 51.144C294.308 51.144 293.692 51.036 293.124 50.82C292.564 50.604 292.076 50.3 291.66 49.908C291.252 49.516 290.932 49.056 290.7 48.528C290.476 48 290.364 47.424 290.364 46.8C290.364 46.176 290.476 45.6 290.7 45.072C290.932 44.544 291.256 44.084 291.672 43.692C292.088 43.3 292.576 42.996 293.136 42.78C293.696 42.564 294.304 42.456 294.96 42.456C295.624 42.456 296.232 42.564 296.784 42.78C297.344 42.996 297.828 43.3 298.236 43.692C298.652 44.084 298.976 44.544 299.208 45.072C299.44 45.592 299.556 46.168 299.556 46.8C299.556 47.424 299.44 48.004 299.208 48.54C298.976 49.068 298.652 49.528 298.236 49.92C297.828 50.304 297.344 50.604 296.784 50.82C296.232 51.036 295.628 51.144 294.972 51.144ZM294.96 49.488C295.336 49.488 295.68 49.424 295.992 49.296C296.312 49.168 296.592 48.984 296.832 48.744C297.072 48.504 297.256 48.22 297.384 47.892C297.52 47.564 297.588 47.2 297.588 46.8C297.588 46.4 297.52 46.036 297.384 45.708C297.256 45.38 297.072 45.096 296.832 44.856C296.6 44.616 296.324 44.432 296.004 44.304C295.684 44.176 295.336 44.112 294.96 44.112C294.584 44.112 294.236 44.176 293.916 44.304C293.604 44.432 293.328 44.616 293.088 44.856C292.848 45.096 292.66 45.38 292.524 45.708C292.396 46.036 292.332 46.4 292.332 46.8C292.332 47.192 292.396 47.556 292.524 47.892C292.66 48.22 292.844 48.504 293.076 48.744C293.316 48.984 293.596 49.168 293.916 49.296C294.236 49.424 294.584 49.488 294.96 49.488Z" fill="#101010"/>
<path d="M305.194 51V42.6H309.106C310.082 42.6 310.842 42.788 311.386 43.164C311.93 43.54 312.202 44.076 312.202 44.772C312.202 45.46 311.946 45.996 311.434 46.38C310.922 46.756 310.242 46.944 309.394 46.944L309.622 46.44C310.566 46.44 311.298 46.628 311.818 47.004C312.338 47.38 312.598 47.924 312.598 48.636C312.598 49.372 312.318 49.952 311.758 50.376C311.206 50.792 310.398 51 309.334 51H305.194ZM307.126 49.56H309.262C309.71 49.56 310.05 49.472 310.282 49.296C310.514 49.12 310.63 48.848 310.63 48.48C310.63 48.128 310.514 47.868 310.282 47.7C310.05 47.524 309.71 47.436 309.262 47.436H307.126V49.56ZM307.126 46.08H308.938C309.362 46.08 309.682 45.996 309.898 45.828C310.114 45.652 310.222 45.396 310.222 45.06C310.222 44.724 310.114 44.472 309.898 44.304C309.682 44.128 309.362 44.04 308.938 44.04H307.126V46.08Z" fill="#101010"/>
</svg>
