<svg width="275" height="45" fill="none" xmlns="http://www.w3.org/2000/svg"><path d="M31.084 16.388H7.756v3.384H32.02V26H.7V.8h31.248v6.228H7.756v3.348h23.328v6.012zM59.235.8L75.075 26h-8.28l-2.844-4.68H47.175L44.367 26h-8.28L51.927.8h7.308zm-3.672 6.588l-5.076 8.424H60.64l-5.076-8.424zM104.579 26H79.235v-6.228h25.092c.24 0 .432-.072.576-.216a.72.72 0 00.252-.576v-1.8a.72.72 0 00-.252-.576c-.144-.144-.336-.216-.576-.216H85.751c-2.424 0-4.308-.576-5.652-1.728-1.32-1.152-1.98-2.772-1.98-4.86V7.424c0-2.088.672-3.708 2.016-4.86C81.479 1.388 83.35.8 85.75.8h24.444v6.228H86.003a.908.908 0 00-.612.216c-.144.144-.216.336-.216.576v1.764c0 .24.072.432.216.576a.908.908 0 00.612.216h18.576c2.4 0 4.272.588 5.616 1.764 1.344 1.152 2.016 2.76 2.016 4.824v2.484c0 2.064-.672 3.672-2.016 4.824-1.344 1.152-3.216 1.728-5.616 1.728zM115.052.8h9.036l9.936 11.232L143.96.8h9.036l-15.444 16.848V26h-7.056v-8.352L115.052.8zm90.949 0L193.077 26h-4.932l-7.416-15.876L173.313 26h-4.932L155.457.8h8.28l6.984 15.3L177.669.8h6.12l6.948 15.3L197.721.8h8.28zm20.148 0l15.84 25.2h-8.28l-2.844-4.68h-16.776L211.281 26h-8.28L218.841.8h7.308zm-3.672 6.588l-5.076 8.424h10.152l-5.076-8.424zM236.388.8h9.036l9.936 11.232L265.296.8h9.036l-15.444 16.848V26h-7.056v-8.352L236.388.8zM.9 43v-8.4h7.884V43H6.432v-7.044l.528.528H2.724l.516-.528V43H.9zm16.148.168a5.191 5.191 0 01-1.86-.324 4.548 4.548 0 01-1.488-.912c-.416-.4-.74-.864-.972-1.392a4.278 4.278 0 01-.348-1.74c0-.632.116-1.212.348-1.74.232-.528.556-.988.972-1.38.424-.4.92-.708 1.488-.924a5.191 5.191 0 011.86-.324c.68 0 1.3.108 1.86.324.568.216 1.06.524 1.476.924.416.392.74.852.972 1.38.24.528.36 1.108.36 1.74 0 .632-.12 1.216-.36 1.752a4.195 4.195 0 01-.972 1.38 4.412 4.412 0 01-1.476.912 5.13 5.13 0 01-1.86.324zm0-1.968c.32 0 .616-.056.888-.168.28-.112.52-.272.72-.48.208-.216.368-.472.48-.768.12-.296.18-.624.18-.984 0-.368-.06-.696-.18-.984a2.108 2.108 0 00-.48-.756 1.96 1.96 0 00-.72-.492 2.31 2.31 0 00-.888-.168 2.4 2.4 0 00-.9.168 2.101 2.101 0 00-.72.492c-.2.208-.36.46-.48.756a2.7 2.7 0 00-.168.984c0 .36.056.688.168.984.12.296.28.552.48.768.208.208.448.368.72.48.28.112.58.168.9.168zm13.588.768v-5.484h-2.412l-.036.912c-.016.488-.048.944-.096 1.368-.04.424-.1.812-.18 1.164a3.697 3.697 0 01-.3.912 1.58 1.58 0 01-.444.576l-2.532-.3a.85.85 0 00.684-.276c.184-.2.328-.476.432-.828.112-.352.192-.768.24-1.248.056-.48.096-1.004.12-1.572l.096-2.592h6.768v7.368h-2.34zm-6.252 2.724v-3.576h9.732v3.576h-2.172V43h-5.376v1.692h-2.184zm18.666-7.416c1.015 0 1.803.228 2.363.684.568.456.852 1.14.852 2.052 0 .984-.316 1.728-.948 2.232-.632.504-1.496.756-2.592.756h-3.972v-6.516h-2.268V34.6h4.608v2.676h1.956zm-.48 4.02c.4 0 .715-.108.947-.324.24-.216.36-.52.36-.912 0-.4-.12-.68-.36-.84-.232-.168-.548-.252-.948-.252h-1.476v2.328h1.476zM49.81 43v-8.4h1.957l3.468 5.712h-1.032l3.396-5.712h1.956l.024 8.4h-2.196l-.012-5.076h.372l-2.532 4.248h-1.056l-2.604-4.248h.444V43H49.81zm16.08-5.148h3.9v1.776h-3.9v-1.776zm.168 3.312h4.391V43h-6.743v-8.4h6.587v1.836h-4.236v4.728zM79.76 34.6h2.375V43H79.76v-8.4zM76.52 43h-2.377v-8.4h2.376V43zm3.407-3.276h-3.576v-1.968h3.576v1.968zM86.28 43v-8.4h2.34v4.932l3.468-4.932h2.232V43h-2.34v-4.92L88.524 43H86.28zm17.488 0l-2.364-3.996 1.908-1.128L106.444 43h-2.676zm-5.352 0v-8.4h2.364V43h-2.364zm1.68-3.216v-1.92h3.048v1.92h-3.048zm3.444-.732l-2.196-.24 2.58-4.212h2.496l-2.88 4.452zM109.546 43v-8.4h2.34v4.932l3.468-4.932h2.232V43h-2.34v-4.92L111.79 43h-2.244zm23.56-1.032v-5.484h-2.412l-.036.912c-.016.488-.048.944-.096 1.368-.04.424-.1.812-.18 1.164a3.697 3.697 0 01-.3.912 1.58 1.58 0 01-.444.576l-2.532-.3a.85.85 0 00.684-.276c.184-.2.328-.476.432-.828.112-.352.192-.768.24-1.248.056-.48.096-1.004.12-1.572l.096-2.592h6.768v7.368h-2.34zm-6.252 2.724v-3.576h9.732v3.576h-2.172V43h-5.376v1.692h-2.184zm13.556-1.548c-.16 0-.332-.012-.516-.036a5.763 5.763 0 01-.564-.108l.132-1.944c.112.024.22.036.324.036.328 0 .576-.128.744-.384.168-.264.284-.632.348-1.104a13.37 13.37 0 00.132-1.656l.12-3.348h6.768V43h-2.34v-7.044l.516.528h-3.396l.48-.552-.06 1.92c-.024.816-.08 1.552-.168 2.208-.088.648-.228 1.204-.42 1.668-.192.456-.46.808-.804 1.056-.336.24-.768.36-1.296.36zM156.727 43v-2.604l.564.492h-2.124c-.752 0-1.4-.124-1.944-.372s-.964-.604-1.26-1.068c-.288-.464-.432-1.016-.432-1.656 0-.664.152-1.232.456-1.704a3.01 3.01 0 011.308-1.104c.568-.256 1.232-.384 1.992-.384h3.78V43h-2.34zm-5.172 0l2.1-3.036h2.388L154.051 43h-2.496zm5.172-3.36v-3.756l.564.588h-1.956c-.464 0-.816.108-1.056.324-.232.208-.348.528-.348.96 0 .424.116.748.348.972.24.216.584.324 1.032.324h1.98l-.564.588zM169.043 43v-8.4h2.34v4.932l3.468-4.932h2.232V43h-2.34v-4.92L171.287 43h-2.244zm17.8-8.4h2.376V43h-2.376v-8.4zm-3.24 8.4h-2.376v-8.4h2.376V43zm3.408-3.276h-3.576v-1.968h3.576v1.968zM193.364 43v-8.4h4.08c1.008 0 1.788.192 2.34.576.56.376.84.912.84 1.608 0 .68-.26 1.216-.78 1.608-.52.384-1.216.576-2.088.576l.24-.564c.944 0 1.68.188 2.208.564.536.368.804.912.804 1.632 0 .736-.288 1.32-.864 1.752-.568.432-1.392.648-2.472.648h-4.308zm2.34-1.704h1.872c.344 0 .6-.072.768-.216.176-.152.264-.372.264-.66 0-.288-.088-.5-.264-.636-.168-.144-.424-.216-.768-.216h-1.872v1.728zm0-3.336h1.512c.336 0 .588-.068.756-.204.168-.144.252-.352.252-.624s-.084-.476-.252-.612c-.168-.144-.42-.216-.756-.216h-1.512v1.656zm8.089 5.04l3.708-8.4h2.34l3.72 8.4h-2.472l-2.904-7.236h.936L206.217 43h-2.424zm2.028-1.632l.612-1.752h4.104l.612 1.752h-5.328zm11.473 1.776c-.16 0-.332-.012-.516-.036a5.763 5.763 0 01-.564-.108l.132-1.944c.112.024.22.036.324.036.328 0 .576-.128.744-.384.168-.264.284-.632.348-1.104a13.37 13.37 0 00.132-1.656l.12-3.348h6.768V43h-2.34v-7.044l.516.528h-3.396l.48-.552-.06 1.92c-.024.816-.08 1.552-.168 2.208-.088.648-.228 1.204-.42 1.668-.192.456-.46.808-.804 1.056-.336.24-.768.36-1.296.36zM228.919 43v-8.4h2.34v4.932l3.468-4.932h2.232V43h-2.34v-4.92L231.163 43h-2.244zm17.704-1.032v-5.484h-2.412l-.036.912c-.016.488-.048.944-.096 1.368-.04.424-.1.812-.18 1.164a3.697 3.697 0 01-.3.912 1.58 1.58 0 01-.444.576l-2.532-.3a.85.85 0 00.684-.276c.184-.2.328-.476.432-.828.112-.352.192-.768.24-1.248.056-.48.096-1.004.12-1.572l.096-2.592h6.768v7.368h-2.34zm-6.252 2.724v-3.576h9.732v3.576h-2.172V43h-5.376v1.692h-2.184zm17.336-1.524a5.191 5.191 0 01-1.86-.324 4.548 4.548 0 01-1.488-.912c-.416-.4-.74-.864-.972-1.392a4.278 4.278 0 01-.348-1.74c0-.632.116-1.212.348-1.74.232-.528.556-.988.972-1.38.424-.4.92-.708 1.488-.924a5.191 5.191 0 011.86-.324c.68 0 1.3.108 1.86.324.568.216 1.06.524 1.476.924.416.392.74.852.972 1.38.24.528.36 1.108.36 1.74 0 .632-.12 1.216-.36 1.752a4.195 4.195 0 01-.972 1.38 4.412 4.412 0 01-1.476.912 5.13 5.13 0 01-1.86.324zm0-1.968c.32 0 .616-.056.888-.168.28-.112.52-.272.72-.48.208-.216.368-.472.48-.768.12-.296.18-.624.18-.984 0-.368-.06-.696-.18-.984a2.108 2.108 0 00-.48-.756 1.96 1.96 0 00-.72-.492 2.31 2.31 0 00-.888-.168 2.4 2.4 0 00-.9.168 2.101 2.101 0 00-.72.492c-.2.208-.36.46-.48.756a2.7 2.7 0 00-.168.984c0 .36.056.688.168.984.12.296.28.552.48.768.208.208.448.368.72.48.28.112.58.168.9.168zm8.279 1.8v-8.4h4.08c1.008 0 1.788.192 2.34.576.56.376.84.912.84 1.608 0 .68-.26 1.216-.78 1.608-.52.384-1.216.576-2.088.576l.24-.564c.944 0 1.68.188 2.208.564.536.368.804.912.804 1.632 0 .736-.288 1.32-.864 1.752-.568.432-1.392.648-2.472.648h-4.308zm2.34-1.704h1.872c.344 0 .6-.072.768-.216.176-.152.264-.372.264-.66 0-.288-.088-.5-.264-.636-.168-.144-.424-.216-.768-.216h-1.872v1.728zm0-3.336h1.512c.336 0 .588-.068.756-.204.168-.144.252-.352.252-.624s-.084-.476-.252-.612c-.168-.144-.42-.216-.756-.216h-1.512v1.656z" fill="#101010"/></svg>