<svg width="275" height="45" viewBox="0 0 275 45" fill="none" xmlns="http://www.w3.org/2000/svg">
<path d="M31.084 16.388H7.756V19.772H32.02V26H0.699997V0.800003H31.948V7.028H7.756V10.376H31.084V16.388Z" fill="#101010"/>
<path d="M59.2352 0.800003L75.0752 26H66.7952L63.9512 21.32H47.1752L44.3672 26H36.0872L51.9272 0.800003H59.2352ZM55.5632 7.388L50.4872 15.812H60.6392L55.5632 7.388Z" fill="#101010"/>
<path d="M104.579 26H79.2348V19.772H104.327C104.567 19.772 104.759 19.7 104.903 19.556C105.071 19.412 105.155 19.22 105.155 18.98V17.18C105.155 16.94 105.071 16.748 104.903 16.604C104.759 16.46 104.567 16.388 104.327 16.388H85.7508C83.3268 16.388 81.4428 15.812 80.0988 14.66C78.7788 13.508 78.1188 11.888 78.1188 9.8V7.424C78.1188 5.336 78.7908 3.716 80.1348 2.564C81.4788 1.388 83.3508 0.800003 85.7508 0.800003H110.195V7.028H86.0028C85.7628 7.028 85.5588 7.1 85.3908 7.244C85.2468 7.388 85.1748 7.58 85.1748 7.82V9.584C85.1748 9.824 85.2468 10.016 85.3908 10.16C85.5588 10.304 85.7628 10.376 86.0028 10.376H104.579C106.979 10.376 108.851 10.964 110.195 12.14C111.539 13.292 112.211 14.9 112.211 16.964V19.448C112.211 21.512 111.539 23.12 110.195 24.272C108.851 25.424 106.979 26 104.579 26Z" fill="#101010"/>
<path d="M115.052 0.800003H124.088L134.024 12.032L143.96 0.800003H152.996L137.552 17.648V26H130.496V17.648L115.052 0.800003Z" fill="#101010"/>
<path d="M206.001 0.800003L193.077 26H188.145L180.729 10.124L173.313 26H168.381L155.457 0.800003H163.737L170.721 16.1L177.669 0.800003H183.789L190.737 16.1L197.721 0.800003H206.001Z" fill="#101010"/>
<path d="M226.149 0.800003L241.989 26H233.709L230.865 21.32H214.089L211.281 26H203.001L218.841 0.800003H226.149ZM222.477 7.388L217.401 15.812H227.553L222.477 7.388Z" fill="#101010"/>
<path d="M236.388 0.800003H245.424L255.36 12.032L265.296 0.800003H274.332L258.888 17.648V26H251.832V17.648L236.388 0.800003Z" fill="#101010"/>
<path d="M0.899997 43V34.6H8.784V43H6.432V35.956L6.96 36.484H2.724L3.24 35.956V43H0.899997Z" fill="#101010"/>
<path d="M17.0477 43.168C16.3757 43.168 15.7557 43.06 15.1877 42.844C14.6197 42.628 14.1237 42.324 13.6997 41.932C13.2837 41.532 12.9597 41.068 12.7277 40.54C12.4957 40.012 12.3797 39.432 12.3797 38.8C12.3797 38.168 12.4957 37.588 12.7277 37.06C12.9597 36.532 13.2837 36.072 13.6997 35.68C14.1237 35.28 14.6197 34.972 15.1877 34.756C15.7557 34.54 16.3757 34.432 17.0477 34.432C17.7277 34.432 18.3477 34.54 18.9077 34.756C19.4757 34.972 19.9677 35.28 20.3837 35.68C20.7997 36.072 21.1237 36.532 21.3557 37.06C21.5957 37.588 21.7157 38.168 21.7157 38.8C21.7157 39.432 21.5957 40.016 21.3557 40.552C21.1237 41.08 20.7997 41.54 20.3837 41.932C19.9677 42.324 19.4757 42.628 18.9077 42.844C18.3477 43.06 17.7277 43.168 17.0477 43.168ZM17.0477 41.2C17.3677 41.2 17.6637 41.144 17.9357 41.032C18.2157 40.92 18.4557 40.76 18.6557 40.552C18.8637 40.336 19.0237 40.08 19.1357 39.784C19.2557 39.488 19.3157 39.16 19.3157 38.8C19.3157 38.432 19.2557 38.104 19.1357 37.816C19.0237 37.52 18.8637 37.268 18.6557 37.06C18.4557 36.844 18.2157 36.68 17.9357 36.568C17.6637 36.456 17.3677 36.4 17.0477 36.4C16.7277 36.4 16.4277 36.456 16.1477 36.568C15.8757 36.68 15.6357 36.844 15.4277 37.06C15.2277 37.268 15.0677 37.52 14.9477 37.816C14.8357 38.104 14.7797 38.432 14.7797 38.8C14.7797 39.16 14.8357 39.488 14.9477 39.784C15.0677 40.08 15.2277 40.336 15.4277 40.552C15.6357 40.76 15.8757 40.92 16.1477 41.032C16.4277 41.144 16.7277 41.2 17.0477 41.2Z" fill="#101010"/>
<path d="M30.6357 41.968V36.484H28.2237L28.1877 37.396C28.1717 37.884 28.1397 38.34 28.0917 38.764C28.0517 39.188 27.9917 39.576 27.9117 39.928C27.8397 40.28 27.7397 40.584 27.6117 40.84C27.4917 41.088 27.3437 41.28 27.1677 41.416L24.6357 41.116C24.9157 41.124 25.1437 41.032 25.3197 40.84C25.5037 40.64 25.6477 40.364 25.7517 40.012C25.8637 39.66 25.9437 39.244 25.9917 38.764C26.0477 38.284 26.0877 37.76 26.1117 37.192L26.2077 34.6H32.9757V41.968H30.6357ZM24.3837 44.692V41.116H34.1157V44.692H31.9437V43H26.5677V44.692H24.3837Z" fill="#101010"/>
<path d="M43.0492 37.276C44.0652 37.276 44.8532 37.504 45.4132 37.96C45.9812 38.416 46.2652 39.1 46.2652 40.012C46.2652 40.996 45.9492 41.74 45.3172 42.244C44.6852 42.748 43.8212 43 42.7252 43H38.7532V36.484H36.4852V34.6H41.0932V37.276H43.0492ZM42.5692 41.296C42.9692 41.296 43.2852 41.188 43.5172 40.972C43.7572 40.756 43.8772 40.452 43.8772 40.06C43.8772 39.66 43.7572 39.38 43.5172 39.22C43.2852 39.052 42.9692 38.968 42.5692 38.968H41.0932V41.296H42.5692Z" fill="#101010"/>
<path d="M49.8108 43V34.6H51.7668L55.2348 40.312H54.2028L57.5988 34.6H59.5548L59.5788 43H57.3828L57.3708 37.924H57.7428L55.2108 42.172H54.1548L51.5508 37.924H51.9948V43H49.8108Z" fill="#101010"/>
<path d="M65.8895 37.852H69.7895V39.628H65.8895V37.852ZM66.0575 41.164H70.4495V43H63.7055V34.6H70.2935V36.436H66.0575V41.164Z" fill="#101010"/>
<path d="M79.7591 34.6H82.1351V43H79.7591V34.6ZM76.5191 43H74.1431V34.6H76.5191V43ZM79.9271 39.724H76.3511V37.756H79.9271V39.724Z" fill="#101010"/>
<path d="M86.28 43V34.6H88.62V39.532L92.088 34.6H94.32V43H91.98V38.08L88.524 43H86.28Z" fill="#101010"/>
<path d="M103.768 43L101.404 39.004L103.312 37.876L106.444 43H103.768ZM98.4157 43V34.6H100.78V43H98.4157ZM100.096 39.784V37.864H103.144V39.784H100.096ZM103.54 39.052L101.344 38.812L103.924 34.6H106.42L103.54 39.052Z" fill="#101010"/>
<path d="M109.546 43V34.6H111.886V39.532L115.354 34.6H117.586V43H115.246V38.08L111.79 43H109.546Z" fill="#101010"/>
<path d="M133.106 41.968V36.484H130.694L130.658 37.396C130.642 37.884 130.61 38.34 130.562 38.764C130.522 39.188 130.462 39.576 130.382 39.928C130.31 40.28 130.21 40.584 130.082 40.84C129.962 41.088 129.814 41.28 129.638 41.416L127.106 41.116C127.386 41.124 127.614 41.032 127.79 40.84C127.974 40.64 128.118 40.364 128.222 40.012C128.334 39.66 128.414 39.244 128.462 38.764C128.518 38.284 128.558 37.76 128.582 37.192L128.678 34.6H135.446V41.968H133.106ZM126.854 44.692V41.116H136.586V44.692H134.414V43H129.038V44.692H126.854Z" fill="#101010"/>
<path d="M140.41 43.144C140.25 43.144 140.078 43.132 139.894 43.108C139.718 43.084 139.53 43.048 139.33 43L139.462 41.056C139.574 41.08 139.682 41.092 139.786 41.092C140.114 41.092 140.362 40.964 140.53 40.708C140.698 40.444 140.814 40.076 140.878 39.604C140.95 39.132 140.994 38.58 141.01 37.948L141.13 34.6H147.898V43H145.558V35.956L146.074 36.484H142.678L143.158 35.932L143.098 37.852C143.074 38.668 143.018 39.404 142.93 40.06C142.842 40.708 142.702 41.264 142.51 41.728C142.318 42.184 142.05 42.536 141.706 42.784C141.37 43.024 140.938 43.144 140.41 43.144Z" fill="#101010"/>
<path d="M156.727 43V40.396L157.291 40.888H155.167C154.415 40.888 153.767 40.764 153.223 40.516C152.679 40.268 152.259 39.912 151.963 39.448C151.675 38.984 151.531 38.432 151.531 37.792C151.531 37.128 151.683 36.56 151.987 36.088C152.299 35.608 152.735 35.24 153.295 34.984C153.863 34.728 154.527 34.6 155.287 34.6H159.067V43H156.727ZM151.555 43L153.655 39.964H156.043L154.051 43H151.555ZM156.727 39.64V35.884L157.291 36.472H155.335C154.871 36.472 154.519 36.58 154.279 36.796C154.047 37.004 153.931 37.324 153.931 37.756C153.931 38.18 154.047 38.504 154.279 38.728C154.519 38.944 154.863 39.052 155.311 39.052H157.291L156.727 39.64Z" fill="#101010"/>
<path d="M169.043 43V34.6H171.383V39.532L174.851 34.6H177.083V43H174.743V38.08L171.287 43H169.043Z" fill="#101010"/>
<path d="M186.843 34.6H189.219V43H186.843V34.6ZM183.603 43H181.227V34.6H183.603V43ZM187.011 39.724H183.435V37.756H187.011V39.724Z" fill="#101010"/>
<path d="M193.364 43V34.6H197.444C198.452 34.6 199.232 34.792 199.784 35.176C200.344 35.552 200.624 36.088 200.624 36.784C200.624 37.464 200.364 38 199.844 38.392C199.324 38.776 198.628 38.968 197.756 38.968L197.996 38.404C198.94 38.404 199.676 38.592 200.204 38.968C200.74 39.336 201.008 39.88 201.008 40.6C201.008 41.336 200.72 41.92 200.144 42.352C199.576 42.784 198.752 43 197.672 43H193.364ZM195.704 41.296H197.576C197.92 41.296 198.176 41.224 198.344 41.08C198.52 40.928 198.608 40.708 198.608 40.42C198.608 40.132 198.52 39.92 198.344 39.784C198.176 39.64 197.92 39.568 197.576 39.568H195.704V41.296ZM195.704 37.96H197.216C197.552 37.96 197.804 37.892 197.972 37.756C198.14 37.612 198.224 37.404 198.224 37.132C198.224 36.86 198.14 36.656 197.972 36.52C197.804 36.376 197.552 36.304 197.216 36.304H195.704V37.96Z" fill="#101010"/>
<path d="M203.793 43L207.501 34.6H209.841L213.561 43H211.089L208.185 35.764H209.121L206.217 43H203.793ZM205.821 41.368L206.433 39.616H210.537L211.149 41.368H205.821Z" fill="#101010"/>
<path d="M217.294 43.144C217.134 43.144 216.962 43.132 216.778 43.108C216.602 43.084 216.414 43.048 216.214 43L216.346 41.056C216.458 41.08 216.566 41.092 216.67 41.092C216.998 41.092 217.246 40.964 217.414 40.708C217.582 40.444 217.698 40.076 217.762 39.604C217.834 39.132 217.878 38.58 217.894 37.948L218.014 34.6H224.782V43H222.442V35.956L222.958 36.484H219.562L220.042 35.932L219.982 37.852C219.958 38.668 219.902 39.404 219.814 40.06C219.726 40.708 219.586 41.264 219.394 41.728C219.202 42.184 218.934 42.536 218.59 42.784C218.254 43.024 217.822 43.144 217.294 43.144Z" fill="#101010"/>
<path d="M228.919 43V34.6H231.259V39.532L234.727 34.6H236.959V43H234.619V38.08L231.163 43H228.919Z" fill="#101010"/>
<path d="M246.623 41.968V36.484H244.211L244.175 37.396C244.159 37.884 244.127 38.34 244.079 38.764C244.039 39.188 243.979 39.576 243.899 39.928C243.827 40.28 243.727 40.584 243.599 40.84C243.479 41.088 243.331 41.28 243.155 41.416L240.623 41.116C240.903 41.124 241.131 41.032 241.307 40.84C241.491 40.64 241.635 40.364 241.739 40.012C241.851 39.66 241.931 39.244 241.979 38.764C242.035 38.284 242.075 37.76 242.099 37.192L242.195 34.6H248.963V41.968H246.623ZM240.371 44.692V41.116H250.103V44.692H247.931V43H242.555V44.692H240.371Z" fill="#101010"/>
<path d="M257.707 43.168C257.035 43.168 256.415 43.06 255.847 42.844C255.279 42.628 254.783 42.324 254.359 41.932C253.943 41.532 253.619 41.068 253.387 40.54C253.155 40.012 253.039 39.432 253.039 38.8C253.039 38.168 253.155 37.588 253.387 37.06C253.619 36.532 253.943 36.072 254.359 35.68C254.783 35.28 255.279 34.972 255.847 34.756C256.415 34.54 257.035 34.432 257.707 34.432C258.387 34.432 259.007 34.54 259.567 34.756C260.135 34.972 260.627 35.28 261.043 35.68C261.459 36.072 261.783 36.532 262.015 37.06C262.255 37.588 262.375 38.168 262.375 38.8C262.375 39.432 262.255 40.016 262.015 40.552C261.783 41.08 261.459 41.54 261.043 41.932C260.627 42.324 260.135 42.628 259.567 42.844C259.007 43.06 258.387 43.168 257.707 43.168ZM257.707 41.2C258.027 41.2 258.323 41.144 258.595 41.032C258.875 40.92 259.115 40.76 259.315 40.552C259.523 40.336 259.683 40.08 259.795 39.784C259.915 39.488 259.975 39.16 259.975 38.8C259.975 38.432 259.915 38.104 259.795 37.816C259.683 37.52 259.523 37.268 259.315 37.06C259.115 36.844 258.875 36.68 258.595 36.568C258.323 36.456 258.027 36.4 257.707 36.4C257.387 36.4 257.087 36.456 256.807 36.568C256.535 36.68 256.295 36.844 256.087 37.06C255.887 37.268 255.727 37.52 255.607 37.816C255.495 38.104 255.439 38.432 255.439 38.8C255.439 39.16 255.495 39.488 255.607 39.784C255.727 40.08 255.887 40.336 256.087 40.552C256.295 40.76 256.535 40.92 256.807 41.032C257.087 41.144 257.387 41.2 257.707 41.2Z" fill="#101010"/>
<path d="M265.986 43V34.6H270.066C271.074 34.6 271.854 34.792 272.406 35.176C272.966 35.552 273.246 36.088 273.246 36.784C273.246 37.464 272.986 38 272.466 38.392C271.946 38.776 271.25 38.968 270.378 38.968L270.618 38.404C271.562 38.404 272.298 38.592 272.826 38.968C273.362 39.336 273.63 39.88 273.63 40.6C273.63 41.336 273.342 41.92 272.766 42.352C272.198 42.784 271.374 43 270.294 43H265.986ZM268.326 41.296H270.198C270.542 41.296 270.798 41.224 270.966 41.08C271.142 40.928 271.23 40.708 271.23 40.42C271.23 40.132 271.142 39.92 270.966 39.784C270.798 39.64 270.542 39.568 270.198 39.568H268.326V41.296ZM268.326 37.96H269.838C270.174 37.96 270.426 37.892 270.594 37.756C270.762 37.612 270.846 37.404 270.846 37.132C270.846 36.86 270.762 36.656 270.594 36.52C270.426 36.376 270.174 36.304 269.838 36.304H268.326V37.96Z" fill="#101010"/>
</svg>
