<svg width="277" height="58" viewBox="0 0 277 58" fill="none" xmlns="http://www.w3.org/2000/svg">
<path d="M33.084 28.388H9.756V31.772H34.02V38H2.7V12.8H33.948V19.028H9.756V22.376H33.084V28.388ZM61.2352 12.8L77.0752 38H68.7952L65.9512 33.32H49.1752L46.3672 38H38.0872L53.9272 12.8H61.2352ZM57.5632 19.388L52.4872 27.812H62.6392L57.5632 19.388ZM106.579 38H81.2348V31.772H106.327C106.567 31.772 106.759 31.7 106.903 31.556C107.071 31.412 107.155 31.22 107.155 30.98V29.18C107.155 28.94 107.071 28.748 106.903 28.604C106.759 28.46 106.567 28.388 106.327 28.388H87.7508C85.3268 28.388 83.4428 27.812 82.0988 26.66C80.7788 25.508 80.1188 23.888 80.1188 21.8V19.424C80.1188 17.336 80.7908 15.716 82.1348 14.564C83.4788 13.388 85.3508 12.8 87.7508 12.8H112.195V19.028H88.0028C87.7628 19.028 87.5588 19.1 87.3908 19.244C87.2468 19.388 87.1748 19.58 87.1748 19.82V21.584C87.1748 21.824 87.2468 22.016 87.3908 22.16C87.5588 22.304 87.7628 22.376 88.0028 22.376H106.579C108.979 22.376 110.851 22.964 112.195 24.14C113.539 25.292 114.211 26.9 114.211 28.964V31.448C114.211 33.512 113.539 35.12 112.195 36.272C110.851 37.424 108.979 38 106.579 38ZM117.052 12.8H126.088L136.024 24.032L145.96 12.8H154.996L139.552 29.648V38H132.496V29.648L117.052 12.8ZM208.001 12.8L195.077 38H190.145L182.729 22.124L175.313 38H170.381L157.457 12.8H165.737L172.721 28.1L179.669 12.8H185.789L192.737 28.1L199.721 12.8H208.001ZM228.149 12.8L243.989 38H235.709L232.865 33.32H216.089L213.281 38H205.001L220.841 12.8H228.149ZM224.477 19.388L219.401 27.812H229.553L224.477 19.388ZM238.388 12.8H247.424L257.36 24.032L267.296 12.8H276.332L260.888 29.648V38H253.832V29.648L238.388 12.8Z" fill="#101010"/>
<path d="M3.044 55V46.6H10.7V55H8.768V47.74L9.212 48.184H4.532L4.976 47.74V55H3.044ZM19.1423 55.144C18.4783 55.144 17.8623 55.036 17.2943 54.82C16.7343 54.604 16.2463 54.3 15.8303 53.908C15.4223 53.516 15.1023 53.056 14.8703 52.528C14.6463 52 14.5343 51.424 14.5343 50.8C14.5343 50.176 14.6463 49.6 14.8703 49.072C15.1023 48.544 15.4263 48.084 15.8423 47.692C16.2583 47.3 16.7463 46.996 17.3063 46.78C17.8663 46.564 18.4743 46.456 19.1303 46.456C19.7943 46.456 20.4023 46.564 20.9543 46.78C21.5143 46.996 21.9983 47.3 22.4063 47.692C22.8223 48.084 23.1463 48.544 23.3783 49.072C23.6103 49.592 23.7263 50.168 23.7263 50.8C23.7263 51.424 23.6103 52.004 23.3783 52.54C23.1463 53.068 22.8223 53.528 22.4063 53.92C21.9983 54.304 21.5143 54.604 20.9543 54.82C20.4023 55.036 19.7983 55.144 19.1423 55.144ZM19.1303 53.488C19.5063 53.488 19.8503 53.424 20.1623 53.296C20.4823 53.168 20.7623 52.984 21.0023 52.744C21.2423 52.504 21.4263 52.22 21.5543 51.892C21.6903 51.564 21.7583 51.2 21.7583 50.8C21.7583 50.4 21.6903 50.036 21.5543 49.708C21.4263 49.38 21.2423 49.096 21.0023 48.856C20.7703 48.616 20.4943 48.432 20.1743 48.304C19.8543 48.176 19.5063 48.112 19.1303 48.112C18.7543 48.112 18.4063 48.176 18.0863 48.304C17.7743 48.432 17.4983 48.616 17.2583 48.856C17.0183 49.096 16.8303 49.38 16.6943 49.708C16.5663 50.036 16.5023 50.4 16.5023 50.8C16.5023 51.192 16.5663 51.556 16.6943 51.892C16.8303 52.22 17.0143 52.504 17.2463 52.744C17.4863 52.984 17.7663 53.168 18.0863 53.296C18.4063 53.424 18.7543 53.488 19.1303 53.488ZM32.8975 54.136V48.184H30.0175L29.9815 49.408C29.9575 49.928 29.9215 50.42 29.8735 50.884C29.8335 51.348 29.7695 51.772 29.6815 52.156C29.5935 52.532 29.4775 52.852 29.3335 53.116C29.1975 53.38 29.0255 53.568 28.8175 53.68L26.7415 53.416C27.0295 53.424 27.2655 53.324 27.4495 53.116C27.6415 52.908 27.7935 52.616 27.9055 52.24C28.0175 51.856 28.0975 51.408 28.1455 50.896C28.2015 50.384 28.2415 49.828 28.2655 49.228L28.3615 46.6H34.8175V54.136H32.8975ZM26.4655 56.74L26.4775 53.416H35.9935V56.74H34.1935V55H28.2655V56.74H26.4655ZM44.8586 49.36C45.8666 49.36 46.6466 49.588 47.1986 50.044C47.7506 50.492 48.0266 51.168 48.0266 52.072C48.0266 53.032 47.7186 53.76 47.1026 54.256C46.4946 54.752 45.6506 55 44.5706 55H40.7906V48.184H38.4266V46.6H42.7106V49.36H44.8586ZM44.4626 53.56C44.9666 53.56 45.3586 53.436 45.6386 53.188C45.9266 52.94 46.0706 52.58 46.0706 52.108C46.0706 51.644 45.9266 51.312 45.6386 51.112C45.3586 50.904 44.9666 50.8 44.4626 50.8H42.7106V53.56H44.4626ZM53.5553 49.984H57.5993V51.496H53.5553V49.984ZM53.6993 53.44H58.2713V55H51.7673V46.6H58.1153V48.16H53.6993V53.44ZM62.1815 55V46.6H63.7895L67.3655 52.528H66.5135L70.0295 46.6H71.6375L71.6495 55H69.8255L69.8135 49.396H70.1615L67.3415 54.112H66.4775L63.5975 49.396H64.0055V55H62.1815ZM81.8362 46.6H83.7802V55H81.8362V46.6ZM78.0202 55H76.0762V46.6H78.0202V55ZM81.9802 51.556H77.8762V49.912H81.9802V51.556ZM88.2248 55V46.6H90.1568V52.072L94.1648 46.6H95.9888V55H94.0688V49.54L90.0608 55H88.2248ZM105.856 55L103.24 50.956L104.812 50.008L108.064 55H105.856ZM100.396 55V46.6H102.328V55H100.396ZM101.764 51.616V49.996H104.692V51.616H101.764ZM104.992 51.016L103.204 50.8L105.928 46.6H107.98L104.992 51.016ZM111.315 55V46.6H113.247V52.072L117.255 46.6H119.079V55H117.159V49.54L113.151 55H111.315ZM134.817 54.136V48.184H131.937L131.901 49.408C131.877 49.928 131.841 50.42 131.793 50.884C131.753 51.348 131.689 51.772 131.601 52.156C131.513 52.532 131.397 52.852 131.253 53.116C131.117 53.38 130.945 53.568 130.737 53.68L128.661 53.416C128.949 53.424 129.185 53.324 129.369 53.116C129.561 52.908 129.713 52.616 129.825 52.24C129.937 51.856 130.017 51.408 130.065 50.896C130.121 50.384 130.161 49.828 130.185 49.228L130.281 46.6H136.737V54.136H134.817ZM128.385 56.74L128.397 53.416H137.913V56.74H136.113V55H130.185V56.74H128.385ZM141.646 55.132C141.502 55.132 141.35 55.12 141.19 55.096C141.038 55.072 140.87 55.04 140.686 55L140.806 53.356C140.918 53.388 141.034 53.404 141.154 53.404C141.482 53.404 141.738 53.272 141.922 53.008C142.106 52.736 142.238 52.348 142.318 51.844C142.398 51.34 142.45 50.728 142.474 50.008L142.594 46.6H149.05V55H147.13V47.74L147.574 48.184H143.866L144.262 47.716L144.19 49.936C144.166 50.76 144.11 51.492 144.022 52.132C143.934 52.772 143.798 53.316 143.614 53.764C143.43 54.212 143.178 54.552 142.858 54.784C142.538 55.016 142.134 55.132 141.646 55.132ZM158.275 55V52.348L158.755 52.768H156.451C155.723 52.768 155.095 52.648 154.567 52.408C154.039 52.168 153.635 51.82 153.355 51.364C153.075 50.908 152.935 50.364 152.935 49.732C152.935 49.076 153.083 48.516 153.379 48.052C153.683 47.58 154.107 47.22 154.651 46.972C155.195 46.724 155.835 46.6 156.571 46.6H160.195V55H158.275ZM152.959 55L155.047 51.988H157.015L155.011 55H152.959ZM158.275 51.724V47.68L158.755 48.184H156.619C156.067 48.184 155.643 48.312 155.347 48.568C155.059 48.824 154.915 49.204 154.915 49.708C154.915 50.196 155.055 50.572 155.335 50.836C155.615 51.1 156.027 51.232 156.571 51.232H158.755L158.275 51.724ZM170.378 55V46.6H172.31V52.072L176.318 46.6H178.142V55H176.222V49.54L172.214 55H170.378ZM188.334 46.6H190.278V55H188.334V46.6ZM184.518 55H182.574V46.6H184.518V55ZM188.478 51.556H184.374V49.912H188.478V51.556ZM194.722 55V46.6H198.634C199.61 46.6 200.37 46.788 200.914 47.164C201.458 47.54 201.73 48.076 201.73 48.772C201.73 49.46 201.474 49.996 200.962 50.38C200.45 50.756 199.77 50.944 198.922 50.944L199.15 50.44C200.094 50.44 200.826 50.628 201.346 51.004C201.866 51.38 202.126 51.924 202.126 52.636C202.126 53.372 201.846 53.952 201.286 54.376C200.734 54.792 199.926 55 198.862 55H194.722ZM196.654 53.56H198.79C199.238 53.56 199.578 53.472 199.81 53.296C200.042 53.12 200.158 52.848 200.158 52.48C200.158 52.128 200.042 51.868 199.81 51.7C199.578 51.524 199.238 51.436 198.79 51.436H196.654V53.56ZM196.654 50.08H198.466C198.89 50.08 199.21 49.996 199.426 49.828C199.642 49.652 199.75 49.396 199.75 49.06C199.75 48.724 199.642 48.472 199.426 48.304C199.21 48.128 198.89 48.04 198.466 48.04H196.654V50.08ZM205.056 55L208.8 46.6H210.72L214.476 55H212.436L209.364 47.584H210.132L207.048 55H205.056ZM206.928 53.2L207.444 51.724H211.764L212.292 53.2H206.928ZM218.061 55.132C217.917 55.132 217.765 55.12 217.605 55.096C217.453 55.072 217.285 55.04 217.101 55L217.221 53.356C217.333 53.388 217.449 53.404 217.569 53.404C217.897 53.404 218.153 53.272 218.337 53.008C218.521 52.736 218.653 52.348 218.733 51.844C218.813 51.34 218.865 50.728 218.889 50.008L219.009 46.6H225.465V55H223.545V47.74L223.989 48.184H220.281L220.677 47.716L220.605 49.936C220.581 50.76 220.525 51.492 220.437 52.132C220.349 52.772 220.213 53.316 220.029 53.764C219.845 54.212 219.593 54.552 219.273 54.784C218.953 55.016 218.549 55.132 218.061 55.132ZM229.903 55V46.6H231.835V52.072L235.843 46.6H237.667V55H235.747V49.54L231.739 55H229.903ZM247.607 54.136V48.184H244.727L244.691 49.408C244.667 49.928 244.631 50.42 244.583 50.884C244.543 51.348 244.479 51.772 244.391 52.156C244.303 52.532 244.187 52.852 244.043 53.116C243.907 53.38 243.735 53.568 243.527 53.68L241.451 53.416C241.739 53.424 241.975 53.324 242.159 53.116C242.351 52.908 242.503 52.616 242.615 52.24C242.727 51.856 242.807 51.408 242.855 50.896C242.911 50.384 242.951 49.828 242.975 49.228L243.071 46.6H249.527V54.136H247.607ZM241.175 56.74L241.187 53.416H250.703V56.74H248.903V55H242.975V56.74H241.175ZM258.372 55.144C257.708 55.144 257.092 55.036 256.524 54.82C255.964 54.604 255.476 54.3 255.06 53.908C254.652 53.516 254.332 53.056 254.1 52.528C253.876 52 253.764 51.424 253.764 50.8C253.764 50.176 253.876 49.6 254.1 49.072C254.332 48.544 254.656 48.084 255.072 47.692C255.488 47.3 255.976 46.996 256.536 46.78C257.096 46.564 257.704 46.456 258.36 46.456C259.024 46.456 259.632 46.564 260.184 46.78C260.744 46.996 261.228 47.3 261.636 47.692C262.052 48.084 262.376 48.544 262.608 49.072C262.84 49.592 262.956 50.168 262.956 50.8C262.956 51.424 262.84 52.004 262.608 52.54C262.376 53.068 262.052 53.528 261.636 53.92C261.228 54.304 260.744 54.604 260.184 54.82C259.632 55.036 259.028 55.144 258.372 55.144ZM258.36 53.488C258.736 53.488 259.08 53.424 259.392 53.296C259.712 53.168 259.992 52.984 260.232 52.744C260.472 52.504 260.656 52.22 260.784 51.892C260.92 51.564 260.988 51.2 260.988 50.8C260.988 50.4 260.92 50.036 260.784 49.708C260.656 49.38 260.472 49.096 260.232 48.856C260 48.616 259.724 48.432 259.404 48.304C259.084 48.176 258.736 48.112 258.36 48.112C257.984 48.112 257.636 48.176 257.316 48.304C257.004 48.432 256.728 48.616 256.488 48.856C256.248 49.096 256.06 49.38 255.924 49.708C255.796 50.036 255.732 50.4 255.732 50.8C255.732 51.192 255.796 51.556 255.924 51.892C256.06 52.22 256.244 52.504 256.476 52.744C256.716 52.984 256.996 53.168 257.316 53.296C257.636 53.424 257.984 53.488 258.36 53.488ZM266.794 55V46.6H270.706C271.682 46.6 272.442 46.788 272.986 47.164C273.53 47.54 273.802 48.076 273.802 48.772C273.802 49.46 273.546 49.996 273.034 50.38C272.522 50.756 271.842 50.944 270.994 50.944L271.222 50.44C272.166 50.44 272.898 50.628 273.418 51.004C273.938 51.38 274.198 51.924 274.198 52.636C274.198 53.372 273.918 53.952 273.358 54.376C272.806 54.792 271.998 55 270.934 55H266.794ZM268.726 53.56H270.862C271.31 53.56 271.65 53.472 271.882 53.296C272.114 53.12 272.23 52.848 272.23 52.48C272.23 52.128 272.114 51.868 271.882 51.7C271.65 51.524 271.31 51.436 270.862 51.436H268.726V53.56ZM268.726 50.08H270.538C270.962 50.08 271.282 49.996 271.498 49.828C271.714 49.652 271.822 49.396 271.822 49.06C271.822 48.724 271.714 48.472 271.498 48.304C271.282 48.128 270.962 48.04 270.538 48.04H268.726V50.08Z" fill="#101010"/>
</svg>
