<svg width="473" height="473" fill="none" xmlns="http://www.w3.org/2000/svg"><rect x="15" y="15" width="443" height="443" rx="45" stroke="#0769CD" stroke-width="30"/><path d="M233.893 366.858c-8.285 0-15-6.716-15-15v-230c0-8.284 6.715-15 15-15 8.284 0 15 6.716 15 15v230c0 8.284-6.716 15-15 15z" fill="#0769CD"/><path d="M324.25 210.396c-5.857 5.858-15.355 5.858-21.213 0l-79.539-79.539c-5.858-5.858-5.858-15.355 0-21.213 5.858-5.858 15.356-5.858 21.213 0l79.539 79.539c5.858 5.857 5.858 15.355 0 21.213z" fill="#0769CD"/><path d="M143.499 210.252c-5.858-5.858-5.858-15.356 0-21.214l79.539-79.538c5.858-5.858 15.355-5.858 21.213-.001 5.858 5.858 5.858 15.356 0 21.214l-79.539 79.539c-5.858 5.857-15.355 5.857-21.213 0z" fill="#0769CD"/></svg>