<svg width="473" height="473" fill="none" xmlns="http://www.w3.org/2000/svg"><rect x="15" y="15" width="443" height="443" rx="45" stroke="#0769CD" stroke-width="30"/><path d="M141.345 328.538c-5.858-5.858-5.858-15.356 0-21.213L303.979 144.69c5.858-5.858 15.356-5.858 21.214 0 5.858 5.858 5.858 15.355 0 21.213L162.558 328.538c-5.858 5.858-15.355 5.858-21.213 0z" fill="#0769CD"/><path d="M315.873 281.795c-8.284 0-15-6.716-15-15V154.31c0-8.284 6.716-15 15-15 8.284 0 15 6.716 15 15v112.485c0 8.284-6.716 15-15 15z" fill="#0769CD"/><path d="M188.164 153.882c0-8.284 6.716-15 15-15h112.485c8.285 0 15 6.716 15 15 0 8.285-6.715 15-15 15H203.164c-8.284 0-15-6.715-15-15z" fill="#0769CD"/></svg>