<svg width="250" height="72" viewBox="0 0 250 72" fill="none" xmlns="http://www.w3.org/2000/svg"><path d="M122.891 33.458c0-4.015.015-7.893-.008-11.77-.007-1.16.411-1.848 1.65-1.834 5.061.057 10.134-.066 15.181.238 3.928.237 7.196 2.132 8.618 5.974 1.443 3.902 1.188 7.813-2 10.905-1.266 1.229-2.974 2.003-4.608 3.067.856 1.23 1.801 2.606 2.766 3.968 1.448 2.046 2.929 4.07 4.35 6.135.252.367.44.933.341 1.328-.056.224-.746.325-1.165.412-.307.063-.647-.04-.954.022-2.79.56-4.442-.777-5.843-3.072-1.587-2.6-3.503-5-5.308-7.464-.212-.29-.618-.607-.942-.616-2.046-.056-4.093-.029-6.292-.029-.029.575-.074 1.057-.076 1.538-.007 2.692-.034 5.384.011 8.075.019 1.089-.34 1.555-1.489 1.579-4.233.086-4.233.116-4.233-4.085l.001-14.37zm8.211-8.48c-.456 0-.912.008-1.368 0-.778-.013-1.183.317-1.179 1.14.014 2.874.021 5.748-.005 8.622-.007.81.372.991 1.093.982 2.554-.032 5.109.003 7.663-.044a8.156 8.156 0 002.148-.356c2.729-.814 4.046-2.725 3.872-5.521-.153-2.46-1.724-4.242-4.455-4.549-2.48-.278-5.001-.197-7.769-.274zm22.609 6.341c1.91-6.545 7.217-11.146 13.733-11.834 7.272-.767 13.231 1.603 16.92 8.094 3.138 5.52 3.053 11.366-.186 16.83-3.293 5.557-8.487 8.16-14.915 7.97-11.142-.331-18.209-9.912-15.552-21.06zm5.578 7.23c1.586 6.438 7.49 10.02 13.62 8.266 4.958-1.42 8.105-6.297 7.621-12.032-.346-4.096-2.246-7.352-6.004-9.172-3.662-1.773-7.41-1.62-10.786.738-4.169 2.914-5.202 7.15-4.451 12.2z" fill="#1E619D"/><path d="M97.055 44.905c4.472 3.195 8.996 3.009 13.622.613.729-.377 1.067-.86 1.031-1.72-.065-1.583-.018-3.17-.018-4.893-2.28 0-4.418-.052-6.552.02-1.182.04-1.634-.35-1.606-1.56.093-3.992-.433-3.325 3.313-3.366 2.966-.033 5.933.029 8.899-.025 1.065-.02 1.467.343 1.456 1.415-.037 3.697.013 7.394-.047 11.09-.008.502-.322 1.175-.718 1.47-6.445 4.803-13.427 6.086-20.799 2.495-5.508-2.683-8.041-7.579-8.353-13.518-.595-11.319 8.837-19.36 20.128-17.36 2.512.446 4.826 1.314 6.919 2.779 1.464 1.025 1.545 1.479.453 2.832-2.068 2.56-2.016 2.464-4.907.916-3.764-2.016-7.708-2.407-11.475-.107-3.865 2.359-5.335 6.107-5.193 10.503.105 3.27 1.222 6.152 3.847 8.416z" fill="#1E629D"/><path d="M234.18 41.62h-3.382c0 2.925.003 5.697-.001 8.469-.002 1.68-.114 1.79-1.773 1.808-3.943.04-3.943.04-3.943-3.954 0-8.535-.002-17.07.001-25.606 0-2.285.209-2.508 2.505-2.484 4.197.045 8.411-.1 12.584.24 4.244.345 7.552 2.476 9.059 6.658 1.458 4.048.89 7.881-2.071 11.1-2.46 2.672-5.772 3.543-9.283 3.743-1.183.068-2.373.02-3.696.026zm-1.98-16.638c-.647.006-1.381-.048-1.386.884-.021 3.494-.009 6.988-.009 10.538 2.762 0 5.411.199 8.017-.05 3.294-.316 5.344-2.703 5.333-5.704-.012-3.123-1.865-5.11-5.421-5.498-2.073-.226-4.182-.124-6.534-.17z" fill="#1F629D"/><path d="M191.247 22.55c.004-2.547.152-2.705 2.533-2.698 3.608.01 3.128-.329 3.142 3.133.018 4.926-.046 9.853.036 14.778.025 1.482.21 3.028.679 4.424 1.256 3.742 4.476 5.455 8.831 4.922 3.467-.425 5.95-2.995 6.37-6.66a29.82 29.82 0 00.17-3.275c.017-5.245.034-10.49-.012-15.735-.01-1.172.351-1.693 1.563-1.601.907.068 1.856-.125 2.723.074.517.119 1.304.772 1.302 1.183-.021 6.88.218 13.79-.358 20.63-.529 6.28-5.35 10.275-11.672 10.557-1.895.085-3.855.011-5.702-.384-5.164-1.106-8.525-4.885-9.309-10.217a27.478 27.478 0 01-.282-3.813c-.032-5.062-.014-10.125-.014-15.317z" fill="#1E629D"/><path d="M6.608 26.969a4.838 4.838 0 01-.277 1.253c.023-.376.117-.783.277-1.253zM5.8 30.26c.041.183.033.434-.046.71-.048-.197-.026-.418.046-.71z" fill="#428CBF"/><path d="M5.642 40.65c.122.154.22.394.259.685-.134-.166-.209-.382-.26-.685z" fill="#4087BA"/><path d="M31.482 6.542c-.089.09-.246.151-.44.162.1-.097.235-.143.44-.162z" fill="#428CBF"/><path d="M49.273 6.882c-.115.037-.286.02-.472-.062.129-.041.273-.016.472.062z" fill="#3581B6"/><path d="M6.28 43.647c.108.077.183.226.215.415-.11-.088-.179-.216-.215-.415zm-.336-1.367c.11.082.195.238.226.434-.118-.093-.185-.226-.226-.434z" fill="#4087BA"/><path d="M50.632 7.2c-.11.049-.27.041-.453-.02.119-.048.26-.042.453.02z" fill="#3581B6"/><path d="M6.088 28.88c.044.108.035.27-.031.45-.046-.12-.034-.26.03-.45z" fill="#428CBF"/><path d="M52.391 7.923c-.033.012-.128-.01-.27-.09.037-.019.123.018.27.09z" fill="#3581B6"/><ellipse cx="40.852" cy="36.334" rx="31.495" ry="27.524" fill="url(#paint0_linear_142_665)"/><path d="M78.561 35.782c0 17.395-16.338 32.283-37.53 32.283C19.838 68.065 3.5 53.177 3.5 35.782 3.5 18.388 19.838 3.5 41.03 3.5c21.193 0 37.531 14.888 37.531 32.282z" stroke="url(#paint1_linear_142_665)" stroke-width="7"/><path d="M27.727 52.69c-1.162.005-2.198-.038-3.234-.042-2.45-.01-2.45-.002-2.498-2.562-.004-3.232.006-6.343.001-9.58-.015-2.508-.015-4.889-.04-7.39.01-3.614.052-7.108.08-10.603.017-2.036.128-2.155 2.178-2.159.955-.002 1.91-.008 2.99-.037 2.78-.01 5.434.005 8.214-.005 2.602.066 5.052.265 7.366 1.566 2.172 1.388 3.482 3.255 3.887 5.945.23 3.539-1.166 6.069-3.81 7.718l4.42 3.477c.184.396.367.793.592 1.35.118.292.197.423.275.554.009.124.018.248.052.534.087.296.15.43.214.564-.02 1.092.084 2.202-.082 3.271-.587 3.776-3.12 5.779-6.597 6.622-1.93.468-3.961.511-6.07.776-2.686.01-5.25-.008-7.938.002zm1.238-8.784c-.003.502-.122 1.04.024 1.492.123.379.556.935.852.935 2.866.003 5.74.018 8.594-.207 1.898-.15 3.032-1.589 3.025-3.293-.007-1.636-1.092-2.97-2.939-3.245-1.516-.225-3.076-.162-4.867-.29h-4.63c0 1.578 0 2.973-.059 4.608zm4.502-10.48c1.085-.086 2.19-.073 3.252-.28 1.983-.384 2.964-1.597 2.901-3.37-.059-1.667-1.092-2.86-3.073-3.055-2.21-.217-4.448-.18-6.674-.168-.305.002-.858.494-.87.775-.076 1.982-.04 3.969-.04 6.098h4.504z" fill="#FCFDFE"/><path d="M58.425 20.32c1.06.214 1.262.884 1.253 1.747-.022 2.004 0 4.009.04 6.137.007 4.223-.031 8.321-.048 12.42-.014 3.326.002 6.653-.006 9.98-.004 1.765-.287 2.034-2.085 2.04-1.185.004-2.373-.058-3.553.017-1.156.075-1.504-.403-1.497-1.512.033-5.24.005-10.482.003-15.973-.018-4.092-.04-7.934-.06-11.776.021-.089.057-.176.062-.265.148-2.787.147-2.787 2.9-2.785.955 0 1.91-.005 2.991-.03z" fill="#FAFCFD"/><defs><linearGradient id="paint0_linear_142_665" x1="19.491" y1="17.711" x2="62.898" y2="57.011" gradientUnits="userSpaceOnUse"><stop stop-color="#3581B6"/><stop offset="1" stop-color="#17598E"/></linearGradient><linearGradient id="paint1_linear_142_665" x1="11.332" y1="10.89" x2="70.489" y2="62.505" gradientUnits="userSpaceOnUse"><stop stop-color="#3480B5"/><stop offset="1" stop-color="#1A5D92"/></linearGradient></defs></svg>