<svg width="1037" height="355" viewBox="0 0 1037 355" fill="none" xmlns="http://www.w3.org/2000/svg"><path d="M176.32 240.294c18.66-24.961 37.053-49.676 55.606-74.27 2.085-2.765 2.088-4.519-.014-7.276-14.435-18.939-28.66-38.038-43.009-57.042-2.155-2.854-3.671-5.573-.351-9.603 1.658 1.657 3.402 3.035 4.7 4.75 15.476 20.452 30.853 40.977 46.346 61.414 2.19 2.889 2.093 5.177-.15 7.996-4.236 5.322-8.172 10.883-12.39 16.557l10.783 14.694-117.2 156.852c-14.863-19.88-29.422-39.339-43.966-58.809-23.62-31.621-47.184-63.283-70.924-94.814-2.06-2.736-1.834-4.406.158-6.8 2.864-3.442 5.409-7.15 8.353-11.098-4.125-5.475-8.098-10.975-12.327-16.271-2.334-2.923-2.426-5.234-.085-8.343C40.314 107.145 78.67 55.978 117.075 4.847c.983-1.31 2.22-2.428 3.82-4.155l53.061 70.436c-4.045 3.286-6.446 2.095-8.795-1.07-13.499-18.183-27.077-36.308-40.637-54.447-1.184-1.584-2.426-3.126-3.957-5.093L6.718 162.513l113.931 151.845c18.711-24.897 37.081-49.34 55.671-74.064zm838.83-5.552v-63.754c-.28-.087-.56-.173-.85-.26-2.75 5.005-5.53 9.995-8.26 15.017-8.797 16.227-17.636 32.433-26.302 48.731-1.439 2.705-3.054 3.778-6.166 3.655-6.622-.262-13.261-.08-20.192-.08v-98.734h21.317v68.405c1.464-2.182 2.176-3.081 2.717-4.073 11.072-20.294 22.186-40.565 33.106-60.94 1.45-2.707 2.94-3.844 6.07-3.722 6.61.256 13.24.078 20.11.078v98.962c-6.5 0-13.08.079-19.66-.123-.65-.02-1.26-1.749-1.89-3.162z" fill="#0E4275"/><path d="M312.924 219v-79.637h72.851v17.582h-51.132v17.877c4.189 0 8.444-.118 12.689.026 7.799.265 15.727-.1 23.362 1.203 15.998 2.73 24.777 14.255 24.592 30.811-.181 16.321-9.094 27.393-24.938 30.064-6.181 1.042-12.578 1.002-18.881 1.075-12.32.143-24.642.021-36.964-.003-.31-.001-.62-.148-1.579-.392V219zm48.077-26.951h-26.376v28.052c9.005 0 17.646.3 26.256-.082 9.147-.405 13.405-5.428 13.216-14.585-.154-7.466-3.399-10.991-13.096-13.385z" fill="#0C4174"/><path d="M845.838 163.86c10.74-21.263 31.198-30.691 55.362-25.806 20.604 4.164 35.495 22.258 36.853 44.717.978 16.179-1.646 31.422-13.372 43.483-14.056 14.458-31.566 17.025-50.237 11.963-18.163-4.923-28.347-17.9-32.18-35.861-2.765-12.956-1.979-25.813 3.574-38.496zm17.223 18.102c-.642 9.238-.33 18.36 4.025 26.819 4.722 9.173 12.444 13.605 22.669 13.642 10.08.037 17.908-4.253 22.142-13.448 6.25-13.571 6.433-27.572-.115-41.042-7.199-14.809-27.629-17.878-39.566-6.447-5.591 5.353-7.663 12.304-9.155 20.476z" fill="#0D4175"/><path d="M432.049 217.042v20.698h-20.977v-98.385h20.813v41.063c6.642-6.961 12.332-12.9 17.993-18.867 6.191-6.525 12.236-13.196 18.617-19.528 1.551-1.539 4.138-2.723 6.306-2.823 7.426-.343 14.877-.132 23.631-.132L458.78 177.17l42.994 60.809c-9.386 0-17.899.132-26.397-.157-1.132-.039-2.361-2.093-3.256-3.411-8.419-12.395-16.77-24.836-25.156-37.254-.72-1.067-1.544-2.065-2.36-3.147-6.537 6.399-15.265 11.294-12.556 23.032z" fill="#0C4174"/><path d="M643.447 228.444c-15.279 13.737-32.66 14.939-50.641 8.54-17.853-6.353-26.225-20.859-28.646-38.828-2.415-17.918.862-34.563 14.054-48.031 17.984-18.359 51.861-17.551 68.105 1.499 4.91 5.758 7.591 12.415 8.387 20.624-6.592 0-13.029.093-19.457-.114-.834-.026-2.012-1.46-2.364-2.474-3.148-9.08-9.719-13.692-19.022-14.438-9.739-.781-18.024 2.499-22.864 11.2-8.006 14.393-8.058 29.363-.424 43.9 4.745 9.038 14.839 13.177 25.128 11.528 9.33-1.496 15.087-7.451 17.468-18.046.254-1.131.592-2.243.947-3.574h21.188c-.882 10.706-4.198 20.16-11.859 28.214z" fill="#0D4175"/><path d="M773.609 237.602c-7.002.331-13.652.331-20.647.331v-99.418c17.983.59 36.018-.017 53.724 2.109 16.818 2.02 25.623 15.019 24.772 32.077-.834 16.72-11.236 27.909-28.238 29.244-9.418.739-18.943.132-29.259.132 0 12.343 0 23.769-.352 35.525zm.662-79.713v27.182c1.414.101 2.236.21 3.059.21 6.146.001 12.297.134 18.436-.07 9.608-.319 14.358-4.799 14.529-13.355.179-9.025-4.78-14.283-14.467-14.691-6.956-.293-13.937.008-21.557.724z" fill="#0D4174"/><path d="M134.355 118.492c-.293-7.809 1.917-14.726 6.999-20.774 1.718-2.045 2.893-4.546 3.861-7.27-12.166 10.024-27.108 10.657-41.325 13.547-9.561 1.944-18.317 5.326-22.996 14.836-1.144 2.326-1.87 4.858-2.788 7.295l-1.355-.183c.266-2.222.245-4.524.841-6.654 5.241-18.71 18.136-28.95 36.784-32.203 8.339-1.454 16.898-1.621 25.272-2.921 4.472-.694 8.762-2.555 14.524-4.313v42.907l2.064.385c.677-1.119 1.608-2.158 1.992-3.37 4.311-13.599 8.495-27.24 12.844-40.826.506-1.58 1.463-3.515 2.786-4.247 5.5-3.04 11.22-5.683 16.883-8.484.171.16.609.403.581.566-4.143 24.178-10.94 46.752-34.213 60.237-2.098 1.216-2.198 5.88-3.47 9.67 2.665.48 4.232 1.008 5.797 1.003 8.216-.026 15.117 3.216 21.575 8.006 3.189 2.366 6.71 4.35 10.262 6.148 6.585 3.333 13.445 4.44 20.627.434l.216 1.349c-.702.822-1.317 1.742-2.12 2.45-6.538 5.768-14.181 9.28-22.754 10.634-8.709 1.375-16.471-.537-23.002-6.869-3.644-3.533-7.652-6.69-11.993-10.447-1.736 2.896-3.123 4.935-4.234 7.114-4.373 8.58-4.395 8.622-15.035 6.6l.891-17.514-6.523-2.769c2.954-2.324 5.373-4.227 7.723-6.485-.069-.354-.1-.315.2-.084.775.061 1.249-.11 2.115-.258 2.398-1.306 5.837-2.375 6.134-4.013.804-4.446.276-9.133.276-14.228l-9.439.731z" fill="#0F4376"/><path d="M676.996 157.719h-16.758v-18.334h80.442v18.133h-29.202v80.266h-21.803v-80.065h-12.679z" fill="#0D4174"/><path d="M135.024 135.984c-.205-.233-.493-.694-.657-.653-21.885 5.451-44.528 8.184-65.174 18.068a66.632 66.632 0 00-8.218 4.692c-13.6 9.089-17.194 21.315-10.68 36.388 1.612 3.728 3.579 7.304 4.852 11.184-9.16-7.868-14.218-17.678-12.66-29.888 2.206-17.273 11.732-30.024 27.627-36.326 14.292-5.666 29.498-9.049 44.336-13.316 6.225-1.791 12.542-3.266 19.601-4.978 3.019-.518 5.255-.943 7.869-1.439 0 2.798-.208 5.242.046 7.637.423 3.985-.8 6.591-5.423 7.275-.779.517-1.177.959-1.574 1.401 0 0 .031-.039.055-.045z" fill="#147"/><path d="M132.064 174.005l-12.583-8.206c5.7-.184 12.361-1.093 18.872-.461 13.205 1.282 19.264 11.617 14.626 24.108-3.246 8.743-9.084 15.594-17.027 20.289-19.743 11.668-41.635 17.219-63.69 22.203-.23-.519-.462-1.038-.694-1.557 1.96-.833 3.867-2.216 5.889-2.413 16.562-1.608 31.39-7.412 43.999-18.288 9.847-8.494 14.707-19.156 11.945-32.54-.42-.111-.378-.088-.098-.377-.248-1.135-.776-1.981-1.299-2.798.004.029.06.04.06.04z" fill="#124577"/><path d="M91.353 163.743c4.394-4.993 8.612-9.645 12.83-14.296l1.708 1.235c1.619 17.824 2.715 35.621-4.69 52.72-4.661 10.764-13.289 17.387-23.682 22.297 10.287-16.243 11.102-34.54 12.358-52.75.206-2.97.856-5.91 1.476-9.206z" fill="#0F4376"/><path d="M508.884 191.918c13.809-.275 27.269-.275 41.013-.275v17.2h-41.361c0-5.53 0-11.09.348-16.925z" fill="#134678"/><path d="M1016.31 121.142c-2.18 5.608-6.2 8.548-11.44 10.071-6.573 1.911-13.163 1.934-19.7-.058-8.618-2.624-12.727-8.778-12.248-18.395 3.743-.547 6.658-.995 9.261 3.558 4.287 7.497 21.607 7.45 25.947-.09 2.66-4.621 5.64-4.017 10.01-3.314-.58 2.767-1.13 5.321-1.83 8.228zm-883.33 55.864c-4.287 8.273-11.879 11.779-20.358 13.93-1.576.4-3.254.398-5.852-.385.993-.996 1.858-2.66 3.001-2.88 8.072-1.555 14.618-5.18 18.913-12.456.328-.556 1.88-.389 3.122-.884.259-.326.202-.337-.174-.121.212 1.092.802 1.967 1.392 2.842 0 0-.042-.023-.044-.046z" fill="#144779"/></svg>