<svg width="934" height="100" fill="none" xmlns="http://www.w3.org/2000/svg"><path d="M26.288 97V24.296l6.528 6.528H.048V7.4h82.176v23.424H49.456l6.528-6.528V97H26.288zm110.216 2.048c-7.253 0-13.995-1.152-20.224-3.456-6.144-2.304-11.477-5.547-16-9.728-4.523-4.267-8.064-9.259-10.624-14.976-2.475-5.717-3.712-11.947-3.712-18.688 0-6.827 1.237-13.056 3.712-18.688 2.56-5.717 6.101-10.667 10.624-14.848 4.523-4.267 9.856-7.552 16-9.856 6.229-2.304 12.971-3.456 20.224-3.456 7.339 0 14.08 1.152 20.224 3.456 6.144 2.304 11.477 5.59 16 9.856 4.523 4.181 8.021 9.13 10.496 14.848 2.56 5.632 3.84 11.861 3.84 18.688 0 6.741-1.28 12.97-3.84 18.688a44.892 44.892 0 01-10.496 14.976c-4.523 4.181-9.856 7.424-16 9.728-6.144 2.304-12.885 3.456-20.224 3.456zm0-24.448c2.816 0 5.419-.512 7.808-1.536 2.475-1.024 4.608-2.475 6.4-4.352 1.877-1.963 3.328-4.31 4.352-7.04 1.024-2.816 1.536-5.973 1.536-9.472 0-3.499-.512-6.613-1.536-9.344-1.024-2.816-2.475-5.163-4.352-7.04a17.745 17.745 0 00-6.4-4.48c-2.389-1.024-4.992-1.536-7.808-1.536s-5.461.512-7.936 1.536c-2.389 1.024-4.523 2.517-6.4 4.48-1.792 1.877-3.2 4.224-4.224 7.04-1.024 2.73-1.536 5.845-1.536 9.344 0 3.499.512 6.656 1.536 9.472 1.024 2.73 2.432 5.077 4.224 7.04a20.283 20.283 0 006.4 4.352c2.475 1.024 5.12 1.536 7.936 1.536zm107 24.448c-7.253 0-13.995-1.152-20.224-3.456-6.144-2.304-11.477-5.547-16-9.728-4.523-4.267-8.064-9.259-10.624-14.976-2.475-5.717-3.712-11.947-3.712-18.688 0-6.827 1.237-13.056 3.712-18.688 2.56-5.717 6.101-10.667 10.624-14.848 4.523-4.267 9.856-7.552 16-9.856 6.229-2.304 12.971-3.456 20.224-3.456 7.339 0 14.08 1.152 20.224 3.456 6.144 2.304 11.477 5.59 16 9.856 4.523 4.181 8.021 9.13 10.496 14.848 2.56 5.632 3.84 11.861 3.84 18.688 0 6.741-1.28 12.97-3.84 18.688a44.892 44.892 0 01-10.496 14.976c-4.523 4.181-9.856 7.424-16 9.728-6.144 2.304-12.885 3.456-20.224 3.456zm0-24.448c2.816 0 5.419-.512 7.808-1.536 2.475-1.024 4.608-2.475 6.4-4.352 1.877-1.963 3.328-4.31 4.352-7.04 1.024-2.816 1.536-5.973 1.536-9.472 0-3.499-.512-6.613-1.536-9.344-1.024-2.816-2.475-5.163-4.352-7.04a17.745 17.745 0 00-6.4-4.48c-2.389-1.024-4.992-1.536-7.808-1.536s-5.461.512-7.936 1.536c-2.389 1.024-4.523 2.517-6.4 4.48-1.792 1.877-3.2 4.224-4.224 7.04-1.024 2.73-1.536 5.845-1.536 9.344 0 3.499.512 6.656 1.536 9.472 1.024 2.73 2.432 5.077 4.224 7.04a20.283 20.283 0 006.4 4.352c2.475 1.024 5.12 1.536 7.936 1.536zM369.807 2.024l-10.752 35.968-4.224-16.128c5.035 0 9.088 1.408 12.16 4.224 3.157 2.816 4.736 6.741 4.736 11.776 0 4.95-1.621 8.917-4.864 11.904-3.157 2.987-7.168 4.48-12.032 4.48s-8.917-1.493-12.16-4.48c-3.157-2.987-4.736-6.955-4.736-11.904 0-1.365.085-2.73.256-4.096.256-1.365.725-3.03 1.408-4.992.768-1.963 1.877-4.523 3.328-7.68l8.96-19.072h17.92zm37.12 0l-10.752 35.968-4.224-16.128c5.035 0 9.088 1.408 12.16 4.224 3.157 2.816 4.736 6.741 4.736 11.776 0 4.95-1.621 8.917-4.864 11.904-3.157 2.987-7.168 4.48-12.032 4.48s-8.917-1.493-12.16-4.48c-3.157-2.987-4.736-6.955-4.736-11.904 0-1.365.085-2.73.256-4.096.256-1.365.725-3.03 1.408-4.992.768-1.963 1.877-4.523 3.328-7.68l8.96-19.072h17.92zm66.656 71.552l-6.528 6.528V7.4h29.696v72.704l-6.656-6.528h31.232l-6.656 6.528V7.4h29.696V97H419.311V7.4h29.696v72.704l-6.528-6.528h31.104zM552.634 97l39.168-89.6h29.696L660.666 97h-31.232l-28.928-75.264h11.776L583.354 97h-30.72zm23.296-15.616l7.68-21.76h41.216l7.68 21.76H575.93zM727.048 7.4h30.208V97h-30.208V7.4zM699.144 97h-30.208V7.4h30.208V97zm29.952-33.024h-32V39.144h32v24.832zm89.146 35.072c-7.168 0-13.824-1.11-19.968-3.328-6.059-2.304-11.349-5.547-15.872-9.728-4.437-4.181-7.893-9.13-10.368-14.848-2.475-5.717-3.712-12.032-3.712-18.944 0-6.912 1.237-13.227 3.712-18.944 2.475-5.717 5.931-10.667 10.368-14.848 4.523-4.181 9.813-7.381 15.872-9.6 6.144-2.304 12.8-3.456 19.968-3.456 8.789 0 16.555 1.536 23.296 4.608 6.827 3.072 12.459 7.51 16.896 13.312l-19.072 17.024c-2.645-3.328-5.589-5.888-8.832-7.68-3.157-1.877-6.741-2.816-10.752-2.816-3.157 0-6.016.512-8.576 1.536a18.713 18.713 0 00-6.656 4.48c-1.792 1.963-3.2 4.352-4.224 7.168-1.024 2.73-1.536 5.803-1.536 9.216 0 3.413.512 6.528 1.536 9.344 1.024 2.73 2.432 5.077 4.224 7.04a18.713 18.713 0 006.656 4.48c2.56 1.024 5.419 1.536 8.576 1.536 4.011 0 7.595-.896 10.752-2.688 3.243-1.877 6.187-4.48 8.832-7.808l19.072 17.024c-4.437 5.717-10.069 10.155-16.896 13.312-6.741 3.072-14.507 4.608-23.296 4.608zm46.488-46.08L875.482 17l4.224 16.128c-4.949 0-9.003-1.408-12.16-4.224-3.157-2.901-4.736-6.827-4.736-11.776 0-5.035 1.579-9.003 4.736-11.904 3.243-2.987 7.296-4.48 12.16-4.48s8.875 1.493 12.032 4.48c3.243 2.901 4.864 6.87 4.864 11.904 0 1.365-.128 2.73-.384 4.096-.171 1.365-.597 3.03-1.28 4.992-.683 1.877-1.792 4.437-3.328 7.68l-8.96 19.072h-17.92zm37.12 0L912.602 17l4.224 16.128c-4.949 0-9.003-1.408-12.16-4.224-3.157-2.901-4.736-6.827-4.736-11.776 0-5.035 1.579-9.003 4.736-11.904 3.243-2.987 7.296-4.48 12.16-4.48s8.875 1.493 12.032 4.48c3.243 2.901 4.864 6.87 4.864 11.904 0 1.365-.128 2.73-.384 4.096-.171 1.365-.597 3.03-1.28 4.992-.683 1.877-1.792 4.437-3.328 7.68l-8.96 19.072h-17.92z" fill="#101010"/></svg>