<svg width="600" height="508" viewBox="0 0 600 508" fill="none" xmlns="http://www.w3.org/2000/svg"><path d="M302.906 344.888c-3.548 5.401-3.667 5.426-6.398.478-16.642-30.149-33.202-60.343-49.907-90.457-16.674-30.06-33.537-60.015-50.111-90.129-.998-1.813-1.103-5.221-.048-6.892 14.075-22.289 28.375-44.435 42.729-66.546 19.167-29.524 38.466-58.963 57.615-88.499 3.072-4.738 4.69-.693 5.842 1.039 8.511 12.803 16.775 25.77 25.124 38.68a459272.55 459272.55 0 0062.799 97.094c3.974 6.144 8.158 12.163 11.848 18.471.905 1.547 1.032 4.437.188 5.985-12.21 22.391-24.679 44.639-37.021 66.958-14.59 26.386-29.118 52.806-43.671 79.212a7968.488 7968.488 0 00-18.989 34.606zM185.252 174.166c1.505-2.033 2.88-3.715 4.594-5.81l99.81 180.399c-2.548.127-3.842.247-5.135.248-32.816.01-65.631 0-98.447.027-2.563.003-4.414-.118-5.986-3.021-15-27.689-29.858-55.473-45.756-82.645-3.619-6.186-.982-9.15 1.646-13.205 16.353-25.233 32.758-50.432 49.274-75.993zm169.497 92.454c18.045-32.846 35.986-65.327 54.394-98.654 5.597 8.517 10.636 16.134 15.625 23.785 13.314 20.419 26.573 40.875 39.944 61.258 2.114 3.223 2.453 5.734.324 9.444-12.617 21.988-24.875 44.183-37.183 66.348-3.163 5.695-5.916 11.624-9.204 17.242-.818 1.397-2.984 2.844-4.537 2.85-34.325.144-68.651.09-102.976.055-.466 0-.932-.238-1.91-.504 6.975-12.586 13.874-25.013 20.751-37.452 7.664-13.863 15.302-27.741 22.972-41.601.473-.853 1.126-1.607 1.8-2.771z" fill="#19A3DE"/><path d="M444.167 444.814c-2.173-1.407-4.107-3.158-6.213-3.4-4.098-.469-8.308.132-12.444-.136-3.33-.216-4.465 1.023-4.437 4.225.091 10.479.034 20.96.034 31.912h-26.889V376.281h26.88c0 8.167-.002 16.261.001 24.354.005 12.576.023 12.206 12.434 12.765 6.302.284 9.741-1.806 12.86-7.279 5.401-9.477 11.818-18.381 17.939-27.436.818-1.209 2.381-2.682 3.629-2.711 9.796-.223 19.599-.123 30.448-.123-.898 1.898-1.327 3.151-2.025 4.229-9.505 14.671-19.145 29.258-28.429 44.068-.916 1.46-.453 4.744.619 6.343 10.183 15.182 20.637 30.18 30.996 45.244.167.243.108.641.261 1.705-1.547.153-3.066.421-4.587.432-7.662.053-15.327-.07-22.985.097-3.459.075-5.775-.942-7.812-3.988-6.511-9.74-13.385-19.237-20.28-29.167z" fill="#1BA4DF"/><path d="M571 477.895h-62.998c0-7.877-.13-15.294.118-22.699.045-1.358 1.449-2.833 2.525-3.97 14.359-15.155 28.782-30.251 43.15-45.398 1.026-1.082 1.754-2.446 3.312-4.663h-49.001v-25.029c1.569-.104 3.154-.299 4.739-.3 26.982-.019 53.963.062 80.943-.097 4.077-.024 4.992 1.198 5.533 5.265 1.583 11.895-2.491 20.719-11.128 28.931-12.438 11.825-23.828 24.754-35.621 37.253-1.123 1.191-1.935 2.676-3.641 5.082h12.116c10.826.001 21.653.103 32.477-.047 4.151-.058 6.039 1.192 5.688 5.715-.386 4.967-.349 10.004-.009 14.977.283 4.151-1.474 5.138-5.22 5.04-7.49-.196-14.988-.059-22.983-.06z" fill="#1AA4DF"/><path d="M182.995 477.903c-16.404-.189-14.485 2.21-14.53-14.071-.06-22.163-.142-44.327.041-66.488.074-8.987 3.333-16.453 12.362-20.072 1.768-.709 3.744-1.262 5.625-1.268 27.662-.1 55.323-.069 82.985-.152 3.033-.01 4.56.686 4.449 4.175-.233 7.316-.071 14.645-.071 22.595h-76.56c-.163 2.491-.209 4.413-.433 6.315-.407 3.463.98 4.642 4.504 4.582 11.329-.191 22.667.109 33.991-.174 4.458-.112 5.915 1.435 5.721 5.745a200.076 200.076 0 00-.001 17.492c.168 3.982-1.407 5.252-5.26 5.191-10.995-.176-22.004.193-32.988-.203-5.031-.181-6.235 1.59-6.045 6.257.331 8.151-.066 16.331.157 24.49.112 4.08-1.319 5.888-5.458 5.619-2.655-.173-5.33-.033-8.489-.033z" fill="#1CA5DF"/><path d="M5.265 378.662c1.775-1.606 3.45-3.661 5.276-3.806 5.632-.445 11.322-.246 16.987-.132 4.048.082 6.07 1.779 6.022 6.393-.218 20.831.013 41.666-.181 62.497-.042 4.44 1.016 6.098 5.816 6.041 21.83-.257 43.665-.123 65.498-.13 6.417-.001 7.047.645 7.046 7.248 0 5.5-.027 11-.002 16.5.014 3.084-1.368 4.512-4.546 4.506-28.166-.058-56.333.072-84.498-.139-9.796-.073-17.413-9.303-17.442-20.554-.066-26-.012-51.999.024-78.424z" fill="#20A6DF"/><path d="M316.014 419.01v-16.02c-11.681 0-22.167-.193-32.641.094-4.283.118-5.514-1.373-5.289-5.443.294-5.315.375-10.681-.019-15.982-.343-4.609 1.189-5.984 5.805-5.937 21.489.218 42.981.099 64.472.098 9.663-.001 19.327.09 28.988-.068 3.355-.054 4.766.895 4.647 4.508-.242 7.293-.072 14.6-.072 22.566h-37.548c-.118 2.602-.282 4.552-.284 6.503-.02 20.991-.127 41.984.076 62.973.043 4.379-1.21 5.946-5.649 5.678-5.644-.341-11.333-.274-16.985-.016-4.134.188-5.591-1.35-5.557-5.479.145-17.658.059-35.318.056-53.475z" fill="#1CA5DF"/><path d="M517.891 349.011h-92.617l46.762-84.285 54.92 84.285h-9.065zm-368.458-43.399c7.916 14.35 15.676 28.361 23.814 43.054H72.373c2.007-3.358 3.67-6.357 5.535-9.226a26786.335 26786.335 0 0145.988-70.52c.723-1.104 1.981-1.859 2.99-2.776.778 1.082 1.667 2.101 2.316 3.255a9416.442 9416.442 0 0120.231 36.213z" fill="#1BA4DF"/><path d="M128.172 375.812c6.479.002 12.478.092 18.473-.031 2.961-.061 4.193 1.045 4.188 4.07-.052 31.153-.044 62.305-.011 93.458.003 2.992-.884 4.709-4.28 4.637-6.494-.138-12.994-.122-19.49-.015-3.045.05-4.051-1.27-4.046-4.208.054-31.319.071-62.639-.03-93.957-.012-3.65 1.891-4.134 5.196-3.954z" fill="#1EA5DF"/><path d="M80 494.198l57.968-.006c2.309-.001 5.246-.483 5.228 2.919-.018 3.276-2.63 3.569-5.409 3.566-44.142-.052-88.285-.015-132.427-.102-1.611-.003-3.863-.592-4.697-1.729-1.752-2.39.16-4.633 3.878-4.646 12.66-.046 25.32-.006 37.979-.003 12.326.003 24.653.001 37.48.001zm385.115 6.436c-2.479-.018-4.619.39-6.423-.211-1.111-.371-2.217-2.231-2.348-3.521-.082-.805 1.55-1.966 2.621-2.636.6-.375 1.624-.077 2.457-.077 43.483.002 86.966.003 130.448.007.999 0 2.238-.34 2.941.123 1.07.706 2.421 1.961 2.445 3.011.025 1.065-1.216 2.487-2.279 3.144-.851.527-2.266.161-3.431.161-41.983.002-83.967 0-126.431-.001z" fill="#5EC2E9"/><path d="M367.691 494.196c0 2.96.315 5.513-.11 7.936-.278 1.582-1.629 2.977-2.5 4.455-.723-1.399-1.672-2.733-2.098-4.217-.348-1.211-.071-2.601-.071-4.436-2.663.887-4.476 6.511-7.739-.254-.455 3.078-.355 4.917-1.061 6.362-.544 1.113-2.097 2.355-3.21 2.364-.83.006-2.318-1.819-2.398-2.911-.295-3.974-.238-7.988-.049-11.975.052-1.102.908-2.967 1.592-3.061 1.2-.166 2.768.492 3.788 1.301 1.479 1.175 2.608 2.79 3.63 3.931l8.873-5.453c.451 1.832.902 3.664 1.353 5.958z" fill="#33B0E3"/><path d="M413.419 488.369c2.329 2.629 4.296 5.139 7.1 8.718.231-3.109.223-4.997.577-6.814.149-.768 1.153-2.011 1.607-1.944.9.132 2.377.987 2.412 1.61.276 4.962.355 9.943.166 14.906-.013.344-3.248 1.322-3.965.742-2.103-1.699-3.691-4.035-6.131-6.879-.149 2.019.031 3.601-.456 4.94-.422 1.159-1.798 2.982-2.404 2.855-1.31-.275-3.325-1.53-3.415-2.53-.383-4.292-.453-8.667.019-12.94.118-1.066 2.686-1.861 4.49-2.664z" fill="#3AB3E4"/><path d="M287.577 501.349c-.808.84-1.118 2.06-1.847 2.929-.819.976-2.078 2.32-3.03 2.234-.935-.085-2.394-1.722-2.46-2.753-.276-4.292-.154-8.613-.071-12.921.015-.754.344-1.708.871-2.208 1.473-1.401 10.717-.632 11.999 1.638 1.229 2.178.876 5.277 1.098 7.982.104 1.265-.101 2.553-.121 3.831-.023 1.477.003 2.955.008 4.433-1.434-.511-3.077-.745-4.237-1.619-.935-.706-1.287-2.184-2.21-3.546z" fill="#41B6E5"/><path d="M344.08 500.905c-2.786 4.827-6.776 7.019-11.761 5.622-3.695-1.035-6.621-3.541-6.93-8.012-.385-5.566 3.295-10.153 8.57-10.467 6.22-.37 10.533 3.511 10.565 9.553.006.983-.2 1.966-.444 3.304zm-8.289-8.376c-1.791 1.032-3.882 1.782-5.241 3.222-.63.668-.333 3.133.432 3.973 1.078 1.184 3.22 2.491 4.473 2.15 1.635-.444 3.933-2.428 3.96-3.787.031-1.64-2.021-3.319-3.624-5.558z" fill="#33B0E3"/><path d="M188.947 500.846v-12.737c3.843 0 7.268-.226 10.63.135 1.036.111 2.802 2.003 2.649 2.76-.288 1.423-1.729 2.614-3.122 4.48 1.047 2.038 2.764 4.698 3.689 7.611.262.824-1.628 3.212-2.807 3.437-2.72.519-5.617.277-8.429.113-3.831-.223-2.171-3.329-2.61-5.799zm8.424-6.463l-1.633-1.353-.713 1.689c.733.159 1.465.318 2.346-.336zm-.058 6.112l-3.171.935c1.855.368 2.499.684 3.01.536.387-.112.602-.815.161-1.471z" fill="#41B6E5"/><path d="M257.168 499.494c-.979-5.382 1.209-9.18 5.617-10.587 2.724-.869 6.659-.425 9.157.997 5.116 2.913 5.756 9.21 2.16 13.384-4.03 4.678-10.622 4.931-14.719.435-.964-1.057-1.465-2.534-2.215-4.229zm14.457-1.262l-5.052-7.618c-2.122 3.091-3.933 4.753-4.364 6.719-.261 1.193 1.746 4.143 2.499 4.064 2.277-.239 4.439-1.571 6.917-3.165zm133.483 8.144c-1.824-.487-3.707-.762-4.761-1.845-2.413-2.478-4.194-2.869-6.566.092-.874 1.091-2.884 1.27-4.377 1.865-.013-1.49-.325-3.053.021-4.454.775-3.135 1.57-6.335 2.957-9.221.882-1.837 2.615-3.844 4.406-4.43.958-.313 3.366 1.947 4.214 3.531 2.003 3.74 3.539 7.742 5.074 11.712.263.68-.41 1.721-.968 2.75zm-238.677-9.811c.369 1.562.771 3.118 1.097 4.689.285 1.375.935 2.912.555 4.099-.228.712-2.106 1.199-3.271 1.261-10.3.553-10.303.518-10.298-10.049.001-1.49-.071-2.986.037-4.468.194-2.664 1.295-4.302 4.382-3.992 2.131.213 4.381-.307 6.42.173 1.137.268 1.949 1.911 2.45 3.444-2.842.997-7.268 1.419-7.286 1.981-.143 4.51 4.269.963 5.914 2.862z" fill="#3AB3E4"/><path d="M238.556 500.398c.42 2.112.747 3.847 1.402 7.326-2.737-1.389-4.618-1.807-5.649-2.976-2.283-2.589-3.931-2.879-6.399-.119-1.039 1.162-3.343 1.193-5.072 1.738.065-1.668-.173-3.42.262-4.985.859-3.094 1.815-6.226 3.274-9.063.867-1.685 2.585-3.532 4.271-3.977 1.038-.274 3.195 1.689 4.041 3.124 1.571 2.668 2.55 5.684 3.87 8.932zm134.006-5.206c.867-2.654 1.393-6.497 2.659-6.758 4.255-.879 9.336-1.229 11.507 3.84.795 1.856-.35 4.693-1.043 6.95-.228.74-1.807 1.46-2.793 1.496-2.873.105-4.718 1.008-5.222 4.146-.115.713-1.605 1.724-2.396 1.668-.814-.058-2.112-1.18-2.214-1.964-.384-2.947-.366-5.946-.498-9.378z" fill="#41B6E5"/><path d="M313.552 501.285c1.394.172 2.482-.036 3.56.01 1.653.071 3.299.317 4.949.489-.918 1.441-1.511 3.397-2.818 4.223-3.407 2.152-9.26.358-11.9-3.232-2.965-4.035-3.05-8.189.555-11.545 3.314-3.085 7.661-4.966 11.903-1.771 1.018.768 1.449 2.316 2.15 3.505-1.407.372-2.804.786-4.222 1.107-1.932.438-3.88.805-5.821 1.203.445 1.915.889 3.83 1.644 6.011z" fill="#3AB3E4"/><path d="M210.565 505.468c-2.147-5.596-4.029-10.928-5.945-16.355 5.675-1.297 6.348-.592 8.902 7.465.806-1.569 1.548-3.175 2.436-4.695.759-1.299 1.482-2.773 2.626-3.627.557-.415 2.93.357 2.95.685.094 1.537-.181 3.155-.629 4.653-.873 2.92-2.008 5.761-2.926 8.669-1.177 3.73-3.039 5.868-7.414 3.205zm230.424-7.14c-.555 1.878-.627 3.547-1.156 5.056-.419 1.194-1.607 3.19-2.088 3.089-1.391-.293-3.261-1.179-3.758-2.34-1.774-4.139-3.144-8.462-4.451-12.781-.266-.88.193-2.783.691-2.928 1.133-.328 2.941-.315 3.669.391 1.223 1.186 1.82 3.019 2.794 4.785 2.59-1.838 3.382-7.783 9.202-4.504-1.56 3.025-3.088 5.989-4.903 9.232z" fill="#41B6E5"/><path d="M183.435 500.482c2.686 5.334 2.154 6.258-3.173 6.315-1.495.016-3.198.472-4.43-.092-1.427-.653-3.322-2.109-3.469-3.393-.45-3.935-.407-7.979-.013-11.926.122-1.222 1.98-2.271 3.043-3.4 1.114 1.083 2.7 1.98 3.216 3.297.565 1.443.292 3.288.119 4.93-.35 3.316 1.105 4.588 4.707 4.269z" fill="#5EC2E9"/><path d="M240.721 489.19c4.04-.597 7.981-1.221 11.853-.928 3.151.239 3.228 3.853 1.424 4.575-4.553 1.821-3.01 5.231-3.289 8.256-.091.99.28 2.239-.199 2.926-.759 1.09-2.055 1.808-3.124 2.683-.817-1.013-1.904-1.917-2.369-3.071-.405-1.005-.086-2.294-.125-3.456-.095-2.809.997-6.103-3.354-7.077-.552-.123-.643-2.308-.817-3.908z" fill="#41B6E5"/><path d="M166.643 496.262c-1.858-1.596-6.27 1.951-6.126-2.559.018-.562 4.443-.984 7.28-1.551-.011 1.216-.476 2.511-1.154 4.11z" fill="#D4EFF9"/><path d="M197.296 494.789c-.807.248-1.539.089-2.272-.07l.713-1.689c.544.451 1.089.902 1.559 1.759zm.383 5.814c.075.548-.141 1.251-.527 1.363-.511.148-1.156-.168-3.01-.537 1.87-.551 2.52-.743 3.537-.826z" fill="#FEFFFF"/><path d="M271.489 498.576c-2.342 1.251-4.505 2.583-6.782 2.822-.753.078-2.76-2.871-2.498-4.065.43-1.965 2.241-3.628 4.363-6.719 2.115 3.189 3.584 5.404 4.917 7.962z" fill="#D4EFF9"/></svg>