<svg width="567" height="299" viewBox="0 0 567 299" fill="none" xmlns="http://www.w3.org/2000/svg">
<path d="M296.541 8.81299C294.068 6.19956 291.595 3.58612 288.549 0.36713C290.394 0.206589 291.454 0.0355493 292.514 0.0341643C306.324 0.0160983 320.135 -0.0573353 333.943 0.113106C335.873 0.136917 338.296 0.860954 339.632 2.15055C362.245 23.9823 384.723 45.9544 407.223 67.9042C407.443 68.1188 407.547 68.4513 408.426 69.9888C407.108 70.907 405.475 72.0449 403.385 73.6091C381.752 94.6852 360.614 115.375 339.322 135.903C337.748 137.421 335.078 138.509 332.886 138.564C319.933 138.887 306.97 138.845 294.01 138.926C292.197 138.808 290.383 138.69 287.158 138.479C309.981 116.155 332.115 94.5029 354.719 72.4232C356.18 70.9472 357.172 69.8991 357.94 69.0867C353.39 64.3713 349.245 59.8398 344.851 55.5634C328.792 39.9339 312.651 24.3895 296.541 8.81299Z" fill="#294997"/>
<path d="M163.024 129.959C161.717 128.476 160.409 126.993 158.654 125.001C182.354 101.948 206.043 78.9063 230.398 55.6565C246.918 55.3704 262.772 55.2921 278.627 55.2139C277.133 57.1864 275.639 59.159 273.698 61.5686C251.636 82.9942 230.021 103.983 208.091 125.277C210.41 127.255 212.153 128.743 213.896 130.23C228.357 144.46 242.907 158.602 257.241 172.959C264.013 179.743 270.37 186.94 276.927 193.962C275.636 193.962 273.737 193.962 270.96 193.951C258.092 193.93 246.099 193.771 234.114 194.001C230.454 194.071 227.85 192.986 225.346 190.419C219.77 184.705 213.97 179.208 208.23 173.654C193.17 159.08 178.094 144.523 163.024 129.959Z" fill="#284997"/>
<path d="M157.271 113.183C157.046 109.753 156.647 106.324 156.628 102.894C156.567 91.7492 156.55 80.6019 156.761 69.4602C156.798 67.519 157.473 65.0383 158.782 63.7553C179.442 43.5106 200.254 23.42 221.043 3.30699C221.367 2.99383 221.847 2.84264 222.969 2.21777C222.969 11.5682 223.052 20.4444 222.941 29.3181C222.863 35.5856 222.525 41.8499 221.799 48.6191C199.955 70.4759 178.613 91.8292 157.271 113.183Z" fill="#294997"/>
<path d="M344.033 191.917C343.962 177.624 343.837 163.331 343.9 149.04C343.907 147.572 344.673 145.742 345.71 144.7C366.446 123.846 387.273 103.081 408.092 82.3085C408.429 81.9716 408.89 81.7576 409.295 81.4844C409.56 81.6933 410.002 81.8788 410.002 82.0661C410.065 97.1884 410.102 112.311 410.094 127.433C410.094 128.034 409.64 128.634 408.879 129.726C400.943 137.356 393.537 144.505 386.106 151.629C372.089 165.066 358.058 178.488 344.033 191.917Z" fill="#284897"/>
<path d="M374.167 287.049C375.444 284.608 377.718 282.21 377.824 279.719C378.248 269.77 378.146 259.789 377.929 249.827C377.839 245.667 378.93 243.815 383.494 243.906C392.552 244.086 392.975 243.832 393.758 253.811C394.12 258.43 395.719 259.229 399.752 259.077C407.051 258.801 414.371 258.881 421.676 259.052C424.837 259.126 426.02 258.189 426.076 254.848C426.259 243.996 426.39 243.998 437.083 243.999C438.412 243.999 439.741 244 441.536 244.47C442.002 259.625 442.001 274.311 442 288.996C441.742 289.609 441.394 290.201 441.241 290.839C440.687 293.139 440.597 297.226 439.614 297.447C435.974 298.265 432.012 298.094 428.253 297.628C427.341 297.515 426.179 294.89 426.091 293.365C425.439 282.005 425.515 282.001 414.032 282.001C409.201 282.001 404.371 282.033 399.541 281.993C396.08 281.964 393.781 282.856 393.912 287.063C393.998 289.839 393.592 292.718 392.837 295.39C392.53 296.478 390.733 297.847 389.58 297.879C381.758 298.099 373.896 298.383 366.117 297.763C363.777 297.577 360.685 295.04 359.643 292.789C357.456 288.068 354.41 286.294 349.452 286.962C347.652 287.204 345.769 287.189 343.965 286.962C340.255 286.493 337.882 287.907 336.776 291.469C335.146 296.723 331.678 298.812 326.18 298.066C323.428 297.692 320.584 298.001 316.908 298.001C318.065 294.948 318.958 292.59 320.521 288.464C317.584 289.593 315.175 289.765 314.157 291.044C310.168 296.056 305.001 297.978 298.886 297.992C285.894 298.02 272.898 297.811 259.913 298.097C254.95 298.207 252.094 297.187 252.956 291.569C253.047 290.975 252.743 290.32 252.632 289.744C252.138 289.655 251.632 289.45 251.545 289.564C246.191 296.609 238.853 298.417 230.43 298.064C223.115 297.757 215.773 297.876 208.448 298.033C200.511 298.204 195.074 294.156 190.343 287.588C190.003 276.042 190.003 265.02 190.004 253.997C192.191 251.891 194.058 249.161 196.644 247.83C200.203 245.999 204.244 244.49 208.189 244.161C215.133 243.581 222.161 243.962 229.153 244.007C241.005 244.082 241.909 242.844 252.197 252.337C254.456 243.999 254.456 243.999 264.159 243.999C275.813 243.999 287.469 244.125 299.121 243.963C310.58 243.804 316.66 251.231 316.167 260.719C315.765 268.444 316.823 276.245 317.256 284.444C318.742 283.919 320.015 283.47 321.586 283.407C321.562 284.666 321.24 285.538 320.581 287.323C325.469 285.847 330.622 289.733 334.233 284.018C340.761 284.378 346.857 284.866 352.957 284.917C356.233 284.944 358.377 285.577 360.082 288.841C363.641 295.654 365.113 296.019 373.403 294.394C373.753 289.436 370.761 288.765 366.765 288.951C364.499 289.056 361.099 289.837 362.913 285.623C366.851 286.29 370.509 286.67 374.167 287.049ZM391.798 260.541C391.627 260.3 391.404 260.124 390.953 259.097C390.953 254.872 390.953 250.647 390.953 246.486C387.105 246.486 384.177 246.486 381.073 246.486C381.073 260.08 381.073 273.391 381.073 286.665C384.486 286.665 387.543 286.665 391.127 286.665C391.127 281.882 391.127 277.433 391.513 272.75C391.749 272.548 391.911 272.298 392.917 271.786C404.674 271.786 416.431 271.786 428.674 271.786C428.674 277.273 428.674 282.02 428.674 286.739C432.283 286.739 435.385 286.739 438.653 286.739C438.653 273.234 438.653 259.994 438.653 246.578C435.195 246.578 432.003 246.578 428.332 246.578C428.332 251.527 428.332 256.116 428.332 260.925C415.895 260.925 403.943 260.925 391.798 260.541ZM311.54 281.956C315.089 277.637 315.816 273.113 312.794 268.144C312.281 267.301 312.178 265.934 312.424 264.944C315.588 252.233 311.088 246.309 297.958 246.228C285.795 246.152 273.631 246.21 261.467 246.21C259.697 246.21 257.926 246.21 256.148 246.21C256.148 260.145 256.148 273.393 256.148 287.001C270.576 287.001 284.709 286.898 298.839 287.058C303.614 287.112 307.705 285.98 311.54 281.956ZM195.155 281.131C198.665 283.052 202.076 286.375 205.703 286.63C216.296 287.374 226.979 287.086 237.618 286.828C244.897 286.651 250.035 281.187 250.212 273.991C250.335 269.004 250.382 264.005 250.172 259.024C249.905 252.711 245.76 247.222 239.675 246.957C227.746 246.438 215.759 246.548 203.829 247.106C199.045 247.33 194.087 250.437 193.762 255.421C193.22 263.713 194.328 272.114 195.155 281.131ZM293.472 295C296.298 294.998 299.128 295.097 301.948 294.973C307.859 294.713 312.262 290.981 313.181 286.004C308.995 286.977 304.653 288.737 300.264 288.868C287.145 289.257 274.007 288.987 260.877 289.029C258.702 289.036 255.926 288.237 256.01 292.1C256.095 296.016 258.989 294.946 261.069 294.963C271.539 295.044 282.01 295 293.472 295ZM210.565 289.006C205.197 288.209 199.828 287.412 194.633 286.64C194.981 290.821 199.026 294.824 204.706 294.928C215.859 295.131 227.021 295.138 238.173 294.931C244.406 294.816 249.736 289.254 249.4 283.009C244.861 288.975 238.843 289.262 232.525 289.058C225.539 288.831 218.54 289.006 210.565 289.006ZM423.142 279.983C424.078 278.788 425.015 277.594 425.951 276.399C424.78 275.602 423.624 274.143 422.433 274.115C413.985 273.914 405.526 273.878 397.081 274.134C395.707 274.176 393.492 275.719 393.212 276.927C392.455 280.192 395.156 279.998 397.35 279.997C405.637 279.991 413.924 279.994 423.142 279.983ZM323.175 294.979C325.501 294.969 327.977 295.445 330.1 294.784C331.608 294.314 332.64 292.311 333.884 290.992C332.604 290.331 331.386 289.399 330.026 289.084C328.609 288.755 326.996 288.763 325.57 289.08C322.462 289.769 320.902 291.553 323.175 294.979ZM434.49 294.999C436.544 294.899 438.946 295.56 439.007 292.098C439.065 288.733 436.86 288.999 434.678 289.007C432.639 289.015 430.601 289.009 428.567 289.009C428.558 293.229 429.422 295.734 434.49 294.999ZM381.026 291.568C381.848 292.7 382.59 294.709 383.508 294.794C385.833 295.007 388.237 294.356 390.61 294.051C390.288 292.446 389.884 289.437 389.656 289.45C386.791 289.617 383.951 290.22 381.026 291.568ZM376.085 291.3C376.592 291.557 377.1 291.814 377.607 292.071C377.603 291.339 377.6 290.608 377.596 289.876C377.091 290.138 376.586 290.4 376.085 291.3Z" fill="#F6F7F9"/>
<path d="M190.003 253.54C190.003 265.02 190.003 276.042 190.003 287.534C189.697 299.652 192.199 297.707 179.513 298.06C176.028 298.157 174.908 297.03 174.924 293.516C174.979 281.959 177.537 281.884 162.908 281.996C158.077 282.033 153.245 282.002 148.414 282.005C144.196 282.008 141.695 283.18 141.883 288.343C142.236 297.992 141.944 298.002 132.169 298.001C117.008 298.001 101.846 297.896 86.686 298.04C77.1908 298.13 68.143 297.623 63.6996 286.866C62.6348 287.573 61.7066 287.848 61.4073 288.44C57.7097 295.757 51.425 298.211 43.7055 297.995C33.2519 297.704 22.7447 297.913 12.3658 296.865C5.42069 296.164 1.05635 289.743 1.00925 282.615C0.961916 275.451 1.7151 268.197 0.827065 261.144C-0.437232 251.104 9.21713 243.859 17.8965 243.971C27.5581 244.096 37.2232 243.93 46.8854 244.024C53.0195 244.084 57.6936 246.801 60.6534 252.28C61.2719 253.425 61.9575 254.533 62.8572 256.08C63.7056 255.142 64.6046 254.578 64.8564 253.804C67.2043 246.586 73.1057 244.228 79.6473 244.117C98.9681 243.79 118.299 244.082 137.624 243.927C141.28 243.898 142.061 245.289 142.069 248.619C142.095 258.999 142.214 258.999 152.614 258.999C158.278 258.999 163.965 258.692 169.601 259.095C174.206 259.424 175.208 257.65 175.093 253.392C174.837 243.944 175.053 244.195 184.592 243.887C189.161 243.74 190.646 245.313 190.026 249.588C189.861 250.73 190.002 251.917 190.003 253.54ZM128.086 267.001C112.955 267.003 97.824 267.051 82.6937 266.963C79.8498 266.946 78.8472 268.029 78.962 270.79C79.0587 273.117 79.0155 275.1 82.2702 275.018C97.8544 274.624 113.441 274.329 129.223 274.91C129.223 278.848 129.223 282.785 129.223 286.782C133.036 286.782 136.139 286.782 139.931 286.782C139.931 281.701 139.931 276.835 139.931 272.121C152.685 272.121 164.742 272.121 177.259 272.121C177.259 277.222 177.259 281.968 177.259 286.828C180.841 286.828 183.952 286.828 187.25 286.828C187.25 273.27 187.25 259.902 187.25 246.476C183.768 246.476 180.68 246.476 176.994 246.476C176.994 251.464 176.994 256.179 176.994 260.842C164.314 260.842 152.241 260.842 139.759 260.842C139.759 258.589 139.759 256.628 139.759 254.666C139.761 245.304 139.761 245.303 130.254 246.436C130.116 246.452 129.995 246.614 129.027 247.322C129.027 253.465 129.027 260.234 128.086 267.001ZM60.1463 258.003C59.1535 251.927 55.7317 247.247 49.6652 246.93C37.8924 246.316 26.0285 246.315 14.2656 247.059C6.93684 247.522 3.13723 253.031 3.08603 260.529C3.05532 265.026 2.93993 269.529 3.12428 274.019C3.42954 281.454 8.4224 286.687 15.7503 286.842C26.4058 287.066 37.0737 287.076 47.7286 286.837C54.9461 286.675 60.0676 281.163 60.2299 273.894C60.3413 268.9 60.2286 263.901 60.1463 258.003ZM94.5014 276.869C88.7124 276.869 82.9234 276.869 76.8109 276.869C76.8109 269.973 76.8109 263.601 76.8109 256.537C92.5963 256.537 108.122 256.537 123.54 256.537C123.54 252.77 123.54 249.7 123.54 246.25C119.027 246.25 114.891 246.208 110.756 246.259C99.6115 246.394 88.4397 246.147 77.3332 246.879C70.0576 247.358 66.4568 251.892 66.0587 259.174C65.8228 263.491 65.9576 267.83 65.9607 272.159C65.9679 282.231 70.7703 286.978 81.0269 286.999C93.6811 287.024 106.335 287.005 118.99 287.005C120.569 287.005 122.148 287.005 123.628 287.005C123.628 283.258 123.628 280.321 123.628 276.869C114.063 276.869 104.782 276.869 94.5014 276.869ZM102.5 295.001C108.494 295 114.493 295.128 120.477 294.886C121.666 294.838 122.798 293.37 123.956 292.556C122.878 291.383 121.967 289.938 120.661 289.132C119.813 288.609 118.39 289.009 117.225 289.009C107.568 289.007 97.9109 289.031 88.2541 289C80.7252 288.975 72.9426 290.251 66.1521 283.797C67.6107 291.07 72.0758 294.871 78.5237 294.971C86.1809 295.088 93.8412 295 102.5 295.001ZM48.8755 294.976C56.3101 292.71 59.2347 289.796 59.3423 285.026C55.5544 286.321 51.5624 288.965 47.7122 288.773C33.2521 288.05 18.4201 292.185 4.29494 285.58C5.52792 291.901 9.63416 294.928 17.0507 294.979C27.3645 295.051 37.6791 294.995 48.8755 294.976ZM105.499 259.004C97.8691 259.005 90.2347 258.881 82.6128 259.135C81.391 259.176 80.2255 260.906 79.034 261.855C80.1291 262.899 81.2093 264.833 82.3215 264.852C95.0904 265.065 107.865 265.065 120.634 264.854C121.761 264.835 122.856 262.928 123.965 261.898C122.788 260.934 121.663 259.23 120.423 259.141C115.802 258.808 111.143 259.005 105.499 259.004ZM152.529 274.003C150.376 274.003 148.139 273.646 146.097 274.124C144.609 274.473 142.56 275.686 142.199 276.931C141.405 279.676 143.62 280.022 145.836 280.011C154.283 279.97 162.731 279.969 171.178 280.012C173.406 280.023 175.6 279.648 174.797 276.917C174.431 275.673 172.304 274.211 170.906 274.135C165.126 273.823 159.319 274.003 152.529 274.003ZM177.414 289.873C176.926 294.795 178.957 296.308 184.644 294.846C185.61 294.598 186.828 292.898 186.799 291.903C186.769 290.926 185.41 289.341 184.437 289.174C182.38 288.82 180.194 289.216 177.414 289.873ZM138.9 290.715C136.381 290.222 133.863 289.729 131.344 289.237C131.135 290.96 130.137 293.231 130.876 294.295C132.532 296.678 138.219 294.605 138.9 290.715Z" fill="#F7F8FA"/>
<path d="M230.129 46.697C230.129 31.4036 230.129 16.1101 230.129 0.419922C246.677 0.419922 263.021 0.419922 279.889 0.419922C279.889 15.599 279.889 30.6903 279.421 46.2923C262.678 46.7678 246.404 46.7324 230.129 46.697Z" fill="#294997"/>
<path d="M287.067 193.838C287.018 179.217 286.945 164.596 286.973 149.976C286.975 149.028 287.747 148.081 288.951 147.116C290.5 147.045 291.258 146.99 292.017 146.935C306.738 146.935 321.46 146.935 336.64 146.935C336.64 162.809 336.64 178.152 335.856 193.718C319.071 193.908 303.069 193.873 287.067 193.838Z" fill="#294997"/>
<path d="M289.076 57.8624C288.499 56.3716 287.438 54.8856 287.423 53.3891C287.293 40.5856 287.347 27.7803 287.374 14.9755C287.376 14.3834 287.641 13.7919 287.764 13.2822C306.077 31.5603 324.254 49.7026 342.657 68.0711C341.506 69.3147 340.171 70.756 338.371 72.6196C332.601 78.6473 327.296 84.2526 320.73 91.1897C309.555 79.4238 299.315 68.6431 289.076 57.8624Z" fill="#2A4A98"/>
<path d="M228.009 130.986C226.686 129.524 225.363 128.062 224.092 126.656C231.322 119.469 238.461 112.372 246.729 104.152C249.773 107.625 252.972 111.599 256.512 115.241C263.11 122.029 270.03 128.507 276.526 135.389C278.031 136.983 279.081 139.67 279.12 141.875C279.343 154.666 279.201 167.463 278.8 180.61C273.143 175.699 267.884 170.421 262.59 165.178C251.072 153.771 239.537 142.382 228.009 130.986Z" fill="#294997"/>
<path d="M565.268 255.975C565.268 255.975 565.241 255.824 564.794 255.778C562.608 256.096 560.874 256.752 559.131 256.774C550.472 256.882 541.811 256.823 533.15 256.823C527.877 256.823 522.605 256.823 517.347 256.823C517.351 261.12 517.349 261.206 520.389 261.268C524.551 261.353 528.716 261.291 532.88 261.291C542.997 261.291 553.114 261.291 563.507 261.291C563.507 265.047 563.507 268.271 563.507 271.99C548.009 271.99 532.767 271.99 517.673 271.99C516.04 276.012 518.108 276.284 520.83 276.27C531.989 276.215 543.148 276.248 554.306 276.248C564.443 276.248 564.444 276.248 563.664 286.27C563.654 286.4 563.48 286.516 562.629 287.591C546.809 287.101 530.254 286.588 513.697 286.098C513.694 286.121 513.687 286.089 513.68 285.839C513.234 285.318 512.795 285.048 512.176 284.502C510.728 283.036 509.46 281.845 508.095 280.271C507.421 273.917 506.844 267.947 506.388 261.58C506.202 254.492 508.911 249.625 515.611 246.861C517.378 246.59 518.682 246.144 519.987 246.141C534.115 246.11 548.243 246.142 562.37 246.196C562.79 246.198 563.209 246.621 562.96 246.486C563.82 250.022 564.544 252.999 565.268 255.975Z" fill="#2F4F9A"/>
<path d="M459.043 272.091C464.087 267.204 469.131 262.317 474.505 257.067C474.837 256.704 475.078 256.295 475.078 256.295C477.656 253.887 480.234 251.479 483.333 248.635C489.251 244.263 494.44 244.951 499.484 248.897C499.726 249.478 499.969 250.059 500.421 251.094C500.812 252.094 500.992 252.64 501.126 253.581C501.156 256.655 501.233 259.335 501.223 262.475C501.194 269.952 501.252 276.968 501.214 284.349C501.047 285.464 500.977 286.213 500.452 286.978C497.056 286.993 494.115 286.993 490.463 286.993C490.463 277.304 490.463 268.142 490.463 257.426C487.822 259.922 486.333 261.329 484.562 262.857C483.757 263.591 483.234 264.204 482.422 264.925C481.596 265.643 481.059 266.254 480.235 267C476.336 270.773 472.724 274.41 468.805 278.182C465.979 280.822 463.46 283.328 460.589 285.944C456.85 286.354 453.463 286.654 449.887 286.71C448.849 285.892 448.001 285.318 447.012 284.415C446.048 282.116 444.558 280.161 444.513 278.172C444.274 267.769 444.401 257.358 444.401 246.687C447.912 246.687 451.126 246.687 454.951 246.687C454.951 256.487 454.951 265.977 454.951 276.635C456.893 274.479 457.968 273.285 459.043 272.091ZM490.482 257.449L490.323 257.75C490.323 257.75 490.612 257.702 490.482 257.449Z" fill="#2E4E9A"/>
<path d="M333.802 283.965C330.622 289.733 325.468 285.847 320.58 287.323C321.239 285.539 321.561 284.666 321.953 283.4C324.255 278.897 326.487 274.788 328.975 270.042C329.715 268.321 330.198 267.237 330.682 266.152C330.682 266.152 330.703 265.931 330.919 265.695C333.864 260.055 336.593 254.651 339.322 249.248C339.322 249.248 339.202 249.216 339.599 249.265C343.741 245.789 348.06 245.694 352.647 247.198C353.497 248.071 354.347 248.943 355.575 250.291C357.698 253.841 359.444 256.917 361.189 259.993C361.595 260.894 362.001 261.795 362.714 263.216C365.741 268.822 368.46 273.907 371.18 278.993C371.391 279.525 371.601 280.057 372.057 281.074C372.604 282.038 372.905 282.516 373.206 282.994C373.629 284.123 374.053 285.252 374.322 286.715C370.508 286.67 366.85 286.29 362.902 285.641C362.612 285.37 362.591 285.35 362.547 285.075C362.069 284.191 361.635 283.58 361.146 282.641C360.484 281.4 359.876 280.489 359.177 279.22C357.843 277.997 356.628 276.438 355.355 276.39C350.212 276.196 345.052 276.467 339.562 276.472C338.808 276.538 338.391 276.699 337.701 276.917C337.277 277.301 337.124 277.626 336.71 278.17C335.567 280.247 334.684 282.106 333.802 283.965ZM345.987 265.989C347.883 265.989 349.78 265.989 352.533 265.989C350.726 262.728 349.407 260.347 347.738 257.336C346.522 259.36 345.688 260.72 344.884 262.098C344.466 262.813 343.791 263.565 343.807 264.288C343.819 264.862 344.704 265.418 345.987 265.989Z" fill="#2B4C99"/>
<path d="M162.82 130.234C178.094 144.523 193.17 159.081 208.231 173.655C213.97 179.209 219.771 184.705 225.346 190.42C227.85 192.987 230.454 194.071 234.114 194.001C246.099 193.771 258.092 193.931 270.545 194.022C273.095 196.49 275.183 198.875 277.916 201.998C266.69 201.998 256.193 201.135 245.901 202.219C233.318 203.543 224.618 199.157 216.035 189.98C198.911 171.67 180.465 154.594 162.517 137.056C160.106 134.699 158.755 132.638 162.82 130.234Z" fill="#E9EBEC"/>
<path d="M292.323 146.655C291.259 146.99 290.5 147.045 289.369 147.017C290.645 144.498 292.295 142.062 293.977 139.276C306.969 138.846 319.932 138.887 332.886 138.564C335.077 138.51 337.747 137.422 339.322 135.904C360.614 115.375 381.751 94.6855 403.217 73.9092C407.88 75.8701 407.495 78.1839 404.274 81.2923C389.913 95.1482 375.708 109.166 361.393 123.07C354.482 129.783 347.586 136.524 340.385 142.917C338.505 144.587 335.534 145.788 333.024 145.863C319.566 146.268 306.096 146.249 292.323 146.655Z" fill="#E9EBEC"/>
<path d="M513.698 286.076C530.254 286.589 546.809 287.102 562.629 287.592C563.48 286.517 563.653 286.4 563.664 286.27C564.444 276.248 564.443 276.248 554.306 276.248C543.148 276.248 531.989 276.215 520.83 276.27C518.108 276.284 516.04 276.012 517.672 271.991C532.766 271.991 548.009 271.991 563.507 271.991C563.507 268.271 563.507 265.047 563.507 261.291C553.113 261.291 542.997 261.292 532.88 261.291C528.716 261.291 524.551 261.353 520.389 261.268C517.349 261.206 517.351 261.12 517.347 256.823C522.604 256.823 527.877 256.823 533.15 256.823C541.81 256.823 550.471 256.882 559.131 256.774C560.873 256.752 562.608 256.096 564.735 255.774C565.415 257.426 565.948 259.033 565.959 260.644C566.034 271.616 565.876 282.592 566.069 293.562C566.132 297.12 564.866 298.104 561.455 298.062C548.655 297.906 535.845 298.237 523.054 297.864C518.878 297.742 513.912 298.363 511.42 293.393C528.332 297.243 545.178 294.043 561.876 294.859C562.528 294.891 563.922 293.302 563.803 292.697C563.557 291.44 562.78 289.922 561.746 289.289C560.755 288.684 559.162 289.02 557.834 289.018C545.022 289.005 532.207 289.13 519.399 288.876C517.481 288.839 515.598 287.053 513.698 286.076Z" fill="#FDFDFD"/>
<path d="M213.927 129.85C212.153 128.743 210.41 127.256 208.092 125.277C230.022 103.983 251.637 82.9944 273.56 61.8613C275.192 62.8111 276.515 63.9054 278.208 65.305C272.523 70.9795 266.597 76.9976 260.559 82.9012C249.032 94.1712 237.465 105.401 225.861 116.591C222.881 119.465 219.588 122.019 216.662 124.943C215.457 126.148 214.842 127.943 213.927 129.85Z" fill="#E6E8EB"/>
<path d="M344.019 192.342C358.058 178.487 372.089 165.065 386.106 151.628C393.537 144.505 400.942 137.355 408.672 130.097C410.944 133.779 409.967 136.715 406.908 139.671C391.059 154.984 375.404 170.496 359.584 185.84C354.845 190.436 349.793 194.711 344.006 199.924C344.006 197.087 344.006 194.928 344.019 192.342Z" fill="#E3E5EA"/>
<path d="M296.097 8.86133C312.65 24.3904 328.791 39.9348 344.85 55.5643C349.244 59.8407 353.389 64.3723 357.939 69.0877C357.171 69.9 356.18 70.9481 354.906 72.1296C349.779 68.033 344.725 64.0167 340.131 59.5302C328.973 48.6346 318.077 37.4724 306.977 26.517C302.27 21.8709 297.301 17.4913 292.488 12.9504C291.458 11.9785 290.592 10.833 289.17 9.22464C291.822 9.09545 293.738 9.00208 296.097 8.86133Z" fill="#E6E8EB"/>
<path d="M157.202 113.649C178.613 91.8289 199.955 70.4756 221.604 48.9844C223.487 52.1164 223.572 54.9975 220.694 57.8573C200.21 78.2134 179.82 98.6635 159.391 119.075C158.938 119.527 158.385 119.877 157.133 120.861C157.133 118.176 157.133 116.146 157.202 113.649Z" fill="#E3E5EA"/>
<path d="M288.916 58.2227C299.317 68.6434 309.557 79.424 320.732 91.19C327.297 84.2529 332.602 78.6475 338.194 72.9101C342.215 74.5967 343.027 76.7116 339.661 79.8983C334.601 84.6894 329.686 89.6429 324.874 94.684C322.588 97.0785 320.85 97.4822 318.321 94.8958C309.039 85.4022 299.628 76.032 290.168 66.7155C287.634 64.2205 287.48 61.5961 288.916 58.2227Z" fill="#E6E8EB"/>
<path d="M227.807 131.26C239.538 142.383 251.073 153.772 262.59 165.179C267.884 170.422 273.144 175.699 278.745 181.09C279.07 183.505 279.07 185.791 279.07 188.933C277.637 187.81 276.843 187.309 276.195 186.663C259.97 170.464 243.779 154.229 227.524 138.06C225.159 135.707 223.724 133.666 227.807 131.26Z" fill="#E3E5EA"/>
<path d="M230.092 47.1772C246.403 46.733 262.678 46.7684 279.408 46.7412C279.681 49.3438 279.497 52.0088 278.971 54.9441C262.773 55.2926 246.918 55.3708 230.606 55.4112C230.118 52.8011 230.087 50.2289 230.092 47.1772Z" fill="#E9EBEC"/>
<path d="M287.049 194.298C303.068 193.873 319.07 193.908 335.537 194.004C336.379 196.438 336.755 198.811 337.261 202C332.518 202 328.582 202 324.646 202C314.503 202 304.36 202 294.217 201.999C286.97 201.999 286.97 201.997 287.049 194.298Z" fill="#ECEDED"/>
<path d="M513.696 286.098C515.597 287.052 517.481 288.838 519.399 288.876C532.206 289.129 545.021 289.005 557.834 289.018C559.162 289.019 560.755 288.683 561.745 289.289C562.78 289.921 563.557 291.439 563.803 292.696C563.922 293.302 562.527 294.891 561.876 294.859C545.178 294.043 528.331 297.242 511.37 293.025C510.184 291.746 509.388 290.521 508.25 288.762C508.002 285.703 508.096 283.178 508.19 280.653C509.459 281.845 510.728 283.036 511.893 284.706C511.737 285.602 511.684 286.02 511.631 286.438C512.316 286.321 513.001 286.205 513.686 286.089C513.686 286.089 513.694 286.121 513.696 286.098Z" fill="#ECEDED"/>
<path d="M484.843 262.737C486.332 261.329 487.822 259.922 490.463 257.427C490.463 268.143 490.463 277.304 490.463 286.994C494.115 286.994 497.056 286.994 500.778 287.032C502.042 287.714 502.524 288.358 503.007 289.001C502.987 297.803 499.611 300.403 491.105 297.797C490.117 297.495 489.197 295.408 489.084 294.077C488.554 287.818 488.328 281.534 487.956 275.261C487.92 274.647 487.628 274.049 487.208 272.584C485.462 273.824 483.958 274.625 482.787 275.767C477.555 280.876 472.472 286.138 467.207 291.212C465.97 292.404 464.235 293.08 462.363 293.995C461.996 293.996 461.99 293.988 462.128 293.678C463.052 292.319 463.716 291.146 464.642 290.24C471.766 283.263 478.928 276.324 486.107 269.403C489.133 266.486 488.654 264.316 484.843 262.737ZM500.973 291.564C499.499 289.075 492.712 287.765 491.544 289.913C490.942 291.02 490.948 293.003 491.556 294.107C492.733 296.246 499.522 294.919 500.973 291.564Z" fill="#FDFDFD"/>
<path d="M458.811 271.772C457.969 273.286 456.894 274.48 454.952 276.636C454.952 265.978 454.952 256.488 454.952 246.687C451.127 246.687 447.913 246.687 444.402 246.687C444.402 257.359 444.275 267.77 444.513 278.173C444.559 280.161 446.049 282.116 446.848 284.744C446.645 287.433 445.668 289.866 446.447 291.415C448.166 294.83 451.429 296.594 455.435 295.883C457.662 295.488 459.808 294.635 461.991 293.988C461.991 293.988 461.998 293.997 461.999 293.999C459.739 298.273 452.718 299.84 448.434 296.525C446.056 294.686 444.466 291.828 442.261 289.213C442.001 274.311 442.002 259.626 442.004 244.472C445.63 244.003 449.264 244.173 452.874 243.952C456.205 243.748 457.146 245.151 457.053 248.29C456.872 254.379 456.892 260.481 457.074 266.57C457.123 268.211 458.052 269.825 458.811 271.772Z" fill="#FDFDFD"/>
<path d="M508.095 280.271C508.098 283.179 508.004 285.703 507.962 288.609C507.443 289.141 506.871 289.292 506.003 288.886C504.848 286.268 504.988 283.196 501.311 283.985C501.253 276.969 501.195 269.952 501.635 262.474C503.511 262 504.889 261.988 506.267 261.977C506.844 267.947 507.421 273.918 508.095 280.271Z" fill="#FDFDFD"/>
<path d="M565.508 255.467C564.544 252.998 563.82 250.022 562.96 246.486C563.209 246.621 562.791 246.197 562.371 246.195C548.243 246.142 534.115 246.109 519.987 246.141C518.682 246.144 517.378 246.59 515.575 246.387C515.05 245.63 515.024 245.315 514.998 245C517.092 244.666 519.184 244.058 521.281 244.043C534.209 243.954 547.143 244.215 560.063 243.887C564.904 243.764 566.74 245.262 566.026 250.006C565.781 251.634 565.832 253.306 565.508 255.467Z" fill="#FDFDFD"/>
<path d="M514.632 245.005C515.023 245.315 515.049 245.63 515.112 246.418C508.91 249.625 506.201 254.492 506.388 261.579C504.888 261.988 503.51 262 501.721 262.013C501.233 259.336 501.156 256.655 501.585 253.533C502.396 253.061 502.701 253.031 503.007 253C504.551 251.956 506.116 250.944 507.632 249.862C509.862 248.27 512.057 246.63 514.632 245.005Z" fill="#F5F6F9"/>
<path d="M499.612 248.493C494.44 244.951 489.251 244.264 483.504 248.368C483.506 247.359 483.49 245.759 484.274 245.074C488.75 241.163 497.139 242.89 499.612 248.493Z" fill="#F6F7F9"/>
<path d="M371.494 278.925C368.461 273.907 365.741 268.821 362.963 263.384C363.833 263.26 365.303 263.197 365.605 263.76C368.079 268.37 370.348 273.092 372.611 277.812C372.697 277.991 372.091 278.502 371.494 278.925Z" fill="#F6F7F9"/>
<path d="M338.955 249.218C336.592 254.651 333.863 260.054 330.831 265.625C330.337 258.861 334.255 253.924 338.955 249.218Z" fill="#F6F7F9"/>
<path d="M352.931 246.997C348.061 245.694 343.742 245.789 339.622 249.323C339.356 244.601 343.242 244.449 346.294 244.176C348.685 243.962 352.263 242.47 352.931 246.997Z" fill="#F6F7F9"/>
<path d="M361.515 259.921C359.444 256.917 357.699 253.841 355.848 250.429C359.686 250.931 362.961 256.17 361.515 259.921Z" fill="#F6F7F9"/>
<path d="M501.214 284.35C504.987 283.197 504.847 286.268 505.851 288.666C505.249 289.001 504.502 289.001 503.381 289.001C502.525 288.358 502.042 287.715 501.233 287.017C500.977 286.214 501.047 285.464 501.214 284.35Z" fill="#F5F6F9"/>
<path d="M330.302 266.123C330.199 267.237 329.716 268.321 329.025 269.7C326.785 268.452 327.047 267.526 330.302 266.123Z" fill="#F6F7F9"/>
<path d="M373.492 282.937C372.904 282.516 372.603 282.038 372.264 281.28C372.952 281.167 373.679 281.334 374.405 281.502C374.197 281.961 373.988 282.42 373.492 282.937Z" fill="#F6F7F9"/>
<path d="M502.94 252.648C502.702 253.031 502.396 253.061 501.631 253.139C500.992 252.641 500.812 252.095 500.594 251.262C501.328 251.415 502.101 251.855 502.94 252.648Z" fill="#FDFDFD"/>
<path d="M474.936 256.101C475.078 256.295 474.837 256.704 474.613 256.775C474.524 256.533 474.659 256.22 474.936 256.101Z" fill="#FDFDFD"/>
<path d="M311.301 282.243C307.705 285.981 303.614 287.112 298.84 287.058C284.71 286.899 270.577 287.001 256.148 287.001C256.148 273.393 256.148 260.145 256.148 246.21C257.927 246.21 259.697 246.21 261.468 246.21C273.631 246.211 285.795 246.153 297.959 246.228C311.088 246.309 315.588 252.233 312.425 264.944C312.178 265.935 312.281 267.301 312.794 268.145C315.817 273.113 315.09 277.638 311.301 282.243ZM282.504 256.818C278.347 256.82 274.189 256.897 270.034 256.799C266.624 256.718 266.088 258.151 267.317 260.788C279.321 260.788 291.05 260.788 302.779 260.788C303.03 260.311 303.281 259.834 303.532 259.358C302.342 258.512 301.184 256.997 299.956 256.937C294.483 256.67 288.989 256.819 282.504 256.818ZM283.502 276.337C288.832 276.336 294.166 276.241 299.493 276.37C302.696 276.448 303.653 275.256 302.582 272.175C290.654 272.175 278.903 272.175 267.153 272.175C266.856 272.666 266.56 273.158 266.263 273.649C267.512 274.543 268.706 276.101 270.019 276.208C274.157 276.544 278.338 276.335 283.502 276.337Z" fill="#2E4E9A"/>
<path d="M194.948 280.8C194.328 272.114 193.22 263.714 193.762 255.421C194.088 250.437 199.046 247.33 203.829 247.106C215.759 246.548 227.747 246.438 239.676 246.957C245.761 247.222 249.906 252.711 250.172 259.025C250.383 264.006 250.336 269.005 250.213 273.991C250.035 281.188 244.897 286.652 237.618 286.828C226.979 287.086 216.296 287.375 205.704 286.63C202.077 286.375 198.665 283.052 194.948 280.8ZM203.648 274.246C204.777 275.062 205.84 276.442 207.048 276.583C209.997 276.927 213.014 276.698 216.003 276.698C223.744 276.698 231.485 276.698 239.324 276.698C239.324 269.743 239.324 263.535 239.324 257.26C227.386 257.26 215.822 257.26 203.637 257.26C203.637 262.771 203.637 268.03 203.648 274.246Z" fill="#2E4E9A"/>
<path d="M391.127 272.984C391.127 277.433 391.127 281.882 391.127 286.665C387.542 286.665 384.486 286.665 381.072 286.665C381.072 273.391 381.072 260.08 381.072 246.486C384.176 246.486 387.104 246.486 390.952 246.486C390.952 250.647 390.952 254.872 391.012 259.827C391.378 260.679 391.685 260.802 391.991 260.925C403.942 260.925 415.894 260.925 428.331 260.925C428.331 256.115 428.331 251.527 428.331 246.578C432.002 246.578 435.194 246.578 438.652 246.578C438.652 259.994 438.652 273.234 438.652 286.739C435.384 286.739 432.282 286.739 428.674 286.739C428.674 282.02 428.674 277.273 428.674 271.786C416.43 271.786 404.673 271.786 392.176 271.889C391.333 272.322 391.23 272.653 391.127 272.984Z" fill="#2F4F9A"/>
<path d="M292.976 295C282.01 295 271.539 295.044 261.068 294.963C258.989 294.947 256.095 296.016 256.01 292.1C255.926 288.237 258.701 289.036 260.877 289.029C274.007 288.987 287.145 289.257 300.263 288.868C304.653 288.737 308.994 286.978 313.18 286.004C312.261 290.981 307.859 294.713 301.947 294.973C299.127 295.098 296.297 294.998 292.976 295Z" fill="#ECEDED"/>
<path d="M211.055 289.006C218.54 289.006 225.539 288.832 232.525 289.058C238.843 289.262 244.861 288.975 249.4 283.009C249.736 289.254 244.406 294.816 238.173 294.932C227.021 295.138 215.859 295.131 204.706 294.928C199.026 294.824 194.981 290.821 194.633 286.641C199.828 287.412 205.197 288.209 211.055 289.006Z" fill="#ECEDED"/>
<path d="M334.232 284.019C334.685 282.106 335.567 280.247 336.885 278.418C337.882 278.633 338.442 278.819 339.335 279.003C340.111 278.998 340.554 278.995 341.465 278.994C344.063 278.997 346.196 278.932 348.323 279.014C351.974 279.154 355.621 279.385 359.269 279.578C359.877 280.49 360.484 281.401 360.837 282.678C360.411 283.662 360.24 284.28 360.07 284.897C360.91 285.048 361.751 285.199 362.591 285.35C362.591 285.35 362.612 285.37 362.623 285.353C361.098 289.838 364.499 289.057 366.764 288.951C370.761 288.766 373.753 289.437 373.403 294.394C365.113 296.02 363.641 295.654 360.082 288.842C358.377 285.578 356.233 284.944 352.957 284.917C346.857 284.867 340.76 284.378 334.232 284.019Z" fill="#ECEDED"/>
<path d="M422.677 279.988C413.925 279.994 405.637 279.992 397.35 279.997C395.156 279.998 392.455 280.192 393.212 276.927C393.492 275.72 395.707 274.176 397.081 274.134C405.526 273.878 413.986 273.914 422.434 274.115C423.624 274.143 424.78 275.603 425.952 276.4C425.015 277.594 424.079 278.788 422.677 279.988Z" fill="#ECEDED"/>
<path d="M322.779 294.93C320.902 291.553 322.462 289.769 325.57 289.08C326.996 288.763 328.609 288.755 330.026 289.084C331.386 289.399 332.604 290.331 333.884 290.992C332.64 292.311 331.608 294.314 330.1 294.784C327.977 295.445 325.501 294.969 322.779 294.93Z" fill="#ECEDED"/>
<path d="M434.045 294.999C429.421 295.733 428.557 293.228 428.566 289.009C430.6 289.009 432.639 289.015 434.678 289.007C436.86 288.999 439.064 288.733 439.006 292.098C438.946 295.56 436.544 294.899 434.045 294.999Z" fill="#ECEDED"/>
<path d="M381.064 291.14C383.95 290.22 386.79 289.617 389.655 289.45C389.883 289.437 390.287 292.446 390.609 294.051C388.236 294.356 385.832 295.007 383.507 294.794C382.589 294.71 381.847 292.701 381.064 291.14Z" fill="#ECEDED"/>
<path d="M376.082 290.982C376.585 290.401 377.09 290.138 377.595 289.876C377.598 290.608 377.602 291.34 377.606 292.071C377.098 291.814 376.591 291.557 376.082 290.982Z" fill="#F5F6F9"/>
<path d="M391.894 260.733C391.684 260.802 391.378 260.679 391.1 260.286C391.403 260.124 391.626 260.299 391.894 260.733Z" fill="#F5F6F9"/>
<path d="M391.319 272.866C391.23 272.653 391.333 272.322 391.718 271.996C391.91 272.298 391.748 272.547 391.319 272.866Z" fill="#F5F6F9"/>
<path d="M60.1805 258.453C60.228 263.901 60.3406 268.9 60.2292 273.894C60.067 281.163 54.9454 286.675 47.728 286.837C37.073 287.075 26.4052 287.066 15.7496 286.841C8.42174 286.687 3.42888 281.453 3.12363 274.019C2.93928 269.529 3.05466 265.025 3.08537 260.528C3.13657 253.031 6.93618 247.522 14.2649 247.058C26.0278 246.314 37.8917 246.315 49.6645 246.93C55.731 247.246 59.1528 251.926 60.1805 258.453ZM41.3799 276.697C43.992 276.697 46.6041 276.697 49.4718 276.697C49.4718 269.862 49.4718 263.659 49.4718 257.361C37.4232 257.361 25.716 257.361 13.8803 257.361C13.8803 263.837 13.8803 269.948 13.8803 276.697C22.8693 276.697 31.6402 276.697 41.3799 276.697Z" fill="#2E4E9A"/>
<path d="M95.0015 276.868C104.782 276.868 114.063 276.868 123.629 276.868C123.629 280.321 123.629 283.258 123.629 287.005C122.148 287.005 120.569 287.005 118.99 287.005C106.336 287.005 93.6814 287.024 81.0272 286.998C70.7707 286.977 65.9683 282.231 65.9611 272.158C65.958 267.829 65.8231 263.491 66.0591 259.174C66.4572 251.891 70.0579 247.357 77.3336 246.878C88.4401 246.147 99.6119 246.394 110.756 246.258C114.891 246.208 119.027 246.25 123.541 246.25C123.541 249.699 123.541 252.77 123.541 256.537C108.123 256.537 92.5967 256.537 76.8112 256.537C76.8112 263.6 76.8112 269.973 76.8112 276.868C82.9238 276.868 88.7128 276.868 95.0015 276.868Z" fill="#2E4E9A"/>
<path d="M129.027 267.001C129.027 260.233 129.027 253.465 129.027 247.321C129.996 246.613 130.116 246.451 130.254 246.435C139.761 245.302 139.761 245.303 139.759 254.666C139.759 256.627 139.759 258.588 139.759 260.842C152.241 260.842 164.314 260.842 176.994 260.842C176.994 256.179 176.994 251.463 176.994 246.475C180.68 246.475 183.768 246.475 187.25 246.475C187.25 259.902 187.25 273.269 187.25 286.828C183.952 286.828 180.841 286.828 177.259 286.828C177.259 281.967 177.259 277.221 177.259 272.121C164.742 272.121 152.686 272.121 139.932 272.121C139.932 276.834 139.932 281.7 139.932 286.781C136.139 286.781 133.036 286.781 129.223 286.781C129.223 282.784 129.223 278.847 129.228 274.025C129.165 271.095 129.096 269.048 129.027 267.001Z" fill="#33529C"/>
<path d="M128.556 267.002C129.096 269.049 129.164 271.095 129.13 273.57C113.441 274.329 97.8543 274.624 82.2701 275.018C79.0154 275.1 79.0586 273.117 78.9619 270.79C78.8471 268.029 79.8497 266.946 82.6936 266.963C97.8239 267.052 112.955 267.003 128.556 267.002Z" fill="#F5F5F5"/>
<path d="M102 295.001C93.8414 295 86.1811 295.088 78.524 294.97C72.0761 294.871 67.611 291.069 66.1523 283.797C72.9428 290.251 80.7254 288.975 88.2543 288.999C97.9111 289.031 107.568 289.006 117.225 289.008C118.39 289.008 119.813 288.608 120.661 289.131C121.967 289.937 122.878 291.382 123.956 292.556C122.798 293.369 121.667 294.838 120.478 294.886C114.493 295.128 108.494 294.999 102 295.001Z" fill="#ECEDED"/>
<path d="M48.4345 294.985C37.6791 294.995 27.3644 295.051 17.0506 294.979C9.63414 294.928 5.52791 291.9 4.29492 285.58C18.42 292.185 33.2521 288.05 47.7122 288.773C51.5624 288.965 55.5544 286.321 59.3423 285.026C59.2347 289.796 56.31 292.71 48.4345 294.985Z" fill="#ECEDED"/>
<path d="M105.998 259.004C111.142 259.006 115.801 258.808 120.422 259.141C121.663 259.23 122.787 260.935 123.965 261.898C122.855 262.928 121.76 264.835 120.633 264.854C107.865 265.066 95.0896 265.066 82.3207 264.852C81.2084 264.833 80.1283 262.899 79.0332 261.855C80.2247 260.906 81.3902 259.176 82.612 259.135C90.2338 258.881 97.8683 259.005 105.998 259.004Z" fill="#ECEDED"/>
<path d="M153.026 274.003C159.32 274.003 165.127 273.823 170.907 274.135C172.305 274.211 174.432 275.673 174.798 276.917C175.601 279.649 173.407 280.024 171.178 280.012C162.731 279.969 154.284 279.97 145.837 280.011C143.621 280.022 141.406 279.676 142.2 276.931C142.561 275.687 144.609 274.473 146.098 274.124C148.139 273.646 150.377 274.003 153.026 274.003Z" fill="#ECEDED"/>
<path d="M177.738 289.588C180.194 289.216 182.38 288.819 184.437 289.173C185.41 289.341 186.77 290.925 186.799 291.902C186.829 292.897 185.61 294.597 184.644 294.845C178.957 296.308 176.927 294.794 177.738 289.588Z" fill="#ECEDED"/>
<path d="M138.94 291.144C138.219 294.604 132.532 296.677 130.876 294.294C130.137 293.23 131.134 290.959 131.344 289.236C133.863 289.729 136.381 290.222 138.94 291.144Z" fill="#ECEDED"/>
<path d="M3.52777 283.546C3.57659 283.518 3.47894 283.574 3.52777 283.546Z" fill="#ECEDED"/>
<path d="M513.679 285.839C513.001 286.205 512.316 286.322 511.631 286.438C511.684 286.02 511.737 285.602 512.073 284.98C512.794 285.048 513.233 285.318 513.679 285.839Z" fill="#FDFDFD"/>
<path d="M462.129 293.678C459.807 294.634 457.661 295.487 455.434 295.883C451.428 296.593 448.165 294.829 446.447 291.414C445.667 289.865 446.644 287.432 446.989 285.072C448.001 285.318 448.849 285.892 449.645 286.926C451.562 290.276 454.307 290.57 457.223 289.336C458.788 288.674 462.047 289.447 460.941 285.834C463.46 283.328 465.979 280.822 469.097 278.31C470.718 278.109 472.084 278.268 472.704 277.663C476.238 274.212 479.593 270.579 483.238 266.825C483.214 266.034 482.962 265.425 482.71 264.816C483.234 264.204 483.757 263.591 484.562 262.857C488.654 264.316 489.133 266.486 486.108 269.402C478.929 276.323 471.767 283.262 464.642 290.239C463.717 291.146 463.052 292.319 462.129 293.678Z" fill="#ECEDED"/>
<path d="M483.01 267.008C479.594 270.579 476.238 274.213 472.704 277.664C472.085 278.269 470.718 278.11 469.404 278.175C472.724 274.41 476.336 270.773 480.65 267.035C481.904 266.958 482.457 266.983 483.01 267.008Z" fill="#F6F7F9"/>
<path d="M460.589 285.944C462.047 289.447 458.788 288.674 457.223 289.336C454.307 290.57 451.562 290.277 449.834 287.17C453.462 286.654 456.85 286.354 460.589 285.944Z" fill="#FDFDFD"/>
<path d="M483.237 266.825C482.456 266.982 481.903 266.958 480.936 266.898C481.058 266.254 481.596 265.643 482.422 264.925C482.962 265.425 483.213 266.034 483.237 266.825Z" fill="#FDFDFD"/>
<path d="M490.547 257.576C490.612 257.702 490.322 257.75 490.322 257.75C490.322 257.75 490.482 257.45 490.547 257.576Z" fill="#F5F6F9"/>
<path d="M359.177 279.22C355.621 279.385 351.974 279.154 348.323 279.013C346.196 278.932 344.063 278.997 341.33 278.69C340.451 277.779 340.175 277.173 339.898 276.567C345.052 276.467 350.213 276.195 355.356 276.389C356.628 276.437 357.844 277.997 359.177 279.22Z" fill="#F6F7F9"/>
<path d="M345.594 265.985C344.704 265.418 343.819 264.862 343.807 264.288C343.792 263.565 344.466 262.813 344.884 262.097C345.689 260.72 346.522 259.36 347.738 257.336C349.407 260.347 350.726 262.728 352.533 265.989C349.78 265.989 347.883 265.989 345.594 265.985Z" fill="#E6E8EB"/>
<path d="M362.548 285.075C361.751 285.199 360.911 285.048 360.07 284.897C360.241 284.28 360.412 283.662 360.892 283.007C361.636 283.58 362.07 284.191 362.548 285.075Z" fill="#F6F7F9"/>
<path d="M339.563 276.472C340.175 277.173 340.452 277.779 340.863 278.688C340.555 278.995 340.112 278.998 339.218 278.73C338.503 277.925 338.239 277.393 337.975 276.86C338.392 276.699 338.809 276.538 339.563 276.472Z" fill="#F5F6F9"/>
<path d="M337.701 276.917C338.238 277.392 338.502 277.925 338.884 278.731C338.442 278.819 337.881 278.633 337.147 278.199C337.124 277.626 337.277 277.3 337.701 276.917Z" fill="#F6F7F9"/>
<path d="M500.973 292C499.521 294.919 492.733 296.245 491.555 294.107C490.947 293.003 490.942 291.02 491.544 289.912C492.712 287.765 499.499 289.075 500.973 292Z" fill="#ECEDED"/>
<path d="M283.002 256.818C288.988 256.819 294.482 256.67 299.955 256.937C301.184 256.997 302.341 258.512 303.531 259.357C303.28 259.834 303.029 260.311 302.778 260.787C291.049 260.787 279.32 260.787 267.316 260.787C266.087 258.151 266.623 256.718 270.034 256.798C274.188 256.896 278.346 256.819 283.002 256.818Z" fill="#FDFDFD"/>
<path d="M283.001 276.337C278.337 276.335 274.155 276.544 270.018 276.208C268.705 276.102 267.51 274.543 266.262 273.649C266.558 273.158 266.855 272.666 267.151 272.175C278.902 272.175 290.653 272.175 302.58 272.175C303.652 275.256 302.695 276.448 299.492 276.37C294.164 276.241 288.831 276.336 283.001 276.337Z" fill="#FDFDFD"/>
<path d="M203.643 273.767C203.637 268.03 203.637 262.771 203.637 257.26C215.822 257.26 227.386 257.26 239.324 257.26C239.324 263.535 239.324 269.743 239.324 276.698C231.485 276.698 223.744 276.698 216.003 276.698C213.014 276.698 209.997 276.927 207.048 276.583C205.84 276.442 204.777 275.062 203.643 273.767ZM218.513 260C215.532 260.002 212.524 259.774 209.581 260.112C208.338 260.255 207.233 261.589 206.065 262.381C207.154 263.251 208.223 264.846 209.334 264.876C217.445 265.091 225.567 265.091 233.679 264.875C234.786 264.846 235.852 263.245 236.937 262.371C235.766 261.582 234.631 260.183 233.418 260.112C228.795 259.843 224.147 260.002 218.513 260Z" fill="#EEF0F4"/>
<path d="M40.8961 276.698C31.6408 276.698 22.8699 276.698 13.8809 276.698C13.8809 269.949 13.8809 263.838 13.8809 257.361C25.7165 257.361 37.4237 257.361 49.4724 257.361C49.4724 263.66 49.4724 269.863 49.4724 276.698C46.6047 276.698 43.9926 276.698 40.8961 276.698ZM25.548 264.999C31.6785 264.995 37.813 265.101 43.9359 264.882C44.9622 264.845 45.9382 263.401 46.9375 262.608C46.1759 261.752 45.4288 260.169 44.6505 260.153C35.8729 259.978 27.0893 259.979 18.3119 260.157C17.547 260.172 16.1893 261.819 16.2415 262.635C16.2944 263.461 17.6656 264.689 18.6221 264.868C20.5452 265.226 22.5791 264.99 25.548 264.999Z" fill="#EEF0F4"/>
<path d="M219.011 260C224.147 260.002 228.794 259.843 233.417 260.112C234.63 260.183 235.765 261.582 236.936 262.371C235.851 263.245 234.785 264.846 233.678 264.875C225.567 265.091 217.444 265.091 209.333 264.876C208.222 264.846 207.153 263.251 206.064 262.381C207.232 261.589 208.338 260.255 209.58 260.112C212.523 259.774 215.531 260.002 219.011 260Z" fill="#ECEDED"/>
<path d="M25.0578 264.999C22.5792 264.99 20.5454 265.226 18.6223 264.868C17.6658 264.69 16.2946 263.461 16.2417 262.635C16.1894 261.819 17.5472 260.172 18.3121 260.157C27.0895 259.979 35.8731 259.978 44.6506 260.153C45.429 260.169 46.1761 261.752 46.9377 262.608C45.9384 263.401 44.9624 264.845 43.936 264.882C37.8132 265.101 31.6787 264.995 25.0578 264.999Z" fill="#ECEDED"/>
</svg>
