<svg width="567" height="299" fill="none" xmlns="http://www.w3.org/2000/svg"><path d="M296.541 8.813L288.549.367c1.845-.16 2.905-.331 3.965-.333 13.81-.018 27.621-.091 41.429.08 1.93.023 4.353.747 5.689 2.037 22.613 21.831 45.091 43.803 67.591 65.753.22.215.324.547 1.203 2.085a170.097 170.097 0 00-5.041 3.62c-21.633 21.076-42.771 41.766-64.063 62.294-1.574 1.518-4.244 2.606-6.436 2.661-12.953.323-25.916.281-38.876.362l-6.852-.447c22.823-22.324 44.957-43.976 67.561-66.056a185.7 185.7 0 003.221-3.336c-4.55-4.716-8.695-9.247-13.089-13.524-16.059-15.63-32.2-31.174-48.31-46.75z" fill="#294997"/><path d="M163.024 129.959l-4.37-4.958c23.7-23.053 47.389-46.095 71.744-69.345 16.52-.286 32.374-.364 48.229-.442-1.494 1.972-2.988 3.945-4.929 6.355-22.062 21.425-43.677 42.414-65.607 63.708l5.805 4.953c14.461 14.23 29.011 28.372 43.345 42.729 6.772 6.784 13.129 13.981 19.686 21.003-1.291 0-3.19 0-5.967-.011-12.868-.021-24.861-.18-36.846.05-3.66.07-6.264-1.015-8.768-3.582-5.576-5.714-11.376-11.211-17.116-16.765-15.06-14.574-30.136-29.131-45.206-43.695z" fill="#284997"/><path d="M157.271 113.183c-.225-3.43-.624-6.859-.643-10.289-.061-11.145-.078-22.292.133-33.434.037-1.941.712-4.422 2.021-5.705 20.66-20.244 41.472-40.335 62.261-60.448.324-.313.804-.464 1.926-1.09 0 9.351.083 18.227-.028 27.101a201.913 201.913 0 01-1.142 19.301l-64.528 64.564z" fill="#294997"/><path d="M344.033 191.917c-.071-14.293-.196-28.586-.133-42.877.007-1.468.773-3.298 1.81-4.34 20.736-20.854 41.563-41.619 62.382-62.391.337-.337.798-.551 1.203-.825.265.21.707.395.707.582.063 15.122.1 30.245.092 45.367 0 .601-.454 1.201-1.215 2.293-7.936 7.63-15.342 14.779-22.773 21.903-14.017 13.437-28.048 26.859-42.073 40.288z" fill="#284897"/><path d="M374.167 287.049c1.277-2.441 3.551-4.839 3.657-7.33.424-9.949.322-19.93.105-29.892-.09-4.16 1.001-6.012 5.565-5.921 9.058.18 9.481-.074 10.264 9.905.362 4.619 1.961 5.418 5.994 5.266 7.299-.276 14.619-.196 21.924-.025 3.161.074 4.344-.863 4.4-4.204.183-10.852.314-10.85 11.007-10.849 1.329 0 2.658.001 4.453.471.466 15.155.465 29.841.464 44.526-.258.613-.606 1.205-.759 1.843-.554 2.3-.644 6.387-1.627 6.608-3.64.818-7.602.647-11.361.181-.912-.113-2.074-2.738-2.162-4.263-.652-11.36-.576-11.364-12.059-11.364-4.831 0-9.661.032-14.491-.008-3.461-.029-5.76.863-5.629 5.07.086 2.776-.32 5.655-1.075 8.327-.307 1.088-2.104 2.457-3.257 2.489-7.822.22-15.684.504-23.463-.116-2.34-.186-5.432-2.723-6.474-4.974-2.187-4.721-5.233-6.495-10.191-5.827-1.8.242-3.683.227-5.487 0-3.71-.469-6.083.945-7.189 4.507-1.63 5.254-5.098 7.343-10.596 6.597-2.752-.374-5.596-.065-9.272-.065l3.613-9.537c-2.937 1.129-5.346 1.301-6.364 2.58-3.989 5.012-9.156 6.934-15.271 6.948-12.992.028-25.988-.181-38.973.105-4.963.11-7.819-.91-6.957-6.528.091-.594-.213-1.249-.324-1.825-.494-.089-1-.294-1.087-.18-5.354 7.045-12.692 8.853-21.115 8.5-7.315-.307-14.657-.188-21.982-.031-7.937.171-13.374-3.877-18.105-10.445-.34-11.546-.34-22.568-.339-33.591 2.187-2.106 4.054-4.836 6.64-6.167 3.559-1.831 7.6-3.34 11.545-3.669 6.944-.58 13.972-.199 20.964-.154 11.852.075 12.756-1.163 23.044 8.33 2.259-8.338 2.259-8.338 11.962-8.338 11.654 0 23.31.126 34.962-.036 11.459-.159 17.539 7.268 17.046 16.756-.402 7.725.656 15.526 1.089 23.725 1.486-.525 2.759-.974 4.33-1.037-.024 1.259-.346 2.131-1.005 3.916 4.888-1.476 10.041 2.41 13.652-3.305 6.528.36 12.624.848 18.724.899 3.276.027 5.42.66 7.125 3.924 3.559 6.813 5.031 7.178 13.321 5.553.35-4.958-2.642-5.629-6.638-5.443-2.266.105-5.666.886-3.852-3.328 3.938.667 7.596 1.047 11.254 1.426zm17.631-26.508c-.171-.241-.394-.417-.845-1.444v-12.611h-9.88v40.179h10.054c0-4.783 0-9.232.386-13.915.236-.202.398-.452 1.404-.964h35.757v14.953h9.979v-40.161h-10.321v14.347c-12.437 0-24.389 0-36.534-.384zm-80.258 21.415c3.549-4.319 4.276-8.843 1.254-13.812-.513-.843-.616-2.21-.37-3.2 3.164-12.711-1.336-18.635-14.466-18.716-12.163-.076-24.327-.018-36.491-.018h-5.319v40.791c14.428 0 28.561-.103 42.691.057 4.775.054 8.866-1.078 12.701-5.102zm-116.385-.825c3.51 1.921 6.921 5.244 10.548 5.499 10.593.744 21.276.456 31.915.198 7.279-.177 12.417-5.641 12.594-12.837.123-4.987.17-9.986-.04-14.967-.267-6.313-4.412-11.802-10.497-12.067-11.929-.519-23.916-.409-35.846.149-4.784.224-9.742 3.331-10.067 8.315-.542 8.292.566 16.693 1.393 25.71zM293.472 295c2.826-.002 5.656.097 8.476-.027 5.911-.26 10.314-3.992 11.233-8.969-4.186.973-8.528 2.733-12.917 2.864-13.119.389-26.257.119-39.387.161-2.175.007-4.951-.792-4.867 3.071.085 3.916 2.979 2.846 5.059 2.863 10.47.081 20.941.037 32.403.037zm-82.907-5.994l-15.932-2.366c.348 4.181 4.393 8.184 10.073 8.288 11.153.203 22.315.21 33.467.003 6.233-.115 11.563-5.677 11.227-11.922-4.539 5.966-10.557 6.253-16.875 6.049-6.986-.227-13.985-.052-21.96-.052zm212.577-9.023l2.809-3.584c-1.171-.797-2.327-2.256-3.518-2.284-8.448-.201-16.907-.237-25.352.019-1.374.042-3.589 1.585-3.869 2.793-.757 3.265 1.944 3.071 4.138 3.07 8.287-.006 16.574-.003 25.792-.014zm-99.967 14.996c2.326-.01 4.802.466 6.925-.195 1.508-.47 2.54-2.473 3.784-3.792-1.28-.661-2.498-1.593-3.858-1.908-1.417-.329-3.03-.321-4.456-.004-3.108.689-4.668 2.473-2.395 5.899zm111.315.02c2.054-.1 4.456.561 4.517-2.901.058-3.365-2.147-3.099-4.329-3.091-2.039.008-4.077.002-6.111.002-.009 4.22.855 6.725 5.923 5.99zm-53.464-3.431c.822 1.132 1.564 3.141 2.482 3.226 2.325.213 4.729-.438 7.102-.743-.322-1.605-.726-4.614-.954-4.601-2.865.167-5.705.77-8.63 2.118zm-4.941-.268l1.522.771-.011-2.195c-.505.262-1.01.524-1.511 1.424z" fill="#F6F7F9"/><path d="M190.003 253.54v33.994c-.306 12.118 2.196 10.173-10.49 10.526-3.485.097-4.605-1.03-4.589-4.544.055-11.557 2.613-11.632-12.016-11.52-4.831.037-9.663.006-14.494.009-4.218.003-6.719 1.175-6.531 6.338.353 9.649.061 9.659-9.714 9.658-15.161 0-30.323-.105-45.483.039-9.495.09-18.543-.417-22.986-11.174-1.065.707-1.993.982-2.293 1.574-3.697 7.317-9.982 9.771-17.701 9.555-10.454-.291-20.961-.082-31.34-1.13-6.945-.701-11.31-7.122-11.357-14.25-.047-7.164.706-14.418-.182-21.471-1.264-10.04 8.39-17.285 17.07-17.173 9.661.125 19.326-.041 28.988.053 6.135.06 10.809 2.777 13.768 8.256.619 1.145 1.305 2.253 2.204 3.8.849-.938 1.748-1.502 2-2.276 2.347-7.218 8.249-9.576 14.79-9.687 19.321-.327 38.652-.035 57.977-.19 3.656-.029 4.437 1.362 4.445 4.692.026 10.38.145 10.38 10.545 10.38 5.664 0 11.351-.307 16.987.096 4.605.329 5.607-1.445 5.492-5.703-.256-9.448-.04-9.197 9.499-9.505 4.569-.147 6.054 1.426 5.434 5.701-.165 1.142-.024 2.329-.023 3.952zm-61.917 13.461c-15.131.002-30.262.05-45.392-.038-2.844-.017-3.847 1.066-3.732 3.827.097 2.327.053 4.31 3.308 4.228 15.584-.394 31.171-.689 46.953-.108v11.872h10.708v-14.661h37.328v14.707h9.991v-40.352h-10.256v14.366h-37.235v-6.176c.002-9.362.002-9.363-9.505-8.23-.138.016-.259.178-1.227.886 0 6.143 0 12.912-.941 19.679zm-67.94-8.998c-.992-6.076-4.414-10.756-10.48-11.073-11.774-.614-23.637-.615-35.4.129-7.33.463-11.129 5.972-11.18 13.47-.03 4.497-.146 9 .038 13.49.306 7.435 5.298 12.668 12.626 12.823a736.34 736.34 0 0031.979-.005c7.217-.162 12.339-5.674 12.5-12.943.112-4.994 0-9.993-.083-15.891zm34.355 18.866h-17.69v-20.332h46.729V246.25c-4.513 0-8.649-.042-12.784.009-11.144.135-22.316-.112-33.423.62-7.275.479-10.876 5.013-11.274 12.295-.236 4.317-.101 8.656-.098 12.985.007 10.072 4.81 14.819 15.066 14.84 12.654.025 25.308.006 37.963.006h4.638v-10.136H94.501zm7.999 18.132c5.994-.001 11.993.127 17.977-.115 1.189-.048 2.321-1.516 3.479-2.33-1.078-1.173-1.989-2.618-3.295-3.424-.848-.523-2.271-.123-3.436-.123-9.657-.002-19.314.022-28.97-.009-7.53-.025-15.312 1.251-22.103-5.203 1.459 7.273 5.924 11.074 12.372 11.174 7.657.117 15.317.029 23.976.03zm-53.624-.025c7.434-2.266 10.359-5.18 10.466-9.95-3.788 1.295-7.78 3.939-11.63 3.747-14.46-.723-29.292 3.412-43.417-3.193 1.233 6.321 5.34 9.348 12.756 9.399 10.314.072 20.628.016 31.825-.003zm56.623-35.972c-7.63.001-15.264-.123-22.886.131-1.222.041-2.388 1.771-3.579 2.72 1.095 1.044 2.175 2.978 3.287 2.997 12.77.213 25.544.213 38.313.002 1.127-.019 2.222-1.926 3.331-2.956-1.177-.964-2.302-2.668-3.542-2.757-4.621-.333-9.28-.136-14.924-.137zm47.03 14.999c-2.153 0-4.39-.357-6.432.121-1.488.349-3.537 1.562-3.898 2.807-.794 2.745 1.421 3.091 3.637 3.08 8.447-.041 16.895-.042 25.342.001 2.228.011 4.422-.364 3.619-3.095-.366-1.244-2.493-2.706-3.891-2.782-5.78-.312-11.587-.132-18.377-.132zm24.885 15.87c-.488 4.922 1.543 6.435 7.23 4.973.966-.248 2.184-1.948 2.155-2.943-.03-.977-1.389-2.562-2.362-2.729-2.057-.354-4.243.042-7.023.699zm-38.514.842l-7.556-1.478c-.209 1.723-1.207 3.994-.468 5.058 1.656 2.383 7.343.31 8.024-3.58z" fill="#F7F8FA"/><path d="M230.129 46.697V.42h49.76c0 15.179 0 30.27-.468 45.872-16.743.476-33.017.44-49.292.405zm56.938 147.141c-.049-14.621-.122-29.242-.094-43.862.002-.948.774-1.895 1.978-2.86 1.549-.071 2.307-.126 3.066-.181h44.623c0 15.874 0 31.217-.784 46.783-16.785.19-32.787.155-48.789.12z" fill="#294997"/><path d="M289.076 57.862c-.577-1.49-1.638-2.976-1.653-4.473-.13-12.803-.076-25.609-.049-38.414.002-.592.267-1.183.39-1.693 18.313 18.278 36.49 36.42 54.893 54.79a272.96 272.96 0 01-4.286 4.548c-5.77 6.027-11.075 11.633-17.641 18.57l-31.654-33.328z" fill="#2A4A98"/><path d="M228.009 130.986l-3.917-4.33 22.637-22.504c3.044 3.473 6.243 7.447 9.783 11.089 6.598 6.788 13.518 13.266 20.014 20.148 1.505 1.594 2.555 4.281 2.594 6.486.223 12.791.081 25.588-.32 38.735-5.657-4.911-10.916-10.189-16.21-15.432-11.518-11.407-23.053-22.796-34.581-34.192z" fill="#294997"/><path d="M565.268 255.975s-.027-.151-.474-.197c-2.186.318-3.92.974-5.663.996-8.659.108-17.32.049-25.981.049h-15.803c.004 4.297.002 4.383 3.042 4.445 4.162.085 8.327.023 12.491.023h30.627v10.699h-45.834c-1.633 4.022.435 4.294 3.157 4.28 11.159-.055 22.318-.022 33.476-.022 10.137 0 10.138 0 9.358 10.022-.01.13-.184.246-1.035 1.321-15.82-.49-32.375-1.003-48.932-1.493-.003.023-.01-.009-.017-.259-.446-.521-.885-.791-1.504-1.337-1.448-1.466-2.716-2.657-4.081-4.231-.674-6.354-1.251-12.324-1.707-18.691-.186-7.088 2.523-11.955 9.223-14.719 1.767-.271 3.071-.717 4.376-.72 14.128-.031 28.256.001 42.383.055.42.002.839.425.59.29l2.308 9.489z" fill="#2F4F9A"/><path d="M459.043 272.091c5.044-4.887 10.088-9.774 15.462-15.024.332-.363.573-.772.573-.772 2.578-2.408 5.156-4.816 8.255-7.66 5.918-4.372 11.107-3.684 16.151.262.242.581.485 1.162.937 2.197.391 1 .571 1.546.705 2.487.03 3.074.107 5.754.097 8.894-.029 7.477.029 14.493-.009 21.874-.167 1.115-.237 1.864-.762 2.629-3.396.015-6.337.015-9.989.015v-29.567c-2.641 2.496-4.13 3.903-5.901 5.431-.805.734-1.328 1.347-2.14 2.068-.826.718-1.363 1.329-2.187 2.075-3.899 3.773-7.511 7.41-11.43 11.182-2.826 2.64-5.345 5.146-8.216 7.762-3.739.41-7.126.71-10.702.766-1.038-.818-1.886-1.392-2.875-2.295-.964-2.299-2.454-4.254-2.499-6.243-.239-10.403-.112-20.814-.112-31.485h10.55v29.948l4.092-4.544zm31.439-14.642l-.159.301s.289-.048.159-.301z" fill="#2E4E9A"/><path d="M333.802 283.965c-3.18 5.768-8.334 1.882-13.222 3.358.659-1.784.981-2.657 1.373-3.923 2.302-4.503 4.534-8.612 7.022-13.358a280.36 280.36 0 011.707-3.89s.021-.221.237-.457c2.945-5.64 5.674-11.044 8.403-16.447 0 0-.12-.032.277.017 4.142-3.476 8.461-3.571 13.048-2.067.85.873 1.7 1.745 2.928 3.093 2.123 3.55 3.869 6.626 5.614 9.702.406.901.812 1.802 1.525 3.223 3.027 5.606 5.746 10.691 8.466 15.777.211.532.421 1.064.877 2.081.547.964.848 1.442 1.149 1.92.423 1.129.847 2.258 1.116 3.721-3.814-.045-7.472-.425-11.42-1.074-.29-.271-.311-.291-.355-.566-.478-.884-.912-1.495-1.401-2.434-.662-1.241-1.27-2.152-1.969-3.421-1.334-1.223-2.549-2.782-3.822-2.83-5.143-.194-10.303.077-15.793.082-.754.066-1.171.227-1.861.445-.424.384-.577.709-.991 1.253-1.143 2.077-2.026 3.936-2.908 5.795zm12.185-17.976h6.546l-4.795-8.653c-1.216 2.024-2.05 3.384-2.854 4.762-.418.715-1.093 1.467-1.077 2.19.012.574.897 1.13 2.18 1.701z" fill="#2B4C99"/><path d="M162.82 130.234c15.274 14.289 30.35 28.847 45.411 43.421 5.739 5.554 11.54 11.05 17.115 16.765 2.504 2.567 5.108 3.651 8.768 3.581 11.985-.23 23.978-.07 36.431.021 2.55 2.468 4.638 4.853 7.371 7.976-11.226 0-21.723-.863-32.015.221-12.583 1.324-21.283-3.062-29.866-12.239-17.124-18.31-35.57-35.386-53.518-52.924-2.411-2.357-3.762-4.418.303-6.822zm129.503 16.421c-1.064.335-1.823.39-2.954.362 1.276-2.519 2.926-4.955 4.608-7.741 12.992-.43 25.955-.389 38.909-.712 2.191-.054 4.861-1.142 6.436-2.66 21.292-20.529 42.429-41.218 63.895-61.995 4.663 1.961 4.278 4.275 1.057 7.383-14.361 13.856-28.566 27.874-42.881 41.778-6.911 6.713-13.807 13.454-21.008 19.847-1.88 1.67-4.851 2.871-7.361 2.946-13.458.405-26.928.386-40.701.792z" fill="#E9EBEC"/><path d="M513.698 286.076l48.931 1.516c.851-1.075 1.024-1.192 1.035-1.322.78-10.022.779-10.022-9.358-10.022-11.158 0-22.317-.033-33.476.022-2.722.014-4.79-.258-3.158-4.279h45.835v-10.7H532.88c-4.164 0-8.329.062-12.491-.023-3.04-.062-3.038-.148-3.042-4.445h15.803c8.66 0 17.321.059 25.981-.049 1.742-.022 3.477-.678 5.604-1 .68 1.652 1.213 3.259 1.224 4.87.075 10.972-.083 21.948.11 32.918.063 3.558-1.203 4.542-4.614 4.5-12.8-.156-25.61.175-38.401-.198-4.176-.122-9.142.499-11.634-4.471 16.912 3.85 33.758.65 50.456 1.466.652.032 2.046-1.557 1.927-2.162-.246-1.257-1.023-2.775-2.057-3.408-.991-.605-2.584-.269-3.912-.271-12.812-.013-25.627.112-38.435-.142-1.918-.037-3.801-1.823-5.701-2.8z" fill="#FDFDFD"/><path d="M213.927 129.85c-1.774-1.107-3.517-2.594-5.835-4.573 21.93-21.294 43.545-42.283 65.468-63.416 1.632.95 2.955 2.044 4.648 3.444-5.685 5.674-11.611 11.693-17.649 17.596a7021.694 7021.694 0 01-34.698 33.69c-2.98 2.874-6.273 5.428-9.199 8.352-1.205 1.205-1.82 3-2.735 4.907z" fill="#E6E8EB"/><path d="M344.019 192.342c14.039-13.855 28.07-27.277 42.087-40.714 7.431-7.123 14.836-14.273 22.566-21.531 2.272 3.682 1.295 6.618-1.764 9.574-15.849 15.313-31.504 30.825-47.324 46.169-4.739 4.596-9.791 8.871-15.578 14.084 0-2.837 0-4.996.013-7.582z" fill="#E3E5EA"/><path d="M296.097 8.861c16.553 15.53 32.694 31.074 48.753 46.703 4.394 4.277 8.539 8.808 13.089 13.524a62.279 62.279 0 01-3.033 3.042c-5.127-4.097-10.181-8.113-14.775-12.6-11.158-10.895-22.054-22.058-33.154-33.013-4.707-4.646-9.676-9.026-14.489-13.567-1.03-.971-1.896-2.117-3.318-3.725 2.652-.13 4.568-.223 6.927-.364z" fill="#E6E8EB"/><path d="M157.202 113.649c21.411-21.82 42.753-43.173 64.402-64.665 1.883 3.132 1.968 6.014-.91 8.873-20.484 20.356-40.874 40.806-61.303 61.218-.453.452-1.006.802-2.258 1.786 0-2.685 0-4.715.069-7.212z" fill="#E3E5EA"/><path d="M288.916 58.223c10.401 10.42 20.641 21.201 31.816 32.967 6.565-6.937 11.87-12.543 17.462-18.28 4.021 1.687 4.833 3.802 1.467 6.988-5.06 4.791-9.975 9.745-14.787 14.786-2.286 2.395-4.024 2.798-6.553.212-9.282-9.494-18.693-18.864-28.153-28.18-2.534-2.495-2.688-5.12-1.252-8.493z" fill="#E6E8EB"/><path d="M227.807 131.26c11.731 11.123 23.266 22.512 34.783 33.919 5.294 5.243 10.554 10.52 16.155 15.911.325 2.415.325 4.701.325 7.843-1.433-1.123-2.227-1.624-2.875-2.27-16.225-16.199-32.416-32.434-48.671-48.603-2.365-2.353-3.8-4.394.283-6.8z" fill="#E3E5EA"/><path d="M230.092 47.177c16.311-.444 32.586-.409 49.316-.436.273 2.603.089 5.268-.437 8.203-16.198.349-32.053.427-48.365.467-.488-2.61-.519-5.182-.514-8.234z" fill="#E9EBEC"/><path d="M287.049 194.298c16.019-.425 32.021-.39 48.488-.294.842 2.434 1.218 4.807 1.724 7.996h-12.615l-30.429-.001c-7.247 0-7.247-.002-7.168-7.701zm226.647 91.8c1.901.954 3.785 2.74 5.703 2.778 12.807.253 25.622.129 38.435.142 1.328.001 2.921-.335 3.911.271 1.035.632 1.812 2.15 2.058 3.407.119.606-1.276 2.195-1.927 2.163-16.698-.816-33.545 2.383-50.506-1.834-1.186-1.279-1.982-2.504-3.12-4.263-.248-3.059-.154-5.584-.06-8.109 1.269 1.192 2.538 2.383 3.703 4.053-.156.896-.209 1.314-.262 1.732l2.055-.349s.008.032.01.009z" fill="#ECEDED"/><path d="M484.843 262.737l5.62-5.31v29.567c3.652 0 6.593 0 10.315.038 1.264.682 1.746 1.326 2.229 1.969-.02 8.802-3.396 11.402-11.902 8.796-.988-.302-1.908-2.389-2.021-3.72-.53-6.259-.756-12.543-1.128-18.816-.036-.614-.328-1.212-.748-2.677-1.746 1.24-3.25 2.041-4.421 3.183-5.232 5.109-10.315 10.371-15.58 15.445-1.237 1.192-2.972 1.868-4.844 2.783-.367.001-.373-.007-.235-.317.924-1.359 1.588-2.532 2.514-3.438a3800.579 3800.579 0 0121.465-20.837c3.026-2.917 2.547-5.087-1.264-6.666zm16.13 28.827c-1.474-2.489-8.261-3.799-9.429-1.651-.602 1.107-.596 3.09.012 4.194 1.177 2.139 7.966.812 9.417-2.543z" fill="#FDFDFD"/><path d="M458.811 271.772c-.842 1.514-1.917 2.708-3.859 4.864v-29.949h-10.55c0 10.672-.127 21.083.111 31.486.046 1.988 1.536 3.943 2.335 6.571-.203 2.689-1.18 5.122-.401 6.671 1.719 3.415 4.982 5.179 8.988 4.468 2.227-.395 4.373-1.248 6.556-1.895l.008.011c-2.26 4.274-9.281 5.841-13.565 2.526-2.378-1.839-3.968-4.697-6.173-7.312-.26-14.902-.259-29.587-.257-44.741 3.626-.469 7.26-.299 10.87-.52 3.331-.204 4.272 1.199 4.179 4.338a306.918 306.918 0 00.021 18.28c.049 1.641.978 3.255 1.737 5.202zm49.284 8.499c.003 2.908-.091 5.432-.133 8.338-.519.532-1.091.683-1.959.277-1.155-2.618-1.015-5.69-4.692-4.901-.058-7.016-.116-14.033.324-21.511 1.876-.474 3.254-.486 4.632-.497.577 5.97 1.154 11.941 1.828 18.294zm57.413-24.804c-.964-2.469-1.688-5.445-2.548-8.981.249.135-.169-.289-.589-.291a7044.753 7044.753 0 00-42.384-.054c-1.305.003-2.609.449-4.412.246-.525-.757-.551-1.072-.577-1.387 2.094-.334 4.186-.942 6.283-.957 12.928-.089 25.862.172 38.782-.156 4.841-.123 6.677 1.375 5.963 6.119-.245 1.628-.194 3.3-.518 5.461z" fill="#FDFDFD"/><path d="M514.632 245.005c.391.31.417.625.48 1.413-6.202 3.207-8.911 8.074-8.724 15.161-1.5.409-2.878.421-4.667.434-.488-2.677-.565-5.358-.136-8.48.811-.472 1.116-.502 1.422-.533 1.544-1.044 3.109-2.056 4.625-3.138 2.23-1.592 4.425-3.232 7-4.857z" fill="#F5F6F9"/><path d="M499.612 248.493c-5.172-3.542-10.361-4.229-16.108-.125.002-1.009-.014-2.609.77-3.294 4.476-3.911 12.865-2.184 15.338 3.419zm-128.118 30.432c-3.033-5.018-5.753-10.104-8.531-15.541.87-.124 2.34-.187 2.642.376 2.474 4.61 4.743 9.332 7.006 14.052.086.179-.52.69-1.117 1.113zm-32.539-29.707c-2.363 5.433-5.092 10.836-8.124 16.407-.494-6.764 3.424-11.701 8.124-16.407zm13.976-2.221c-4.87-1.303-9.189-1.208-13.309 2.326-.266-4.722 3.62-4.874 6.672-5.147 2.391-.214 5.969-1.706 6.637 2.821zm8.584 12.924c-2.071-3.004-3.816-6.08-5.667-9.492 3.838.502 7.113 5.741 5.667 9.492z" fill="#F6F7F9"/><path d="M501.214 284.35c3.773-1.153 3.633 1.918 4.637 4.316-.602.335-1.349.335-2.47.335-.856-.643-1.339-1.286-2.148-1.984-.256-.803-.186-1.553-.019-2.667z" fill="#F5F6F9"/><path d="M330.302 266.123c-.103 1.114-.586 2.198-1.277 3.577-2.24-1.248-1.978-2.174 1.277-3.577zm43.19 16.814c-.588-.421-.889-.899-1.228-1.657.688-.113 1.415.054 2.141.222-.208.459-.417.918-.913 1.435z" fill="#F6F7F9"/><path d="M502.94 252.648c-.238.383-.544.413-1.309.491-.639-.498-.819-1.044-1.037-1.877.734.153 1.507.593 2.346 1.386zm-28.004 3.453c.142.194-.099.603-.323.674-.089-.242.046-.555.323-.674z" fill="#FDFDFD"/><path d="M311.301 282.243c-3.596 3.738-7.687 4.869-12.461 4.815-14.13-.159-28.263-.057-42.692-.057V246.21h5.32c12.163.001 24.327-.057 36.491.018 13.129.081 17.629 6.005 14.466 18.716-.247.991-.144 2.357.369 3.201 3.023 4.968 2.296 9.493-1.493 14.098zm-28.797-25.425c-4.157.002-8.315.079-12.47-.019-3.41-.081-3.946 1.352-2.717 3.989h35.462l.753-1.43c-1.19-.846-2.348-2.361-3.576-2.421-5.473-.267-10.967-.118-17.452-.119zm.998 19.519c5.33-.001 10.664-.096 15.991.033 3.203.078 4.16-1.114 3.089-4.195h-35.429l-.89 1.474c1.249.894 2.443 2.452 3.756 2.559 4.138.336 8.319.127 13.483.129zm-88.554 4.463c-.62-8.686-1.728-17.086-1.186-25.379.326-4.984 5.284-8.091 10.067-8.315 11.93-.558 23.918-.668 35.847-.149 6.085.265 10.23 5.754 10.496 12.068.211 4.981.164 9.98.041 14.966-.178 7.197-5.316 12.661-12.595 12.837-10.639.258-21.322.547-31.914-.198-3.627-.255-7.039-3.578-10.756-5.83zm8.7-6.554c1.129.816 2.192 2.196 3.4 2.337 2.949.344 5.966.115 8.955.115h23.321V257.26h-35.687c0 5.511 0 10.77.011 16.986z" fill="#2E4E9A"/><path d="M391.127 272.984v13.681h-10.055v-40.179h9.88c0 4.161 0 8.386.06 13.341.366.852.673.975.979 1.098h36.34v-14.347h10.321v40.161h-9.978v-14.953c-12.244 0-24.001 0-36.498.103-.843.433-.946.764-1.049 1.095z" fill="#2F4F9A"/><path d="M292.976 295c-10.966 0-21.437.044-31.908-.037-2.079-.016-4.973 1.053-5.058-2.863-.084-3.863 2.691-3.064 4.867-3.071 13.13-.042 26.268.228 39.386-.161 4.39-.131 8.731-1.89 12.917-2.864-.919 4.977-5.321 8.709-11.233 8.969-2.82.125-5.65.025-8.971.027zm-81.921-5.994c7.485 0 14.484-.174 21.47.052 6.318.204 12.336-.083 16.875-6.049.336 6.245-4.994 11.807-11.227 11.923a912.905 912.905 0 01-33.467-.004c-5.68-.104-9.725-4.107-10.073-8.287 5.195.771 10.564 1.568 16.422 2.365zm123.177-4.987c.453-1.913 1.335-3.772 2.653-5.601.997.215 1.557.401 2.45.585.776-.005 1.219-.008 2.13-.009 2.598.003 4.731-.062 6.858.02 3.651.14 7.298.371 10.946.564.608.912 1.215 1.823 1.568 3.1a14.792 14.792 0 00-.767 2.219l2.521.453s.021.02.032.003c-1.525 4.485 1.876 3.704 4.141 3.598 3.997-.185 6.989.486 6.639 5.443-8.29 1.626-9.762 1.26-13.321-5.552-1.705-3.264-3.849-3.898-7.125-3.925-6.1-.05-12.197-.539-18.725-.898zm88.445-4.031c-8.752.006-17.04.004-25.327.009-2.194.001-4.895.195-4.138-3.07.28-1.207 2.495-2.751 3.869-2.793 8.445-.256 16.905-.22 25.353-.019 1.19.028 2.346 1.488 3.518 2.285-.937 1.194-1.873 2.388-3.275 3.588zm-99.898 14.942c-1.877-3.377-.317-5.161 2.791-5.85 1.426-.317 3.039-.325 4.456.004 1.36.315 2.578 1.247 3.858 1.908-1.244 1.319-2.276 3.322-3.784 3.792-2.123.661-4.599.185-7.321.146zm111.266.069c-4.624.734-5.488-1.771-5.479-5.99 2.034 0 4.073.006 6.112-.002 2.182-.008 4.386-.274 4.328 3.091-.06 3.462-2.462 2.801-4.961 2.901zm-52.981-3.859c2.886-.92 5.726-1.523 8.591-1.69.228-.013.632 2.996.954 4.601-2.373.305-4.777.956-7.102.743-.918-.084-1.66-2.093-2.443-3.654z" fill="#ECEDED"/><path d="M376.082 290.982c.503-.581 1.008-.844 1.513-1.106l.011 2.195c-.508-.257-1.015-.514-1.524-1.089zm15.812-30.249c-.21.069-.516-.054-.794-.447.303-.162.526.013.794.447zm-.575 12.133c-.089-.213.014-.544.399-.87.192.302.03.551-.399.87z" fill="#F5F6F9"/><path d="M60.18 258.453c.048 5.448.16 10.447.05 15.441-.163 7.269-5.285 12.781-12.502 12.943a736.313 736.313 0 01-31.978.004c-7.328-.154-12.321-5.388-12.626-12.822-.185-4.49-.07-8.994-.039-13.491.052-7.497 3.851-13.006 11.18-13.47 11.763-.744 23.627-.743 35.4-.128 6.066.316 9.488 4.996 10.516 11.523zm-18.8 18.244h8.092v-19.336H13.88v19.336h27.5zm53.621.171h28.628v10.137h-4.639c-12.654 0-25.309.019-37.963-.007-10.256-.021-15.059-4.767-15.066-14.84-.003-4.329-.138-8.667.098-12.984.398-7.283 3.999-11.817 11.275-12.296 11.106-.731 22.278-.484 33.422-.62 4.135-.05 8.271-.008 12.785-.008v10.287h-46.73v20.331h18.19z" fill="#2E4E9A"/><path d="M129.027 267.001v-19.68c.969-.708 1.089-.87 1.227-.886 9.507-1.133 9.507-1.132 9.505 8.231v6.176h37.235v-14.367h10.256v40.353h-9.991v-14.707h-37.327v14.66h-10.709c0-3.997 0-7.934.005-12.756-.063-2.93-.132-4.977-.201-7.024z" fill="#33529C"/><path d="M128.556 267.002c.54 2.047.608 4.093.574 6.568-15.689.759-31.276 1.054-46.86 1.448-3.255.082-3.211-1.901-3.308-4.228-.115-2.761.888-3.844 3.732-3.827 15.13.089 30.261.04 45.862.039z" fill="#F5F5F5"/><path d="M102 295.001c-8.159-.001-15.819.087-23.476-.031-6.448-.099-10.913-3.901-12.372-11.173 6.79 6.454 14.573 5.178 22.102 5.202 9.657.032 19.314.007 28.971.009 1.165 0 2.588-.4 3.436.123 1.306.806 2.217 2.251 3.295 3.425-1.158.813-2.289 2.282-3.478 2.33-5.985.242-11.984.113-18.478.115zm-53.566-.016c-10.755.01-21.07.066-31.383-.006-7.417-.051-11.523-3.079-12.756-9.399 14.125 6.605 28.957 2.47 43.417 3.193 3.85.192 7.842-2.452 11.63-3.747-.107 4.77-3.032 7.684-10.907 9.959zm57.564-35.981c5.144.002 9.803-.196 14.424.137 1.241.089 2.365 1.794 3.543 2.757-1.11 1.03-2.205 2.937-3.332 2.956a1148.6 1148.6 0 01-38.312-.002c-1.113-.019-2.193-1.953-3.288-2.997 1.192-.949 2.357-2.679 3.579-2.72 7.622-.254 15.256-.13 23.386-.131zm47.028 14.999c6.294 0 12.101-.18 17.881.132 1.398.076 3.525 1.538 3.891 2.782.803 2.732-1.391 3.107-3.62 3.095-8.447-.043-16.894-.042-25.341-.001-2.216.011-4.431-.335-3.637-3.08.361-1.244 2.409-2.458 3.898-2.807 2.041-.478 4.279-.121 6.928-.121zm24.712 15.585c2.456-.372 4.642-.769 6.699-.415.973.168 2.333 1.752 2.362 2.729.03.995-1.189 2.695-2.155 2.943-5.687 1.463-7.717-.051-6.906-5.257zm-38.798 1.556c-.721 3.46-6.408 5.533-8.064 3.15-.739-1.064.258-3.335.468-5.058 2.519.493 5.037.986 7.596 1.908zM3.528 283.546c.049-.028-.05.028 0 0z" fill="#ECEDED"/><path d="M513.679 285.839c-.678.366-1.363.483-2.048.599.053-.418.106-.836.442-1.458.721.068 1.16.338 1.606.859z" fill="#FDFDFD"/><path d="M462.129 293.678c-2.322.956-4.468 1.809-6.695 2.205-4.006.71-7.269-1.054-8.987-4.469-.78-1.549.197-3.982.542-6.342 1.012.246 1.86.82 2.656 1.854 1.917 3.35 4.662 3.644 7.578 2.41 1.565-.662 4.824.111 3.718-3.502 2.519-2.506 5.038-5.012 8.156-7.524 1.621-.201 2.987-.042 3.607-.647 3.534-3.451 6.889-7.084 10.534-10.838-.024-.791-.276-1.4-.528-2.009.524-.612 1.047-1.225 1.852-1.959 4.092 1.459 4.571 3.629 1.546 6.545a3834.79 3834.79 0 00-21.466 20.837c-.925.907-1.59 2.08-2.513 3.439z" fill="#ECEDED"/><path d="M483.01 267.008c-3.416 3.571-6.772 7.205-10.306 10.656-.619.605-1.986.446-3.3.511a116.226 116.226 0 0111.246-11.14c1.254-.077 1.807-.052 2.36-.027z" fill="#F6F7F9"/><path d="M460.589 285.944c1.458 3.503-1.801 2.73-3.366 3.392-2.916 1.234-5.661.941-7.389-2.166 3.628-.516 7.016-.816 10.755-1.226zm22.648-19.119c-.781.157-1.334.133-2.301.073.122-.644.66-1.255 1.486-1.973.54.5.791 1.109.815 1.9z" fill="#FDFDFD"/><path d="M490.547 257.576c.065.126-.225.174-.225.174s.16-.3.225-.174z" fill="#F5F6F9"/><path d="M359.177 279.22c-3.556.165-7.203-.066-10.854-.207-2.127-.081-4.26-.016-6.993-.323-.879-.911-1.155-1.517-1.432-2.123 5.154-.1 10.315-.372 15.458-.178 1.272.048 2.488 1.608 3.821 2.831z" fill="#F6F7F9"/><path d="M345.594 265.985c-.89-.567-1.775-1.123-1.787-1.697-.015-.723.659-1.475 1.077-2.191.805-1.377 1.638-2.737 2.854-4.761l4.795 8.653c-2.753 0-4.65 0-6.939-.004z" fill="#E6E8EB"/><path d="M362.548 285.075c-.797.124-1.637-.027-2.478-.178.171-.617.342-1.235.822-1.89.744.573 1.178 1.184 1.656 2.068z" fill="#F6F7F9"/><path d="M339.563 276.472c.612.701.889 1.307 1.3 2.216-.308.307-.751.31-1.645.042-.715-.805-.979-1.337-1.243-1.87.417-.161.834-.322 1.588-.388z" fill="#F5F6F9"/><path d="M337.701 276.917c.537.475.801 1.008 1.183 1.814-.442.088-1.003-.098-1.737-.532-.023-.573.13-.899.554-1.282z" fill="#F6F7F9"/><path d="M500.973 292c-1.452 2.919-8.24 4.245-9.418 2.107-.608-1.104-.613-3.087-.011-4.195 1.168-2.147 7.955-.837 9.429 2.088z" fill="#ECEDED"/><path d="M283.002 256.818c5.986.001 11.48-.148 16.953.119 1.229.06 2.386 1.575 3.576 2.42l-.753 1.43h-35.462c-1.229-2.636-.693-4.069 2.718-3.989 4.154.098 8.312.021 12.968.02zm-.001 19.519c-4.664-.002-8.846.207-12.983-.129-1.313-.106-2.508-1.665-3.756-2.559l.889-1.474h35.429c1.072 3.081.115 4.273-3.088 4.195-5.328-.129-10.661-.034-16.491-.033z" fill="#FDFDFD"/><path d="M203.643 273.767c-.006-5.737-.006-10.996-.006-16.507h35.687v19.438h-23.321c-2.989 0-6.006.229-8.955-.115-1.208-.141-2.271-1.521-3.405-2.816zM218.513 260c-2.981.002-5.989-.226-8.932.112-1.243.143-2.348 1.477-3.516 2.269 1.089.87 2.158 2.465 3.269 2.495 8.111.215 16.233.215 24.345-.001 1.107-.029 2.173-1.63 3.258-2.504-1.171-.789-2.306-2.188-3.519-2.259-4.623-.269-9.271-.11-14.905-.112zM40.896 276.698H13.881v-19.337h35.591v19.337h-8.576zm-15.348-11.699c6.13-.004 12.265.102 18.388-.117 1.026-.037 2.002-1.481 3.002-2.274-.762-.856-1.51-2.439-2.288-2.455a655.139 655.139 0 00-26.338.004c-.765.015-2.123 1.662-2.07 2.478.052.826 1.424 2.054 2.38 2.233 1.923.358 3.957.122 6.926.131z" fill="#EEF0F4"/><path d="M219.011 260c5.136.002 9.783-.157 14.406.112 1.213.071 2.348 1.47 3.519 2.259-1.085.874-2.151 2.475-3.258 2.504-8.111.216-16.234.216-24.345.001-1.111-.03-2.18-1.625-3.269-2.495 1.168-.792 2.274-2.126 3.516-2.269 2.943-.338 5.951-.11 9.431-.112zm-193.953 4.999c-2.479-.009-4.513.227-6.436-.131-.956-.178-2.327-1.407-2.38-2.233-.053-.816 1.305-2.463 2.07-2.478a655.134 655.134 0 0126.339-.004c.778.016 1.525 1.599 2.287 2.455-1 .793-1.976 2.237-3.002 2.274-6.123.219-12.257.113-18.878.117z" fill="#ECEDED"/></svg>