<svg width="4853" height="124" viewBox="0 0 4853 124" fill="none" xmlns="http://www.w3.org/2000/svg">
<path d="M51.504 101.048C44.2507 101.048 37.5093 99.896 31.28 97.592C25.136 95.288 19.8027 92.0453 15.28 87.864C10.7573 83.5973 7.216 78.6053 4.656 72.888C2.18133 67.1707 0.944 60.9413 0.944 54.2C0.944 47.3733 2.18133 41.144 4.656 35.512C7.216 29.7947 10.7573 24.8453 15.28 20.664C19.8027 16.3973 25.136 13.112 31.28 10.808C37.5093 8.504 44.2507 7.352 51.504 7.352C58.8427 7.352 65.584 8.504 71.728 10.808C77.872 13.112 83.2053 16.3973 87.728 20.664C92.2507 24.8453 95.7493 29.7947 98.224 35.512C100.784 41.144 102.064 47.3733 102.064 54.2C102.064 60.9413 100.784 67.1707 98.224 72.888C95.7493 78.6053 92.2507 83.5973 87.728 87.864C83.2053 92.0453 77.872 95.288 71.728 97.592C65.584 99.896 58.8427 101.048 51.504 101.048ZM51.504 76.6C54.32 76.6 56.9227 76.088 59.312 75.064C61.7867 74.04 63.92 72.5893 65.712 70.712C67.5893 68.7493 69.04 66.4027 70.064 63.672C71.088 60.856 71.6 57.6987 71.6 54.2C71.6 50.7013 71.088 47.5867 70.064 44.856C69.04 42.04 67.5893 39.6933 65.712 37.816C63.92 35.8533 61.7867 34.36 59.312 33.336C56.9227 32.312 54.32 31.8 51.504 31.8C48.688 31.8 46.0427 32.312 43.568 33.336C41.1787 34.36 39.0453 35.8533 37.168 37.816C35.376 39.6933 33.968 42.04 32.944 44.856C31.92 47.5867 31.408 50.7013 31.408 54.2C31.408 57.6987 31.92 60.856 32.944 63.672C33.968 66.4027 35.376 68.7493 37.168 70.712C39.0453 72.5893 41.1787 74.04 43.568 75.064C46.0427 76.088 48.688 76.6 51.504 76.6ZM158.504 101.048C151.251 101.048 144.509 99.896 138.28 97.592C132.136 95.288 126.803 92.0453 122.28 87.864C117.757 83.5973 114.216 78.6053 111.656 72.888C109.181 67.1707 107.944 60.9413 107.944 54.2C107.944 47.3733 109.181 41.144 111.656 35.512C114.216 29.7947 117.757 24.8453 122.28 20.664C126.803 16.3973 132.136 13.112 138.28 10.808C144.509 8.504 151.251 7.352 158.504 7.352C165.843 7.352 172.584 8.504 178.728 10.808C184.872 13.112 190.205 16.3973 194.728 20.664C199.251 24.8453 202.749 29.7947 205.224 35.512C207.784 41.144 209.064 47.3733 209.064 54.2C209.064 60.9413 207.784 67.1707 205.224 72.888C202.749 78.6053 199.251 83.5973 194.728 87.864C190.205 92.0453 184.872 95.288 178.728 97.592C172.584 99.896 165.843 101.048 158.504 101.048ZM158.504 76.6C161.32 76.6 163.923 76.088 166.312 75.064C168.787 74.04 170.92 72.5893 172.712 70.712C174.589 68.7493 176.04 66.4027 177.064 63.672C178.088 60.856 178.6 57.6987 178.6 54.2C178.6 50.7013 178.088 47.5867 177.064 44.856C176.04 42.04 174.589 39.6933 172.712 37.816C170.92 35.8533 168.787 34.36 166.312 33.336C163.923 32.312 161.32 31.8 158.504 31.8C155.688 31.8 153.043 32.312 150.568 33.336C148.179 34.36 146.045 35.8533 144.168 37.816C142.376 39.6933 140.968 42.04 139.944 44.856C138.92 47.5867 138.408 50.7013 138.408 54.2C138.408 57.6987 138.92 60.856 139.944 63.672C140.968 66.4027 142.376 68.7493 144.168 70.712C146.045 72.5893 148.179 74.04 150.568 75.064C153.043 76.088 155.688 76.6 158.504 76.6ZM256.391 47.8L254.471 9.39999H278.791L276.871 47.8H256.391ZM286.471 47.8L284.551 9.39999H308.871L306.951 47.8H286.471ZM320.936 99V9.39999H407.592V99H377.896V26.424L384.424 32.824H344.104L350.632 26.424V99H320.936ZM463.116 99V86.584L461.068 83.256V59.704C461.068 56.2907 460.001 53.688 457.868 51.896C455.82 50.104 452.449 49.208 447.756 49.208C444.599 49.208 441.399 49.72 438.156 50.744C434.913 51.6827 432.14 53.0053 429.836 54.712L420.62 35.64C424.716 33.08 429.623 31.1173 435.34 29.752C441.057 28.3867 446.647 27.704 452.108 27.704C464.14 27.704 473.441 30.392 480.012 35.768C486.668 41.144 489.996 49.6773 489.996 61.368V99H463.116ZM443.276 100.28C437.559 100.28 432.78 99.2987 428.94 97.336C425.1 95.3733 422.199 92.7707 420.236 89.528C418.273 86.2 417.292 82.5307 417.292 78.52C417.292 73.9973 418.444 70.1573 420.748 67C423.052 63.8427 426.551 61.4533 431.244 59.832C436.023 58.2107 442.039 57.4 449.292 57.4H463.884V71.352H453.9C450.828 71.352 448.567 71.864 447.116 72.888C445.751 73.8267 445.068 75.2773 445.068 77.24C445.068 78.8613 445.665 80.2267 446.86 81.336C448.14 82.36 449.847 82.872 451.98 82.872C453.943 82.872 455.735 82.36 457.356 81.336C459.063 80.2267 460.3 78.52 461.068 76.216L464.78 84.792C463.671 89.9973 461.324 93.88 457.74 96.44C454.156 99 449.335 100.28 443.276 100.28ZM501.784 99V28.984H541.08C550.467 28.984 557.763 30.6053 562.968 33.848C568.173 37.0053 570.776 41.4853 570.776 47.288C570.776 52.92 568.387 57.4427 563.608 60.856C558.829 64.184 552.387 65.848 544.28 65.848L546.456 59.96C555.075 59.96 561.603 61.5387 566.04 64.696C570.563 67.8533 572.824 72.4613 572.824 78.52C572.824 84.7493 570.349 89.7413 565.4 93.496C560.536 97.1653 553.112 99 543.128 99H501.784ZM527.128 81.08H540.568C542.701 81.08 544.28 80.6107 545.304 79.672C546.328 78.7333 546.84 77.4533 546.84 75.832C546.84 74.1253 546.328 72.888 545.304 72.12C544.28 71.2667 542.701 70.84 540.568 70.84H527.128V81.08ZM527.128 56.632H538.52C540.739 56.632 542.317 56.2053 543.256 55.352C544.28 54.4987 544.792 53.2613 544.792 51.64C544.792 49.9333 544.28 48.7387 543.256 48.056C542.317 47.288 540.739 46.904 538.52 46.904H527.128V56.632ZM576.908 99L578.06 75.576C578.572 75.6613 579.084 75.7467 579.596 75.832C580.108 75.832 580.577 75.832 581.004 75.832C582.881 75.832 584.375 75.4907 585.484 74.808C586.593 74.04 587.447 72.9733 588.044 71.608C588.727 70.1573 589.196 68.4507 589.452 66.488C589.708 64.44 589.879 62.0933 589.964 59.448L590.988 28.984H657.804V99H628.876V45.496L635.148 51.512H610.06L615.948 45.112L615.308 60.6C615.052 66.9147 614.497 72.5893 613.644 77.624C612.791 82.5733 611.425 86.7973 609.548 90.296C607.756 93.7093 605.281 96.3547 602.124 98.232C599.052 100.024 595.127 100.92 590.348 100.92C588.471 100.92 586.38 100.749 584.076 100.408C581.857 100.067 579.468 99.5973 576.908 99ZM707.505 100.28C699.569 100.28 692.529 98.744 686.385 95.672C680.326 92.5147 675.548 88.2053 672.049 82.744C668.55 77.2827 666.801 71.0107 666.801 63.928C666.801 56.8453 668.55 50.5733 672.049 45.112C675.548 39.6507 680.326 35.384 686.385 32.312C692.529 29.24 699.569 27.704 707.505 27.704C715.441 27.704 722.481 29.24 728.625 32.312C734.769 35.384 739.548 39.6507 742.961 45.112C746.46 50.5733 748.209 56.8453 748.209 63.928C748.209 71.0107 746.46 77.2827 742.961 82.744C739.548 88.2053 734.769 92.5147 728.625 95.672C722.481 98.744 715.441 100.28 707.505 100.28ZM707.505 77.752C709.638 77.752 711.558 77.24 713.265 76.216C714.972 75.192 716.337 73.656 717.361 71.608C718.385 69.4747 718.897 66.9147 718.897 63.928C718.897 60.856 718.385 58.3387 717.361 56.376C716.337 54.328 714.972 52.792 713.265 51.768C711.558 50.744 709.638 50.232 707.505 50.232C705.372 50.232 703.452 50.744 701.745 51.768C700.038 52.792 698.673 54.328 697.649 56.376C696.625 58.3387 696.113 60.856 696.113 63.928C696.113 66.9147 696.625 69.4747 697.649 71.608C698.673 73.656 700.038 75.192 701.745 76.216C703.452 77.24 705.372 77.752 707.505 77.752ZM804.555 86.584V51.512H790.091L789.963 55.864C789.878 58.8507 789.707 61.624 789.451 64.184C789.28 66.744 788.896 69.048 788.299 71.096C787.702 73.0587 786.806 74.808 785.611 76.344C784.502 77.7947 782.923 78.9893 780.875 79.928L752.587 76.344C754.806 76.344 756.64 75.7893 758.091 74.68C759.542 73.4853 760.651 71.864 761.419 69.816C762.272 67.6827 762.87 65.2507 763.211 62.52C763.638 59.7893 763.894 56.8453 763.979 53.688L764.875 28.984H833.355V86.584H804.555ZM750.539 112.824V76.344H842.699V112.824H815.947V99H777.291V112.824H750.539ZM891.991 99V86.584L889.943 83.256V59.704C889.943 56.2907 888.876 53.688 886.743 51.896C884.695 50.104 881.324 49.208 876.631 49.208C873.474 49.208 870.274 49.72 867.031 50.744C863.788 51.6827 861.015 53.0053 858.711 54.712L849.495 35.64C853.591 33.08 858.498 31.1173 864.215 29.752C869.932 28.3867 875.522 27.704 880.983 27.704C893.015 27.704 902.316 30.392 908.887 35.768C915.543 41.144 918.871 49.6773 918.871 61.368V99H891.991ZM872.151 100.28C866.434 100.28 861.655 99.2987 857.815 97.336C853.975 95.3733 851.074 92.7707 849.111 89.528C847.148 86.2 846.167 82.5307 846.167 78.52C846.167 73.9973 847.319 70.1573 849.623 67C851.927 63.8427 855.426 61.4533 860.119 59.832C864.898 58.2107 870.914 57.4 878.167 57.4H892.759V71.352H882.775C879.703 71.352 877.442 71.864 875.991 72.888C874.626 73.8267 873.943 75.2773 873.943 77.24C873.943 78.8613 874.54 80.2267 875.735 81.336C877.015 82.36 878.722 82.872 880.855 82.872C882.818 82.872 884.61 82.36 886.231 81.336C887.938 80.2267 889.175 78.52 889.943 76.216L893.655 84.792C892.546 89.9973 890.199 93.88 886.615 96.44C883.031 99 878.21 100.28 872.151 100.28ZM977.379 100.28C971.32 100.28 966.286 99 962.275 96.44C958.35 93.7947 955.448 89.8267 953.571 84.536C951.694 79.16 950.755 72.3333 950.755 64.056C950.755 55.608 951.608 48.7387 953.315 43.448C955.107 38.072 957.966 34.104 961.891 31.544C965.816 28.984 970.979 27.704 977.379 27.704C983.523 27.704 989.155 29.1973 994.275 32.184C999.395 35.0853 1003.49 39.2667 1006.56 44.728C1009.64 50.104 1011.17 56.5467 1011.17 64.056C1011.17 71.5653 1009.64 78.0507 1006.56 83.512C1003.49 88.888 999.395 93.0267 994.275 95.928C989.155 98.8293 983.523 100.28 977.379 100.28ZM930.659 123.832V28.984H958.179V38.456L958.307 64.056L959.587 89.656V123.832H930.659ZM970.467 77.752C972.6 77.752 974.52 77.24 976.227 76.216C977.934 75.192 979.299 73.656 980.323 71.608C981.347 69.56 981.859 67.0427 981.859 64.056C981.859 60.984 981.347 58.424 980.323 56.376C979.299 54.328 977.934 52.792 976.227 51.768C974.52 50.744 972.6 50.232 970.467 50.232C968.334 50.232 966.414 50.744 964.707 51.768C963 52.792 961.635 54.328 960.611 56.376C959.587 58.424 959.075 60.984 959.075 64.056C959.075 67.0427 959.587 69.56 960.611 71.608C961.635 73.656 963 75.192 964.707 76.216C966.414 77.24 968.334 77.752 970.467 77.752ZM1057.27 100.28C1049.25 100.28 1042.12 98.744 1035.89 95.672C1029.66 92.6 1024.76 88.3333 1021.17 82.872C1017.68 77.3253 1015.93 71.0107 1015.93 63.928C1015.93 56.8453 1017.68 50.5733 1021.17 45.112C1024.76 39.6507 1029.66 35.384 1035.89 32.312C1042.12 29.24 1049.25 27.704 1057.27 27.704C1065.8 27.704 1073.1 29.5387 1079.16 33.208C1085.22 36.8773 1089.4 41.9547 1091.7 48.44L1069.3 59.448C1067.85 56.2053 1066.06 53.8587 1063.93 52.408C1061.88 50.9573 1059.62 50.232 1057.14 50.232C1055.01 50.232 1053 50.744 1051.13 51.768C1049.33 52.792 1047.88 54.328 1046.77 56.376C1045.75 58.3387 1045.24 60.856 1045.24 63.928C1045.24 67 1045.75 69.56 1046.77 71.608C1047.88 73.656 1049.33 75.192 1051.13 76.216C1053 77.24 1055.01 77.752 1057.14 77.752C1059.62 77.752 1061.88 77.0267 1063.93 75.576C1066.06 74.1253 1067.85 71.7787 1069.3 68.536L1091.7 79.544C1089.4 86.0293 1085.22 91.1067 1079.16 94.776C1073.1 98.4453 1065.8 100.28 1057.27 100.28ZM1148.04 99L1128.84 66.872L1152.14 53.304L1182.09 99H1148.04ZM1099.66 99V28.984H1128.59V99H1099.66ZM1120.14 75.704V53.56H1146.25V75.704H1120.14ZM1155.08 67.128L1127.95 64.568L1150.22 28.984H1180.68L1155.08 67.128ZM1222.76 100.28C1214.82 100.28 1207.78 98.744 1201.64 95.672C1195.58 92.5147 1190.8 88.2053 1187.3 82.744C1183.8 77.2827 1182.05 71.0107 1182.05 63.928C1182.05 56.8453 1183.8 50.5733 1187.3 45.112C1190.8 39.6507 1195.58 35.384 1201.64 32.312C1207.78 29.24 1214.82 27.704 1222.76 27.704C1230.69 27.704 1237.73 29.24 1243.88 32.312C1250.02 35.384 1254.8 39.6507 1258.21 45.112C1261.71 50.5733 1263.46 56.8453 1263.46 63.928C1263.46 71.0107 1261.71 77.2827 1258.21 82.744C1254.8 88.2053 1250.02 92.5147 1243.88 95.672C1237.73 98.744 1230.69 100.28 1222.76 100.28ZM1222.76 77.752C1224.89 77.752 1226.81 77.24 1228.52 76.216C1230.22 75.192 1231.59 73.656 1232.61 71.608C1233.64 69.4747 1234.15 66.9147 1234.15 63.928C1234.15 60.856 1233.64 58.3387 1232.61 56.376C1231.59 54.328 1230.22 52.792 1228.52 51.768C1226.81 50.744 1224.89 50.232 1222.76 50.232C1220.62 50.232 1218.7 50.744 1217 51.768C1215.29 52.792 1213.92 54.328 1212.9 56.376C1211.88 58.3387 1211.36 60.856 1211.36 63.928C1211.36 66.9147 1211.88 69.4747 1212.9 71.608C1213.92 73.656 1215.29 75.192 1217 76.216C1218.7 77.24 1220.62 77.752 1222.76 77.752ZM1310.17 100.28C1301.64 100.28 1294.17 98.7013 1287.77 95.544C1281.45 92.3867 1276.55 88.0773 1273.05 82.616C1269.55 77.0693 1267.8 70.84 1267.8 63.928C1267.8 56.8453 1269.51 50.5733 1272.92 45.112C1276.42 39.6507 1281.16 35.384 1287.13 32.312C1293.19 29.24 1299.97 27.704 1307.48 27.704C1314.39 27.704 1320.75 29.0693 1326.55 31.8C1332.44 34.5307 1337.13 38.584 1340.63 43.96C1344.22 49.336 1346.01 55.992 1346.01 63.928C1346.01 64.952 1345.97 66.104 1345.88 67.384C1345.8 68.5787 1345.71 69.688 1345.62 70.712H1291.74V56.76H1330.26L1319.39 60.472C1319.39 57.7413 1318.87 55.4373 1317.85 53.56C1316.91 51.5973 1315.59 50.104 1313.88 49.08C1312.17 47.9707 1310.13 47.416 1307.74 47.416C1305.35 47.416 1303.26 47.9707 1301.47 49.08C1299.76 50.104 1298.44 51.5973 1297.5 53.56C1296.56 55.4373 1296.09 57.7413 1296.09 60.472V64.824C1296.09 67.8107 1296.69 70.3707 1297.88 72.504C1299.08 74.6373 1300.78 76.2587 1303 77.368C1305.22 78.392 1307.91 78.904 1311.07 78.904C1314.31 78.904 1316.95 78.4773 1319 77.624C1321.13 76.7707 1323.35 75.4907 1325.66 73.784L1340.76 89.016C1337.35 92.6853 1333.12 95.5013 1328.09 97.464C1323.14 99.3413 1317.17 100.28 1310.17 100.28ZM1430.88 100.28C1422.94 100.28 1415.9 98.744 1409.76 95.672C1403.7 92.5147 1398.92 88.2053 1395.42 82.744C1391.93 77.2827 1390.18 71.0107 1390.18 63.928C1390.18 56.8453 1391.93 50.5733 1395.42 45.112C1398.92 39.6507 1403.7 35.384 1409.76 32.312C1415.9 29.24 1422.94 27.704 1430.88 27.704C1438.82 27.704 1445.86 29.24 1452 32.312C1458.14 35.384 1462.92 39.6507 1466.34 45.112C1469.83 50.5733 1471.58 56.8453 1471.58 63.928C1471.58 71.0107 1469.83 77.2827 1466.34 82.744C1462.92 88.2053 1458.14 92.5147 1452 95.672C1445.86 98.744 1438.82 100.28 1430.88 100.28ZM1430.88 77.752C1433.01 77.752 1434.93 77.24 1436.64 76.216C1438.35 75.192 1439.71 73.656 1440.74 71.608C1441.76 69.4747 1442.27 66.9147 1442.27 63.928C1442.27 60.856 1441.76 58.3387 1440.74 56.376C1439.71 54.328 1438.35 52.792 1436.64 51.768C1434.93 50.744 1433.01 50.232 1430.88 50.232C1428.75 50.232 1426.83 50.744 1425.12 51.768C1423.41 52.792 1422.05 54.328 1421.02 56.376C1420 58.3387 1419.49 60.856 1419.49 63.928C1419.49 66.9147 1420 69.4747 1421.02 71.608C1422.05 73.656 1423.41 75.192 1425.12 76.216C1426.83 77.24 1428.75 77.752 1430.88 77.752ZM1518.42 101.048C1512.79 101.048 1507.46 100.28 1502.42 98.744C1497.47 97.208 1493.12 94.6907 1489.37 91.192C1485.61 87.6933 1482.67 83.0853 1480.53 77.368C1478.4 71.6507 1477.33 64.6107 1477.33 56.248C1477.33 50.9573 1477.8 46.0507 1478.74 41.528C1479.68 36.92 1481.13 32.696 1483.09 28.856C1485.06 25.016 1487.57 21.6453 1490.65 18.744C1493.72 15.7573 1497.39 13.2827 1501.65 11.32C1505.92 9.27199 1510.78 7.73599 1516.25 6.712L1551.06 0.439995L1554.9 24.12L1525.46 29.368C1523.58 29.7093 1521.66 30.136 1519.7 30.648C1517.74 31.0747 1515.86 31.7147 1514.07 32.568C1512.28 33.336 1510.66 34.4453 1509.21 35.896C1507.76 37.3467 1506.6 39.224 1505.75 41.528C1504.98 43.832 1504.6 46.6907 1504.6 50.104C1504.6 51.128 1504.64 51.9813 1504.73 52.664C1504.81 53.3467 1504.9 54.1573 1504.98 55.096C1505.07 55.9493 1505.11 57.3147 1505.11 59.192L1497.81 52.792C1500.03 49.72 1502.55 47.1173 1505.37 44.984C1508.18 42.7653 1511.38 41.0587 1514.97 39.864C1518.55 38.6693 1522.6 38.072 1527.13 38.072C1533.95 38.072 1539.76 39.352 1544.53 41.912C1549.4 44.472 1553.07 48.0133 1555.54 52.536C1558.1 56.9733 1559.38 62.0507 1559.38 67.768C1559.38 74.7653 1557.59 80.7387 1554.01 85.688C1550.42 90.6373 1545.56 94.4347 1539.41 97.08C1533.27 99.7253 1526.27 101.048 1518.42 101.048ZM1518.93 79.672C1521.15 79.672 1523.07 79.2027 1524.69 78.264C1526.32 77.24 1527.6 75.8747 1528.53 74.168C1529.47 72.4613 1529.94 70.5413 1529.94 68.408C1529.94 66.1893 1529.47 64.312 1528.53 62.776C1527.6 61.24 1526.27 60.0453 1524.57 59.192C1522.94 58.3387 1521.07 57.912 1518.93 57.912C1516.72 57.912 1514.75 58.3387 1513.05 59.192C1511.34 60.0453 1510.02 61.24 1509.08 62.776C1508.14 64.2267 1507.67 65.976 1507.67 68.024C1507.67 70.2427 1508.14 72.248 1509.08 74.04C1510.02 75.7467 1511.34 77.112 1513.05 78.136C1514.75 79.16 1516.72 79.672 1518.93 79.672ZM1561.41 99L1562.56 75.576C1563.07 75.6613 1563.58 75.7467 1564.1 75.832C1564.61 75.832 1565.08 75.832 1565.5 75.832C1567.38 75.832 1568.87 75.4907 1569.98 74.808C1571.09 74.04 1571.95 72.9733 1572.54 71.608C1573.23 70.1573 1573.7 68.4507 1573.95 66.488C1574.21 64.44 1574.38 62.0933 1574.46 59.448L1575.49 28.984H1642.3V99H1613.38V45.496L1619.65 51.512H1594.56L1600.45 45.112L1599.81 60.6C1599.55 66.9147 1599 72.5893 1598.14 77.624C1597.29 82.5733 1595.93 86.7973 1594.05 90.296C1592.26 93.7093 1589.78 96.3547 1586.62 98.232C1583.55 100.024 1579.63 100.92 1574.85 100.92C1572.97 100.92 1570.88 100.749 1568.58 100.408C1566.36 100.067 1563.97 99.5973 1561.41 99ZM1696.74 99V86.584L1694.69 83.256V59.704C1694.69 56.2907 1693.63 53.688 1691.49 51.896C1689.45 50.104 1686.07 49.208 1681.38 49.208C1678.22 49.208 1675.02 49.72 1671.78 50.744C1668.54 51.6827 1665.77 53.0053 1663.46 54.712L1654.25 35.64C1658.34 33.08 1663.25 31.1173 1668.97 29.752C1674.68 28.3867 1680.27 27.704 1685.73 27.704C1697.77 27.704 1707.07 30.392 1713.64 35.768C1720.29 41.144 1723.62 49.6773 1723.62 61.368V99H1696.74ZM1676.9 100.28C1671.18 100.28 1666.41 99.2987 1662.57 97.336C1658.73 95.3733 1655.82 92.7707 1653.86 89.528C1651.9 86.2 1650.92 82.5307 1650.92 78.52C1650.92 73.9973 1652.07 70.1573 1654.37 67C1656.68 63.8427 1660.18 61.4533 1664.87 59.832C1669.65 58.2107 1675.66 57.4 1682.92 57.4H1697.51V71.352H1687.53C1684.45 71.352 1682.19 71.864 1680.74 72.888C1679.38 73.8267 1678.69 75.2773 1678.69 77.24C1678.69 78.8613 1679.29 80.2267 1680.49 81.336C1681.77 82.36 1683.47 82.872 1685.61 82.872C1687.57 82.872 1689.36 82.36 1690.98 81.336C1692.69 80.2267 1693.93 78.52 1694.69 76.216L1698.41 84.792C1697.3 89.9973 1694.95 93.88 1691.37 96.44C1687.78 99 1682.96 100.28 1676.9 100.28ZM1772.15 100.28C1764.12 100.28 1757 98.744 1750.77 95.672C1744.54 92.6 1739.63 88.3333 1736.05 82.872C1732.55 77.3253 1730.8 71.0107 1730.8 63.928C1730.8 56.8453 1732.55 50.5733 1736.05 45.112C1739.63 39.6507 1744.54 35.384 1750.77 32.312C1757 29.24 1764.12 27.704 1772.15 27.704C1780.68 27.704 1787.97 29.5387 1794.03 33.208C1800.09 36.8773 1804.27 41.9547 1806.58 48.44L1784.18 59.448C1782.73 56.2053 1780.93 53.8587 1778.8 52.408C1776.75 50.9573 1774.49 50.232 1772.02 50.232C1769.88 50.232 1767.88 50.744 1766 51.768C1764.21 52.792 1762.76 54.328 1761.65 56.376C1760.63 58.3387 1760.11 60.856 1760.11 63.928C1760.11 67 1760.63 69.56 1761.65 71.608C1762.76 73.656 1764.21 75.192 1766 76.216C1767.88 77.24 1769.88 77.752 1772.02 77.752C1774.49 77.752 1776.75 77.0267 1778.8 75.576C1780.93 74.1253 1782.73 71.7787 1784.18 68.536L1806.58 79.544C1804.27 86.0293 1800.09 91.1067 1794.03 94.776C1787.97 98.4453 1780.68 100.28 1772.15 100.28ZM1831.29 99V45.368L1837.56 51.512H1809.91V28.984H1881.46V51.512H1853.82L1860.09 45.368V99H1831.29ZM1889.78 99V28.984H1918.58V53.56H1938.3V28.984H1967.1V99H1938.3V76.216H1918.58V99H1889.78ZM2016.76 100.28C2008.82 100.28 2001.78 98.744 1995.64 95.672C1989.58 92.5147 1984.8 88.2053 1981.3 82.744C1977.8 77.2827 1976.05 71.0107 1976.05 63.928C1976.05 56.8453 1977.8 50.5733 1981.3 45.112C1984.8 39.6507 1989.58 35.384 1995.64 32.312C2001.78 29.24 2008.82 27.704 2016.76 27.704C2024.69 27.704 2031.73 29.24 2037.88 32.312C2044.02 35.384 2048.8 39.6507 2052.21 45.112C2055.71 50.5733 2057.46 56.8453 2057.46 63.928C2057.46 71.0107 2055.71 77.2827 2052.21 82.744C2048.8 88.2053 2044.02 92.5147 2037.88 95.672C2031.73 98.744 2024.69 100.28 2016.76 100.28ZM2016.76 77.752C2018.89 77.752 2020.81 77.24 2022.52 76.216C2024.22 75.192 2025.59 73.656 2026.61 71.608C2027.64 69.4747 2028.15 66.9147 2028.15 63.928C2028.15 60.856 2027.64 58.3387 2026.61 56.376C2025.59 54.328 2024.22 52.792 2022.52 51.768C2020.81 50.744 2018.89 50.232 2016.76 50.232C2014.62 50.232 2012.7 50.744 2011 51.768C2009.29 52.792 2007.92 54.328 2006.9 56.376C2005.88 58.3387 2005.36 60.856 2005.36 63.928C2005.36 66.9147 2005.88 69.4747 2006.9 71.608C2007.92 73.656 2009.29 75.192 2011 76.216C2012.7 77.24 2014.62 77.752 2016.76 77.752ZM2104.17 100.28C2095.64 100.28 2088.17 98.7013 2081.77 95.544C2075.45 92.3867 2070.55 88.0773 2067.05 82.616C2063.55 77.0693 2061.8 70.84 2061.8 63.928C2061.8 56.8453 2063.51 50.5733 2066.92 45.112C2070.42 39.6507 2075.16 35.384 2081.13 32.312C2087.19 29.24 2093.97 27.704 2101.48 27.704C2108.39 27.704 2114.75 29.0693 2120.55 31.8C2126.44 34.5307 2131.13 38.584 2134.63 43.96C2138.22 49.336 2140.01 55.992 2140.01 63.928C2140.01 64.952 2139.97 66.104 2139.88 67.384C2139.8 68.5787 2139.71 69.688 2139.62 70.712H2085.74V56.76H2124.26L2113.39 60.472C2113.39 57.7413 2112.87 55.4373 2111.85 53.56C2110.91 51.5973 2109.59 50.104 2107.88 49.08C2106.17 47.9707 2104.13 47.416 2101.74 47.416C2099.35 47.416 2097.26 47.9707 2095.47 49.08C2093.76 50.104 2092.44 51.5973 2091.5 53.56C2090.56 55.4373 2090.09 57.7413 2090.09 60.472V64.824C2090.09 67.8107 2090.69 70.3707 2091.88 72.504C2093.08 74.6373 2094.78 76.2587 2097 77.368C2099.22 78.392 2101.91 78.904 2105.07 78.904C2108.31 78.904 2110.95 78.4773 2113 77.624C2115.13 76.7707 2117.35 75.4907 2119.66 73.784L2134.76 89.016C2131.35 92.6853 2127.12 95.5013 2122.09 97.464C2117.14 99.3413 2111.17 100.28 2104.17 100.28ZM2237.68 86.584V51.512H2223.22L2223.09 55.864C2223 58.8507 2222.83 61.624 2222.58 64.184C2222.41 66.744 2222.02 69.048 2221.42 71.096C2220.83 73.0587 2219.93 74.808 2218.74 76.344C2217.63 77.7947 2216.05 78.9893 2214 79.928L2185.71 76.344C2187.93 76.344 2189.77 75.7893 2191.22 74.68C2192.67 73.4853 2193.78 71.864 2194.54 69.816C2195.4 67.6827 2195.99 65.2507 2196.34 62.52C2196.76 59.7893 2197.02 56.8453 2197.1 53.688L2198 28.984H2266.48V86.584H2237.68ZM2183.66 112.824V76.344H2275.82V112.824H2249.07V99H2210.42V112.824H2183.66ZM2320.38 100.28C2312.44 100.28 2305.4 98.744 2299.26 95.672C2293.2 92.5147 2288.42 88.2053 2284.92 82.744C2281.43 77.2827 2279.68 71.0107 2279.68 63.928C2279.68 56.8453 2281.43 50.5733 2284.92 45.112C2288.42 39.6507 2293.2 35.384 2299.26 32.312C2305.4 29.24 2312.44 27.704 2320.38 27.704C2328.32 27.704 2335.36 29.24 2341.5 32.312C2347.64 35.384 2352.42 39.6507 2355.84 45.112C2359.33 50.5733 2361.08 56.8453 2361.08 63.928C2361.08 71.0107 2359.33 77.2827 2355.84 82.744C2352.42 88.2053 2347.64 92.5147 2341.5 95.672C2335.36 98.744 2328.32 100.28 2320.38 100.28ZM2320.38 77.752C2322.51 77.752 2324.43 77.24 2326.14 76.216C2327.85 75.192 2329.21 73.656 2330.24 71.608C2331.26 69.4747 2331.77 66.9147 2331.77 63.928C2331.77 60.856 2331.26 58.3387 2330.24 56.376C2329.21 54.328 2327.85 52.792 2326.14 51.768C2324.43 50.744 2322.51 50.232 2320.38 50.232C2318.25 50.232 2316.33 50.744 2314.62 51.768C2312.91 52.792 2311.55 54.328 2310.52 56.376C2309.5 58.3387 2308.99 60.856 2308.99 63.928C2308.99 66.9147 2309.5 69.4747 2310.52 71.608C2311.55 73.656 2312.91 75.192 2314.62 76.216C2316.33 77.24 2318.25 77.752 2320.38 77.752ZM2407.92 101.048C2402.29 101.048 2396.96 100.28 2391.92 98.744C2386.97 97.208 2382.62 94.6907 2378.87 91.192C2375.11 87.6933 2372.17 83.0853 2370.03 77.368C2367.9 71.6507 2366.83 64.6107 2366.83 56.248C2366.83 50.9573 2367.3 46.0507 2368.24 41.528C2369.18 36.92 2370.63 32.696 2372.59 28.856C2374.56 25.016 2377.07 21.6453 2380.15 18.744C2383.22 15.7573 2386.89 13.2827 2391.15 11.32C2395.42 9.27199 2400.28 7.73599 2405.75 6.712L2440.56 0.439995L2444.4 24.12L2414.96 29.368C2413.08 29.7093 2411.16 30.136 2409.2 30.648C2407.24 31.0747 2405.36 31.7147 2403.57 32.568C2401.78 33.336 2400.16 34.4453 2398.71 35.896C2397.26 37.3467 2396.1 39.224 2395.25 41.528C2394.48 43.832 2394.1 46.6907 2394.1 50.104C2394.1 51.128 2394.14 51.9813 2394.23 52.664C2394.31 53.3467 2394.4 54.1573 2394.48 55.096C2394.57 55.9493 2394.61 57.3147 2394.61 59.192L2387.31 52.792C2389.53 49.72 2392.05 47.1173 2394.87 44.984C2397.68 42.7653 2400.88 41.0587 2404.47 39.864C2408.05 38.6693 2412.1 38.072 2416.63 38.072C2423.45 38.072 2429.26 39.352 2434.03 41.912C2438.9 44.472 2442.57 48.0133 2445.04 52.536C2447.6 56.9733 2448.88 62.0507 2448.88 67.768C2448.88 74.7653 2447.09 80.7387 2443.51 85.688C2439.92 90.6373 2435.06 94.4347 2428.91 97.08C2422.77 99.7253 2415.77 101.048 2407.92 101.048ZM2408.43 79.672C2410.65 79.672 2412.57 79.2027 2414.19 78.264C2415.82 77.24 2417.1 75.8747 2418.03 74.168C2418.97 72.4613 2419.44 70.5413 2419.44 68.408C2419.44 66.1893 2418.97 64.312 2418.03 62.776C2417.1 61.24 2415.77 60.0453 2414.07 59.192C2412.44 58.3387 2410.57 57.912 2408.43 57.912C2406.22 57.912 2404.25 58.3387 2402.55 59.192C2400.84 60.0453 2399.52 61.24 2398.58 62.776C2397.64 64.2267 2397.17 65.976 2397.17 68.024C2397.17 70.2427 2397.64 72.248 2398.58 74.04C2399.52 75.7467 2400.84 77.112 2402.55 78.136C2404.25 79.16 2406.22 79.672 2408.43 79.672ZM2504.5 100.28C2498.45 100.28 2493.41 99 2489.4 96.44C2485.47 93.7947 2482.57 89.8267 2480.7 84.536C2478.82 79.16 2477.88 72.3333 2477.88 64.056C2477.88 55.608 2478.73 48.7387 2480.44 43.448C2482.23 38.072 2485.09 34.104 2489.02 31.544C2492.94 28.984 2498.1 27.704 2504.5 27.704C2510.65 27.704 2516.28 29.1973 2521.4 32.184C2526.52 35.0853 2530.62 39.2667 2533.69 44.728C2536.76 50.104 2538.3 56.5467 2538.3 64.056C2538.3 71.5653 2536.76 78.0507 2533.69 83.512C2530.62 88.888 2526.52 93.0267 2521.4 95.928C2516.28 98.8293 2510.65 100.28 2504.5 100.28ZM2457.78 123.832V28.984H2485.3V38.456L2485.43 64.056L2486.71 89.656V123.832H2457.78ZM2497.59 77.752C2499.73 77.752 2501.65 77.24 2503.35 76.216C2505.06 75.192 2506.42 73.656 2507.45 71.608C2508.47 69.56 2508.98 67.0427 2508.98 64.056C2508.98 60.984 2508.47 58.424 2507.45 56.376C2506.42 54.328 2505.06 52.792 2503.35 51.768C2501.65 50.744 2499.73 50.232 2497.59 50.232C2495.46 50.232 2493.54 50.744 2491.83 51.768C2490.13 52.792 2488.76 54.328 2487.74 56.376C2486.71 58.424 2486.2 60.984 2486.2 64.056C2486.2 67.0427 2486.71 69.56 2487.74 71.608C2488.76 73.656 2490.13 75.192 2491.83 76.216C2493.54 77.24 2495.46 77.752 2497.59 77.752ZM2583.76 100.28C2575.82 100.28 2568.78 98.744 2562.64 95.672C2556.58 92.5147 2551.8 88.2053 2548.3 82.744C2544.8 77.2827 2543.05 71.0107 2543.05 63.928C2543.05 56.8453 2544.8 50.5733 2548.3 45.112C2551.8 39.6507 2556.58 35.384 2562.64 32.312C2568.78 29.24 2575.82 27.704 2583.76 27.704C2591.69 27.704 2598.73 29.24 2604.88 32.312C2611.02 35.384 2615.8 39.6507 2619.21 45.112C2622.71 50.5733 2624.46 56.8453 2624.46 63.928C2624.46 71.0107 2622.71 77.2827 2619.21 82.744C2615.8 88.2053 2611.02 92.5147 2604.88 95.672C2598.73 98.744 2591.69 100.28 2583.76 100.28ZM2583.76 77.752C2585.89 77.752 2587.81 77.24 2589.52 76.216C2591.22 75.192 2592.59 73.656 2593.61 71.608C2594.64 69.4747 2595.15 66.9147 2595.15 63.928C2595.15 60.856 2594.64 58.3387 2593.61 56.376C2592.59 54.328 2591.22 52.792 2589.52 51.768C2587.81 50.744 2585.89 50.232 2583.76 50.232C2581.62 50.232 2579.7 50.744 2578 51.768C2576.29 52.792 2574.92 54.328 2573.9 56.376C2572.88 58.3387 2572.36 60.856 2572.36 63.928C2572.36 66.9147 2572.88 69.4747 2573.9 71.608C2574.92 73.656 2576.29 75.192 2578 76.216C2579.7 77.24 2581.62 77.752 2583.76 77.752ZM2633.41 99V28.984H2672.71C2682.09 28.984 2689.39 30.6053 2694.59 33.848C2699.8 37.0053 2702.4 41.4853 2702.4 47.288C2702.4 52.92 2700.01 57.4427 2695.23 60.856C2690.45 64.184 2684.01 65.848 2675.91 65.848L2678.08 59.96C2686.7 59.96 2693.23 61.5387 2697.67 64.696C2702.19 67.8533 2704.45 72.4613 2704.45 78.52C2704.45 84.7493 2701.97 89.7413 2697.03 93.496C2692.16 97.1653 2684.74 99 2674.75 99H2633.41ZM2658.75 81.08H2672.19C2674.33 81.08 2675.91 80.6107 2676.93 79.672C2677.95 78.7333 2678.47 77.4533 2678.47 75.832C2678.47 74.1253 2677.95 72.888 2676.93 72.12C2675.91 71.2667 2674.33 70.84 2672.19 70.84H2658.75V81.08ZM2658.75 56.632H2670.15C2672.36 56.632 2673.94 56.2053 2674.88 55.352C2675.91 54.4987 2676.42 53.2613 2676.42 51.64C2676.42 49.9333 2675.91 48.7387 2674.88 48.056C2673.94 47.288 2672.36 46.904 2670.15 46.904H2658.75V56.632ZM2750.01 100.28C2742.07 100.28 2735.03 98.744 2728.89 95.672C2722.83 92.5147 2718.05 88.2053 2714.55 82.744C2711.05 77.2827 2709.3 71.0107 2709.3 63.928C2709.3 56.8453 2711.05 50.5733 2714.55 45.112C2718.05 39.6507 2722.83 35.384 2728.89 32.312C2735.03 29.24 2742.07 27.704 2750.01 27.704C2757.94 27.704 2764.98 29.24 2771.12 32.312C2777.27 35.384 2782.05 39.6507 2785.46 45.112C2788.96 50.5733 2790.71 56.8453 2790.71 63.928C2790.71 71.0107 2788.96 77.2827 2785.46 82.744C2782.05 88.2053 2777.27 92.5147 2771.12 95.672C2764.98 98.744 2757.94 100.28 2750.01 100.28ZM2750.01 77.752C2752.14 77.752 2754.06 77.24 2755.77 76.216C2757.47 75.192 2758.84 73.656 2759.86 71.608C2760.89 69.4747 2761.4 66.9147 2761.4 63.928C2761.4 60.856 2760.89 58.3387 2759.86 56.376C2758.84 54.328 2757.47 52.792 2755.77 51.768C2754.06 50.744 2752.14 50.232 2750.01 50.232C2747.87 50.232 2745.95 50.744 2744.25 51.768C2742.54 52.792 2741.17 54.328 2740.15 56.376C2739.13 58.3387 2738.61 60.856 2738.61 63.928C2738.61 66.9147 2739.13 69.4747 2740.15 71.608C2741.17 73.656 2742.54 75.192 2744.25 76.216C2745.95 77.24 2747.87 77.752 2750.01 77.752ZM2792.78 99L2793.94 75.576C2794.45 75.6613 2794.96 75.7467 2795.47 75.832C2795.98 75.832 2796.45 75.832 2796.88 75.832C2798.76 75.832 2800.25 75.4907 2801.36 74.808C2802.47 74.04 2803.32 72.9733 2803.92 71.608C2804.6 70.1573 2805.07 68.4507 2805.33 66.488C2805.58 64.44 2805.75 62.0933 2805.84 59.448L2806.86 28.984H2873.68V99H2844.75V45.496L2851.02 51.512H2825.94L2831.82 45.112L2831.18 60.6C2830.93 66.9147 2830.37 72.5893 2829.52 77.624C2828.67 82.5733 2827.3 86.7973 2825.42 90.296C2823.63 93.7093 2821.16 96.3547 2818 98.232C2814.93 100.024 2811 100.92 2806.22 100.92C2804.35 100.92 2802.26 100.749 2799.95 100.408C2797.73 100.067 2795.34 99.5973 2792.78 99ZM2931.57 50.104C2940.96 50.104 2948.17 52.152 2953.2 56.248C2958.24 60.344 2960.76 66.1467 2960.76 73.656C2960.76 81.5067 2957.81 87.6933 2951.92 92.216C2946.12 96.7387 2938.14 99 2927.99 99H2887.28V28.984H2916.08V50.104H2931.57ZM2925.04 79.544C2927.01 79.544 2928.54 79.032 2929.65 78.008C2930.76 76.984 2931.32 75.3627 2931.32 73.144C2931.32 70.9253 2930.76 69.3467 2929.65 68.408C2928.54 67.4693 2927.01 67 2925.04 67H2916.08V79.544H2925.04ZM2969.03 99V28.984H2997.83V53.56H3017.55V28.984H3046.35V99H3017.55V76.216H2997.83V99H2969.03ZM3096.01 100.28C3088.07 100.28 3081.03 98.744 3074.89 95.672C3068.83 92.5147 3064.05 88.2053 3060.55 82.744C3057.05 77.2827 3055.3 71.0107 3055.3 63.928C3055.3 56.8453 3057.05 50.5733 3060.55 45.112C3064.05 39.6507 3068.83 35.384 3074.89 32.312C3081.03 29.24 3088.07 27.704 3096.01 27.704C3103.94 27.704 3110.98 29.24 3117.12 32.312C3123.27 35.384 3128.05 39.6507 3131.46 45.112C3134.96 50.5733 3136.71 56.8453 3136.71 63.928C3136.71 71.0107 3134.96 77.2827 3131.46 82.744C3128.05 88.2053 3123.27 92.5147 3117.12 95.672C3110.98 98.744 3103.94 100.28 3096.01 100.28ZM3096.01 77.752C3098.14 77.752 3100.06 77.24 3101.77 76.216C3103.47 75.192 3104.84 73.656 3105.86 71.608C3106.89 69.4747 3107.4 66.9147 3107.4 63.928C3107.4 60.856 3106.89 58.3387 3105.86 56.376C3104.84 54.328 3103.47 52.792 3101.77 51.768C3100.06 50.744 3098.14 50.232 3096.01 50.232C3093.87 50.232 3091.95 50.744 3090.25 51.768C3088.54 52.792 3087.17 54.328 3086.15 56.376C3085.13 58.3387 3084.61 60.856 3084.61 63.928C3084.61 66.9147 3085.13 69.4747 3086.15 71.608C3087.17 73.656 3088.54 75.192 3090.25 76.216C3091.95 77.24 3093.87 77.752 3096.01 77.752ZM3183.42 100.28C3174.89 100.28 3167.42 98.7013 3161.02 95.544C3154.7 92.3867 3149.8 88.0773 3146.3 82.616C3142.8 77.0693 3141.05 70.84 3141.05 63.928C3141.05 56.8453 3142.76 50.5733 3146.17 45.112C3149.67 39.6507 3154.41 35.384 3160.38 32.312C3166.44 29.24 3173.22 27.704 3180.73 27.704C3187.64 27.704 3194 29.0693 3199.8 31.8C3205.69 34.5307 3210.38 38.584 3213.88 43.96C3217.47 49.336 3219.26 55.992 3219.26 63.928C3219.26 64.952 3219.22 66.104 3219.13 67.384C3219.05 68.5787 3218.96 69.688 3218.88 70.712H3164.99V56.76H3203.51L3192.64 60.472C3192.64 57.7413 3192.12 55.4373 3191.1 53.56C3190.16 51.5973 3188.84 50.104 3187.13 49.08C3185.42 47.9707 3183.38 47.416 3180.99 47.416C3178.6 47.416 3176.51 47.9707 3174.72 49.08C3173.01 50.104 3171.69 51.5973 3170.75 53.56C3169.81 55.4373 3169.34 57.7413 3169.34 60.472V64.824C3169.34 67.8107 3169.94 70.3707 3171.13 72.504C3172.33 74.6373 3174.03 76.2587 3176.25 77.368C3178.47 78.392 3181.16 78.904 3184.32 78.904C3187.56 78.904 3190.2 78.4773 3192.25 77.624C3194.38 76.7707 3196.6 75.4907 3198.91 73.784L3214.01 89.016C3210.6 92.6853 3206.37 95.5013 3201.34 97.464C3196.39 99.3413 3190.42 100.28 3183.42 100.28ZM3304.13 100.28C3296.19 100.28 3289.15 98.744 3283.01 95.672C3276.95 92.5147 3272.17 88.2053 3268.67 82.744C3265.18 77.2827 3263.43 71.0107 3263.43 63.928C3263.43 56.8453 3265.18 50.5733 3268.67 45.112C3272.17 39.6507 3276.95 35.384 3283.01 32.312C3289.15 29.24 3296.19 27.704 3304.13 27.704C3312.07 27.704 3319.11 29.24 3325.25 32.312C3331.39 35.384 3336.17 39.6507 3339.59 45.112C3343.08 50.5733 3344.83 56.8453 3344.83 63.928C3344.83 71.0107 3343.08 77.2827 3339.59 82.744C3336.17 88.2053 3331.39 92.5147 3325.25 95.672C3319.11 98.744 3312.07 100.28 3304.13 100.28ZM3304.13 77.752C3306.26 77.752 3308.18 77.24 3309.89 76.216C3311.6 75.192 3312.96 73.656 3313.99 71.608C3315.01 69.4747 3315.52 66.9147 3315.52 63.928C3315.52 60.856 3315.01 58.3387 3313.99 56.376C3312.96 54.328 3311.6 52.792 3309.89 51.768C3308.18 50.744 3306.26 50.232 3304.13 50.232C3302 50.232 3300.08 50.744 3298.37 51.768C3296.66 52.792 3295.3 54.328 3294.27 56.376C3293.25 58.3387 3292.74 60.856 3292.74 63.928C3292.74 66.9147 3293.25 69.4747 3294.27 71.608C3295.3 73.656 3296.66 75.192 3298.37 76.216C3300.08 77.24 3302 77.752 3304.13 77.752ZM3391.67 101.048C3386.04 101.048 3380.71 100.28 3375.67 98.744C3370.72 97.208 3366.37 94.6907 3362.62 91.192C3358.86 87.6933 3355.92 83.0853 3353.78 77.368C3351.65 71.6507 3350.58 64.6107 3350.58 56.248C3350.58 50.9573 3351.05 46.0507 3351.99 41.528C3352.93 36.92 3354.38 32.696 3356.34 28.856C3358.31 25.016 3360.82 21.6453 3363.9 18.744C3366.97 15.7573 3370.64 13.2827 3374.9 11.32C3379.17 9.27199 3384.03 7.73599 3389.5 6.712L3424.31 0.439995L3428.15 24.12L3398.71 29.368C3396.83 29.7093 3394.91 30.136 3392.95 30.648C3390.99 31.0747 3389.11 31.7147 3387.32 32.568C3385.53 33.336 3383.91 34.4453 3382.46 35.896C3381.01 37.3467 3379.85 39.224 3379 41.528C3378.23 43.832 3377.85 46.6907 3377.85 50.104C3377.85 51.128 3377.89 51.9813 3377.98 52.664C3378.06 53.3467 3378.15 54.1573 3378.23 55.096C3378.32 55.9493 3378.36 57.3147 3378.36 59.192L3371.06 52.792C3373.28 49.72 3375.8 47.1173 3378.62 44.984C3381.43 42.7653 3384.63 41.0587 3388.22 39.864C3391.8 38.6693 3395.85 38.072 3400.38 38.072C3407.2 38.072 3413.01 39.352 3417.78 41.912C3422.65 44.472 3426.32 48.0133 3428.79 52.536C3431.35 56.9733 3432.63 62.0507 3432.63 67.768C3432.63 74.7653 3430.84 80.7387 3427.26 85.688C3423.67 90.6373 3418.81 94.4347 3412.66 97.08C3406.52 99.7253 3399.52 101.048 3391.67 101.048ZM3392.18 79.672C3394.4 79.672 3396.32 79.2027 3397.94 78.264C3399.57 77.24 3400.85 75.8747 3401.78 74.168C3402.72 72.4613 3403.19 70.5413 3403.19 68.408C3403.19 66.1893 3402.72 64.312 3401.78 62.776C3400.85 61.24 3399.52 60.0453 3397.82 59.192C3396.19 58.3387 3394.32 57.912 3392.18 57.912C3389.97 57.912 3388 58.3387 3386.3 59.192C3384.59 60.0453 3383.27 61.24 3382.33 62.776C3381.39 64.2267 3380.92 65.976 3380.92 68.024C3380.92 70.2427 3381.39 72.248 3382.33 74.04C3383.27 75.7467 3384.59 77.112 3386.3 78.136C3388 79.16 3389.97 79.672 3392.18 79.672ZM3491.07 76.344L3484.8 82.616V28.984H3513.6V82.616L3507.2 76.344H3534.21L3527.93 82.616V28.984H3556.61V99H3441.53V28.984H3470.33V82.616L3464.06 76.344H3491.07ZM3538.94 111.928V92.856L3545.21 99H3527.42V76.344H3565.69V111.928H3538.94ZM3607.92 100.28C3599.39 100.28 3591.92 98.7013 3585.52 95.544C3579.2 92.3867 3574.3 88.0773 3570.8 82.616C3567.3 77.0693 3565.55 70.84 3565.55 63.928C3565.55 56.8453 3567.26 50.5733 3570.67 45.112C3574.17 39.6507 3578.91 35.384 3584.88 32.312C3590.94 29.24 3597.72 27.704 3605.23 27.704C3612.14 27.704 3618.5 29.0693 3624.3 31.8C3630.19 34.5307 3634.88 38.584 3638.38 43.96C3641.97 49.336 3643.76 55.992 3643.76 63.928C3643.76 64.952 3643.72 66.104 3643.63 67.384C3643.55 68.5787 3643.46 69.688 3643.38 70.712H3589.49V56.76H3628.01L3617.14 60.472C3617.14 57.7413 3616.62 55.4373 3615.6 53.56C3614.66 51.5973 3613.34 50.104 3611.63 49.08C3609.92 47.9707 3607.88 47.416 3605.49 47.416C3603.1 47.416 3601.01 47.9707 3599.22 49.08C3597.51 50.104 3596.19 51.5973 3595.25 53.56C3594.31 55.4373 3593.84 57.7413 3593.84 60.472V64.824C3593.84 67.8107 3594.44 70.3707 3595.63 72.504C3596.83 74.6373 3598.53 76.2587 3600.75 77.368C3602.97 78.392 3605.66 78.904 3608.82 78.904C3612.06 78.904 3614.7 78.4773 3616.75 77.624C3618.88 76.7707 3621.1 75.4907 3623.41 73.784L3638.51 89.016C3635.1 92.6853 3630.87 95.5013 3625.84 97.464C3620.89 99.3413 3614.92 100.28 3607.92 100.28ZM3690.9 100.28C3682.87 100.28 3675.75 98.744 3669.52 95.672C3663.29 92.6 3658.38 88.3333 3654.8 82.872C3651.3 77.3253 3649.55 71.0107 3649.55 63.928C3649.55 56.8453 3651.3 50.5733 3654.8 45.112C3658.38 39.6507 3663.29 35.384 3669.52 32.312C3675.75 29.24 3682.87 27.704 3690.9 27.704C3699.43 27.704 3706.72 29.5387 3712.78 33.208C3718.84 36.8773 3723.02 41.9547 3725.33 48.44L3702.93 59.448C3701.48 56.2053 3699.68 53.8587 3697.55 52.408C3695.5 50.9573 3693.24 50.232 3690.77 50.232C3688.63 50.232 3686.63 50.744 3684.75 51.768C3682.96 52.792 3681.51 54.328 3680.4 56.376C3679.38 58.3387 3678.86 60.856 3678.86 63.928C3678.86 67 3679.38 69.56 3680.4 71.608C3681.51 73.656 3682.96 75.192 3684.75 76.216C3686.63 77.24 3688.63 77.752 3690.77 77.752C3693.24 77.752 3695.5 77.0267 3697.55 75.576C3699.68 74.1253 3701.48 71.7787 3702.93 68.536L3725.33 79.544C3723.02 86.0293 3718.84 91.1067 3712.78 94.776C3706.72 98.4453 3699.43 100.28 3690.9 100.28ZM3750.04 99V45.368L3756.31 51.512H3728.66V28.984H3800.21V51.512H3772.57L3778.84 45.368V99H3750.04ZM3808.53 99V28.984H3847.83C3857.22 28.984 3864.51 30.6053 3869.72 33.848C3874.92 37.0053 3877.53 41.4853 3877.53 47.288C3877.53 52.92 3875.14 57.4427 3870.36 60.856C3865.58 64.184 3859.14 65.848 3851.03 65.848L3853.21 59.96C3861.82 59.96 3868.35 61.5387 3872.79 64.696C3877.31 67.8533 3879.57 72.4613 3879.57 78.52C3879.57 84.7493 3877.1 89.7413 3872.15 93.496C3867.29 97.1653 3859.86 99 3849.88 99H3808.53ZM3833.88 81.08H3847.32C3849.45 81.08 3851.03 80.6107 3852.05 79.672C3853.08 78.7333 3853.59 77.4533 3853.59 75.832C3853.59 74.1253 3853.08 72.888 3852.05 72.12C3851.03 71.2667 3849.45 70.84 3847.32 70.84H3833.88V81.08ZM3833.88 56.632H3845.27C3847.49 56.632 3849.07 56.2053 3850.01 55.352C3851.03 54.4987 3851.54 53.2613 3851.54 51.64C3851.54 49.9333 3851.03 48.7387 3850.01 48.056C3849.07 47.288 3847.49 46.904 3845.27 46.904H3833.88V56.632ZM3925.13 100.28C3917.19 100.28 3910.15 98.744 3904.01 95.672C3897.95 92.5147 3893.17 88.2053 3889.67 82.744C3886.18 77.2827 3884.43 71.0107 3884.43 63.928C3884.43 56.8453 3886.18 50.5733 3889.67 45.112C3893.17 39.6507 3897.95 35.384 3904.01 32.312C3910.15 29.24 3917.19 27.704 3925.13 27.704C3933.07 27.704 3940.11 29.24 3946.25 32.312C3952.39 35.384 3957.17 39.6507 3960.59 45.112C3964.08 50.5733 3965.83 56.8453 3965.83 63.928C3965.83 71.0107 3964.08 77.2827 3960.59 82.744C3957.17 88.2053 3952.39 92.5147 3946.25 95.672C3940.11 98.744 3933.07 100.28 3925.13 100.28ZM3925.13 77.752C3927.26 77.752 3929.18 77.24 3930.89 76.216C3932.6 75.192 3933.96 73.656 3934.99 71.608C3936.01 69.4747 3936.52 66.9147 3936.52 63.928C3936.52 60.856 3936.01 58.3387 3934.99 56.376C3933.96 54.328 3932.6 52.792 3930.89 51.768C3929.18 50.744 3927.26 50.232 3925.13 50.232C3923 50.232 3921.08 50.744 3919.37 51.768C3917.66 52.792 3916.3 54.328 3915.27 56.376C3914.25 58.3387 3913.74 60.856 3913.74 63.928C3913.74 66.9147 3914.25 69.4747 3915.27 71.608C3916.3 73.656 3917.66 75.192 3919.37 76.216C3921.08 77.24 3923 77.752 3925.13 77.752ZM4013.16 99V28.984H4041.96V60.6L4066.15 28.984H4092.78V99H4063.98V67.256L4039.91 99H4013.16ZM4106.28 99V28.984H4135.08V53.56H4154.8V28.984H4183.6V99H4154.8V76.216H4135.08V99H4106.28ZM4197.16 99V28.984H4236.46C4245.84 28.984 4253.14 30.6053 4258.34 33.848C4263.55 37.0053 4266.15 41.4853 4266.15 47.288C4266.15 52.92 4263.76 57.4427 4258.98 60.856C4254.2 64.184 4247.76 65.848 4239.66 65.848L4241.83 59.96C4250.45 59.96 4256.98 61.5387 4261.42 64.696C4265.94 67.8533 4268.2 72.4613 4268.2 78.52C4268.2 84.7493 4265.72 89.7413 4260.78 93.496C4255.91 97.1653 4248.49 99 4238.5 99H4197.16ZM4222.5 81.08H4235.94C4238.08 81.08 4239.66 80.6107 4240.68 79.672C4241.7 78.7333 4242.22 77.4533 4242.22 75.832C4242.22 74.1253 4241.7 72.888 4240.68 72.12C4239.66 71.2667 4238.08 70.84 4235.94 70.84H4222.5V81.08ZM4222.5 56.632H4233.9C4236.11 56.632 4237.69 56.2053 4238.63 55.352C4239.66 54.4987 4240.17 53.2613 4240.17 51.64C4240.17 49.9333 4239.66 48.7387 4238.63 48.056C4237.69 47.288 4236.11 46.904 4233.9 46.904H4222.5V56.632ZM4318.49 99V86.584L4316.44 83.256V59.704C4316.44 56.2907 4315.38 53.688 4313.24 51.896C4311.2 50.104 4307.82 49.208 4303.13 49.208C4299.97 49.208 4296.77 49.72 4293.53 50.744C4290.29 51.6827 4287.52 53.0053 4285.21 54.712L4276 35.64C4280.09 33.08 4285 31.1173 4290.72 29.752C4296.43 28.3867 4302.02 27.704 4307.48 27.704C4319.52 27.704 4328.82 30.392 4335.39 35.768C4342.04 41.144 4345.37 49.6773 4345.37 61.368V99H4318.49ZM4298.65 100.28C4292.93 100.28 4288.16 99.2987 4284.32 97.336C4280.48 95.3733 4277.57 92.7707 4275.61 89.528C4273.65 86.2 4272.67 82.5307 4272.67 78.52C4272.67 73.9973 4273.82 70.1573 4276.12 67C4278.43 63.8427 4281.93 61.4533 4286.62 59.832C4291.4 58.2107 4297.41 57.4 4304.67 57.4H4319.26V71.352H4309.28C4306.2 71.352 4303.94 71.864 4302.49 72.888C4301.13 73.8267 4300.44 75.2773 4300.44 77.24C4300.44 78.8613 4301.04 80.2267 4302.24 81.336C4303.52 82.36 4305.22 82.872 4307.36 82.872C4309.32 82.872 4311.11 82.36 4312.73 81.336C4314.44 80.2267 4315.68 78.52 4316.44 76.216L4320.16 84.792C4319.05 89.9973 4316.7 93.88 4313.12 96.44C4309.53 99 4304.71 100.28 4298.65 100.28ZM4351.78 99L4352.94 75.576C4353.45 75.6613 4353.96 75.7467 4354.47 75.832C4354.98 75.832 4355.45 75.832 4355.88 75.832C4357.76 75.832 4359.25 75.4907 4360.36 74.808C4361.47 74.04 4362.32 72.9733 4362.92 71.608C4363.6 70.1573 4364.07 68.4507 4364.33 66.488C4364.58 64.44 4364.75 62.0933 4364.84 59.448L4365.86 28.984H4432.68V99H4403.75V45.496L4410.02 51.512H4384.94L4390.82 45.112L4390.18 60.6C4389.93 66.9147 4389.37 72.5893 4388.52 77.624C4387.67 82.5733 4386.3 86.7973 4384.42 90.296C4382.63 93.7093 4380.16 96.3547 4377 98.232C4373.93 100.024 4370 100.92 4365.22 100.92C4363.35 100.92 4361.26 100.749 4358.95 100.408C4356.73 100.067 4354.34 99.5973 4351.78 99ZM4446.28 99V28.984H4475.08V60.6L4499.28 28.984H4525.9V99H4497.1V67.256L4473.04 99H4446.28ZM4588.31 86.584V51.512H4573.84L4573.71 55.864C4573.63 58.8507 4573.46 61.624 4573.2 64.184C4573.03 66.744 4572.65 69.048 4572.05 71.096C4571.45 73.0587 4570.56 74.808 4569.36 76.344C4568.25 77.7947 4566.67 78.9893 4564.62 79.928L4536.34 76.344C4538.56 76.344 4540.39 75.7893 4541.84 74.68C4543.29 73.4853 4544.4 71.864 4545.17 69.816C4546.02 67.6827 4546.62 65.2507 4546.96 62.52C4547.39 59.7893 4547.64 56.8453 4547.73 53.688L4548.62 28.984H4617.11V86.584H4588.31ZM4534.29 112.824V76.344H4626.45V112.824H4599.7V99H4561.04V112.824H4534.29ZM4671.01 100.28C4663.07 100.28 4656.03 98.744 4649.89 95.672C4643.83 92.5147 4639.05 88.2053 4635.55 82.744C4632.05 77.2827 4630.3 71.0107 4630.3 63.928C4630.3 56.8453 4632.05 50.5733 4635.55 45.112C4639.05 39.6507 4643.83 35.384 4649.89 32.312C4656.03 29.24 4663.07 27.704 4671.01 27.704C4678.94 27.704 4685.98 29.24 4692.12 32.312C4698.27 35.384 4703.05 39.6507 4706.46 45.112C4709.96 50.5733 4711.71 56.8453 4711.71 63.928C4711.71 71.0107 4709.96 77.2827 4706.46 82.744C4703.05 88.2053 4698.27 92.5147 4692.12 95.672C4685.98 98.744 4678.94 100.28 4671.01 100.28ZM4671.01 77.752C4673.14 77.752 4675.06 77.24 4676.77 76.216C4678.47 75.192 4679.84 73.656 4680.86 71.608C4681.89 69.4747 4682.4 66.9147 4682.4 63.928C4682.4 60.856 4681.89 58.3387 4680.86 56.376C4679.84 54.328 4678.47 52.792 4676.77 51.768C4675.06 50.744 4673.14 50.232 4671.01 50.232C4668.87 50.232 4666.95 50.744 4665.25 51.768C4663.54 52.792 4662.17 54.328 4661.15 56.376C4660.13 58.3387 4659.61 60.856 4659.61 63.928C4659.61 66.9147 4660.13 69.4747 4661.15 71.608C4662.17 73.656 4663.54 75.192 4665.25 76.216C4666.95 77.24 4668.87 77.752 4671.01 77.752ZM4720.66 99V28.984H4759.96C4769.34 28.984 4776.64 30.6053 4781.84 33.848C4787.05 37.0053 4789.65 41.4853 4789.65 47.288C4789.65 52.92 4787.26 57.4427 4782.48 60.856C4777.7 64.184 4771.26 65.848 4763.16 65.848L4765.33 59.96C4773.95 59.96 4780.48 61.5387 4784.92 64.696C4789.44 67.8533 4791.7 72.4613 4791.7 78.52C4791.7 84.7493 4789.22 89.7413 4784.28 93.496C4779.41 97.1653 4771.99 99 4762 99H4720.66ZM4746 81.08H4759.44C4761.58 81.08 4763.16 80.6107 4764.18 79.672C4765.2 78.7333 4765.72 77.4533 4765.72 75.832C4765.72 74.1253 4765.2 72.888 4764.18 72.12C4763.16 71.2667 4761.58 70.84 4759.44 70.84H4746V81.08ZM4746 56.632H4757.4C4759.61 56.632 4761.19 56.2053 4762.13 55.352C4763.16 54.4987 4763.67 53.2613 4763.67 51.64C4763.67 49.9333 4763.16 48.7387 4762.13 48.056C4761.19 47.288 4759.61 46.904 4757.4 46.904H4746V56.632ZM4800.39 47.8L4798.47 9.39999H4822.79L4820.87 47.8H4800.39ZM4830.47 47.8L4828.55 9.39999H4852.87L4850.95 47.8H4830.47Z" fill="#101010"/>
</svg>
