<svg width="4853" height="124" fill="none" xmlns="http://www.w3.org/2000/svg"><path d="M51.504 101.048c-7.253 0-13.995-1.152-20.224-3.456-6.144-2.304-11.477-5.547-16-9.728-4.523-4.267-8.064-9.259-10.624-14.976C2.181 67.171.944 60.941.944 54.2c0-6.827 1.237-13.056 3.712-18.688 2.56-5.717 6.101-10.667 10.624-14.848 4.523-4.267 9.856-7.552 16-9.856 6.23-2.304 12.97-3.456 20.224-3.456 7.339 0 14.08 1.152 20.224 3.456 6.144 2.304 11.477 5.59 16 9.856 4.523 4.181 8.021 9.13 10.496 14.848 2.56 5.632 3.84 11.861 3.84 18.688 0 6.741-1.28 12.97-3.84 18.688a44.892 44.892 0 01-10.496 14.976c-4.523 4.181-9.856 7.424-16 9.728-6.144 2.304-12.885 3.456-20.224 3.456zm0-24.448c2.816 0 5.419-.512 7.808-1.536 2.475-1.024 4.608-2.475 6.4-4.352 1.877-1.963 3.328-4.31 4.352-7.04 1.024-2.816 1.536-5.973 1.536-9.472 0-3.499-.512-6.613-1.536-9.344-1.024-2.816-2.475-5.163-4.352-7.04a17.747 17.747 0 00-6.4-4.48c-2.39-1.024-4.992-1.536-7.808-1.536s-5.461.512-7.936 1.536c-2.39 1.024-4.523 2.517-6.4 4.48-1.792 1.877-3.2 4.224-4.224 7.04-1.024 2.73-1.536 5.845-1.536 9.344 0 3.499.512 6.656 1.536 9.472 1.024 2.73 2.432 5.077 4.224 7.04a20.283 20.283 0 006.4 4.352c2.475 1.024 5.12 1.536 7.936 1.536zm107 24.448c-7.253 0-13.995-1.152-20.224-3.456-6.144-2.304-11.477-5.547-16-9.728-4.523-4.267-8.064-9.259-10.624-14.976-2.475-5.717-3.712-11.947-3.712-18.688 0-6.827 1.237-13.056 3.712-18.688 2.56-5.717 6.101-10.667 10.624-14.848 4.523-4.267 9.856-7.552 16-9.856 6.229-2.304 12.971-3.456 20.224-3.456 7.339 0 14.08 1.152 20.224 3.456 6.144 2.304 11.477 5.59 16 9.856 4.523 4.181 8.021 9.13 10.496 14.848 2.56 5.632 3.84 11.861 3.84 18.688 0 6.741-1.28 12.97-3.84 18.688a44.892 44.892 0 01-10.496 14.976c-4.523 4.181-9.856 7.424-16 9.728-6.144 2.304-12.885 3.456-20.224 3.456zm0-24.448c2.816 0 5.419-.512 7.808-1.536 2.475-1.024 4.608-2.475 6.4-4.352 1.877-1.963 3.328-4.31 4.352-7.04 1.024-2.816 1.536-5.973 1.536-9.472 0-3.499-.512-6.613-1.536-9.344-1.024-2.816-2.475-5.163-4.352-7.04a17.745 17.745 0 00-6.4-4.48c-2.389-1.024-4.992-1.536-7.808-1.536s-5.461.512-7.936 1.536c-2.389 1.024-4.523 2.517-6.4 4.48-1.792 1.877-3.2 4.224-4.224 7.04-1.024 2.73-1.536 5.845-1.536 9.344 0 3.499.512 6.656 1.536 9.472 1.024 2.73 2.432 5.077 4.224 7.04a20.283 20.283 0 006.4 4.352c2.475 1.024 5.12 1.536 7.936 1.536zm97.887-28.8l-1.92-38.4h24.32l-1.92 38.4h-20.48zm30.08 0l-1.92-38.4h24.32l-1.92 38.4h-20.48zM320.936 99V9.4h86.656V99h-29.696V26.424l6.528 6.4h-40.32l6.528-6.4V99h-29.696zm142.18 0V86.584l-2.048-3.328V59.704c0-3.413-1.067-6.016-3.2-7.808-2.048-1.792-5.419-2.688-10.112-2.688-3.157 0-6.357.512-9.6 1.536-3.243.939-6.016 2.261-8.32 3.968L420.62 35.64c4.096-2.56 9.003-4.523 14.72-5.888 5.717-1.365 11.307-2.048 16.768-2.048 12.032 0 21.333 2.688 27.904 8.064 6.656 5.376 9.984 13.91 9.984 25.6V99h-26.88zm-19.84 1.28c-5.717 0-10.496-.981-14.336-2.944s-6.741-4.565-8.704-7.808c-1.963-3.328-2.944-6.997-2.944-11.008 0-4.523 1.152-8.363 3.456-11.52 2.304-3.157 5.803-5.547 10.496-7.168 4.779-1.621 10.795-2.432 18.048-2.432h14.592v13.952H453.9c-3.072 0-5.333.512-6.784 1.536-1.365.939-2.048 2.39-2.048 4.352 0 1.621.597 2.987 1.792 4.096 1.28 1.024 2.987 1.536 5.12 1.536 1.963 0 3.755-.512 5.376-1.536 1.707-1.11 2.944-2.816 3.712-5.12l3.712 8.576c-1.109 5.205-3.456 9.088-7.04 11.648-3.584 2.56-8.405 3.84-14.464 3.84zM501.784 99V28.984h39.296c9.387 0 16.683 1.621 21.888 4.864 5.205 3.157 7.808 7.637 7.808 13.44 0 5.632-2.389 10.155-7.168 13.568-4.779 3.328-11.221 4.992-19.328 4.992l2.176-5.888c8.619 0 15.147 1.579 19.584 4.736 4.523 3.157 6.784 7.765 6.784 13.824 0 6.23-2.475 11.221-7.424 14.976-4.864 3.67-12.288 5.504-22.272 5.504h-41.344zm25.344-17.92h13.44c2.133 0 3.712-.47 4.736-1.408 1.024-.939 1.536-2.219 1.536-3.84 0-1.707-.512-2.944-1.536-3.712-1.024-.853-2.603-1.28-4.736-1.28h-13.44v10.24zm0-24.448h11.392c2.219 0 3.797-.427 4.736-1.28 1.024-.853 1.536-2.09 1.536-3.712 0-1.707-.512-2.901-1.536-3.584-.939-.768-2.517-1.152-4.736-1.152h-11.392v9.728zM576.908 99l1.152-23.424 1.536.256h1.408c1.877 0 3.371-.341 4.48-1.024 1.109-.768 1.963-1.835 2.56-3.2.683-1.45 1.152-3.157 1.408-5.12.256-2.048.427-4.395.512-7.04l1.024-30.464h66.816V99h-28.928V45.496l6.272 6.016H610.06l5.888-6.4-.64 15.488c-.256 6.315-.811 11.99-1.664 17.024-.853 4.95-2.219 9.173-4.096 12.672-1.792 3.413-4.267 6.059-7.424 7.936-3.072 1.792-6.997 2.688-11.776 2.688-1.877 0-3.968-.171-6.272-.512A95.638 95.638 0 01576.908 99zm130.597 1.28c-7.936 0-14.976-1.536-21.12-4.608-6.059-3.157-10.837-7.467-14.336-12.928-3.499-5.461-5.248-11.733-5.248-18.816 0-7.083 1.749-13.355 5.248-18.816 3.499-5.461 8.277-9.728 14.336-12.8 6.144-3.072 13.184-4.608 21.12-4.608 7.936 0 14.976 1.536 21.12 4.608 6.144 3.072 10.923 7.339 14.336 12.8 3.499 5.461 5.248 11.733 5.248 18.816 0 7.083-1.749 13.355-5.248 18.816-3.413 5.461-8.192 9.77-14.336 12.928-6.144 3.072-13.184 4.608-21.12 4.608zm0-22.528c2.133 0 4.053-.512 5.76-1.536 1.707-1.024 3.072-2.56 4.096-4.608 1.024-2.133 1.536-4.693 1.536-7.68 0-3.072-.512-5.59-1.536-7.552-1.024-2.048-2.389-3.584-4.096-4.608-1.707-1.024-3.627-1.536-5.76-1.536s-4.053.512-5.76 1.536c-1.707 1.024-3.072 2.56-4.096 4.608-1.024 1.963-1.536 4.48-1.536 7.552 0 2.987.512 5.547 1.536 7.68 1.024 2.048 2.389 3.584 4.096 4.608 1.707 1.024 3.627 1.536 5.76 1.536zm97.05 8.832V51.512h-14.464l-.128 4.352a117.5 117.5 0 01-.512 8.32c-.171 2.56-.555 4.864-1.152 6.912-.597 1.963-1.493 3.712-2.688 5.248-1.109 1.45-2.688 2.645-4.736 3.584l-28.288-3.584c2.219 0 4.053-.555 5.504-1.664 1.451-1.195 2.56-2.816 3.328-4.864.853-2.133 1.451-4.565 1.792-7.296.427-2.73.683-5.675.768-8.832l.896-24.704h68.48v57.6h-28.8zm-54.016 26.24v-36.48h92.16v36.48h-26.752V99h-38.656v13.824h-26.752zM891.991 99V86.584l-2.048-3.328V59.704c0-3.413-1.067-6.016-3.2-7.808-2.048-1.792-5.419-2.688-10.112-2.688-3.157 0-6.357.512-9.6 1.536-3.243.939-6.016 2.261-8.32 3.968l-9.216-19.072c4.096-2.56 9.003-4.523 14.72-5.888 5.717-1.365 11.307-2.048 16.768-2.048 12.032 0 21.333 2.688 27.904 8.064 6.656 5.376 9.984 13.91 9.984 25.6V99h-26.88zm-19.84 1.28c-5.717 0-10.496-.981-14.336-2.944s-6.741-4.565-8.704-7.808c-1.963-3.328-2.944-6.997-2.944-11.008 0-4.523 1.152-8.363 3.456-11.52 2.304-3.157 5.803-5.547 10.496-7.168 4.779-1.621 10.795-2.432 18.048-2.432h14.592v13.952h-9.984c-3.072 0-5.333.512-6.784 1.536-1.365.939-2.048 2.39-2.048 4.352 0 1.621.597 2.987 1.792 4.096 1.28 1.024 2.987 1.536 5.12 1.536 1.963 0 3.755-.512 5.376-1.536 1.707-1.11 2.944-2.816 3.712-5.12l3.712 8.576c-1.109 5.205-3.456 9.088-7.04 11.648-3.584 2.56-8.405 3.84-14.464 3.84zm105.228 0c-6.059 0-11.093-1.28-15.104-3.84-3.925-2.645-6.827-6.613-8.704-11.904-1.877-5.376-2.816-12.203-2.816-20.48 0-8.448.853-15.317 2.56-20.608 1.792-5.376 4.651-9.344 8.576-11.904 3.925-2.56 9.088-3.84 15.488-3.84 6.144 0 11.776 1.493 16.896 4.48 5.12 2.901 9.215 7.083 12.285 12.544 3.08 5.376 4.61 11.819 4.61 19.328 0 7.51-1.53 13.995-4.61 19.456-3.07 5.376-7.165 9.515-12.285 12.416s-10.752 4.352-16.896 4.352zm-46.72 23.552V28.984h27.52v9.472l.128 25.6 1.28 25.6v34.176h-28.928zm39.808-46.08c2.133 0 4.053-.512 5.76-1.536 1.707-1.024 3.072-2.56 4.096-4.608 1.024-2.048 1.536-4.565 1.536-7.552 0-3.072-.512-5.632-1.536-7.68s-2.389-3.584-4.096-4.608c-1.707-1.024-3.627-1.536-5.76-1.536s-4.053.512-5.76 1.536c-1.707 1.024-3.072 2.56-4.096 4.608-1.024 2.048-1.536 4.608-1.536 7.68 0 2.987.512 5.504 1.536 7.552s2.389 3.584 4.096 4.608c1.707 1.024 3.627 1.536 5.76 1.536zm86.803 22.528c-8.02 0-15.15-1.536-21.38-4.608-6.23-3.072-11.13-7.339-14.72-12.8-3.49-5.547-5.24-11.861-5.24-18.944 0-7.083 1.75-13.355 5.24-18.816 3.59-5.461 8.49-9.728 14.72-12.8 6.23-3.072 13.36-4.608 21.38-4.608 8.53 0 15.83 1.835 21.89 5.504 6.06 3.67 10.24 8.747 12.54 15.232l-22.4 11.008c-1.45-3.243-3.24-5.59-5.37-7.04-2.05-1.45-4.31-2.176-6.79-2.176-2.13 0-4.14.512-6.01 1.536-1.8 1.024-3.25 2.56-4.36 4.608-1.02 1.963-1.53 4.48-1.53 7.552 0 3.072.51 5.632 1.53 7.68 1.11 2.048 2.56 3.584 4.36 4.608a12.339 12.339 0 006.01 1.536c2.48 0 4.74-.725 6.79-2.176 2.13-1.45 3.92-3.797 5.37-7.04l22.4 11.008c-2.3 6.485-6.48 11.563-12.54 15.232-6.06 3.67-13.36 5.504-21.89 5.504zm90.77-1.28l-19.2-32.128 23.3-13.568L1182.09 99h-34.05zm-48.38 0V28.984h28.93V99h-28.93zm20.48-23.296V53.56h26.11v22.144h-26.11zm34.94-8.576l-27.13-2.56 22.27-35.584h30.46l-25.6 38.144zm67.68 33.152c-7.94 0-14.98-1.536-21.12-4.608-6.06-3.157-10.84-7.467-14.34-12.928-3.5-5.461-5.25-11.733-5.25-18.816 0-7.083 1.75-13.355 5.25-18.816 3.5-5.461 8.28-9.728 14.34-12.8 6.14-3.072 13.18-4.608 21.12-4.608 7.93 0 14.97 1.536 21.12 4.608 6.14 3.072 10.92 7.339 14.33 12.8 3.5 5.461 5.25 11.733 5.25 18.816 0 7.083-1.75 13.355-5.25 18.816-3.41 5.461-8.19 9.77-14.33 12.928-6.15 3.072-13.19 4.608-21.12 4.608zm0-22.528c2.13 0 4.05-.512 5.76-1.536 1.7-1.024 3.07-2.56 4.09-4.608 1.03-2.133 1.54-4.693 1.54-7.68 0-3.072-.51-5.59-1.54-7.552-1.02-2.048-2.39-3.584-4.09-4.608-1.71-1.024-3.63-1.536-5.76-1.536-2.14 0-4.06.512-5.76 1.536-1.71 1.024-3.08 2.56-4.1 4.608-1.02 1.963-1.54 4.48-1.54 7.552 0 2.987.52 5.547 1.54 7.68 1.02 2.048 2.39 3.584 4.1 4.608 1.7 1.024 3.62 1.536 5.76 1.536zm87.41 22.528c-8.53 0-16-1.579-22.4-4.736-6.32-3.157-11.22-7.467-14.72-12.928-3.5-5.547-5.25-11.776-5.25-18.688 0-7.083 1.71-13.355 5.12-18.816 3.5-5.461 8.24-9.728 14.21-12.8 6.06-3.072 12.84-4.608 20.35-4.608 6.91 0 13.27 1.365 19.07 4.096 5.89 2.73 10.58 6.784 14.08 12.16 3.59 5.376 5.38 12.032 5.38 19.968a49.5 49.5 0 01-.13 3.456c-.08 1.195-.17 2.304-.26 3.328h-53.88V56.76h38.52l-10.87 3.712c0-2.73-.52-5.035-1.54-6.912-.94-1.963-2.26-3.456-3.97-4.48-1.71-1.11-3.75-1.664-6.14-1.664-2.39 0-4.48.555-6.27 1.664-1.71 1.024-3.03 2.517-3.97 4.48-.94 1.877-1.41 4.181-1.41 6.912v4.352c0 2.987.6 5.547 1.79 7.68 1.2 2.133 2.9 3.755 5.12 4.864 2.22 1.024 4.91 1.536 8.07 1.536 3.24 0 5.88-.427 7.93-1.28 2.13-.853 4.35-2.133 6.66-3.84l15.1 15.232c-3.41 3.67-7.64 6.485-12.67 8.448-4.95 1.877-10.92 2.816-17.92 2.816zm120.71 0c-7.94 0-14.98-1.536-21.12-4.608-6.06-3.157-10.84-7.467-14.34-12.928-3.49-5.461-5.24-11.733-5.24-18.816 0-7.083 1.75-13.355 5.24-18.816 3.5-5.461 8.28-9.728 14.34-12.8 6.14-3.072 13.18-4.608 21.12-4.608 7.94 0 14.98 1.536 21.12 4.608 6.14 3.072 10.92 7.339 14.34 12.8 3.49 5.461 5.24 11.733 5.24 18.816 0 7.083-1.75 13.355-5.24 18.816-3.42 5.461-8.2 9.77-14.34 12.928-6.14 3.072-13.18 4.608-21.12 4.608zm0-22.528c2.13 0 4.05-.512 5.76-1.536s3.07-2.56 4.1-4.608c1.02-2.133 1.53-4.693 1.53-7.68 0-3.072-.51-5.59-1.53-7.552-1.03-2.048-2.39-3.584-4.1-4.608-1.71-1.024-3.63-1.536-5.76-1.536s-4.05.512-5.76 1.536-3.07 2.56-4.1 4.608c-1.02 1.963-1.53 4.48-1.53 7.552 0 2.987.51 5.547 1.53 7.68 1.03 2.048 2.39 3.584 4.1 4.608 1.71 1.024 3.63 1.536 5.76 1.536zm87.54 23.296c-5.63 0-10.96-.768-16-2.304-4.95-1.536-9.3-4.053-13.05-7.552-3.76-3.499-6.7-8.107-8.84-13.824-2.13-5.717-3.2-12.757-3.2-21.12 0-5.29.47-10.197 1.41-14.72.94-4.608 2.39-8.832 4.35-12.672 1.97-3.84 4.48-7.21 7.56-10.112 3.07-2.987 6.74-5.461 11-7.424 4.27-2.048 9.13-3.584 14.6-4.608L1551.06.44l3.84 23.68-29.44 5.248a77.6 77.6 0 00-5.76 1.28 25.802 25.802 0 00-5.63 1.92c-1.79.768-3.41 1.877-4.86 3.328-1.45 1.45-2.61 3.328-3.46 5.632-.77 2.304-1.15 5.163-1.15 8.576 0 1.024.04 1.877.13 2.56.08.683.17 1.493.25 2.432.09.853.13 2.219.13 4.096l-7.3-6.4c2.22-3.072 4.74-5.675 7.56-7.808 2.81-2.219 6.01-3.925 9.6-5.12 3.58-1.195 7.63-1.792 12.16-1.792 6.82 0 12.63 1.28 17.4 3.84 4.87 2.56 8.54 6.101 11.01 10.624 2.56 4.437 3.84 9.515 3.84 15.232 0 6.997-1.79 12.97-5.37 17.92-3.59 4.95-8.45 8.747-14.6 11.392-6.14 2.645-13.14 3.968-20.99 3.968zm.51-21.376c2.22 0 4.14-.47 5.76-1.408a10.932 10.932 0 003.84-4.096c.94-1.707 1.41-3.627 1.41-5.76 0-2.219-.47-4.096-1.41-5.632-.93-1.536-2.26-2.73-3.96-3.584-1.63-.853-3.5-1.28-5.64-1.28-2.21 0-4.18.427-5.88 1.28-1.71.853-3.03 2.048-3.97 3.584-.94 1.45-1.41 3.2-1.41 5.248 0 2.219.47 4.224 1.41 6.016.94 1.707 2.26 3.072 3.97 4.096 1.7 1.024 3.67 1.536 5.88 1.536zM1561.41 99l1.15-23.424 1.54.256h1.4c1.88 0 3.37-.341 4.48-1.024 1.11-.768 1.97-1.835 2.56-3.2.69-1.45 1.16-3.157 1.41-5.12.26-2.048.43-4.395.51-7.04l1.03-30.464h66.81V99h-28.92V45.496l6.27 6.016h-25.09l5.89-6.4-.64 15.488c-.26 6.315-.81 11.99-1.67 17.024-.85 4.95-2.21 9.173-4.09 12.672-1.79 3.413-4.27 6.059-7.43 7.936-3.07 1.792-6.99 2.688-11.77 2.688-1.88 0-3.97-.171-6.27-.512a95.58 95.58 0 01-7.17-1.408zm135.33 0V86.584l-2.05-3.328V59.704c0-3.413-1.06-6.016-3.2-7.808-2.04-1.792-5.42-2.688-10.11-2.688-3.16 0-6.36.512-9.6 1.536-3.24.939-6.01 2.261-8.32 3.968l-9.21-19.072c4.09-2.56 9-4.523 14.72-5.888 5.71-1.365 11.3-2.048 16.76-2.048 12.04 0 21.34 2.688 27.91 8.064 6.65 5.376 9.98 13.91 9.98 25.6V99h-26.88zm-19.84 1.28c-5.72 0-10.49-.981-14.33-2.944s-6.75-4.565-8.71-7.808c-1.96-3.328-2.94-6.997-2.94-11.008 0-4.523 1.15-8.363 3.45-11.52 2.31-3.157 5.81-5.547 10.5-7.168 4.78-1.621 10.79-2.432 18.05-2.432h14.59v13.952h-9.98c-3.08 0-5.34.512-6.79 1.536-1.36.939-2.05 2.39-2.05 4.352 0 1.621.6 2.987 1.8 4.096 1.28 1.024 2.98 1.536 5.12 1.536 1.96 0 3.75-.512 5.37-1.536 1.71-1.11 2.95-2.816 3.71-5.12l3.72 8.576c-1.11 5.205-3.46 9.088-7.04 11.648-3.59 2.56-8.41 3.84-14.47 3.84zm95.25 0c-8.03 0-15.15-1.536-21.38-4.608-6.23-3.072-11.14-7.339-14.72-12.8-3.5-5.547-5.25-11.861-5.25-18.944 0-7.083 1.75-13.355 5.25-18.816 3.58-5.461 8.49-9.728 14.72-12.8 6.23-3.072 13.35-4.608 21.38-4.608 8.53 0 15.82 1.835 21.88 5.504 6.06 3.67 10.24 8.747 12.55 15.232l-22.4 11.008c-1.45-3.243-3.25-5.59-5.38-7.04-2.05-1.45-4.31-2.176-6.78-2.176-2.14 0-4.14.512-6.02 1.536-1.79 1.024-3.24 2.56-4.35 4.608-1.02 1.963-1.54 4.48-1.54 7.552 0 3.072.52 5.632 1.54 7.68 1.11 2.048 2.56 3.584 4.35 4.608a12.377 12.377 0 006.02 1.536c2.47 0 4.73-.725 6.78-2.176 2.13-1.45 3.93-3.797 5.38-7.04l22.4 11.008c-2.31 6.485-6.49 11.563-12.55 15.232-6.06 3.67-13.35 5.504-21.88 5.504zm59.14-1.28V45.368l6.27 6.144h-27.65V28.984h71.55v22.528h-27.64l6.27-6.144V99h-28.8zm58.49 0V28.984h28.8V53.56h19.72V28.984h28.8V99h-28.8V76.216h-19.72V99h-28.8zm126.98 1.28c-7.94 0-14.98-1.536-21.12-4.608-6.06-3.157-10.84-7.467-14.34-12.928-3.5-5.461-5.25-11.733-5.25-18.816 0-7.083 1.75-13.355 5.25-18.816 3.5-5.461 8.28-9.728 14.34-12.8 6.14-3.072 13.18-4.608 21.12-4.608 7.93 0 14.97 1.536 21.12 4.608 6.14 3.072 10.92 7.339 14.33 12.8 3.5 5.461 5.25 11.733 5.25 18.816 0 7.083-1.75 13.355-5.25 18.816-3.41 5.461-8.19 9.77-14.33 12.928-6.15 3.072-13.19 4.608-21.12 4.608zm0-22.528c2.13 0 4.05-.512 5.76-1.536 1.7-1.024 3.07-2.56 4.09-4.608 1.03-2.133 1.54-4.693 1.54-7.68 0-3.072-.51-5.59-1.54-7.552-1.02-2.048-2.39-3.584-4.09-4.608-1.71-1.024-3.63-1.536-5.76-1.536-2.14 0-4.06.512-5.76 1.536-1.71 1.024-3.08 2.56-4.1 4.608-1.02 1.963-1.54 4.48-1.54 7.552 0 2.987.52 5.547 1.54 7.68 1.02 2.048 2.39 3.584 4.1 4.608 1.7 1.024 3.62 1.536 5.76 1.536zm87.41 22.528c-8.53 0-16-1.579-22.4-4.736-6.32-3.157-11.22-7.467-14.72-12.928-3.5-5.547-5.25-11.776-5.25-18.688 0-7.083 1.71-13.355 5.12-18.816 3.5-5.461 8.24-9.728 14.21-12.8 6.06-3.072 12.84-4.608 20.35-4.608 6.91 0 13.27 1.365 19.07 4.096 5.89 2.73 10.58 6.784 14.08 12.16 3.59 5.376 5.38 12.032 5.38 19.968a49.5 49.5 0 01-.13 3.456c-.08 1.195-.17 2.304-.26 3.328h-53.88V56.76h38.52l-10.87 3.712c0-2.73-.52-5.035-1.54-6.912-.94-1.963-2.26-3.456-3.97-4.48-1.71-1.11-3.75-1.664-6.14-1.664-2.39 0-4.48.555-6.27 1.664-1.71 1.024-3.03 2.517-3.97 4.48-.94 1.877-1.41 4.181-1.41 6.912v4.352c0 2.987.6 5.547 1.79 7.68 1.2 2.133 2.9 3.755 5.12 4.864 2.22 1.024 4.91 1.536 8.07 1.536 3.24 0 5.88-.427 7.93-1.28 2.13-.853 4.35-2.133 6.66-3.84l15.1 15.232c-3.41 3.67-7.64 6.485-12.67 8.448-4.95 1.877-10.92 2.816-17.92 2.816zm133.51-13.696V51.512h-14.46l-.13 4.352c-.09 2.987-.26 5.76-.51 8.32-.17 2.56-.56 4.864-1.16 6.912a16.024 16.024 0 01-2.68 5.248c-1.11 1.45-2.69 2.645-4.74 3.584l-28.29-3.584c2.22 0 4.06-.555 5.51-1.664 1.45-1.195 2.56-2.816 3.32-4.864.86-2.133 1.45-4.565 1.8-7.296.42-2.73.68-5.675.76-8.832l.9-24.704h68.48v57.6h-28.8zm-54.02 26.24v-36.48h92.16v36.48h-26.75V99h-38.65v13.824h-26.76zm136.72-12.544c-7.94 0-14.98-1.536-21.12-4.608-6.06-3.157-10.84-7.467-14.34-12.928-3.49-5.461-5.24-11.733-5.24-18.816 0-7.083 1.75-13.355 5.24-18.816 3.5-5.461 8.28-9.728 14.34-12.8 6.14-3.072 13.18-4.608 21.12-4.608 7.94 0 14.98 1.536 21.12 4.608 6.14 3.072 10.92 7.339 14.34 12.8 3.49 5.461 5.24 11.733 5.24 18.816 0 7.083-1.75 13.355-5.24 18.816-3.42 5.461-8.2 9.77-14.34 12.928-6.14 3.072-13.18 4.608-21.12 4.608zm0-22.528c2.13 0 4.05-.512 5.76-1.536s3.07-2.56 4.1-4.608c1.02-2.133 1.53-4.693 1.53-7.68 0-3.072-.51-5.59-1.53-7.552-1.03-2.048-2.39-3.584-4.1-4.608-1.71-1.024-3.63-1.536-5.76-1.536s-4.05.512-5.76 1.536-3.07 2.56-4.1 4.608c-1.02 1.963-1.53 4.48-1.53 7.552 0 2.987.51 5.547 1.53 7.68 1.03 2.048 2.39 3.584 4.1 4.608 1.71 1.024 3.63 1.536 5.76 1.536zm87.54 23.296c-5.63 0-10.96-.768-16-2.304-4.95-1.536-9.3-4.053-13.05-7.552-3.76-3.499-6.7-8.107-8.84-13.824-2.13-5.717-3.2-12.757-3.2-21.12 0-5.29.47-10.197 1.41-14.72.94-4.608 2.39-8.832 4.35-12.672 1.97-3.84 4.48-7.21 7.56-10.112 3.07-2.987 6.74-5.461 11-7.424 4.27-2.048 9.13-3.584 14.6-4.608L2440.56.44l3.84 23.68-29.44 5.248a77.6 77.6 0 00-5.76 1.28 25.802 25.802 0 00-5.63 1.92c-1.79.768-3.41 1.877-4.86 3.328-1.45 1.45-2.61 3.328-3.46 5.632-.77 2.304-1.15 5.163-1.15 8.576 0 1.024.04 1.877.13 2.56.08.683.17 1.493.25 2.432.09.853.13 2.219.13 4.096l-7.3-6.4c2.22-3.072 4.74-5.675 7.56-7.808 2.81-2.219 6.01-3.925 9.6-5.12 3.58-1.195 7.63-1.792 12.16-1.792 6.82 0 12.63 1.28 17.4 3.84 4.87 2.56 8.54 6.101 11.01 10.624 2.56 4.437 3.84 9.515 3.84 15.232 0 6.997-1.79 12.97-5.37 17.92-3.59 4.95-8.45 8.747-14.6 11.392-6.14 2.645-13.14 3.968-20.99 3.968zm.51-21.376c2.22 0 4.14-.47 5.76-1.408a10.932 10.932 0 003.84-4.096c.94-1.707 1.41-3.627 1.41-5.76 0-2.219-.47-4.096-1.41-5.632-.93-1.536-2.26-2.73-3.96-3.584-1.63-.853-3.5-1.28-5.64-1.28-2.21 0-4.18.427-5.88 1.28-1.71.853-3.03 2.048-3.97 3.584-.94 1.45-1.41 3.2-1.41 5.248 0 2.219.47 4.224 1.41 6.016.94 1.707 2.26 3.072 3.97 4.096 1.7 1.024 3.67 1.536 5.88 1.536zm96.07 20.608c-6.05 0-11.09-1.28-15.1-3.84-3.93-2.645-6.83-6.613-8.7-11.904-1.88-5.376-2.82-12.203-2.82-20.48 0-8.448.85-15.317 2.56-20.608 1.79-5.376 4.65-9.344 8.58-11.904 3.92-2.56 9.08-3.84 15.48-3.84 6.15 0 11.78 1.493 16.9 4.48 5.12 2.901 9.22 7.083 12.29 12.544 3.07 5.376 4.61 11.819 4.61 19.328 0 7.51-1.54 13.995-4.61 19.456-3.07 5.376-7.17 9.515-12.29 12.416-5.12 2.901-10.75 4.352-16.9 4.352zm-46.72 23.552V28.984h27.52v9.472l.13 25.6 1.28 25.6v34.176h-28.93zm39.81-46.08c2.14 0 4.06-.512 5.76-1.536 1.71-1.024 3.07-2.56 4.1-4.608 1.02-2.048 1.53-4.565 1.53-7.552 0-3.072-.51-5.632-1.53-7.68-1.03-2.048-2.39-3.584-4.1-4.608-1.7-1.024-3.62-1.536-5.76-1.536-2.13 0-4.05.512-5.76 1.536-1.7 1.024-3.07 2.56-4.09 4.608-1.03 2.048-1.54 4.608-1.54 7.68 0 2.987.51 5.504 1.54 7.552 1.02 2.048 2.39 3.584 4.09 4.608 1.71 1.024 3.63 1.536 5.76 1.536zm86.17 22.528c-7.94 0-14.98-1.536-21.12-4.608-6.06-3.157-10.84-7.467-14.34-12.928-3.5-5.461-5.25-11.733-5.25-18.816 0-7.083 1.75-13.355 5.25-18.816 3.5-5.461 8.28-9.728 14.34-12.8 6.14-3.072 13.18-4.608 21.12-4.608 7.93 0 14.97 1.536 21.12 4.608 6.14 3.072 10.92 7.339 14.33 12.8 3.5 5.461 5.25 11.733 5.25 18.816 0 7.083-1.75 13.355-5.25 18.816-3.41 5.461-8.19 9.77-14.33 12.928-6.15 3.072-13.19 4.608-21.12 4.608zm0-22.528c2.13 0 4.05-.512 5.76-1.536 1.7-1.024 3.07-2.56 4.09-4.608 1.03-2.133 1.54-4.693 1.54-7.68 0-3.072-.51-5.59-1.54-7.552-1.02-2.048-2.39-3.584-4.09-4.608-1.71-1.024-3.63-1.536-5.76-1.536-2.14 0-4.06.512-5.76 1.536-1.71 1.024-3.08 2.56-4.1 4.608-1.02 1.963-1.54 4.48-1.54 7.552 0 2.987.52 5.547 1.54 7.68 1.02 2.048 2.39 3.584 4.1 4.608 1.7 1.024 3.62 1.536 5.76 1.536zM2633.41 99V28.984h39.3c9.38 0 16.68 1.621 21.88 4.864 5.21 3.157 7.81 7.637 7.81 13.44 0 5.632-2.39 10.155-7.17 13.568-4.78 3.328-11.22 4.992-19.32 4.992l2.17-5.888c8.62 0 15.15 1.579 19.59 4.736 4.52 3.157 6.78 7.765 6.78 13.824 0 6.23-2.48 11.221-7.42 14.976-4.87 3.67-12.29 5.504-22.28 5.504h-41.34zm25.34-17.92h13.44c2.14 0 3.72-.47 4.74-1.408 1.02-.939 1.54-2.219 1.54-3.84 0-1.707-.52-2.944-1.54-3.712-1.02-.853-2.6-1.28-4.74-1.28h-13.44v10.24zm0-24.448h11.4c2.21 0 3.79-.427 4.73-1.28 1.03-.853 1.54-2.09 1.54-3.712 0-1.707-.51-2.901-1.54-3.584-.94-.768-2.52-1.152-4.73-1.152h-11.4v9.728zm91.26 43.648c-7.94 0-14.98-1.536-21.12-4.608-6.06-3.157-10.84-7.467-14.34-12.928-3.5-5.461-5.25-11.733-5.25-18.816 0-7.083 1.75-13.355 5.25-18.816 3.5-5.461 8.28-9.728 14.34-12.8 6.14-3.072 13.18-4.608 21.12-4.608 7.93 0 14.97 1.536 21.11 4.608 6.15 3.072 10.93 7.339 14.34 12.8 3.5 5.461 5.25 11.733 5.25 18.816 0 7.083-1.75 13.355-5.25 18.816-3.41 5.461-8.19 9.77-14.34 12.928-6.14 3.072-13.18 4.608-21.11 4.608zm0-22.528c2.13 0 4.05-.512 5.76-1.536 1.7-1.024 3.07-2.56 4.09-4.608 1.03-2.133 1.54-4.693 1.54-7.68 0-3.072-.51-5.59-1.54-7.552-1.02-2.048-2.39-3.584-4.09-4.608-1.71-1.024-3.63-1.536-5.76-1.536-2.14 0-4.06.512-5.76 1.536-1.71 1.024-3.08 2.56-4.1 4.608-1.02 1.963-1.54 4.48-1.54 7.552 0 2.987.52 5.547 1.54 7.68 1.02 2.048 2.39 3.584 4.1 4.608 1.7 1.024 3.62 1.536 5.76 1.536zM2792.78 99l1.16-23.424 1.53.256h1.41c1.88 0 3.37-.341 4.48-1.024 1.11-.768 1.96-1.835 2.56-3.2.68-1.45 1.15-3.157 1.41-5.12.25-2.048.42-4.395.51-7.04l1.02-30.464h66.82V99h-28.93V45.496l6.27 6.016h-25.08l5.88-6.4-.64 15.488c-.25 6.315-.81 11.99-1.66 17.024-.85 4.95-2.22 9.173-4.1 12.672-1.79 3.413-4.26 6.059-7.42 7.936-3.07 1.792-7 2.688-11.78 2.688-1.87 0-3.96-.171-6.27-.512a95.58 95.58 0 01-7.17-1.408zm138.79-48.896c9.39 0 16.6 2.048 21.63 6.144 5.04 4.096 7.56 9.899 7.56 17.408 0 7.85-2.95 14.037-8.84 18.56-5.8 4.523-13.78 6.784-23.93 6.784h-40.71V28.984h28.8v21.12h15.49zm-6.53 29.44c1.97 0 3.5-.512 4.61-1.536 1.11-1.024 1.67-2.645 1.67-4.864s-.56-3.797-1.67-4.736c-1.11-.939-2.64-1.408-4.61-1.408h-8.96v12.544h8.96zM2969.03 99V28.984h28.8V53.56h19.72V28.984h28.8V99h-28.8V76.216h-19.72V99h-28.8zm126.98 1.28c-7.94 0-14.98-1.536-21.12-4.608-6.06-3.157-10.84-7.467-14.34-12.928-3.5-5.461-5.25-11.733-5.25-18.816 0-7.083 1.75-13.355 5.25-18.816 3.5-5.461 8.28-9.728 14.34-12.8 6.14-3.072 13.18-4.608 21.12-4.608 7.93 0 14.97 1.536 21.11 4.608 6.15 3.072 10.93 7.339 14.34 12.8 3.5 5.461 5.25 11.733 5.25 18.816 0 7.083-1.75 13.355-5.25 18.816-3.41 5.461-8.19 9.77-14.34 12.928-6.14 3.072-13.18 4.608-21.11 4.608zm0-22.528c2.13 0 4.05-.512 5.76-1.536 1.7-1.024 3.07-2.56 4.09-4.608 1.03-2.133 1.54-4.693 1.54-7.68 0-3.072-.51-5.59-1.54-7.552-1.02-2.048-2.39-3.584-4.09-4.608-1.71-1.024-3.63-1.536-5.76-1.536-2.14 0-4.06.512-5.76 1.536-1.71 1.024-3.08 2.56-4.1 4.608-1.02 1.963-1.54 4.48-1.54 7.552 0 2.987.52 5.547 1.54 7.68 1.02 2.048 2.39 3.584 4.1 4.608 1.7 1.024 3.62 1.536 5.76 1.536zm87.41 22.528c-8.53 0-16-1.579-22.4-4.736-6.32-3.157-11.22-7.467-14.72-12.928-3.5-5.547-5.25-11.776-5.25-18.688 0-7.083 1.71-13.355 5.12-18.816 3.5-5.461 8.24-9.728 14.21-12.8 6.06-3.072 12.84-4.608 20.35-4.608 6.91 0 13.27 1.365 19.07 4.096 5.89 2.73 10.58 6.784 14.08 12.16 3.59 5.376 5.38 12.032 5.38 19.968a49.5 49.5 0 01-.13 3.456c-.08 1.195-.17 2.304-.25 3.328h-53.89V56.76h38.52l-10.87 3.712c0-2.73-.52-5.035-1.54-6.912-.94-1.963-2.26-3.456-3.97-4.48-1.71-1.11-3.75-1.664-6.14-1.664-2.39 0-4.48.555-6.27 1.664-1.71 1.024-3.03 2.517-3.97 4.48-.94 1.877-1.41 4.181-1.41 6.912v4.352c0 2.987.6 5.547 1.79 7.68 1.2 2.133 2.9 3.755 5.12 4.864 2.22 1.024 4.91 1.536 8.07 1.536 3.24 0 5.88-.427 7.93-1.28 2.13-.853 4.35-2.133 6.66-3.84l15.1 15.232c-3.41 3.67-7.64 6.485-12.67 8.448-4.95 1.877-10.92 2.816-17.92 2.816zm120.71 0c-7.94 0-14.98-1.536-21.12-4.608-6.06-3.157-10.84-7.467-14.34-12.928-3.49-5.461-5.24-11.733-5.24-18.816 0-7.083 1.75-13.355 5.24-18.816 3.5-5.461 8.28-9.728 14.34-12.8 6.14-3.072 13.18-4.608 21.12-4.608 7.94 0 14.98 1.536 21.12 4.608 6.14 3.072 10.92 7.339 14.34 12.8 3.49 5.461 5.24 11.733 5.24 18.816 0 7.083-1.75 13.355-5.24 18.816-3.42 5.461-8.2 9.77-14.34 12.928-6.14 3.072-13.18 4.608-21.12 4.608zm0-22.528c2.13 0 4.05-.512 5.76-1.536s3.07-2.56 4.1-4.608c1.02-2.133 1.53-4.693 1.53-7.68 0-3.072-.51-5.59-1.53-7.552-1.03-2.048-2.39-3.584-4.1-4.608-1.71-1.024-3.63-1.536-5.76-1.536s-4.05.512-5.76 1.536-3.07 2.56-4.1 4.608c-1.02 1.963-1.53 4.48-1.53 7.552 0 2.987.51 5.547 1.53 7.68 1.03 2.048 2.39 3.584 4.1 4.608 1.71 1.024 3.63 1.536 5.76 1.536zm87.54 23.296c-5.63 0-10.96-.768-16-2.304-4.95-1.536-9.3-4.053-13.05-7.552-3.76-3.499-6.7-8.107-8.84-13.824-2.13-5.717-3.2-12.757-3.2-21.12 0-5.29.47-10.197 1.41-14.72.94-4.608 2.39-8.832 4.35-12.672 1.97-3.84 4.48-7.21 7.56-10.112 3.07-2.987 6.74-5.461 11-7.424 4.27-2.048 9.13-3.584 14.6-4.608L3424.31.44l3.84 23.68-29.44 5.248a77.6 77.6 0 00-5.76 1.28 25.802 25.802 0 00-5.63 1.92c-1.79.768-3.41 1.877-4.86 3.328-1.45 1.45-2.61 3.328-3.46 5.632-.77 2.304-1.15 5.163-1.15 8.576 0 1.024.04 1.877.13 2.56.08.683.17 1.493.25 2.432.09.853.13 2.219.13 4.096l-7.3-6.4c2.22-3.072 4.74-5.675 7.56-7.808 2.81-2.219 6.01-3.925 9.6-5.12 3.58-1.195 7.63-1.792 12.16-1.792 6.82 0 12.63 1.28 17.4 3.84 4.87 2.56 8.54 6.101 11.01 10.624 2.56 4.437 3.84 9.515 3.84 15.232 0 6.997-1.79 12.97-5.37 17.92-3.59 4.95-8.45 8.747-14.6 11.392-6.14 2.645-13.14 3.968-20.99 3.968zm.51-21.376c2.22 0 4.14-.47 5.76-1.408a10.932 10.932 0 003.84-4.096c.94-1.707 1.41-3.627 1.41-5.76 0-2.219-.47-4.096-1.41-5.632-.93-1.536-2.26-2.73-3.96-3.584-1.63-.853-3.5-1.28-5.64-1.28-2.21 0-4.18.427-5.88 1.28-1.71.853-3.03 2.048-3.97 3.584-.94 1.45-1.41 3.2-1.41 5.248 0 2.219.47 4.224 1.41 6.016.94 1.707 2.26 3.072 3.97 4.096 1.7 1.024 3.67 1.536 5.88 1.536zm98.89-3.328l-6.27 6.272V28.984h28.8v53.632l-6.4-6.272h27.01l-6.28 6.272V28.984h28.68V99h-115.08V28.984h28.8v53.632l-6.27-6.272h27.01zm47.87 35.584V92.856l6.27 6.144h-17.79V76.344h38.27v35.584h-26.75zm68.98-11.648c-8.53 0-16-1.579-22.4-4.736-6.32-3.157-11.22-7.467-14.72-12.928-3.5-5.547-5.25-11.776-5.25-18.688 0-7.083 1.71-13.355 5.12-18.816 3.5-5.461 8.24-9.728 14.21-12.8 6.06-3.072 12.84-4.608 20.35-4.608 6.91 0 13.27 1.365 19.07 4.096 5.89 2.73 10.58 6.784 14.08 12.16 3.59 5.376 5.38 12.032 5.38 19.968a49.5 49.5 0 01-.13 3.456c-.08 1.195-.17 2.304-.25 3.328h-53.89V56.76h38.52l-10.87 3.712c0-2.73-.52-5.035-1.54-6.912-.94-1.963-2.26-3.456-3.97-4.48-1.71-1.11-3.75-1.664-6.14-1.664-2.39 0-4.48.555-6.27 1.664-1.71 1.024-3.03 2.517-3.97 4.48-.94 1.877-1.41 4.181-1.41 6.912v4.352c0 2.987.6 5.547 1.79 7.68 1.2 2.133 2.9 3.755 5.12 4.864 2.22 1.024 4.91 1.536 8.07 1.536 3.24 0 5.88-.427 7.93-1.28 2.13-.853 4.35-2.133 6.66-3.84l15.1 15.232c-3.41 3.67-7.64 6.485-12.67 8.448-4.95 1.877-10.92 2.816-17.92 2.816zm82.98 0c-8.03 0-15.15-1.536-21.38-4.608-6.23-3.072-11.14-7.339-14.72-12.8-3.5-5.547-5.25-11.861-5.25-18.944 0-7.083 1.75-13.355 5.25-18.816 3.58-5.461 8.49-9.728 14.72-12.8 6.23-3.072 13.35-4.608 21.38-4.608 8.53 0 15.82 1.835 21.88 5.504 6.06 3.67 10.24 8.747 12.55 15.232l-22.4 11.008c-1.45-3.243-3.25-5.59-5.38-7.04-2.05-1.45-4.31-2.176-6.78-2.176-2.14 0-4.14.512-6.02 1.536-1.79 1.024-3.24 2.56-4.35 4.608-1.02 1.963-1.54 4.48-1.54 7.552 0 3.072.52 5.632 1.54 7.68 1.11 2.048 2.56 3.584 4.35 4.608a12.377 12.377 0 006.02 1.536c2.47 0 4.73-.725 6.78-2.176 2.13-1.45 3.93-3.797 5.38-7.04l22.4 11.008c-2.31 6.485-6.49 11.563-12.55 15.232-6.06 3.67-13.35 5.504-21.88 5.504zm59.14-1.28V45.368l6.27 6.144h-27.65V28.984h71.55v22.528h-27.64l6.27-6.144V99h-28.8zm58.49 0V28.984h39.3c9.39 0 16.68 1.621 21.89 4.864 5.2 3.157 7.81 7.637 7.81 13.44 0 5.632-2.39 10.155-7.17 13.568-4.78 3.328-11.22 4.992-19.33 4.992l2.18-5.888c8.61 0 15.14 1.579 19.58 4.736 4.52 3.157 6.78 7.765 6.78 13.824 0 6.23-2.47 11.221-7.42 14.976-4.86 3.67-12.29 5.504-22.27 5.504h-41.35zm25.35-17.92h13.44c2.13 0 3.71-.47 4.73-1.408 1.03-.939 1.54-2.219 1.54-3.84 0-1.707-.51-2.944-1.54-3.712-1.02-.853-2.6-1.28-4.73-1.28h-13.44v10.24zm0-24.448h11.39c2.22 0 3.8-.427 4.74-1.28 1.02-.853 1.53-2.09 1.53-3.712 0-1.707-.51-2.901-1.53-3.584-.94-.768-2.52-1.152-4.74-1.152h-11.39v9.728zm91.25 43.648c-7.94 0-14.98-1.536-21.12-4.608-6.06-3.157-10.84-7.467-14.34-12.928-3.49-5.461-5.24-11.733-5.24-18.816 0-7.083 1.75-13.355 5.24-18.816 3.5-5.461 8.28-9.728 14.34-12.8 6.14-3.072 13.18-4.608 21.12-4.608 7.94 0 14.98 1.536 21.12 4.608 6.14 3.072 10.92 7.339 14.34 12.8 3.49 5.461 5.24 11.733 5.24 18.816 0 7.083-1.75 13.355-5.24 18.816-3.42 5.461-8.2 9.77-14.34 12.928-6.14 3.072-13.18 4.608-21.12 4.608zm0-22.528c2.13 0 4.05-.512 5.76-1.536s3.07-2.56 4.1-4.608c1.02-2.133 1.53-4.693 1.53-7.68 0-3.072-.51-5.59-1.53-7.552-1.03-2.048-2.39-3.584-4.1-4.608-1.71-1.024-3.63-1.536-5.76-1.536s-4.05.512-5.76 1.536-3.07 2.56-4.1 4.608c-1.02 1.963-1.53 4.48-1.53 7.552 0 2.987.51 5.547 1.53 7.68 1.03 2.048 2.39 3.584 4.1 4.608 1.71 1.024 3.63 1.536 5.76 1.536zM4013.16 99V28.984h28.8V60.6l24.19-31.616h26.63V99h-28.8V67.256L4039.91 99h-26.75zm93.12 0V28.984h28.8V53.56h19.72V28.984h28.8V99h-28.8V76.216h-19.72V99h-28.8zm90.88 0V28.984h39.3c9.38 0 16.68 1.621 21.88 4.864 5.21 3.157 7.81 7.637 7.81 13.44 0 5.632-2.39 10.155-7.17 13.568-4.78 3.328-11.22 4.992-19.32 4.992l2.17-5.888c8.62 0 15.15 1.579 19.59 4.736 4.52 3.157 6.78 7.765 6.78 13.824 0 6.23-2.48 11.221-7.42 14.976-4.87 3.67-12.29 5.504-22.28 5.504h-41.34zm25.34-17.92h13.44c2.14 0 3.72-.47 4.74-1.408 1.02-.939 1.54-2.219 1.54-3.84 0-1.707-.52-2.944-1.54-3.712-1.02-.853-2.6-1.28-4.74-1.28h-13.44v10.24zm0-24.448h11.4c2.21 0 3.79-.427 4.73-1.28 1.03-.853 1.54-2.09 1.54-3.712 0-1.707-.51-2.901-1.54-3.584-.94-.768-2.52-1.152-4.73-1.152h-11.4v9.728zM4318.49 99V86.584l-2.05-3.328V59.704c0-3.413-1.06-6.016-3.2-7.808-2.04-1.792-5.42-2.688-10.11-2.688-3.16 0-6.36.512-9.6 1.536-3.24.939-6.01 2.261-8.32 3.968L4276 35.64c4.09-2.56 9-4.523 14.72-5.888 5.71-1.365 11.3-2.048 16.76-2.048 12.04 0 21.34 2.688 27.91 8.064 6.65 5.376 9.98 13.91 9.98 25.6V99h-26.88zm-19.84 1.28c-5.72 0-10.49-.981-14.33-2.944s-6.75-4.565-8.71-7.808c-1.96-3.328-2.94-6.997-2.94-11.008 0-4.523 1.15-8.363 3.45-11.52 2.31-3.157 5.81-5.547 10.5-7.168 4.78-1.621 10.79-2.432 18.05-2.432h14.59v13.952h-9.98c-3.08 0-5.34.512-6.79 1.536-1.36.939-2.05 2.39-2.05 4.352 0 1.621.6 2.987 1.8 4.096 1.28 1.024 2.98 1.536 5.12 1.536 1.96 0 3.75-.512 5.37-1.536 1.71-1.11 2.95-2.816 3.71-5.12l3.72 8.576c-1.11 5.205-3.46 9.088-7.04 11.648-3.59 2.56-8.41 3.84-14.47 3.84zm53.13-1.28l1.16-23.424 1.53.256h1.41c1.88 0 3.37-.341 4.48-1.024 1.11-.768 1.96-1.835 2.56-3.2.68-1.45 1.15-3.157 1.41-5.12.25-2.048.42-4.395.51-7.04l1.02-30.464h66.82V99h-28.93V45.496l6.27 6.016h-25.08l5.88-6.4-.64 15.488c-.25 6.315-.81 11.99-1.66 17.024-.85 4.95-2.22 9.173-4.1 12.672-1.79 3.413-4.26 6.059-7.42 7.936-3.07 1.792-7 2.688-11.78 2.688-1.87 0-3.96-.171-6.27-.512a95.58 95.58 0 01-7.17-1.408zm94.5 0V28.984h28.8V60.6l24.2-31.616h26.62V99h-28.8V67.256L4473.04 99h-26.76zm142.03-12.416V51.512h-14.47l-.13 4.352c-.08 2.987-.25 5.76-.51 8.32-.17 2.56-.55 4.864-1.15 6.912-.6 1.963-1.49 3.712-2.69 5.248-1.11 1.45-2.69 2.645-4.74 3.584l-28.28-3.584c2.22 0 4.05-.555 5.5-1.664 1.45-1.195 2.56-2.816 3.33-4.864.85-2.133 1.45-4.565 1.79-7.296.43-2.73.68-5.675.77-8.832l.89-24.704h68.49v57.6h-28.8zm-54.02 26.24v-36.48h92.16v36.48h-26.75V99h-38.66v13.824h-26.75zm136.72-12.544c-7.94 0-14.98-1.536-21.12-4.608-6.06-3.157-10.84-7.467-14.34-12.928-3.5-5.461-5.25-11.733-5.25-18.816 0-7.083 1.75-13.355 5.25-18.816 3.5-5.461 8.28-9.728 14.34-12.8 6.14-3.072 13.18-4.608 21.12-4.608 7.93 0 14.97 1.536 21.11 4.608 6.15 3.072 10.93 7.339 14.34 12.8 3.5 5.461 5.25 11.733 5.25 18.816 0 7.083-1.75 13.355-5.25 18.816-3.41 5.461-8.19 9.77-14.34 12.928-6.14 3.072-13.18 4.608-21.11 4.608zm0-22.528c2.13 0 4.05-.512 5.76-1.536 1.7-1.024 3.07-2.56 4.09-4.608 1.03-2.133 1.54-4.693 1.54-7.68 0-3.072-.51-5.59-1.54-7.552-1.02-2.048-2.39-3.584-4.09-4.608-1.71-1.024-3.63-1.536-5.76-1.536-2.14 0-4.06.512-5.76 1.536-1.71 1.024-3.08 2.56-4.1 4.608-1.02 1.963-1.54 4.48-1.54 7.552 0 2.987.52 5.547 1.54 7.68 1.02 2.048 2.39 3.584 4.1 4.608 1.7 1.024 3.62 1.536 5.76 1.536zM4720.66 99V28.984h39.3c9.38 0 16.68 1.621 21.88 4.864 5.21 3.157 7.81 7.637 7.81 13.44 0 5.632-2.39 10.155-7.17 13.568-4.78 3.328-11.22 4.992-19.32 4.992l2.17-5.888c8.62 0 15.15 1.579 19.59 4.736 4.52 3.157 6.78 7.765 6.78 13.824 0 6.23-2.48 11.221-7.42 14.976-4.87 3.67-12.29 5.504-22.28 5.504h-41.34zM4746 81.08h13.44c2.14 0 3.72-.47 4.74-1.408 1.02-.939 1.54-2.219 1.54-3.84 0-1.707-.52-2.944-1.54-3.712-1.02-.853-2.6-1.28-4.74-1.28H4746v10.24zm0-24.448h11.4c2.21 0 3.79-.427 4.73-1.28 1.03-.853 1.54-2.09 1.54-3.712 0-1.707-.51-2.901-1.54-3.584-.94-.768-2.52-1.152-4.73-1.152H4746v9.728zm54.39-8.832l-1.92-38.4h24.32l-1.92 38.4h-20.48zm30.08 0l-1.92-38.4h24.32l-1.92 38.4h-20.48z" fill="#101010"/></svg>