<svg width="1393" height="131" fill="none" xmlns="http://www.w3.org/2000/svg"><path d="M26.288 106V33.296l6.528 6.528H.048V16.4h82.176v23.424H49.456l6.528-6.528V106H26.288zm110.216 2.048c-7.253 0-13.995-1.152-20.224-3.456-6.144-2.304-11.477-5.547-16-9.728-4.523-4.267-8.064-9.259-10.624-14.976-2.475-5.717-3.712-11.947-3.712-18.688 0-6.827 1.237-13.056 3.712-18.688 2.56-5.717 6.101-10.667 10.624-14.848 4.523-4.267 9.856-7.552 16-9.856 6.229-2.304 12.971-3.456 20.224-3.456 7.339 0 14.08 1.152 20.224 3.456 6.144 2.304 11.477 5.59 16 9.856 4.523 4.181 8.021 9.13 10.496 14.848 2.56 5.632 3.84 11.861 3.84 18.688 0 6.741-1.28 12.97-3.84 18.688a44.892 44.892 0 01-10.496 14.976c-4.523 4.181-9.856 7.424-16 9.728-6.144 2.304-12.885 3.456-20.224 3.456zm0-24.448c2.816 0 5.419-.512 7.808-1.536 2.475-1.024 4.608-2.475 6.4-4.352 1.877-1.963 3.328-4.31 4.352-7.04 1.024-2.816 1.536-5.973 1.536-9.472 0-3.499-.512-6.613-1.536-9.344-1.024-2.816-2.475-5.163-4.352-7.04a17.745 17.745 0 00-6.4-4.48c-2.389-1.024-4.992-1.536-7.808-1.536s-5.461.512-7.936 1.536c-2.389 1.024-4.523 2.517-6.4 4.48-1.792 1.877-3.2 4.224-4.224 7.04-1.024 2.73-1.536 5.845-1.536 9.344 0 3.499.512 6.656 1.536 9.472 1.024 2.73 2.432 5.077 4.224 7.04a20.283 20.283 0 006.4 4.352c2.475 1.024 5.12 1.536 7.936 1.536zm107 24.448c-7.253 0-13.995-1.152-20.224-3.456-6.144-2.304-11.477-5.547-16-9.728-4.523-4.267-8.064-9.259-10.624-14.976-2.475-5.717-3.712-11.947-3.712-18.688 0-6.827 1.237-13.056 3.712-18.688 2.56-5.717 6.101-10.667 10.624-14.848 4.523-4.267 9.856-7.552 16-9.856 6.229-2.304 12.971-3.456 20.224-3.456 7.339 0 14.08 1.152 20.224 3.456 6.144 2.304 11.477 5.59 16 9.856 4.523 4.181 8.021 9.13 10.496 14.848 2.56 5.632 3.84 11.861 3.84 18.688 0 6.741-1.28 12.97-3.84 18.688a44.892 44.892 0 01-10.496 14.976c-4.523 4.181-9.856 7.424-16 9.728-6.144 2.304-12.885 3.456-20.224 3.456zm0-24.448c2.816 0 5.419-.512 7.808-1.536 2.475-1.024 4.608-2.475 6.4-4.352 1.877-1.963 3.328-4.31 4.352-7.04 1.024-2.816 1.536-5.973 1.536-9.472 0-3.499-.512-6.613-1.536-9.344-1.024-2.816-2.475-5.163-4.352-7.04a17.745 17.745 0 00-6.4-4.48c-2.389-1.024-4.992-1.536-7.808-1.536s-5.461.512-7.936 1.536c-2.389 1.024-4.523 2.517-6.4 4.48-1.792 1.877-3.2 4.224-4.224 7.04-1.024 2.73-1.536 5.845-1.536 9.344 0 3.499.512 6.656 1.536 9.472 1.024 2.73 2.432 5.077 4.224 7.04a20.283 20.283 0 006.4 4.352c2.475 1.024 5.12 1.536 7.936 1.536zm126.303-72.576l-10.752 35.968-4.224-16.128c5.035 0 9.088 1.408 12.16 4.224 3.157 2.816 4.736 6.741 4.736 11.776 0 4.95-1.621 8.917-4.864 11.904-3.157 2.987-7.168 4.48-12.032 4.48s-8.917-1.493-12.16-4.48c-3.157-2.987-4.736-6.955-4.736-11.904 0-1.365.085-2.73.256-4.096.256-1.365.725-3.03 1.408-4.992.768-1.963 1.877-4.523 3.328-7.68l8.96-19.072h17.92zm37.12 0l-10.752 35.968-4.224-16.128c5.035 0 9.088 1.408 12.16 4.224 3.157 2.816 4.736 6.741 4.736 11.776 0 4.95-1.621 8.917-4.864 11.904-3.157 2.987-7.168 4.48-12.032 4.48s-8.917-1.493-12.16-4.48c-3.157-2.987-4.736-6.955-4.736-11.904 0-1.365.085-2.73.256-4.096.256-1.365.725-3.03 1.408-4.992.768-1.963 1.877-4.523 3.328-7.68l8.96-19.072h17.92zM445.679 86.8l-1.664-33.152L477.807 16.4h32.896l-37.888 41.728-16.768 17.152-10.368 11.52zM418.671 106V16.4h29.696V106h-29.696zm58.88 0l-26.368-34.816 19.584-20.736L512.495 106h-34.944zm79.217 0V93.584l-2.048-3.328V66.704c0-3.413-1.067-6.016-3.2-7.808-2.048-1.792-5.419-2.688-10.112-2.688-3.157 0-6.357.512-9.6 1.536-3.243.939-6.016 2.261-8.32 3.968l-9.216-19.072c4.096-2.56 9.003-4.523 14.72-5.888 5.717-1.365 11.307-2.048 16.768-2.048 12.032 0 21.333 2.688 27.904 8.064 6.656 5.376 9.984 13.91 9.984 25.6V106h-26.88zm-19.84 1.28c-5.717 0-10.496-.981-14.336-2.944s-6.741-4.565-8.704-7.808c-1.963-3.328-2.944-6.997-2.944-11.008 0-4.523 1.152-8.363 3.456-11.52 2.304-3.157 5.803-5.547 10.496-7.168 4.779-1.621 10.795-2.432 18.048-2.432h14.592v13.952h-9.984c-3.072 0-5.333.512-6.784 1.536-1.365.939-2.048 2.39-2.048 4.352 0 1.621.597 2.987 1.792 4.096 1.28 1.024 2.987 1.536 5.12 1.536 1.963 0 3.755-.512 5.376-1.536 1.707-1.11 2.944-2.816 3.712-5.12l3.712 8.576c-1.109 5.205-3.456 9.088-7.04 11.648-3.584 2.56-8.405 3.84-14.464 3.84zM593.59 106V89.36l37.248-41.472 4.736 9.216h-40.96v-21.12h64.384v16.64L621.75 94.096l-4.736-9.216h43.392V106H593.59zm76.456 0V16.4h30.208v66.176h40.448V106h-70.656zm78.104 0V35.984h28.928V106H748.15zm14.464-75.648c-5.291 0-9.515-1.408-12.672-4.224-3.157-2.816-4.736-6.315-4.736-10.496s1.579-7.68 4.736-10.496c3.157-2.816 7.381-4.224 12.672-4.224s9.515 1.323 12.672 3.968 4.736 6.059 4.736 10.24c0 4.437-1.579 8.107-4.736 11.008-3.157 2.816-7.381 4.224-12.672 4.224zM793.1 106V39.44c0-9.045 2.688-16.256 8.064-21.632 5.461-5.376 13.184-8.064 23.168-8.064 3.072 0 6.144.299 9.216.896 3.157.512 5.803 1.365 7.936 2.56l-6.912 20.096a25.697 25.697 0 00-3.072-1.152 11.683 11.683 0 00-3.456-.512c-2.048 0-3.712.64-4.992 1.92-1.28 1.28-1.92 3.328-1.92 6.144v3.328l.896 11.904V106H793.1zm-9.6-45.056v-21.12h52.864v21.12H783.5zm94.692 46.336c-9.643 0-17.152-2.304-22.528-6.912-5.376-4.693-8.064-11.861-8.064-21.504V20.24h28.928v58.368c0 2.133.555 3.797 1.664 4.992 1.195 1.195 2.645 1.792 4.352 1.792 2.475 0 4.651-.64 6.528-1.92l6.912 20.096c-2.219 1.28-4.907 2.219-8.064 2.816-3.072.597-6.315.896-9.728.896zM838 60.944v-21.12h52.864v21.12H838zm112.635 47.104c-7.253 0-13.952-1.109-20.096-3.328-6.059-2.304-11.349-5.547-15.872-9.728-4.437-4.181-7.893-9.13-10.368-14.848-2.475-5.717-3.712-12.032-3.712-18.944 0-6.912 1.237-13.227 3.712-18.944 2.475-5.717 5.973-10.667 10.496-14.848 4.523-4.181 9.856-7.381 16-9.6 6.229-2.304 13.056-3.456 20.48-3.456 8.875 0 16.768 1.493 23.68 4.48 6.997 2.987 12.757 7.253 17.28 12.8l-19.328 17.024c-2.816-3.243-5.888-5.675-9.216-7.296-3.243-1.707-6.869-2.56-10.88-2.56-3.328 0-6.357.512-9.088 1.536-2.645 1.024-4.907 2.517-6.784 4.48-1.877 1.963-3.328 4.31-4.352 7.04-1.024 2.73-1.536 5.845-1.536 9.344 0 3.328.512 6.4 1.536 9.216 1.024 2.73 2.475 5.077 4.352 7.04 1.877 1.963 4.096 3.499 6.656 4.608 2.645 1.024 5.589 1.536 8.832 1.536a30.65 30.65 0 009.984-1.664c3.243-1.195 6.699-3.2 10.368-6.016l16.896 20.736c-5.461 3.669-11.691 6.485-18.688 8.448-6.997 1.963-13.781 2.944-20.352 2.944zm12.8-15.232V58.768h26.24v37.888l-26.24-3.84zM1001.65 106V35.984h27.52v21.12l-4.48-6.016c2.13-5.461 5.55-9.557 10.24-12.288 4.69-2.73 10.33-4.096 16.9-4.096v25.6c-1.28-.17-2.44-.299-3.46-.384a32.66 32.66 0 00-2.94-.128c-4.36 0-7.94 1.152-10.76 3.456-2.73 2.219-4.09 6.101-4.09 11.648V106h-28.93zm94.74 1.28c-7.93 0-14.97-1.536-21.12-4.608-6.06-3.157-10.84-7.467-14.33-12.928-3.5-5.461-5.25-11.733-5.25-18.816 0-7.083 1.75-13.355 5.25-18.816 3.49-5.461 8.27-9.728 14.33-12.8 6.15-3.072 13.19-4.608 21.12-4.608 7.94 0 14.98 1.536 21.12 4.608 6.15 3.072 10.92 7.339 14.34 12.8 3.5 5.461 5.25 11.733 5.25 18.816 0 7.083-1.75 13.355-5.25 18.816-3.42 5.461-8.19 9.77-14.34 12.928-6.14 3.072-13.18 4.608-21.12 4.608zm0-22.528c2.14 0 4.06-.512 5.76-1.536 1.71-1.024 3.07-2.56 4.1-4.608 1.02-2.133 1.53-4.693 1.53-7.68 0-3.072-.51-5.59-1.53-7.552-1.03-2.048-2.39-3.584-4.1-4.608-1.7-1.024-3.62-1.536-5.76-1.536-2.13 0-4.05.512-5.76 1.536-1.7 1.024-3.07 2.56-4.09 4.608-1.03 1.963-1.54 4.48-1.54 7.552 0 2.987.51 5.547 1.54 7.68 1.02 2.048 2.39 3.584 4.09 4.608 1.71 1.024 3.63 1.536 5.76 1.536zm78.94 22.528c-5.54 0-10.58-1.109-15.1-3.328-4.44-2.304-7.94-5.845-10.5-10.624-2.56-4.864-3.84-11.093-3.84-18.688V35.984h28.93v33.664c0 4.95.81 8.405 2.43 10.368 1.63 1.963 3.84 2.944 6.66 2.944a9.18 9.18 0 004.74-1.28c1.53-.939 2.77-2.432 3.71-4.48.94-2.133 1.41-4.907 1.41-8.32V35.984h28.92V106h-27.52V85.776l5.51 5.504c-2.48 5.461-6.02 9.515-10.63 12.16-4.52 2.56-9.43 3.84-14.72 3.84zm106.92 0c-6.06 0-11.1-1.28-15.11-3.84-3.92-2.645-6.83-6.613-8.7-11.904-1.88-5.376-2.82-12.203-2.82-20.48 0-8.448.85-15.317 2.56-20.608 1.79-5.376 4.65-9.344 8.58-11.904 3.92-2.56 9.09-3.84 15.49-3.84 6.14 0 11.77 1.493 16.89 4.48 5.12 2.901 9.22 7.083 12.29 12.544 3.07 5.376 4.61 11.819 4.61 19.328 0 7.51-1.54 13.995-4.61 19.456-3.07 5.376-7.17 9.515-12.29 12.416-5.12 2.901-10.75 4.352-16.89 4.352zm-46.72 23.552V35.984h27.52v9.472l.12 25.6 1.28 25.6v34.176h-28.92zm39.8-46.08c2.14 0 4.06-.512 5.76-1.536 1.71-1.024 3.08-2.56 4.1-4.608 1.02-2.048 1.54-4.565 1.54-7.552 0-3.072-.52-5.632-1.54-7.68s-2.39-3.584-4.1-4.608c-1.7-1.024-3.62-1.536-5.76-1.536-2.13 0-4.05.512-5.76 1.536-1.7 1.024-3.07 2.56-4.09 4.608-1.03 2.048-1.54 4.608-1.54 7.68 0 2.987.51 5.504 1.54 7.552 1.02 2.048 2.39 3.584 4.09 4.608 1.71 1.024 3.63 1.536 5.76 1.536zm48.53-22.784L1334.61 26l4.22 16.128c-4.95 0-9-1.408-12.16-4.224-3.16-2.901-4.73-6.827-4.73-11.776 0-5.035 1.57-9.003 4.73-11.904 3.24-2.987 7.3-4.48 12.16-4.48 4.87 0 8.88 1.493 12.03 4.48 3.25 2.901 4.87 6.87 4.87 11.904 0 1.365-.13 2.73-.39 4.096-.17 1.365-.59 3.03-1.28 4.992-.68 1.877-1.79 4.437-3.32 7.68l-8.96 19.072h-17.92zm37.12 0L1371.73 26l4.22 16.128c-4.95 0-9-1.408-12.16-4.224-3.16-2.901-4.73-6.827-4.73-11.776 0-5.035 1.57-9.003 4.73-11.904 3.24-2.987 7.3-4.48 12.16-4.48 4.87 0 8.88 1.493 12.03 4.48 3.25 2.901 4.87 6.87 4.87 11.904 0 1.365-.13 2.73-.39 4.096-.17 1.365-.59 3.03-1.28 4.992-.68 1.877-1.79 4.437-3.32 7.68l-8.96 19.072h-17.92z" fill="#101010"/></svg>