<svg width="1003" height="110" fill="none" xmlns="http://www.w3.org/2000/svg"><path d="M64.944 79.2V25.824H44.336l-.256 6.4c-.17 4.693-.47 9.088-.896 13.184-.427 4.096-1.024 7.85-1.792 11.264-.683 3.413-1.579 6.443-2.688 9.088-1.11 2.56-2.475 4.693-4.096 6.4L2.736 68.576c2.816 0 5.12-.939 6.912-2.816 1.877-1.963 3.37-4.65 4.48-8.064 1.11-3.499 1.92-7.595 2.432-12.288.597-4.779 1.024-10.027 1.28-15.744L18.864 2.4H94.64v76.8H64.944zM.176 109.536v-40.96h106.24v40.96H78.768V92H27.824v17.536H.176zm123.553-40.96c5.291 1.365 9.429 1.835 12.416 1.408 2.987-.512 5.632-2.347 7.936-5.504l4.352-6.144 2.56-2.816L176.977 2.4h29.184l-35.968 67.456c-3.925 7.339-8.661 13.056-14.208 17.152-5.461 4.01-11.52 6.315-18.176 6.912-6.656.597-13.696-.597-21.12-3.584l7.04-21.76zm26.88 10.624L108.881 2.4h31.872l26.24 55.936L150.609 79.2zm116.099-10.624l-6.528 6.528V2.4h29.696v72.704l-6.656-6.528h31.232l-6.656 6.528V2.4h29.696V92H212.436V2.4h29.696v72.704l-6.528-6.528h31.104zM345.759 92l39.168-89.6h29.696L453.791 92h-31.232l-28.928-75.264h11.776L376.479 92h-30.72zm23.296-15.616l7.68-21.76h41.216l7.68 21.76h-56.576zM559.444 79.2V25.824h-20.608l-.256 6.4c-.171 4.693-.469 9.088-.896 13.184-.427 4.096-1.024 7.85-1.792 11.264-.683 3.413-1.579 6.443-2.688 9.088-1.109 2.56-2.475 4.693-4.096 6.4l-31.872-3.584c2.816 0 5.12-.939 6.912-2.816 1.877-1.963 3.371-4.65 4.48-8.064 1.109-3.499 1.92-7.595 2.432-12.288.597-4.779 1.024-10.027 1.28-15.744L513.364 2.4h75.776v76.8h-29.696zm-64.768 30.336v-40.96h106.24v40.96h-27.648V92h-50.944v17.536h-27.648zm161.953-15.488c-7.253 0-13.995-1.152-20.224-3.456-6.144-2.304-11.477-5.547-16-9.728-4.523-4.267-8.064-9.259-10.624-14.976-2.475-5.717-3.712-11.947-3.712-18.688 0-6.827 1.237-13.056 3.712-18.688 2.56-5.717 6.101-10.667 10.624-14.848 4.523-4.267 9.856-7.552 16-9.856 6.229-2.304 12.971-3.456 20.224-3.456 7.339 0 14.08 1.152 20.224 3.456 6.144 2.304 11.477 5.59 16 9.856 4.523 4.181 8.021 9.13 10.496 14.848 2.56 5.632 3.84 11.861 3.84 18.688 0 6.741-1.28 12.97-3.84 18.688a44.892 44.892 0 01-10.496 14.976c-4.523 4.181-9.856 7.424-16 9.728-6.144 2.304-12.885 3.456-20.224 3.456zm0-24.448c2.816 0 5.419-.512 7.808-1.536 2.475-1.024 4.608-2.475 6.4-4.352 1.877-1.963 3.328-4.31 4.352-7.04 1.024-2.816 1.536-5.973 1.536-9.472 0-3.499-.512-6.613-1.536-9.344-1.024-2.816-2.475-5.163-4.352-7.04a17.745 17.745 0 00-6.4-4.48c-2.389-1.024-4.992-1.536-7.808-1.536s-5.461.512-7.936 1.536c-2.389 1.024-4.523 2.517-6.4 4.48-1.792 1.877-3.2 4.224-4.224 7.04-1.024 2.73-1.536 5.845-1.536 9.344 0 3.499.512 6.656 1.536 9.472 1.024 2.73 2.432 5.077 4.224 7.04a20.283 20.283 0 006.4 4.352c2.475 1.024 5.12 1.536 7.936 1.536zM718.061 92V2.4h77.696v22.784h-48v10.368h21.376c10.923 0 19.285 2.347 25.088 7.04 5.888 4.608 8.832 11.307 8.832 20.096 0 9.13-3.328 16.299-9.984 21.504C786.413 89.397 777.154 92 765.293 92h-47.232zm29.696-21.12h15.488c2.987 0 5.291-.64 6.912-1.92 1.707-1.28 2.56-3.115 2.56-5.504 0-4.608-3.157-6.912-9.472-6.912h-15.488V70.88zM813.436 92V2.4h43.136c8.363 0 15.573 1.365 21.632 4.096 6.144 2.73 10.88 6.656 14.208 11.776 3.328 5.035 4.992 11.008 4.992 17.92 0 6.912-1.664 12.885-4.992 17.92-3.328 5.035-8.064 8.96-14.208 11.776-6.059 2.73-13.269 4.096-21.632 4.096h-26.368l13.44-12.928V92h-30.208zm30.208-31.616l-13.44-13.696h24.448c4.181 0 7.253-.939 9.216-2.816 2.048-1.877 3.072-4.437 3.072-7.68 0-3.243-1.024-5.803-3.072-7.68-1.963-1.877-5.035-2.816-9.216-2.816h-24.448L843.644 12v48.384zM894.509 92l39.168-89.6h29.696L1002.54 92h-31.231l-28.928-75.264h11.776L925.229 92h-30.72zm23.296-15.616l7.68-21.76h41.216l7.68 21.76h-56.576z" fill="#101010"/></svg>