<svg width="249" height="42" viewBox="0 0 249 42" fill="none" xmlns="http://www.w3.org/2000/svg"><path d="M12.13 33.945c2.234 2.003 4.741 2.322 6.933 1 2.265-1.364 3.517-4.268 3.065-6.93-1.012-5.974-8.703-9.534-14.488-5.532-1.658 1.147-3.23 1.645-5.095 1.399-.63-.083-1.495-.418-1.725-.894-.215-.442.1-1.359.476-1.836 2.826-3.595 6.668-5.287 11.136-5.727.49-.048.98-.089 1.47-.144.058-.007.108-.087.315-.264-.65-3.118-.118-6.179 1.691-8.936 2.76-4.201 6.767-5.9 11.645-5.165 3.766.567 6.367 2.87 7.621 6.5.954 2.758.243 5.24-1.532 7.499-1.843 2.346-4.258 2.892-7.024 2.314-2.135-.447-3.404-2.346-3.043-4.406.334-1.906 2.112-3.075 4.24-2.99.74.029 1.496-.39 2.244-.605-.335-.641-.553-1.392-1.028-1.902-1.575-1.687-3.666-1.555-5.541-.936-2.18.718-3.64 2.388-3.988 4.783-.686 4.727 2.484 8.639 7.295 9.506 2.786.502 5.308-.224 7.824-1.779 1.435-.886 3.659-.94 5.433-.694 1.42.197.999 1.49.196 2.445-2.782 3.31-6.305 5.133-10.622 5.424-.683.047-1.363.133-2.286.225.645 3.6.072 6.837-1.89 9.663-4.658 6.707-14.27 6.965-18.393-.054-1.569-2.673-1.3-6.371.57-8.81 1.892-2.465 4.489-3.407 7.258-2.633 2.025.567 3.491 2.44 3.233 4.13-.327 2.147-2.052 3.468-4.478 3.217-1.737-.18-2.308.335-1.512 2.132z" fill="#2DBBC6"/><path d="M157.352 31.713c0-8.132.046-16.06-.039-23.985-.018-1.703.504-2.254 2.177-2.17 3.939.198 7.909.043 11.822.451 3.262.341 5.552 2.298 6.188 5.702.573 3.07-.563 5.501-2.846 7.06 1.306 1.812 2.893 3.36 3.687 5.242 2.162 5.125-1.023 10.608-6.528 11.028-4.704.358-9.457.074-14.461.074v-3.402zm9.989-9.659c-.707 0-1.452-.135-2.11.045-.477.13-1.18.663-1.198 1.043-.11 2.378-.056 4.764-.056 7.088 5.071.99 7.657-.07 8.126-3.172.409-2.707-1.317-4.675-4.762-5.004zm1.435-4.902c.255-.117.562-.178.757-.359 1.346-1.253 1.998-2.717 1.142-4.517-.796-1.674-3.642-2.715-5.744-2.014-1.783.595-.872 2.18-.905 3.287-.113 3.896-.043 3.898 4.75 3.603z" fill="#9E1D54"/><path d="M229.198 3.556c.957-.053 1.737-.097 2.513-.058 2.275.116 3.211.979 3.244 3.28.065 4.59.019 9.182.019 14.468.943-.606 1.65-.874 2.072-1.38.527-.63.836-1.448 1.21-2.2 2.122-4.266 3.49-4.903 8.825-3.827l-4.996 9.163c3.992 2.07 3.064 7.207 6.165 10.505-1.066.615-1.931 1.38-2.928 1.64-3.132.816-4.591-.214-5.644-3.708-.284-.942-.505-1.911-.876-2.818-.827-2.018-1.265-2.205-3.78-1.733v8.256h-6.365c-.05-.69-.124-1.241-.124-1.791-.007-9.275-.015-18.549.016-27.823.002-.643.307-1.285.649-1.974z" fill="#9E1E55"/><path d="M64.464 26.254v8.864h-6.625c-.044-.703-.124-1.378-.124-2.053-.008-8.364.053-16.728-.048-25.09-.024-1.932.607-2.388 2.436-2.339 4.604.126 9.214.095 13.82.012 1.538-.028 2.596.12 2.711 1.995.133 2.15-.622 3.618-2.453 3.78-2.11.189-4.246.116-6.37.125-3.362.015-3.361.005-3.349 3.294.003.771 0 1.543 0 2.568h9.328v5.931h-9.327v2.913z" fill="#9D1B52"/><path d="M224.314 33.44c-.991 2.368-2.924 2.056-4.798 1.877-2.043-.194-2.699-1.663-2.76-3.376-.112-3.182-.032-6.37-.065-9.554-.015-1.396.222-3.012-1.97-2.995-1.763.013-2.871 1.195-2.874 3.087-.007 4.166-.002 8.33-.002 12.659h-6.917V29.32c-.002-4.742.035-9.485-.03-14.227-.018-1.3.43-1.957 1.697-1.69 1.745.367 3.455.9 5.18 1.361l-.134.613c1.318-.63 2.576-1.516 3.965-1.844 4.447-1.05 7.785 1.67 8.008 6.505.146 3.178-.013 6.37.078 9.553.035 1.237.384 2.465.622 3.848z" fill="#A02257"/><path d="M184.929 34.986c-4.853-3.124-4.172-10.509 1.517-12.54 1.478-.527 3.204-.327 4.788-.616.687-.125 1.303-.643 1.951-.982-.577-.788-1.081-2.158-1.747-2.243-1.472-.186-3.075.1-4.535.51-2.73.769-4.539-.54-4.3-3.387.029-.35.511-.82.886-.96 3.558-1.337 7.24-1.854 11.018-1.34 3.137.425 5.349 2.852 5.467 6.05.102 2.756-.045 5.524.086 8.278.062 1.282.756 2.55.733 3.815-.021 1.122-.324 2.647-1.086 3.227-.707.538-2.54.505-3.253-.062-1.549-1.23-2.517-.905-4.061.015-2.254 1.344-4.827 1.432-7.464.235zm4.592-4.4c.951-.083 1.981.036 2.836-.296 1.308-.508 1.741-3.873.618-4.067-1.288-.223-3.006-.012-4.012.726-1.183.867-1.262 2.456.558 3.638z" fill="#9E1E55"/><path d="M80.112 15.673c3.896-3.59 9.003-3.18 12.12-1.45 3.413 1.893 5.5 7.218 4.811 11.654-.493 3.18-1.299 6.182-4.164 8.182-4.605 3.214-13.172 2.393-15.21-5.46-1.184-4.564-.792-8.97 2.443-12.926zm6.251 2.494c-.65.687-1.81 1.337-1.86 2.066-.203 2.866-.213 5.773.079 8.626.067.661 1.614 1.628 2.473 1.62.832-.007 2.295-1.019 2.37-1.709.301-2.816.317-5.687.153-8.52-.088-1.514-1.27-2.286-3.215-2.083zm52.085-3.734c3.786-2.034 7.47-2.146 10.854.399 3.406 2.562 3.703 6.298 3.208 10.177-.14 1.103-.689 1.678-1.983 1.637-3.163-.101-6.332-.033-9.519-.033.462 4.232 2.645 4.84 9.32 2.726.072.107.182.279.299.446 2.03 2.906 1.855 3.929-1.411 5.058-4.727 1.634-10.414 1.544-13.312-2.653-2.761-4-2.999-14.67 2.544-17.757zm8.16 6.925c-.641-2.916-1.596-3.865-3.479-3.457-1.661.361-2.364 1.7-1.999 4.166 1.765-.134 3.555-.269 5.478-.709z" fill="#9F2056"/><path d="M120.504 9.513c1.066-1.854 3.65-2.995 5.413-2.37.469.166.958.96 1.006 1.504.136 1.54.048 3.098.048 4.743.614.08 1.089.19 1.565.196 4.231.054 4.35.199 3.474 4.745-.984 0-2.033.079-3.065-.018-1.426-.134-2.078.284-2.01 1.852.107 2.477.066 4.962.015 7.442-.036 1.8.831 2.712 2.556 2.532 2.417-.25 2.112 1.448 2.273 2.877.191 1.685-.604 2.257-2.221 2.165-1.411-.08-2.834.08-4.25.048-2.885-.067-4.756-1.838-4.849-4.743-.105-3.258-.047-6.52-.059-9.782-.003-.694-.001-1.388-.001-2.308-2.203.17-3.898.076-3.737-2.827.156-2.81 2.138-1.75 3.639-2.08.061-1.288.12-2.543.203-3.976z" fill="#9E1E54"/><path d="M106.445 16.044c.565-.023 1.226-.022 1.446-.332 1.509-2.137 3.617-2.586 5.992-2.205.489.079 1.319.696 1.28.957-.239 1.592-.589 3.187-1.134 4.696-.123.342-1.183.535-1.784.482-2.795-.246-4.315 1.052-4.317 3.828-.003 3.818-.001 7.635-.001 11.635h-6.68c0-4.536.066-9.053-.041-13.567-.031-1.294-.325-2.701-.922-3.833-.802-1.521-.379-2.776.693-3.553.698-.505 2.085-.48 2.983-.17.908.312 1.594 1.268 2.485 2.062z" fill="#9D1C53"/><path d="M167.528 22.055c3.258.328 4.984 2.296 4.575 5.003-.469 3.102-3.055 4.163-8.126 3.172 0-2.324-.054-4.71.056-7.088.017-.38.721-.912 1.198-1.043.658-.18 1.403-.045 2.297-.044z" fill="#F6ECF0"/><path d="M168.6 17.193c-4.617.254-4.687.252-4.574-3.644.033-1.107-.878-2.692.905-3.287 2.102-.701 4.947.34 5.743 2.014.857 1.8.205 3.264-1.141 4.517-.195.182-.502.243-.933.4z" fill="#F4E7EB"/><path d="M189.364 30.544c-1.663-1.139-1.584-2.728-.401-3.595 1.006-.738 2.724-.949 4.012-.726 1.123.194.69 3.559-.618 4.067-.854.332-1.884.213-2.993.254z" fill="#F2E4E9"/><path d="M86.533 18.144c1.774-.18 2.957.592 3.044 2.105.165 2.834.149 5.704-.153 8.521-.074.69-1.537 1.702-2.37 1.71-.858.007-2.405-.96-2.473-1.62-.292-2.854-.281-5.761-.08-8.627.052-.729 1.212-1.38 2.032-2.089z" fill="#FAF5F7"/><path d="M146.541 21.51c-1.856.288-3.646.423-5.411.556-.365-2.464.338-3.804 1.999-4.164 1.883-.41 2.838.54 3.412 3.609z" fill="#F5E8ED"/></svg>