<svg width="267" height="58" fill="none" xmlns="http://www.w3.org/2000/svg"><path d="M33.5 0l33.342 57.75H.158L33.5 0z" fill="#FEB515"/><path d="M39.5 0l33.342 57.75H6.158L39.5 0z" fill="#098636"/><path d="M101.397 9h8.496v25.2h-8.496V9zm-7.848 25.2h-8.496V9h8.496v25.2zm8.424-9.288h-9v-6.984h9v6.984zm19.033 9.288V23.148l1.944 5.076L111.502 9h8.964l7.74 13.14h-5.22L130.798 9h8.208L127.63 28.224l1.872-5.076V34.2h-8.496zm31.327.576c-3.864 0-6.876-1.044-9.036-3.132-2.16-2.088-3.24-5.016-3.24-8.784V9h8.496v13.608c0 1.92.348 3.288 1.044 4.104.696.792 1.632 1.188 2.808 1.188 1.2 0 2.136-.396 2.808-1.188.696-.816 1.044-2.184 1.044-4.104V9h8.352v13.86c0 3.768-1.08 6.696-3.24 8.784-2.16 2.088-5.172 3.132-9.036 3.132zm16.711-.576V9h6.984l12.816 15.336h-3.24V9h8.28v25.2H186.9l-12.816-15.336h3.24V34.2h-8.28zm29.473 0V9h12.42c2.808 0 5.28.516 7.416 1.548 2.136 1.008 3.804 2.448 5.004 4.32 1.2 1.872 1.8 4.104 1.8 6.696 0 2.616-.6 4.872-1.8 6.768-1.2 1.872-2.868 3.324-5.004 4.356-2.136 1.008-4.608 1.512-7.416 1.512h-12.42zm8.496-6.624h3.564c1.2 0 2.244-.228 3.132-.684a4.922 4.922 0 002.124-2.016c.504-.912.756-2.016.756-3.312 0-1.272-.252-2.352-.756-3.24a4.922 4.922 0 00-2.124-2.016c-.888-.456-1.932-.684-3.132-.684h-3.564v11.952zm18.699 6.624L236.728 9h8.352l11.016 25.2h-8.784l-8.136-21.168h3.312L234.352 34.2h-8.64zm6.552-4.392l2.16-6.12h11.592l2.16 6.12h-15.912zm25.728 4.392V9h8.496v25.2h-8.496zM88.888 46.28h5.616v3.06h-5.616v-3.06zm.288 4.716h6.3V54.2H85V41.6h10.242v3.204h-6.066v6.192zm8.205 3.204V41.6h4.248v9.306h5.688V54.2h-9.936zm15.268-7.92h5.616v3.06h-5.616v-3.06zm.288 4.716h6.3V54.2h-10.476V41.6h10.242v3.204h-6.066v6.192zm11.989 3.204l-5.328-12.6h4.572l4.338 10.639h-2.718l4.464-10.639h4.176l-5.328 12.6h-4.176zm8.372 0l5.508-12.6h4.176l5.508 12.6h-4.392l-4.068-10.584h1.656L137.618 54.2h-4.32zm3.276-2.196l1.08-3.06h5.796l1.08 3.06h-7.956zm14.967 2.196v-9.306h-3.69V41.6h11.628v3.294h-3.69V54.2h-4.248zm15.742.289a8.136 8.136 0 01-2.844-.486 6.781 6.781 0 01-2.25-1.368 6.541 6.541 0 01-1.494-2.106 6.545 6.545 0 01-.522-2.629c0-.96.174-1.835.522-2.627a6.34 6.34 0 011.494-2.089 6.63 6.63 0 012.25-1.386 8.136 8.136 0 012.844-.486c1.032 0 1.98.163 2.844.486a6.63 6.63 0 012.25 1.386 6.124 6.124 0 011.476 2.089c.36.791.54 1.667.54 2.627 0 .949-.18 1.825-.54 2.629a6.313 6.313 0 01-1.476 2.105 6.781 6.781 0 01-2.25 1.368c-.864.325-1.812.486-2.844.486zm0-3.438c.396 0 .762-.073 1.098-.217.348-.144.648-.348.9-.612.264-.276.468-.605.612-.99.144-.395.216-.84.216-1.331 0-.493-.072-.93-.216-1.315a2.663 2.663 0 00-.612-.99 2.496 2.496 0 00-.9-.63 2.758 2.758 0 00-1.098-.215 2.89 2.89 0 00-1.116.216 2.72 2.72 0 00-.9.63c-.252.264-.45.593-.594.99a3.725 3.725 0 00-.216 1.313c0 .492.072.937.216 1.333.144.384.342.714.594.99.264.264.564.468.9.611.348.144.72.216 1.116.216zm8.921 3.149V41.6h6.066c1.176 0 2.19.192 3.042.576.864.384 1.53.936 1.998 1.657.468.708.702 1.547.702 2.52 0 .971-.234 1.811-.702 2.52-.468.696-1.134 1.23-1.998 1.602-.852.371-1.866.557-3.042.557h-3.708l1.89-1.745V54.2h-4.248zm7.542 0l-3.096-4.59h4.5l3.132 4.59h-4.536zm-3.294-4.446l-1.89-1.925H182c.588 0 1.02-.133 1.296-.397.288-.264.432-.623.432-1.08 0-.455-.144-.816-.432-1.08-.276-.264-.708-.395-1.296-.395h-3.438l1.89-1.927v6.804zm14.133 4.735c-1.056 0-2.076-.12-3.06-.36s-1.794-.552-2.43-.936l1.368-3.096c.6.347 1.266.63 1.998.846a8.156 8.156 0 002.16.306c.408 0 .726-.025.954-.073.24-.06.414-.138.522-.233a.518.518 0 00.162-.378c0-.228-.126-.408-.378-.54-.252-.133-.588-.24-1.008-.325a36.172 36.172 0 00-1.35-.288c-.492-.108-.99-.245-1.494-.413a6.023 6.023 0 01-1.368-.666 3.174 3.174 0 01-.99-1.08c-.252-.456-.378-1.02-.378-1.693 0-.78.216-1.488.648-2.123.444-.648 1.098-1.164 1.962-1.548.876-.385 1.962-.577 3.258-.577.852 0 1.692.09 2.52.27.828.18 1.572.456 2.232.828l-1.278 3.079a9.564 9.564 0 00-1.818-.703 6.456 6.456 0 00-1.692-.233c-.408 0-.732.036-.972.108-.24.072-.414.167-.522.288a.62.62 0 00-.144.395c0 .216.126.39.378.523.252.12.582.222.99.306.42.084.876.173 1.368.27a10.97 10.97 0 011.494.396c.492.168.942.39 1.35.666.42.276.756.636 1.008 1.08.252.444.378.995.378 1.655a3.68 3.68 0 01-.666 2.124c-.432.637-1.08 1.153-1.944 1.549-.864.384-1.95.576-3.258.576zm7.357 2.591l1.512-5.057.594 2.267c-.696 0-1.266-.197-1.71-.593-.444-.409-.666-.96-.666-1.657 0-.707.222-1.265.666-1.673.456-.42 1.026-.63 1.71-.63.684 0 1.248.21 1.692.63.456.408.684.966.684 1.674 0 .192-.018.384-.054.576a3.553 3.553 0 01-.18.702c-.096.264-.252.623-.468 1.08l-1.26 2.681h-2.52zm11.799-2.88V41.6h4.248v9.306h5.688V54.2h-9.936zm11.38 0V41.6h4.248v9.306h5.688V54.2h-9.936zm11.379 0V41.6h6.066c1.176 0 2.19.192 3.042.576.864.384 1.53.936 1.998 1.657.468.708.702 1.547.702 2.52 0 .971-.234 1.811-.702 2.52-.468.708-1.134 1.26-1.998 1.656-.852.383-1.866.575-3.042.575h-3.708l1.89-1.818V54.2H236.5zm4.248-4.446l-1.89-1.925h3.438c.588 0 1.02-.133 1.296-.397.288-.264.432-.623.432-1.08 0-.455-.144-.816-.432-1.08-.276-.264-.708-.395-1.296-.395h-3.438l1.89-1.927v6.804z" fill="#101010"/></svg>