<svg width="600" height="508" viewBox="0 0 600 508" fill="none" xmlns="http://www.w3.org/2000/svg">
<path d="M302.906 344.888C299.358 350.289 299.239 350.314 296.508 345.366C279.866 315.217 263.306 285.023 246.601 254.909C229.927 224.849 213.064 194.894 196.49 164.78C195.492 162.967 195.387 159.559 196.442 157.888C210.517 135.599 224.817 113.453 239.171 91.3419C258.338 61.8176 277.637 32.379 296.786 2.8433C299.858 -1.89513 301.476 2.14951 302.628 3.88197C311.139 16.6849 319.403 29.6516 327.752 42.5624C348.682 74.9289 369.613 107.295 390.551 139.656C394.525 145.8 398.709 151.819 402.399 158.127C403.304 159.674 403.431 162.564 402.587 164.112C390.377 186.503 377.908 208.751 365.566 231.07C350.976 257.456 336.448 283.876 321.895 310.282C315.604 321.698 309.318 333.116 302.906 344.888Z" fill="#19A3DE"/>
<path d="M185.252 174.166C186.757 172.133 188.132 170.451 189.846 168.356C223.234 228.702 256.253 288.382 289.656 348.755C287.108 348.882 285.814 349.002 284.521 349.003C251.705 349.013 218.89 349.003 186.074 349.03C183.511 349.033 181.66 348.912 180.088 346.009C165.088 318.32 150.23 290.536 134.332 263.364C130.713 257.178 133.35 254.214 135.978 250.159C152.331 224.926 168.736 199.727 185.252 174.166Z" fill="#19A3DE"/>
<path d="M354.749 266.62C372.794 233.774 390.735 201.293 409.143 167.966C414.74 176.483 419.779 184.1 424.768 191.751C438.082 212.17 451.341 232.626 464.712 253.009C466.826 256.232 467.165 258.743 465.036 262.453C452.419 284.441 440.161 306.636 427.853 328.801C424.69 334.496 421.937 340.425 418.649 346.043C417.831 347.44 415.665 348.887 414.112 348.893C379.787 349.037 345.461 348.983 311.136 348.948C310.67 348.948 310.204 348.71 309.226 348.444C316.201 335.858 323.1 323.431 329.977 310.992C337.641 297.129 345.279 283.251 352.949 269.391C353.422 268.538 354.075 267.784 354.749 266.62Z" fill="#19A3DE"/>
<path d="M444.167 444.814C441.994 443.407 440.06 441.656 437.954 441.414C433.856 440.945 429.646 441.546 425.51 441.278C422.18 441.062 421.045 442.301 421.073 445.503C421.164 455.982 421.107 466.463 421.107 477.415C412.018 477.415 403.316 477.415 394.218 477.415C394.218 443.819 394.218 410.265 394.218 376.281C402.915 376.281 411.623 376.281 421.098 376.281C421.098 384.448 421.096 392.542 421.099 400.635C421.104 413.211 421.122 412.841 433.533 413.4C439.835 413.684 443.274 411.594 446.393 406.121C451.794 396.644 458.211 387.74 464.332 378.685C465.15 377.476 466.713 376.003 467.961 375.974C477.757 375.751 487.56 375.851 498.409 375.851C497.511 377.749 497.082 379.002 496.384 380.08C486.879 394.751 477.239 409.338 467.955 424.148C467.039 425.608 467.502 428.892 468.574 430.491C478.757 445.673 489.211 460.671 499.57 475.735C499.737 475.978 499.678 476.376 499.831 477.44C498.284 477.593 496.765 477.861 495.244 477.872C487.582 477.925 479.917 477.802 472.259 477.969C468.8 478.044 466.484 477.027 464.447 473.981C457.936 464.241 451.062 454.744 444.167 444.814Z" fill="#1BA4DF"/>
<path d="M571 477.895C549.881 477.895 529.261 477.895 508.002 477.895C508.002 470.018 507.872 462.601 508.12 455.196C508.165 453.838 509.569 452.363 510.645 451.226C525.004 436.071 539.427 420.975 553.795 405.828C554.821 404.746 555.549 403.382 557.107 401.165C540.084 401.165 524.245 401.165 508.106 401.165C508.106 392.606 508.106 384.678 508.106 376.136C509.675 376.032 511.26 375.837 512.845 375.836C539.827 375.817 566.808 375.898 593.788 375.739C597.865 375.715 598.78 376.937 599.321 381.004C600.904 392.899 596.83 401.723 588.193 409.935C575.755 421.76 564.365 434.689 552.572 447.188C551.449 448.379 550.637 449.864 548.931 452.27C553.861 452.27 557.454 452.269 561.047 452.27C571.873 452.271 582.7 452.373 593.524 452.223C597.675 452.165 599.563 453.415 599.212 457.938C598.826 462.905 598.863 467.942 599.203 472.915C599.486 477.066 597.729 478.053 593.983 477.955C586.493 477.759 578.995 477.896 571 477.895Z" fill="#1AA4DF"/>
<path d="M182.995 477.903C166.591 477.714 168.51 480.113 168.465 463.832C168.405 441.669 168.323 419.505 168.506 397.344C168.58 388.357 171.839 380.891 180.868 377.272C182.636 376.563 184.612 376.01 186.493 376.004C214.155 375.904 241.816 375.935 269.478 375.852C272.511 375.842 274.038 376.538 273.927 380.027C273.694 387.343 273.856 394.672 273.856 402.622C248.361 402.622 223.14 402.622 197.296 402.622C197.133 405.113 197.087 407.035 196.863 408.937C196.456 412.4 197.843 413.579 201.367 413.519C212.696 413.328 224.034 413.628 235.358 413.345C239.816 413.233 241.273 414.78 241.079 419.09C240.816 424.911 240.831 430.76 241.078 436.582C241.246 440.564 239.671 441.834 235.818 441.773C224.823 441.597 213.814 441.966 202.83 441.57C197.799 441.389 196.595 443.16 196.785 447.827C197.116 455.978 196.719 464.158 196.942 472.317C197.054 476.397 195.623 478.205 191.484 477.936C188.829 477.763 186.154 477.903 182.995 477.903Z" fill="#1CA5DF"/>
<path d="M5.26491 378.662C7.04021 377.056 8.71524 375.001 10.5415 374.856C16.1728 374.411 21.8635 374.61 27.5278 374.724C31.5763 374.806 33.5978 376.503 33.5496 381.117C33.3318 401.948 33.5627 422.783 33.3686 443.614C33.3273 448.054 34.3845 449.712 39.1855 449.655C61.0156 449.398 82.8503 449.532 104.683 449.525C111.1 449.524 111.73 450.17 111.729 456.773C111.729 462.273 111.702 467.773 111.727 473.273C111.741 476.357 110.359 477.785 107.181 477.779C79.0154 477.721 50.8482 477.851 22.6834 477.64C12.887 477.567 5.2699 468.337 5.24129 457.086C5.17515 431.086 5.22876 405.087 5.26491 378.662Z" fill="#20A6DF"/>
<path d="M316.014 419.01C316.014 413.436 316.014 408.36 316.014 402.99C304.333 402.99 293.847 402.797 283.373 403.084C279.09 403.202 277.859 401.711 278.084 397.641C278.378 392.326 278.459 386.96 278.065 381.659C277.722 377.05 279.254 375.675 283.87 375.722C305.359 375.94 326.851 375.821 348.342 375.82C358.005 375.819 367.669 375.91 377.33 375.752C380.685 375.698 382.096 376.647 381.977 380.26C381.735 387.553 381.905 394.86 381.905 402.826C369.179 402.826 356.971 402.826 344.357 402.826C344.239 405.428 344.075 407.378 344.073 409.329C344.053 430.32 343.946 451.313 344.149 472.302C344.192 476.681 342.939 478.248 338.5 477.98C332.856 477.639 327.167 477.706 321.515 477.964C317.381 478.152 315.924 476.614 315.958 472.485C316.103 454.827 316.017 437.167 316.014 419.01Z" fill="#1CA5DF"/>
<path d="M517.891 349.011C486.977 349.011 456.548 349.011 425.274 349.011C440.897 320.853 456.1 293.45 472.036 264.726C490.51 293.077 508.441 320.595 526.956 349.011C523.536 349.011 520.956 349.011 517.891 349.011Z" fill="#1BA4DF"/>
<path d="M149.433 305.612C157.349 319.962 165.109 333.973 173.247 348.666C139.3 348.666 106.292 348.666 72.373 348.666C74.3797 345.308 76.0429 342.309 77.9078 339.44C93.2038 315.912 108.526 292.4 123.896 268.92C124.619 267.816 125.877 267.061 126.886 266.144C127.664 267.226 128.553 268.245 129.202 269.399C135.916 281.345 142.591 293.312 149.433 305.612Z" fill="#1BA4DF"/>
<path d="M128.172 375.812C134.651 375.814 140.65 375.904 146.645 375.781C149.606 375.72 150.838 376.826 150.833 379.851C150.781 411.004 150.789 442.156 150.822 473.309C150.825 476.301 149.938 478.018 146.542 477.946C140.048 477.808 133.548 477.824 127.052 477.931C124.007 477.981 123.001 476.661 123.006 473.723C123.06 442.404 123.077 411.084 122.976 379.766C122.964 376.116 124.867 375.632 128.172 375.812Z" fill="#1EA5DF"/>
<path d="M79.9997 494.198C99.6559 494.196 118.812 494.193 137.968 494.192C140.277 494.191 143.214 493.709 143.196 497.111C143.178 500.387 140.566 500.68 137.787 500.677C93.6447 500.625 49.5021 500.662 5.35979 500.575C3.74881 500.572 1.4969 499.983 0.663499 498.846C-1.08934 496.456 0.823792 494.213 4.54079 494.2C17.2003 494.154 29.8602 494.194 42.5199 494.197C54.8465 494.2 67.1731 494.198 79.9997 494.198Z" fill="#5EC2E9"/>
<path d="M465.115 500.634C462.636 500.616 460.496 501.024 458.692 500.423C457.581 500.052 456.475 498.192 456.344 496.902C456.262 496.097 457.894 494.936 458.965 494.266C459.565 493.891 460.589 494.189 461.422 494.189C504.905 494.191 548.388 494.192 591.87 494.196C592.869 494.196 594.108 493.856 594.811 494.319C595.881 495.025 597.232 496.28 597.256 497.33C597.281 498.395 596.04 499.817 594.977 500.474C594.126 501.001 592.711 500.635 591.546 500.635C549.563 500.637 507.579 500.635 465.115 500.634Z" fill="#5EC2E9"/>
<path d="M367.691 494.196C367.691 497.156 368.006 499.709 367.581 502.132C367.303 503.714 365.952 505.109 365.081 506.587C364.358 505.188 363.409 503.854 362.983 502.37C362.635 501.159 362.912 499.769 362.912 497.934C360.249 498.821 358.436 504.445 355.173 497.68C354.718 500.758 354.818 502.597 354.112 504.042C353.568 505.155 352.015 506.397 350.902 506.406C350.072 506.412 348.584 504.587 348.504 503.495C348.209 499.521 348.266 495.507 348.455 491.52C348.507 490.418 349.363 488.553 350.047 488.459C351.247 488.293 352.815 488.951 353.835 489.76C355.314 490.935 356.443 492.55 357.465 493.691C360.577 491.778 363.458 490.008 366.338 488.238C366.789 490.07 367.24 491.902 367.691 494.196Z" fill="#33B0E3"/>
<path d="M413.419 488.369C415.748 490.998 417.715 493.508 420.519 497.087C420.75 493.978 420.742 492.09 421.096 490.273C421.245 489.505 422.249 488.262 422.703 488.329C423.603 488.461 425.08 489.316 425.115 489.939C425.391 494.901 425.47 499.882 425.281 504.845C425.268 505.189 422.033 506.167 421.316 505.587C419.213 503.888 417.625 501.552 415.185 498.708C415.036 500.727 415.216 502.309 414.729 503.648C414.307 504.807 412.931 506.63 412.325 506.503C411.015 506.228 409 504.973 408.91 503.973C408.527 499.681 408.457 495.306 408.929 491.033C409.047 489.967 411.615 489.172 413.419 488.369Z" fill="#3AB3E4"/>
<path d="M287.577 501.349C286.769 502.189 286.459 503.409 285.73 504.278C284.911 505.254 283.652 506.598 282.7 506.512C281.765 506.427 280.306 504.79 280.24 503.759C279.964 499.467 280.086 495.146 280.169 490.838C280.184 490.084 280.513 489.13 281.04 488.63C282.513 487.229 291.757 487.998 293.039 490.268C294.268 492.446 293.915 495.545 294.137 498.25C294.241 499.515 294.036 500.803 294.016 502.081C293.993 503.558 294.019 505.036 294.024 506.514C292.59 506.003 290.947 505.769 289.787 504.895C288.852 504.189 288.5 502.711 287.577 501.349Z" fill="#41B6E5"/>
<path d="M344.08 500.905C341.294 505.732 337.304 507.924 332.319 506.527C328.624 505.492 325.698 502.986 325.389 498.515C325.004 492.949 328.684 488.362 333.959 488.048C340.179 487.678 344.492 491.559 344.524 497.601C344.53 498.584 344.324 499.567 344.08 500.905ZM335.791 492.529C334 493.561 331.909 494.311 330.55 495.751C329.92 496.419 330.217 498.884 330.982 499.724C332.06 500.908 334.202 502.215 335.455 501.874C337.09 501.43 339.388 499.446 339.415 498.087C339.446 496.447 337.394 494.768 335.791 492.529Z" fill="#33B0E3"/>
<path d="M188.947 500.846C188.947 496.574 188.947 492.776 188.947 488.109C192.79 488.109 196.215 487.883 199.577 488.244C200.613 488.355 202.379 490.247 202.226 491.004C201.938 492.427 200.497 493.618 199.104 495.484C200.151 497.522 201.868 500.182 202.793 503.095C203.055 503.919 201.165 506.307 199.986 506.532C197.266 507.051 194.369 506.809 191.557 506.645C187.726 506.422 189.386 503.316 188.947 500.846ZM197.371 494.383C196.827 493.932 196.282 493.481 195.738 493.03C195.5 493.593 195.263 494.156 195.025 494.719C195.758 494.878 196.49 495.037 197.371 494.383ZM197.313 500.495C196.663 500.687 196.013 500.878 194.142 501.43C195.997 501.798 196.641 502.114 197.152 501.966C197.539 501.854 197.754 501.151 197.313 500.495Z" fill="#41B6E5"/>
<path d="M257.168 499.494C256.189 494.112 258.377 490.314 262.785 488.907C265.509 488.038 269.444 488.482 271.942 489.904C277.058 492.817 277.698 499.114 274.102 503.288C270.072 507.966 263.48 508.219 259.383 503.723C258.419 502.666 257.918 501.189 257.168 499.494ZM271.625 498.232C270.157 496.017 268.688 493.803 266.573 490.614C264.451 493.705 262.64 495.367 262.209 497.333C261.948 498.526 263.955 501.476 264.708 501.397C266.985 501.158 269.147 499.826 271.625 498.232Z" fill="#3AB3E4"/>
<path d="M405.108 506.376C403.284 505.889 401.401 505.614 400.347 504.531C397.934 502.053 396.153 501.662 393.781 504.623C392.907 505.714 390.897 505.893 389.404 506.488C389.391 504.998 389.079 503.435 389.425 502.034C390.2 498.899 390.995 495.699 392.382 492.813C393.264 490.976 394.997 488.969 396.788 488.383C397.746 488.07 400.154 490.33 401.002 491.914C403.005 495.654 404.541 499.656 406.076 503.626C406.339 504.306 405.666 505.347 405.108 506.376Z" fill="#3AB3E4"/>
<path d="M166.431 496.565C166.8 498.127 167.202 499.683 167.528 501.254C167.813 502.629 168.463 504.166 168.083 505.353C167.855 506.065 165.977 506.552 164.812 506.614C154.512 507.167 154.509 507.132 154.514 496.565C154.515 495.075 154.443 493.579 154.551 492.097C154.745 489.433 155.846 487.795 158.933 488.105C161.064 488.318 163.314 487.798 165.353 488.278C166.49 488.546 167.302 490.189 167.803 491.722C164.961 492.719 160.535 493.141 160.517 493.703C160.374 498.213 164.786 494.666 166.431 496.565Z" fill="#3AB3E4"/>
<path d="M238.556 500.398C238.976 502.51 239.303 504.245 239.958 507.724C237.221 506.335 235.34 505.917 234.309 504.748C232.026 502.159 230.378 501.869 227.91 504.629C226.871 505.791 224.567 505.822 222.838 506.367C222.903 504.699 222.665 502.947 223.1 501.382C223.959 498.288 224.915 495.156 226.374 492.319C227.241 490.634 228.959 488.787 230.645 488.342C231.683 488.068 233.84 490.031 234.686 491.466C236.257 494.134 237.236 497.15 238.556 500.398Z" fill="#41B6E5"/>
<path d="M372.562 495.192C373.429 492.538 373.955 488.695 375.221 488.434C379.476 487.555 384.557 487.205 386.728 492.274C387.523 494.13 386.378 496.967 385.685 499.224C385.457 499.964 383.878 500.684 382.892 500.72C380.019 500.825 378.174 501.728 377.67 504.866C377.555 505.579 376.065 506.59 375.274 506.534C374.46 506.476 373.162 505.354 373.06 504.57C372.676 501.623 372.694 498.624 372.562 495.192Z" fill="#41B6E5"/>
<path d="M313.552 501.285C314.946 501.457 316.034 501.249 317.112 501.295C318.765 501.366 320.411 501.612 322.061 501.784C321.143 503.225 320.55 505.181 319.243 506.007C315.836 508.159 309.983 506.365 307.343 502.775C304.378 498.74 304.293 494.586 307.898 491.23C311.212 488.145 315.559 486.264 319.801 489.459C320.819 490.227 321.25 491.775 321.951 492.964C320.544 493.336 319.147 493.75 317.729 494.071C315.797 494.509 313.849 494.876 311.908 495.274C312.353 497.189 312.797 499.104 313.552 501.285Z" fill="#3AB3E4"/>
<path d="M210.565 505.468C208.418 499.872 206.536 494.54 204.62 489.113C210.295 487.816 210.968 488.521 213.522 496.578C214.328 495.009 215.07 493.403 215.958 491.883C216.717 490.584 217.44 489.11 218.584 488.256C219.141 487.841 221.514 488.613 221.534 488.941C221.628 490.478 221.353 492.096 220.905 493.594C220.032 496.514 218.897 499.355 217.979 502.263C216.802 505.993 214.94 508.131 210.565 505.468Z" fill="#41B6E5"/>
<path d="M440.989 498.328C440.434 500.206 440.362 501.875 439.833 503.384C439.414 504.578 438.226 506.574 437.745 506.473C436.354 506.18 434.484 505.294 433.987 504.133C432.213 499.994 430.843 495.671 429.536 491.352C429.27 490.472 429.729 488.569 430.227 488.424C431.36 488.096 433.168 488.109 433.896 488.815C435.119 490.001 435.716 491.834 436.69 493.6C439.28 491.762 440.072 485.817 445.892 489.096C444.332 492.121 442.804 495.085 440.989 498.328Z" fill="#41B6E5"/>
<path d="M183.435 500.482C186.121 505.816 185.589 506.74 180.262 506.797C178.767 506.813 177.064 507.269 175.832 506.705C174.405 506.052 172.51 504.596 172.363 503.312C171.913 499.377 171.956 495.333 172.35 491.386C172.472 490.164 174.33 489.115 175.393 487.986C176.507 489.069 178.093 489.966 178.609 491.283C179.174 492.726 178.901 494.571 178.728 496.213C178.378 499.529 179.833 500.801 183.435 500.482Z" fill="#5EC2E9"/>
<path d="M240.721 489.19C244.761 488.593 248.702 487.969 252.574 488.262C255.725 488.501 255.802 492.115 253.998 492.837C249.445 494.658 250.988 498.068 250.709 501.093C250.618 502.083 250.989 503.332 250.51 504.019C249.751 505.109 248.455 505.827 247.386 506.702C246.569 505.689 245.482 504.785 245.017 503.631C244.612 502.626 244.931 501.337 244.892 500.175C244.797 497.366 245.889 494.072 241.538 493.098C240.986 492.975 240.895 490.79 240.721 489.19Z" fill="#41B6E5"/>
<path d="M166.643 496.262C164.785 494.666 160.373 498.213 160.517 493.703C160.535 493.141 164.96 492.719 167.797 492.152C167.786 493.368 167.321 494.663 166.643 496.262Z" fill="#D4EFF9"/>
<path d="M197.296 494.789C196.489 495.037 195.757 494.878 195.024 494.719C195.262 494.156 195.499 493.593 195.737 493.03C196.281 493.481 196.826 493.932 197.296 494.789Z" fill="#FEFFFF"/>
<path d="M197.679 500.603C197.754 501.151 197.538 501.854 197.152 501.966C196.641 502.114 195.996 501.798 194.142 501.429C196.012 500.878 196.662 500.686 197.679 500.603Z" fill="#FEFFFF"/>
<path d="M271.489 498.576C269.147 499.827 266.984 501.159 264.707 501.398C263.954 501.476 261.947 498.527 262.209 497.333C262.639 495.368 264.45 493.705 266.572 490.614C268.687 493.803 270.156 496.018 271.489 498.576Z" fill="#D4EFF9"/>
</svg>
