<svg width="963" height="95" fill="none" xmlns="http://www.w3.org/2000/svg"><path d="M39.704 94.048c-7.51 0-14.763-.853-21.76-2.56-6.997-1.707-12.757-3.925-17.28-6.656l9.728-22.016c4.267 2.475 9.003 4.48 14.208 6.016 5.29 1.45 10.41 2.176 15.36 2.176 2.901 0 5.163-.17 6.784-.512 1.707-.427 2.944-.981 3.712-1.664.768-.768 1.152-1.664 1.152-2.688 0-1.621-.896-2.901-2.688-3.84-1.792-.939-4.181-1.707-7.168-2.304a257.196 257.196 0 00-9.6-2.048c-3.499-.768-7.04-1.75-10.624-2.944a42.832 42.832 0 01-9.728-4.736c-2.901-1.963-5.248-4.523-7.04-7.68-1.792-3.243-2.688-7.253-2.688-12.032 0-5.547 1.536-10.581 4.608-15.104 3.157-4.608 7.808-8.277 13.952-11.008C26.862 1.718 34.584.352 43.8.352c6.059 0 12.032.64 17.92 1.92 5.888 1.28 11.179 3.243 15.872 5.888l-9.088 21.888c-4.437-2.219-8.747-3.883-12.928-4.992-4.096-1.11-8.107-1.664-12.032-1.664-2.901 0-5.205.256-6.912.768-1.707.512-2.944 1.195-3.712 2.048-.683.853-1.024 1.792-1.024 2.816 0 1.536.896 2.773 2.688 3.712 1.792.853 4.139 1.579 7.04 2.176 2.987.597 6.23 1.237 9.728 1.92a78.016 78.016 0 0110.624 2.816c3.499 1.195 6.699 2.773 9.6 4.736 2.987 1.963 5.376 4.523 7.168 7.68 1.792 3.157 2.688 7.083 2.688 11.776 0 5.461-1.579 10.496-4.736 15.104-3.072 4.523-7.68 8.192-13.824 11.008-6.144 2.73-13.867 4.096-23.168 4.096zM108.627 92V25.824h-26.24V2.4h82.688v23.424h-26.24V92h-30.208zm64.294 0V2.4h30.208V92h-30.208zm129.461 2.048c-7.168 0-13.824-1.11-19.968-3.328-6.059-2.304-11.349-5.547-15.872-9.728-4.437-4.181-7.893-9.13-10.368-14.848-2.475-5.717-3.712-12.032-3.712-18.944 0-6.912 1.237-13.227 3.712-18.944 2.475-5.717 5.931-10.667 10.368-14.848 4.523-4.181 9.813-7.381 15.872-9.6 6.144-2.304 12.8-3.456 19.968-3.456 8.789 0 16.555 1.536 23.296 4.608 6.827 3.072 12.459 7.51 16.896 13.312l-19.072 17.024c-2.645-3.328-5.589-5.888-8.832-7.68-3.157-1.877-6.741-2.816-10.752-2.816-3.157 0-6.016.512-8.576 1.536a18.713 18.713 0 00-6.656 4.48c-1.792 1.963-3.2 4.352-4.224 7.168-1.024 2.73-1.536 5.803-1.536 9.216 0 3.413.512 6.528 1.536 9.344 1.024 2.73 2.432 5.077 4.224 7.04a18.713 18.713 0 006.656 4.48c2.56 1.024 5.419 1.536 8.576 1.536 4.011 0 7.595-.896 10.752-2.688 3.243-1.877 6.187-4.48 8.832-7.808l19.072 17.024c-4.437 5.717-10.069 10.155-16.896 13.312-6.741 3.072-14.507 4.608-23.296 4.608zm94.015 0c-7.253 0-13.995-1.152-20.224-3.456-6.144-2.304-11.477-5.547-16-9.728-4.523-4.267-8.064-9.259-10.624-14.976-2.475-5.717-3.712-11.947-3.712-18.688 0-6.827 1.237-13.056 3.712-18.688 2.56-5.717 6.101-10.667 10.624-14.848 4.523-4.267 9.856-7.552 16-9.856 6.229-2.304 12.971-3.456 20.224-3.456 7.339 0 14.08 1.152 20.224 3.456 6.144 2.304 11.477 5.59 16 9.856 4.523 4.181 8.021 9.13 10.496 14.848 2.56 5.632 3.84 11.861 3.84 18.688 0 6.741-1.28 12.97-3.84 18.688a44.892 44.892 0 01-10.496 14.976c-4.523 4.181-9.856 7.424-16 9.728-6.144 2.304-12.885 3.456-20.224 3.456zm0-24.448c2.816 0 5.419-.512 7.808-1.536 2.475-1.024 4.608-2.475 6.4-4.352 1.877-1.963 3.328-4.31 4.352-7.04 1.024-2.816 1.536-5.973 1.536-9.472 0-3.499-.512-6.613-1.536-9.344-1.024-2.816-2.475-5.163-4.352-7.04a17.745 17.745 0 00-6.4-4.48c-2.389-1.024-4.992-1.536-7.808-1.536s-5.461.512-7.936 1.536c-2.389 1.024-4.523 2.517-6.4 4.48-1.792 1.877-3.2 4.224-4.224 7.04-1.024 2.73-1.536 5.845-1.536 9.344 0 3.499.512 6.656 1.536 9.472 1.024 2.73 2.432 5.077 4.224 7.04a20.283 20.283 0 006.4 4.352c2.475 1.024 5.12 1.536 7.936 1.536zM457.921 92V2.4h24.832l35.84 58.496h-13.056L540.353 2.4h24.832l.256 89.6h-27.52l-.256-48.128h4.352l-23.808 40.064h-13.312l-24.832-40.064h5.376V92h-27.52zm122.125 0V2.4h43.136c8.363 0 15.573 1.365 21.632 4.096 6.144 2.73 10.88 6.656 14.208 11.776 3.328 5.035 4.992 11.008 4.992 17.92 0 6.912-1.664 12.885-4.992 17.92-3.328 5.035-8.064 8.96-14.208 11.776-6.059 2.73-13.269 4.096-21.632 4.096h-26.368l13.44-12.928V92h-30.208zm30.208-31.616l-13.44-13.696h24.448c4.181 0 7.253-.939 9.216-2.816 2.048-1.877 3.072-4.437 3.072-7.68 0-3.243-1.024-5.803-3.072-7.68-1.963-1.877-5.035-2.816-9.216-2.816h-24.448L610.254 12v48.384zM659.693 92l39.168-89.6h29.696L767.725 92h-31.232l-28.928-75.264h11.776L690.413 92h-30.72zm23.296-15.616l7.68-21.76h41.216l7.68 21.76h-56.576zM772.546 92V2.4h24.832l45.568 54.528h-11.52V2.4h29.44V92h-24.832l-45.568-54.528h11.52V92h-29.44zm125.915 0V52.704l6.912 18.048L864.669 2.4h31.872l27.52 46.72h-18.56L933.277 2.4h29.184l-40.448 68.352 6.656-18.048V92h-30.208z" fill="#101010"/></svg>