<svg width="991" height="97" fill="none" xmlns="http://www.w3.org/2000/svg"><path d="M.936 97V7.4h86.656V97H57.896V24.424l6.528 6.4h-40.32l6.528-6.4V97H.936zm157.54 0l-22.272-41.984 24.064-14.08L192.524 97h-34.048zm-55.808 0V7.4h30.208V97h-30.208zm21.504-32.384V40.808h33.92v23.808h-33.92zm39.04-9.216l-27.776-2.816L161.164 7.4h31.488l-29.44 48zM304.557 2.024l-10.752 35.968-4.224-16.128c5.035 0 9.088 1.408 12.16 4.224 3.157 2.816 4.736 6.741 4.736 11.776 0 4.95-1.621 8.917-4.864 11.904-3.157 2.987-7.168 4.48-12.032 4.48s-8.917-1.493-12.16-4.48c-3.157-2.987-4.736-6.955-4.736-11.904 0-1.365.085-2.73.256-4.096.256-1.365.725-3.03 1.408-4.992.768-1.963 1.877-4.523 3.328-7.68l8.96-19.072h17.92zm37.12 0l-10.752 35.968-4.224-16.128c5.035 0 9.088 1.408 12.16 4.224 3.157 2.816 4.736 6.741 4.736 11.776 0 4.95-1.621 8.917-4.864 11.904-3.157 2.987-7.168 4.48-12.032 4.48s-8.917-1.493-12.16-4.48c-3.157-2.987-4.736-6.955-4.736-11.904 0-1.365.085-2.73.256-4.096.256-1.365.725-3.03 1.408-4.992.768-1.963 1.877-4.523 3.328-7.68l8.96-19.072h17.92zM412.173 7.4h30.208V97h-30.208V7.4zM384.269 97h-30.208V7.4h30.208V97zm29.952-33.024h-32V39.144h32v24.832zm71.738-23.296h39.936v21.76h-39.936V40.68zm2.048 33.536h44.8V97h-74.496V7.4h72.832v22.784h-43.136v44.032zM600.101 97l-22.272-41.984 24.064-14.08L634.149 97h-34.048zm-55.808 0V7.4h30.208V97h-30.208zm21.504-32.384V40.808h33.92v23.808h-33.92zm39.04-9.216l-27.776-2.816L602.789 7.4h31.488l-29.44 48zM659.413 97V24.296l6.528 6.528h-32.768V7.4h82.176v23.424h-32.768l6.528-6.528V97h-29.696zm53.846 0l39.168-89.6h29.696L821.291 97h-31.232l-28.928-75.264h11.776L743.979 97h-30.72zm23.296-15.616l7.68-21.76h41.216l7.68 21.76h-56.576zM829.561 97V7.4h43.136c8.363 0 15.573 1.365 21.632 4.096 6.144 2.73 10.88 6.656 14.208 11.776 3.328 5.035 4.992 11.008 4.992 17.92 0 6.912-1.664 12.885-4.992 17.92-3.328 5.035-8.064 8.96-14.208 11.776-6.059 2.73-13.269 4.096-21.632 4.096h-26.368l13.44-12.928V97h-30.208zm30.208-31.616l-13.44-13.696h24.448c4.181 0 7.253-.939 9.216-2.816 2.048-1.877 3.072-4.437 3.072-7.68 0-3.243-1.024-5.803-3.072-7.68-1.963-1.877-5.035-2.816-9.216-2.816h-24.448L859.769 17v48.384zm61.961-12.416L932.482 17l4.224 16.128c-4.949 0-9.003-1.408-12.16-4.224-3.157-2.901-4.736-6.827-4.736-11.776 0-5.035 1.579-9.003 4.736-11.904 3.243-2.987 7.296-4.48 12.16-4.48s8.875 1.493 12.032 4.48c3.243 2.901 4.864 6.87 4.864 11.904 0 1.365-.128 2.73-.384 4.096-.171 1.365-.597 3.03-1.28 4.992-.683 1.877-1.792 4.437-3.328 7.68l-8.96 19.072h-17.92zm37.12 0L969.602 17l4.224 16.128c-4.949 0-9.003-1.408-12.16-4.224-3.157-2.901-4.736-6.827-4.736-11.776 0-5.035 1.579-9.003 4.736-11.904 3.243-2.987 7.296-4.48 12.16-4.48s8.875 1.493 12.032 4.48c3.243 2.901 4.864 6.87 4.864 11.904 0 1.365-.128 2.73-.384 4.096-.171 1.365-.597 3.03-1.28 4.992-.683 1.877-1.792 4.437-3.328 7.68l-8.96 19.072h-17.92z" fill="#101010"/></svg>