<svg width="100" height="100" fill="none" xmlns="http://www.w3.org/2000/svg"><g clip-path="url(#clip0_420_12)"><path fill="#fff" d="M0 0h100v100H0z"/><path d="M1.266 54.063c-2.799-4.261-.585-8.85 2.956-11.15 1.73-1.124 1.94-1.928.914-3.779-1.143-2.06-2.052-4.185-1.821-6.636.193-2.055 1.228-3.576 2.872-4.734 1.322-.932 2.805-1.5 4.38-1.817 1.733-.348 2.27-.996 2.15-2.787-.102-1.514-.308-3.005-.038-4.54.575-3.278 2.762-5.393 6.09-5.887 1.46-.217 2.883-.091 4.328.023 1.715.136 2.365-.386 2.805-2.044.3-1.13.665-2.237 1.228-3.27 1.93-3.543 5.08-4.846 8.952-3.698 1.094.324 2.11.805 3.067 1.43 1.425.932 2.54.736 3.582-.618.934-1.211 1.936-2.344 3.225-3.202 2.773-1.846 5.71-1.81 8.41.142a11.128 11.128 0 012.785 2.894c1.007 1.515 1.986 1.754 3.585.847 1.833-1.04 3.713-1.849 5.894-1.86 2.378-.011 4.137 1.023 5.483 2.889.99 1.37 1.537 2.936 1.947 4.558.385 1.52 1.096 2.042 2.674 1.948 1.442-.086 2.863-.352 4.33-.086 3.98.723 6.206 3.226 6.367 7.282.04 1.028-.066 2.043-.194 3.064-.213 1.702.29 2.407 1.91 2.91 1.25.39 2.51.75 3.661 1.398 3.533 1.986 4.658 4.817 3.425 8.672a15.805 15.805 0 01-1.448 3.182c-.929 1.581-.755 2.5.704 3.664.972.775 1.901 1.59 2.688 2.558 2.463 3.03 2.434 6.405-.11 9.356a14.665 14.665 0 01-2.397 2.25c-1.666 1.228-1.838 2.087-.829 3.853.865 1.514 1.524 3.092 1.779 4.845.387 2.667-.594 4.697-2.712 6.245-1.333.975-2.858 1.534-4.432 1.987-2.087.602-2.584 1.371-2.2 3.498.27 1.49.216 2.957-.126 4.418-1.022 4.365-4.57 5.815-8.79 5.526-.14-.01-.278-.051-.418-.076-3.107-.552-3.606.348-4.116 2.679-.243 1.108-.724 2.142-1.324 3.113-1.917 3.104-4.667 4.181-8.186 3.204-1.272-.353-2.44-.939-3.593-1.565-1.626-.885-2.588-.645-3.585.855-.792 1.192-1.761 2.217-2.958 3.011-3.142 2.084-6.377 1.793-9.315-.837-.74-.664-1.39-1.412-1.995-2.201-1.17-1.53-2.196-1.712-3.814-.699-1.49.933-3.083 1.62-4.85 1.726-3.522.213-6.091-1.498-7.469-4.94-.34-.85-.596-1.737-.852-2.619-.422-1.446-1.285-2.037-2.752-1.832-1.549.217-3.094.292-4.645-.006-4.963-.955-6.285-4.907-5.905-9.089.025-.281.098-.558.12-.839.18-2.33-.128-2.76-2.406-3.303-1.317-.314-2.578-.755-3.724-1.493-2.77-1.784-3.825-4.482-3.058-7.688.35-1.464.96-2.805 1.701-4.101.857-1.502.65-2.427-.745-3.455-1.202-.886-2.33-1.85-3.205-3.176zM72.764 16.53c-2.38-1.368-3.343-3.653-3.959-6.15-.583-2.367-1.715-2.905-3.95-1.87a72.807 72.807 0 01-3.306 1.445c-2.729 1.102-5.12.51-7.217-1.492-.848-.809-1.615-1.687-2.365-2.584-1.148-1.374-2.594-1.445-3.84-.173-.818.833-1.549 1.753-2.382 2.568-2.15 2.106-4.68 2.626-7.534 1.707a16.1 16.1 0 01-3.09-1.395c-1.917-1.102-3.182-.622-3.946 1.477-.448 1.229-.842 2.484-1.388 3.669-.953 2.069-2.575 3.28-4.865 3.668-1.709.29-3.38.046-5.072-.029-1.793-.08-2.62.776-2.524 2.578.06 1.128.238 2.248.196 3.385-.121 3.232-1.558 5.594-4.536 6.963-1.002.46-2.062.736-3.12 1.021-1.755.473-2.382 1.936-1.495 3.524.622 1.115 1.21 2.241 1.605 3.46.865 2.675.402 5.075-1.41 7.238-.784.934-1.716 1.683-2.66 2.43-1.581 1.248-1.598 2.78-.025 4.047 1.19.958 2.355 1.946 3.227 3.212 1.035 1.503 1.551 3.134 1.227 5.005-.296 1.71-1.013 3.227-1.857 4.708-1.038 1.822-.432 3.255 1.58 3.788.648.172 1.302.339 1.933.564 3.045 1.087 5.039 3.094 5.462 6.409.18 1.412-.007 2.82-.117 4.233-.155 1.982.955 2.998 2.922 2.688 1.027-.162 2.045-.167 3.069-.163 3.553.016 5.686 1.514 6.93 4.855.37.995.686 2.01 1.083 2.993.662 1.638 1.957 2.08 3.5 1.269.907-.478 1.81-.982 2.761-1.355 3.188-1.248 6.036-.727 8.443 1.78.613.639 1.21 1.294 1.791 1.961 1.445 1.657 2.93 1.643 4.336-.078.876-1.072 1.78-2.115 2.882-2.964 1.533-1.18 3.204-1.723 5.163-1.265 1.64.384 3.133 1.1 4.636 1.808 2.28 1.076 3.375.57 3.934-1.86.345-1.5.872-2.929 1.784-4.168 2.149-2.92 5.235-3.27 8.49-2.872 3.09.377 3.815-.403 3.454-3.486-.552-4.706.5-8.172 5.858-9.842.776-.241 1.565-.472 2.297-.816 1.263-.595 1.648-1.767 1.05-3.017-.243-.51-.55-.99-.814-1.49-1.956-3.72-1.808-7.02.449-9.597.773-.884 1.64-1.704 2.662-2.261 1.696-.926 1.385-3.056.164-4.006a23.117 23.117 0 01-2.52-2.276c-1.369-1.435-2.124-3.118-2.05-5.175.075-2.1.922-3.897 1.912-5.667.923-1.65.434-2.952-1.352-3.597-1.164-.42-2.362-.76-3.492-1.256-2.022-.888-3.38-2.4-3.962-4.568-.411-1.532-.442-3.095-.206-4.634.446-2.902-.382-3.824-3.29-3.48-.176.02-.349.073-.524.09-2.003.185-3.96.057-5.932-.957z" fill="#0769CD"/><path d="M32.753 23.218c5.27-3.36 10.986-5.092 17.13-5.064 15.346.07 27.856 10.42 31.131 24.78 3.297 14.454-3.706 29.043-16.912 35.634-16.343 8.157-36.431.667-43.483-16.212-5.986-14.33-1.044-30.339 12.134-39.138zm-5.975 40.749c6.194 10.105 17.988 15.127 29.232 12.447 14.159-3.374 23.096-16.897 20.635-31.223-2.455-14.296-16.318-24.13-30.769-21.936-12.407 1.885-22.641 12.378-23.008 26.322-.134 5.09 1.221 9.863 3.91 14.39z" fill="#0769CD"/><path d="M35.048 48.121c.212-.174.455-.313.72-.385 1.037-.285 1.84.146 2.558.862 2.082 2.073 4.161 4.149 6.229 6.237.393.396.924.759 1.351.4.17-.143.292-.307.429-.444 5.062-5.05 10.12-10.105 15.172-15.166.653-.655 1.349-1.128 2.335-1 .884.116 1.514.552 1.881 1.362.39.857.253 1.658-.298 2.395-.168.225-.38.42-.58.62a55157.212 55157.212 0 01-17.274 17.271c-1.587 1.587-2.73 1.58-4.333-.021-2.781-2.777-5.57-5.545-8.334-8.339-1.284-1.297-1.228-2.665.144-3.792z" fill="#0769CD"/></g><defs><clipPath id="clip0_420_12"><path fill="#fff" d="M0 0h100v100H0z"/></clipPath></defs></svg>