<svg width="1566" height="851" fill="none" xmlns="http://www.w3.org/2000/svg"><path d="M1566 356.632c0 .759 0 1.518-.69 2.721-2.89.939-5.08 1.482-7.28 1.921-10.9 2.166-12.67 4.251-12.66 15.018 0 1.973.03 3.946-.34 6.228-.62 1.267-.84 2.223-1.37 3.556-.74 1.241-1.17 2.105-2.06 3.177-1.86 1.693-3.24 3.179-5.24 4.851-6.68 2.108-13.05 3.414-18.73 6.146-4.63 2.225-8.44 6.156-13.05 9.845-1.4 11.552-2.37 22.59-3.48 34.305.04 2.504.24 4.331.33 6.847-.1 1.532-.28 2.429-.06 3.208 4.94 17.222 3.51 20.14-13.02 27.411-2.21.972-4.06 2.771-6.66 4.356-3.97 2.285-7.36 4.4-11.86 7.216-.38-9.186-5.41-10.121-11.12-10.167-7.36-.06-14.72-.184-22.38-.541-.85-.54-1.36-.51-2.39-.581-9.89-3.931-19.25-7.451-28.95-11.095-.94 1.716-1.97 3.072-2.49 4.603-3.34 9.845-6.57 19.729-10.11 30.187-3.23 10.357-6.2 20.126-9.59 30.25-.64 1.823-.84 3.293-1.47 5.167-1.1 3.039-1.76 5.676-2.7 8.647-.26.619-.25.904-.69 1.609-3.93 9.142-6.18 17.114 4.45 23.427 2.53 1.501 2.11 7.985 2.54 12.428-1.85.862-3.19 1.475-5.15 1.899-4.21-1.192-9.31-4.199-11.11-2.83-5.97 4.519-8.88.718-13.07-2.285-2.77-1.986-6.9-3.82-9.96-3.246-5.08.954-9.79 3.9-15.23 5.965-1.3.216-2.03.474-3.39.764-12.74 3.72-24.96 7.036-36.81 11.391-2.58.947-5.66 5.916-5.25 8.511.85 5.334 5.24 3.508 9.19 1.982 1.48.168 2.48.212 3.91.838 1.46 4.635 3.82 8.877 3.28 12.707-2.89 20.469 3.32 39.213 9.78 58.666.91 3.888 1.97 7.069 2.59 10.336 1.47 7.843 3.18 15.843-8.55 17.381-1.56.204-2.87 2.311-4.56 3.764 1.83 2.624 3.4 4.879 4.84 7.448-.13.313-.01.98-.57 1.231-12.23 6.196-13.61 10.163-9.54 26.492-.04 3.602-.04 6.48-.04 8.945-5.84-3.426-11.34-6.652-17.12-10.438-5.65-2.946-11.5-4.635-16.23-7.943-3.72-2.602-5.55-9.73-9.1-10.444-11.3-2.27-21.69-10.214-34.77-6.509-3.61-.183-6.5-.184-9.99-.543-11.6-1.22-22.6-2.08-34.11-3.201-4.31.006-8.11.272-12.49.472-1.34.053-2.1.172-3.54.192-2.89.502-5.1 1.104-8.02 1.586-3.49-.275-6.54.272-8.98-.712-8.11-3.273-15-2.167-21.62 4.397-3.06-.055-5.42-.1-8.32-.326-1.3-.193-2.06-.205-3.26-.638-8.08-4.17-15.74-7.918-23.61-12.124-1.97-1.344-3.74-2.231-5.87-3.592-7.04-6.556-14.13-8.221-22.07-2.767-1.58 1.089-3.51 1.782-5.38 2.324-8.51 2.475-12.73 8.21-14.17 16.893-1.15 6.866-3.37 13.551-5.75 20.307-3.01-.647-5.39-1.285-8.29-2.33-5.26-2.233-9.99-4.057-15.01-6.219-1.3-.754-2.33-1.171-3.88-1.927-11.496-2.38-22.476-4.421-34.002-6.67-1.316-.131-2.087-.053-3.356-.199-3.014-.074-5.53.075-8.672.135-3.877 1.849-8.433 3.005-10.135 5.869-5.438 9.152-9.818 18.938-15.12 28.811-3.202 2.544-5.695 5.08-8.638 6.875-2.834 1.73-6.725 2.018-9.111 4.125-6.237 5.508-11.905 11.664-18.405 17.54-2.427.558-4.25 1.136-6.674 1.737-16.214 10.608-28.231 24.588-39.021 40.671-1.175 3.265-2.202 6.156-2.227 9.056-.087 10.287-.366 10.613-10.568 7.619-3.174-2.265-6.044-4.04-9.386-6.431-.451-1.74-.67-2.932-.371-3.976 3.679-12.863 2.124-15.442-11.298-18.408-1.237-.542-2.178-.681-3.735-.966-1.874-.238-3.131-.331-4.907-.863-4.652-.819-8.785-1.198-13.581-1.838-7.521-.962-14.379-1.664-21.397-3.001-1.12-8.177-2.762-15.711-2.853-23.264-.099-8.241-3.571-12.568-11.403-13.92-2.74-.472-5.448-1.13-8.539-2.428.34-13.324 1.049-25.923 1.921-39.278.063-5.389-.036-10.022-.097-15.138-1.597-.712-3.231-.94-5.483-1.256-1.864-.138-3.108-.186-4.542-.783-1.23-2.943-2.271-5.336-3.29-8.347-1.656-4.175-3.334-7.734-5.113-11.851-1.713-2.581-3.325-4.602-4.972-6.535-.035.088.14.015-.029-.547-4.676-6.478-9.182-12.394-14.008-18.87-8.096 1.888-15.873 4.338-24.443 6.725-9.326-.213-17.859-.365-27.173-.653-7.649-.026-14.515.083-22.098.13-13.445 2.072-26.173 4.212-38.903 6.336-5.837.974-10.926.309-13.5-6.766-4.542-6.097-8.833-11.67-13.134-17.605-.186-.898-.554-1.16-1.315-1.671-1.307-1.978-2.416-3.433-3.559-4.792-.034.096.159.029-.018-.479a44.311 44.311 0 00-3.549-4.5c-.028.078.135.048-.006-.488-1.218-1.43-2.295-2.323-3.256-3.821-1.672-3.67-3.458-6.735-5.445-10.321-5.253-4.452-10.305-8.383-15.619-12.73-1.086-.919-1.91-1.423-2.791-1.921-.057.006.06-.007-.238-.489-4.738-3.489-9.179-6.496-13.873-9.998-4.143-3.089-8.033-5.684-12.327-8.752-7.388-5.143-14.371-9.814-21.635-14.989-8.282-6.091-16.152-11.884-24.377-17.116-2.015-1.282-5.187-.733-8.396-1.085-1.907.561-3.245 1.181-5.124 1.768-1.435.487-2.327 1.007-3.578 1.472-.358-.054-.981.314-1.626.277-25.167 8.499-49.689 17.034-74.772 25.524-1.903.581-3.244 1.207-5.162 1.785-1.252 1.068-1.927 2.184-2.737 4.042-.099 4.239-.061 7.738-.158 12.018-.542 46.925-.949 93.069-1.498 139.963-.059 4.822.024 8.892 0 13.751-.026 8.78.052 16.773-.014 25.535-.146 6.485-.149 12.199-.834 18.142-19.853 4.144-20.381 3.888-29.899-13.447-.94-1.713-2.061-3.326-3.093-5.108.005-.121-.148-.311-.187-.934-5.512-13.354-13.601-24.058-24.95-32.034-7.376-5.184-15.37-8.351-25.266-5.089-5.556 1.146-11.163 1.275-15.137 3.896-12.084 7.968-23.537 16.899-35.824 25.071-.284-5.862.022-11.34.509-17.366.192-1.315.204-2.082.641-3.298 2.84-8.704 5.255-16.958 7.874-25.62.126-.701.048-.995.122-1.88-1.499-3.087-3.151-5.583-5.216-8.589-2.818-1.035-5.253-1.453-7.625-2.105-7.104-1.95-14.184-3.991-21.351-6.536-1.041-2.016-2.004-3.494-3.053-5.559-3.428-3.097-6.941-5.414-10.054-8.184-2.188-1.946-4.761-4.239-5.516-6.855-1.379-4.784-.511-10.362-2.41-14.825-4.899-11.513-10.797-22.599-16.344-34.361-1.023-1.35-1.998-2.194-3.26-3.577-6.313-3.96-12.339-7.381-18.255-11.339-.052-2.343-.213-4.149.113-6.464 6.817-7.248 15.38-6.072 21.524-2.86 8.691 4.543 16.499 3.66 25.61 1.685-5.146-4.593-10.341-8.468-14.525-13.237-2.704-3.081-3.928-7.47-5.303-11.436 2.636-1.366 4.76-2.568 7.436-4.081 1.592-3.426 2.631-6.541 3.931-10.149 2.383-1.954 4.506-3.413 7.278-4.934 15.213-5.731 29.912-6.611 45.208-2.807 7.207 1.792 14.929 1.497 22.417 2.148l.384-2.38c-3.006-1.268-6.011-2.535-9.338-4.289-5.597-2.575-9.254-5.838-8.427-12.501a1332.613 1332.613 0 0011.999-28.427c.212-8.228.219-15.685.39-23.911.121-3.596-.103-6.433.075-9.244.315-4.978.621-10.679-5.421-11.635-8.112-1.284-16.863-9.239-25.172 1.186-3.916 1.279-7.28 2.313-11.031 2.909-5.797-4.156-11.207-7.873-17.178-11.874-16.446-5.006-29.263 2.398-42.558 10.394-3.613 2.175-6.62 4.232-9.656 6.247-5.564 3.694-10.883 7.873-16.783 10.917-7.78 4.014-16.02 7.129-24.711 10.491-10.94-3.449-18.668-10.115-24.178-18.997 6.258-.362 11.82-.499 17.383-.635-1.987-5.481-3.975-10.963-6.07-17.06-3.378-7.048-6.65-13.481-10.114-20.414-1.38-1.805-2.566-3.111-3.894-4.973-5.726-4.911-11.31-9.265-17.403-14.097-8.657-.906-16.817-1.191-24.946-1.856-2.302-.189-4.513-1.491-6.816-2.838-.629-1.914-1.209-3.273-1.713-5.413-.515-23.133 5.07-20.898-20.568-30.591-1.047-.396-2.125-.706-3.189-1.056 0-4.612 0-9.224.665-14.499 2.413-1.165 4.97-1.101 5.776-2.262 4.605-6.623 9.022-13.406 13.039-20.403 2.46-4.286 2.325-8.632-3.048-11.97a172.662 172.662 0 01-2.561-18.052c2.41-5.781 3.182-12.984 7.069-15.699 6.988-4.88 9.896-10.502 11.429-18.464.9-4.68 4.39-9.158 7.725-12.796.614-.67 6.065 3.121 9.468 5.376 2.661 3.556 5.138 6.588 7.838 10.103a56.335 56.335 0 002.82 3.892c.09.068.133.29.371.818 6.157 12.488 9.377 14.109 19.95 10.099 3.093-2.231 5.592-4.409 8.513-7.043-2.169-10.987-4.76-21.517-7.253-32.615 1.159-1.877 2.221-3.186 3.771-4.263 5.953-2.711 11.417-5.654 16.785-8.649-.098-.053-.008.15.626.005 7.051-1.739 12.363-3.982 7.759-12.778 4.031-2.625 7.938-4.602 12.45-6.567 9.353-6.052 18.099-12.115 27.326-18.414 1.271-1.808 2.059-3.381 3.383-5.318 3.567-1.915 6.598-3.465 10.369-5.394l.622-4.92c6.222 1.214 11.717 2.286 17.695 3.849 1.662 3.019 2.84 5.548 4.008 8.081 14.424.693 14.424.693 18.472-8.212 6.795-.959 12.872-1.685 17.343-2.219 5.574 3.74 10.727 7.196 16.503 10.828 1.909.093 3.196.011 5.131.156 9.919 2.026 20.236-.736 28.18 7.212 1.088 1.465 2.234 2.312 3.343 3.793 2.359 2.931 4.693 5.298 7.165 7.508 4.495 4.02 9.073 7.946 13.665 12.549 6.721 4.351 10.724 9.142 8.82 17.652-.476 2.128 2.296 4.986 3.576 7.509 2.023-2.319 4.247-4.499 5.972-7.024.683-.999-.1-2.907.404-4.148 1.28-3.148 2.616-8.488 4.461-8.721 3.618-.458 7.827 1.512 11.355 3.33 2.86 1.474 5.081 4.197 7.6 6.315.015-.052-.077.004.24.488 4.849 2.265 9.38 4.044 14.345 5.991 1.031.055 1.629-.058 2.781-.128 7.419-2.114 14.077-4.342 15.268-13.125.183-1.351 2.707-2.365 4.118-3.571 1.991-1.702 3.953-3.438 6.302-5.374.688-.686 1.001-1.158 2.01-1.693 4.086.398 10.026 2.067 10.466 1.132 3.583-7.617 9.431-3.778 14.874-3.309 1.122.773 1.979 1.003 2.622 1.507 14.758 11.57 14.754 11.576 23.222-4.131 8.812 1.305 18.206-3.858 24.733 5.741 8.456 12.372 19.324 19.917 34.489 21.405 2.342 1.39 4.223 2.477 6.219 4.036.694.675 1.274.878 2.399 1.356 1.325.066 2.105-.141 3.433-.314 1.986-1.008 3.425-2.05 4.819-3.125-.045-.034.008.068.547-.169 1.76-2.114 3.223-3.877 4.159-5.888 4.483-9.631 4.727-9.584 12.865-2.47 1.961 1.713 5.081 2.836 7.702 2.904 7.291.191 14.645.116 21.89-.65 10.524-1.113 18.016-6.044 18.982-18.484.169-3.503.139-6.327.562-9.307.587-3.272.722-6.389.801-9.835-.057-.329-.557-.771-.742-1.153-.902-.606-1.617-.83-2.697-1.168-.364-.114-1.128-.138-1.286-.574-.687-.652-1.217-.868-2.348-1.403-3.515-1.139-6.429-1.958-9.827-2.99-3.676-2.45-6.869-4.686-10.544-7.247-3.108-.676-5.734-1.027-8.873-1.555-2.317-.117-4.122-.056-6.453-.359-.056-3.205.413-6.047 1.127-10.376-5.361-1.49-10.866-3.02-16.23-5.04.251-1.157.36-1.825 1.019-2.743 6.143-3.478 11.768-6.65 17.32-9.946 5.943-3.529 11.817-7.175 18.285-11.033.566-1.803.568-3.345.436-5.377-1.57-1.922-3.005-3.355-4.604-5.393-1.041-5.203-1.919-9.799-2.379-14.773 5.207-4.541 9.995-8.704 15.54-12.878 5.813-.173 10.871-.334 16.526-.29 5.967-.186 11.336-.577 18.972-1.134-11.038-14.316-27.316-11.344-40.682-19.894l16.95-11.64-1.123-1.751c-5.034 0-10.067 0-15.653-.158-1.312-.085-2.072-.011-3.366-.17-1.618-.595-2.7-.957-3.429-1.83 8.21-4.568 13.942-9.328 6.215-17.22 11.439-13.255 22.843-3.863 34.693-1.775 6.942-6.28 10.437-6.223 19.167-.23 7.708-2.81 14.493-5.116 21.12-7.81 1.846-.75 3.228-2.65 5.487-4.227 3.357-.993 6.006-2.03 8.752-2.53a2765.504 2765.504 0 0147.27-8.19c5.559-.044 10.358.053 15.115-.347 2.072-.174 5.862-1.517 5.816-2.08-.836-10.296 9.708-9.624 14.402-14.617 3.256-.105 6.022-.495 8.869-.971.083-.086.311-.149.923-.445 6.24-.182 12.017.802 17.464-.14 10.19-1.759 20.189-4.635 30.697-6.954.671-.074.912-.24 1.884-.35 12.97-3.198 25.26-6.284 37.394-9.897 1.767-.527 3.955-3.584 3.94-5.455-.047-6.209 3.294-6.951 8.398-7.778 3.909-.634 7.412-3.787 11.633-6.167 5.191-1.853 9.845-3.358 15.11-4.603 10.929 3.103 21.247 5.945 31.944 9.236 6.458 5.163 12.51 4.282 19.166.308 11.809-5.476 14.463-4.359 18.261 7.601 1.752 5.52 3.304 11.103 5.036 17.252 2.31 5.35 4.531 10.104 6.576 15.467-.177 1.867-.18 3.126-.508 4.78-.703 1.342-1.08 2.288-1.974 3.538-2.309 1.98-4.1 3.656-5.892 5.333 2.662 2.563 4.956 5.853 8.104 7.455 2.42 1.23 5.914.335 9.38.76 6.665 6.379 8.982.75 11.732-3.481-.046-.034.015.067.567-.146 4.77.36 8.988.933 13.18 1.503l-.479-8.586 2.867-1.03 10.312 24.066 9.247-2.95c-1.47-3.036-2.66-5.51-3.19-8.147 13.89 3.467 26.02 14.596 41.34 6.293.44 1.752.59 2.959.26 4.494-4.23 2.9-7.98 5.47-12.3 8.364-3.96 7.495-4.26 14.214.04 18.407 9.19-3.079 16.79-5.624 24.7-7.662 3.19 1.799 6.05 3.091 9.08 4.906 1.1 2.163 2.03 3.801 2.6 4.794 5.99-7.146 10.84-12.927 16.33-18.832 3.79-1.149 6.87-2.508 10.09-3.136 8.7-1.696 14.72-6.218 17.56-15.456 14.16-5.379 27.8-10.37 42.08-15.371 3.39-1.091 6.14-2.17 8.88-3.25.71.485 1.42.97 2.12 1.454-2.06 4.04-4.12 8.079-6.79 12.088-2.19.098-3.78.225-5.92.098-1.69.276-2.82.807-4.02 1.802.64 1.484 1.35 2.502 2.14 3.649.08.128.26.379.57.83 8.3 7.317 16.28 14.181 24.46 21.502 1.29 1.144 2.38 1.832 3.78 2.999 9.71 8.664 19.12 16.848 28.61 25.497.54.853 1 1.239 1.62 2.183 5.76 8.668 11.36 16.78 17.07 25.475 6.2 9.787 12.67 18.768 18.26 28.265 4.49 7.608 7.92 15.843 11.91 24.35 4 7.708 7.9 14.866 11.93 22.634 4.13 7.7 8.14 14.79 12.15 22.356.58 1.158 1.15 1.84 1.83 3.134 5.29 9.752 7.02 10.025 14.71 2.729.98-.93 1.62-2.225 2.89-3.56.78-1.179 1.09-2.149 1.89-3.5.9-6.32 3.45-10.857 9.71-11.519 7.13-.753 13.2 1.582 16.79 8.901-.07 1.346-.04 2.116-.3 3.337.47 1.789 1.22 3.126 2.54 4.591 1.34-.023 2.11-.174 3.44-.26 1.31-.005 2.07-.077 3.37.143 3.67 6.864 7.26 12.381 16.01 11.85 8.16-.495 16.44.579 24.54-.226 4.05-.401 7.9-3.336 11.73-5.336 8.67-4.529 17.02-10.192 27.62-6.292 12.42 4.57 21.79 12.7 28.38 24.694.4 1.98.81 3.403 1.08 5.449.09 1.811.33 2.999.6 4.744.81 2.166 1.61 3.775 2.42 5.352.02-.031-.02.042.34.614 1.34 1.051 2.29 1.874 3.3 1.957 11.73.962 21.43 4.401 24.66 17.629 1.09 4.491 2.92 9.227 5.77 12.738 2.61 3.206 6.78 5.889 10.76 7.033 5.4 1.551 11.66.365 16.87 2.255 7.2 2.618 12.41 2.108 16.83-4.971 1.87-1.35 3.23-2.529 5.18-3.833 3.76-1.568 6.92-3.011 10.07-4.454.32.605.64 1.21.95 1.815a315.965 315.965 0 00-3.2 3.483c.02.026 0-.039-.43.262.31 2.255 1.04 4.21 1.85 6.608.95 1.195 1.83 1.948 2.95 3.2a66.304 66.304 0 003.82 4.618c.02-.051-.08-.012.03.579 2.64 7.862 8.89 9.71 15.4 11.176z" fill="#0769CD"/><path d="M570.256 399.088h41.6v18.944h-41.6v-18.944zm1.792 35.328h46.848V454H546.96v-89.6h70.272v19.584h-45.184v50.432zM626.688 454l39.552-89.6h24.96l39.68 89.6h-26.368l-30.976-77.184h9.984L652.544 454h-25.856zm21.632-17.408l6.528-18.688h43.776l6.528 18.688H648.32zm125.713 19.2c-7.339 0-14.421-.896-21.248-2.688-6.741-1.877-12.245-4.267-16.512-7.168l8.32-18.688c4.011 2.56 8.619 4.693 13.824 6.4 5.291 1.621 10.539 2.432 15.744 2.432 3.499 0 6.315-.299 8.448-.896 2.133-.683 3.669-1.536 4.608-2.56 1.024-1.109 1.536-2.389 1.536-3.84 0-2.048-.939-3.669-2.816-4.864-1.877-1.195-4.309-2.176-7.296-2.944a227.694 227.694 0 00-9.984-2.304 108.644 108.644 0 01-10.88-2.944c-3.584-1.195-6.869-2.731-9.856-4.608a23.722 23.722 0 01-7.296-7.552c-1.877-3.157-2.816-7.125-2.816-11.904 0-5.376 1.451-10.24 4.352-14.592 2.987-4.352 7.424-7.851 13.312-10.496 5.888-2.645 13.227-3.968 22.016-3.968a73.1 73.1 0 0117.28 2.048c5.717 1.28 10.795 3.2 15.232 5.76l-7.808 18.816c-4.267-2.304-8.491-4.011-12.672-5.12-4.181-1.195-8.235-1.792-12.16-1.792-3.499 0-6.315.384-8.448 1.152-2.133.683-3.669 1.621-4.608 2.816-.939 1.195-1.408 2.56-1.408 4.096 0 1.963.896 3.541 2.688 4.736 1.877 1.109 4.309 2.048 7.296 2.816 3.072.683 6.4 1.408 9.984 2.176a97.57 97.57 0 0110.88 2.944c3.669 1.109 6.997 2.645 9.984 4.608 2.987 1.877 5.376 4.395 7.168 7.552 1.877 3.072 2.816 6.955 2.816 11.648 0 5.205-1.493 10.027-4.48 14.464-2.901 4.352-7.296 7.851-13.184 10.496-5.803 2.645-13.141 3.968-22.016 3.968zM850.681 454v-37.888l5.888 15.232-40.064-66.944h26.752l28.928 48.512h-15.488l29.056-48.512h24.576l-39.936 66.944 5.632-15.232V454h-25.344zm95.662 0l-29.952-89.6h13.184l27.52 82.688h-6.656l28.544-82.688h11.776l27.901 82.688h-6.4l27.91-82.688h12.16l-29.95 89.6h-13.44l-26.117-76.672h3.456L960.039 454h-13.696zm109.677 0l40.58-89.6h12.67l40.7 89.6h-13.44l-36.22-82.432h5.12L1069.21 454h-13.19zm17.28-22.4l3.46-10.24h50.43l3.71 10.24h-57.6zm110.78 22.4v-34.304l2.94 7.936-38.53-63.232h13.7l32.38 53.376h-7.42l32.51-53.376h12.67l-38.4 63.232 2.82-7.936V454h-12.67z" fill="#fff"/></svg>