<svg width="1566" height="851" viewBox="0 0 1566 851" fill="none" xmlns="http://www.w3.org/2000/svg">
<path d="M1566 356.632C1566 357.391 1566 358.15 1565.31 359.353C1562.42 360.292 1560.23 360.835 1558.03 361.274C1547.13 363.44 1545.36 365.525 1545.37 376.292C1545.37 378.265 1545.4 380.238 1545.03 382.52C1544.41 383.787 1544.19 384.743 1543.66 386.076C1542.92 387.317 1542.49 388.181 1541.6 389.253C1539.74 390.946 1538.36 392.432 1536.36 394.104C1529.68 396.212 1523.31 397.518 1517.63 400.25C1513 402.475 1509.19 406.406 1504.58 410.095C1503.18 421.647 1502.21 432.685 1501.1 444.4C1501.14 446.904 1501.34 448.731 1501.43 451.247C1501.33 452.779 1501.15 453.676 1501.37 454.455C1506.31 471.677 1504.88 474.595 1488.35 481.866C1486.14 482.838 1484.29 484.637 1481.69 486.222C1477.72 488.507 1474.33 490.622 1469.83 493.438C1469.45 484.252 1464.42 483.317 1458.71 483.271C1451.35 483.211 1443.99 483.087 1436.33 482.73C1435.48 482.19 1434.97 482.22 1433.94 482.149C1424.05 478.218 1414.69 474.698 1404.99 471.054C1404.05 472.77 1403.02 474.126 1402.5 475.657C1399.16 485.502 1395.93 495.386 1392.39 505.844C1389.16 516.201 1386.19 525.97 1382.8 536.094C1382.16 537.917 1381.96 539.387 1381.33 541.261C1380.23 544.3 1379.57 546.937 1378.63 549.908C1378.37 550.527 1378.38 550.812 1377.94 551.517C1374.01 560.659 1371.76 568.631 1382.39 574.944C1384.92 576.445 1384.5 582.929 1384.93 587.372C1383.08 588.234 1381.74 588.847 1379.78 589.271C1375.57 588.079 1370.47 585.072 1368.67 586.441C1362.7 590.96 1359.79 587.159 1355.6 584.156C1352.83 582.17 1348.7 580.336 1345.64 580.91C1340.56 581.864 1335.85 584.81 1330.41 586.875C1329.11 587.091 1328.38 587.349 1327.02 587.639C1314.28 591.359 1302.06 594.675 1290.21 599.03C1287.63 599.977 1284.55 604.946 1284.96 607.541C1285.81 612.875 1290.2 611.049 1294.15 609.523C1295.63 609.691 1296.63 609.735 1298.06 610.361C1299.52 614.996 1301.88 619.238 1301.34 623.068C1298.45 643.537 1304.66 662.281 1311.12 681.734C1312.03 685.622 1313.09 688.803 1313.71 692.07C1315.18 699.913 1316.89 707.913 1305.16 709.451C1303.6 709.655 1302.29 711.762 1300.6 713.215C1302.43 715.839 1304 718.094 1305.44 720.663C1305.31 720.976 1305.43 721.643 1304.87 721.894C1292.64 728.09 1291.26 732.057 1295.33 748.386C1295.29 751.988 1295.29 754.866 1295.29 757.331C1289.45 753.905 1283.95 750.679 1278.17 746.893C1272.52 743.947 1266.67 742.258 1261.94 738.95C1258.22 736.348 1256.39 729.22 1252.84 728.506C1241.54 726.236 1231.15 718.292 1218.07 721.997C1214.46 721.814 1211.57 721.813 1208.08 721.454C1196.48 720.234 1185.48 719.374 1173.97 718.253C1169.66 718.259 1165.86 718.525 1161.48 718.725C1160.14 718.778 1159.38 718.897 1157.94 718.917C1155.05 719.419 1152.84 720.021 1149.92 720.503C1146.43 720.228 1143.38 720.775 1140.94 719.791C1132.83 716.518 1125.94 717.624 1119.32 724.188C1116.26 724.133 1113.9 724.088 1111 723.862C1109.7 723.669 1108.94 723.657 1107.74 723.224C1099.66 719.054 1092 715.306 1084.13 711.1C1082.16 709.756 1080.39 708.869 1078.26 707.508C1071.22 700.952 1064.13 699.287 1056.19 704.741C1054.61 705.83 1052.68 706.523 1050.81 707.065C1042.3 709.54 1038.08 715.275 1036.64 723.958C1035.49 730.824 1033.27 737.509 1030.89 744.265C1027.88 743.618 1025.5 742.98 1022.6 741.935C1017.34 739.702 1012.61 737.878 1007.59 735.716C1006.29 734.962 1005.26 734.545 1003.71 733.789C992.214 731.409 981.234 729.368 969.708 727.119C968.392 726.988 967.621 727.066 966.352 726.92C963.338 726.846 960.822 726.995 957.68 727.055C953.803 728.904 949.247 730.06 947.545 732.924C942.107 742.076 937.727 751.862 932.425 761.735C929.223 764.279 926.73 766.815 923.787 768.61C920.953 770.34 917.062 770.628 914.676 772.735C908.439 778.243 902.771 784.399 896.271 790.275C893.844 790.833 892.021 791.411 889.597 792.012C873.383 802.62 861.366 816.6 850.576 832.683C849.401 835.948 848.374 838.839 848.349 841.739C848.262 852.026 847.983 852.352 837.781 849.358C834.607 847.093 831.737 845.318 828.395 842.927C827.944 841.187 827.725 839.995 828.024 838.951C831.703 826.088 830.148 823.509 816.726 820.543C815.489 820.001 814.548 819.862 812.991 819.577C811.117 819.339 809.86 819.246 808.084 818.714C803.432 817.895 799.299 817.516 794.503 816.876C786.982 815.914 780.124 815.212 773.106 813.875C771.986 805.698 770.344 798.164 770.253 790.611C770.154 782.37 766.682 778.043 758.85 776.691C756.11 776.219 753.402 775.561 750.311 774.263C750.651 760.939 751.36 748.34 752.232 734.985C752.295 729.596 752.196 724.963 752.135 719.847C750.538 719.135 748.904 718.907 746.652 718.591C744.788 718.453 743.544 718.405 742.11 717.808C740.88 714.865 739.839 712.472 738.82 709.461C737.164 705.286 735.486 701.727 733.707 697.61C731.994 695.029 730.382 693.008 728.735 691.075C728.7 691.163 728.875 691.09 728.706 690.528C724.03 684.05 719.524 678.134 714.698 671.658C706.602 673.546 698.825 675.996 690.255 678.383C680.929 678.17 672.396 678.018 663.082 677.73C655.433 677.704 648.567 677.813 640.984 677.86C627.539 679.932 614.811 682.072 602.081 684.196C596.244 685.17 591.155 684.505 588.581 677.43C584.039 671.333 579.748 665.76 575.447 659.825C575.261 658.927 574.893 658.665 574.132 658.154C572.825 656.176 571.716 654.721 570.573 653.362C570.539 653.458 570.732 653.391 570.555 652.883C569.264 651.019 568.149 649.662 567.006 648.383C566.978 648.461 567.141 648.431 567 647.895C565.782 646.465 564.705 645.572 563.744 644.074C562.072 640.404 560.286 637.339 558.299 633.753C553.046 629.301 547.994 625.37 542.68 621.023C541.594 620.104 540.77 619.6 539.889 619.102C539.832 619.108 539.949 619.095 539.651 618.613C534.913 615.124 530.472 612.117 525.778 608.615C521.635 605.526 517.745 602.931 513.451 599.863C506.063 594.72 499.08 590.049 491.816 584.874C483.534 578.783 475.664 572.99 467.439 567.758C465.424 566.476 462.252 567.025 459.043 566.673C457.136 567.234 455.798 567.854 453.919 568.441C452.484 568.928 451.592 569.448 450.341 569.913C449.983 569.859 449.36 570.227 448.715 570.19C423.548 578.689 399.026 587.224 373.943 595.714C372.04 596.295 370.699 596.921 368.781 597.499C367.529 598.567 366.854 599.683 366.044 601.541C365.945 605.78 365.983 609.279 365.886 613.559C365.344 660.484 364.937 706.628 364.388 753.522C364.329 758.344 364.412 762.414 364.388 767.273C364.362 776.053 364.44 784.046 364.374 792.808C364.228 799.293 364.225 805.007 363.54 810.95C343.687 815.094 343.159 814.838 333.641 797.503C332.701 795.79 331.58 794.177 330.548 792.395C330.553 792.274 330.4 792.084 330.361 791.461C324.849 778.107 316.76 767.403 305.411 759.427C298.035 754.243 290.041 751.076 280.145 754.338C274.589 755.484 268.982 755.613 265.008 758.234C252.924 766.202 241.471 775.133 229.184 783.305C228.9 777.443 229.206 771.965 229.693 765.939C229.885 764.624 229.897 763.857 230.334 762.641C233.174 753.937 235.589 745.683 238.208 737.021C238.334 736.32 238.256 736.026 238.33 735.141C236.831 732.054 235.179 729.558 233.114 726.552C230.296 725.517 227.861 725.099 225.489 724.447C218.385 722.497 211.305 720.456 204.138 717.911C203.097 715.895 202.134 714.417 201.085 712.352C197.657 709.255 194.144 706.938 191.031 704.168C188.843 702.222 186.27 699.929 185.515 697.313C184.136 692.529 185.004 686.951 183.105 682.488C178.206 670.975 172.308 659.889 166.761 648.127C165.738 646.777 164.763 645.933 163.501 644.55C157.188 640.59 151.162 637.169 145.246 633.211C145.194 630.868 145.033 629.062 145.359 626.747C152.176 619.499 160.739 620.675 166.883 623.887C175.574 628.43 183.382 627.547 192.493 625.572C187.347 620.979 182.152 617.104 177.968 612.335C175.264 609.254 174.04 604.865 172.665 600.899C175.301 599.533 177.425 598.331 180.101 596.818C181.693 593.392 182.732 590.277 184.032 586.669C186.415 584.715 188.538 583.256 191.31 581.735C206.523 576.004 221.222 575.124 236.518 578.928C243.725 580.72 251.447 580.425 258.935 581.076C259.063 580.283 259.191 579.489 259.319 578.696C256.313 577.428 253.308 576.161 249.981 574.407C244.384 571.832 240.727 568.569 241.554 561.906C245.679 552.447 249.513 543.349 253.553 533.479C253.765 525.251 253.772 517.794 253.943 509.568C254.064 505.972 253.84 503.135 254.018 500.324C254.333 495.346 254.639 489.645 248.597 488.689C240.485 487.405 231.734 479.45 223.425 489.875C219.509 491.154 216.145 492.188 212.394 492.784C206.597 488.628 201.187 484.911 195.216 480.91C178.77 475.904 165.953 483.308 152.658 491.304C149.045 493.479 146.038 495.536 143.002 497.551C137.438 501.245 132.119 505.424 126.219 508.468C118.439 512.482 110.199 515.597 101.508 518.959C90.5677 515.51 82.84 508.844 77.3301 499.962C83.5885 499.6 89.1508 499.463 94.7131 499.327C92.7255 493.846 90.7378 488.364 88.6437 482.267C85.2652 475.219 81.9934 468.786 78.5291 461.853C77.1497 460.048 75.9626 458.742 74.6345 456.88C68.9092 451.969 63.3248 447.615 57.2316 442.783C48.5748 441.877 40.4151 441.592 32.2865 440.927C29.9843 440.738 27.7728 439.436 25.4704 438.089C24.8411 436.175 24.2611 434.816 23.7565 432.676C23.2423 409.543 28.8261 411.778 3.18864 402.085C2.14222 401.689 1.06361 401.379 0 401.029C0 396.417 0 391.805 0.664833 386.53C3.07795 385.365 5.63426 385.429 6.44098 384.268C11.0461 377.645 15.4634 370.862 19.48 363.865C21.9405 359.579 21.8045 355.233 16.432 351.895C15.238 345.776 14.4371 340.109 13.8709 333.843C16.2812 328.062 17.0527 320.859 20.9396 318.144C27.9277 313.264 30.8364 307.642 32.369 299.68C33.2699 295 36.7599 290.522 40.0943 286.884C40.7084 286.214 46.1588 290.005 49.5615 292.26C52.2231 295.816 54.7001 298.848 57.3999 302.363C58.4581 303.959 59.2935 305.074 60.2192 306.255C60.3096 306.323 60.3531 306.545 60.591 307.073C66.7475 319.561 69.9678 321.182 80.5414 317.172C83.6344 314.941 86.1328 312.763 89.0536 310.129C86.8853 299.142 84.2946 288.612 81.8007 277.514C82.9599 275.637 84.0224 274.328 85.5724 273.251C91.5246 270.54 96.9892 267.597 102.357 264.602C102.259 264.549 102.349 264.752 102.983 264.607C110.034 262.868 115.346 260.625 110.742 251.829C114.773 249.204 118.68 247.227 123.192 245.262C132.545 239.21 141.291 233.147 150.518 226.848C151.789 225.04 152.577 223.467 153.901 221.53C157.468 219.615 160.499 218.065 164.27 216.136C164.359 215.434 164.607 213.473 164.892 211.216C171.114 212.43 176.609 213.502 182.587 215.065C184.249 218.084 185.427 220.613 186.595 223.146C201.019 223.839 201.019 223.839 205.067 214.934C211.862 213.975 217.939 213.249 222.41 212.715C227.984 216.455 233.137 219.911 238.913 223.543C240.822 223.636 242.109 223.554 244.044 223.699C253.963 225.725 264.28 222.963 272.224 230.911C273.312 232.376 274.458 233.223 275.567 234.704C277.926 237.635 280.26 240.002 282.732 242.212C287.227 246.232 291.805 250.158 296.397 254.761C303.118 259.112 307.121 263.903 305.217 272.413C304.741 274.541 307.513 277.399 308.793 279.922C310.816 277.603 313.04 275.423 314.765 272.898C315.448 271.899 314.665 269.991 315.169 268.75C316.449 265.602 317.785 260.262 319.63 260.029C323.248 259.571 327.457 261.541 330.985 263.359C333.845 264.833 336.066 267.556 338.585 269.674C338.6 269.622 338.508 269.678 338.825 270.162C343.674 272.427 348.205 274.206 353.17 276.153C354.201 276.208 354.799 276.095 355.951 276.025C363.37 273.911 370.028 271.683 371.219 262.9C371.402 261.549 373.926 260.535 375.337 259.329C377.328 257.627 379.29 255.891 381.639 253.955C382.327 253.269 382.64 252.797 383.649 252.262C387.735 252.66 393.675 254.329 394.115 253.394C397.698 245.777 403.546 249.616 408.989 250.085C410.111 250.858 410.968 251.088 411.611 251.592C426.369 263.162 426.365 263.168 434.833 247.461C443.645 248.766 453.039 243.603 459.566 253.202C468.022 265.574 478.89 273.119 494.055 274.607C496.397 275.997 498.278 277.084 500.274 278.643C500.968 279.318 501.548 279.521 502.673 279.999C503.998 280.065 504.778 279.858 506.106 279.685C508.092 278.677 509.531 277.635 510.925 276.56C510.88 276.526 510.933 276.628 511.472 276.391C513.232 274.277 514.695 272.514 515.631 270.503C520.114 260.872 520.358 260.919 528.496 268.033C530.457 269.746 533.577 270.869 536.198 270.937C543.489 271.128 550.843 271.053 558.088 270.287C568.612 269.174 576.104 264.243 577.07 251.803C577.239 248.3 577.209 245.476 577.632 242.496C578.219 239.224 578.354 236.107 578.433 232.661C578.376 232.332 577.876 231.89 577.691 231.508C576.789 230.902 576.074 230.678 574.994 230.34C574.63 230.226 573.866 230.202 573.708 229.766C573.021 229.114 572.491 228.898 571.36 228.363C567.845 227.224 564.931 226.405 561.533 225.373C557.857 222.923 554.664 220.687 550.989 218.126C547.881 217.45 545.255 217.099 542.116 216.571C539.799 216.454 537.994 216.515 535.663 216.212C535.607 213.007 536.076 210.165 536.79 205.836C531.429 204.346 525.924 202.816 520.56 200.796C520.811 199.639 520.92 198.971 521.579 198.053C527.722 194.575 533.347 191.403 538.899 188.107C544.842 184.578 550.716 180.932 557.184 177.074C557.75 175.271 557.752 173.729 557.62 171.697C556.05 169.775 554.615 168.342 553.016 166.304C551.975 161.101 551.097 156.505 550.637 151.531C555.844 146.99 560.632 142.827 566.177 138.653C571.99 138.48 577.048 138.319 582.703 138.363C588.67 138.177 594.039 137.786 601.675 137.229C590.637 122.913 574.359 125.885 560.993 117.335C567.623 112.782 572.783 109.239 577.943 105.695C577.569 105.112 577.194 104.528 576.82 103.944C571.786 103.944 566.753 103.944 561.167 103.786C559.855 103.701 559.095 103.775 557.801 103.616C556.183 103.021 555.101 102.659 554.372 101.786C562.582 97.2183 568.314 92.4579 560.587 84.5666C572.026 71.3107 583.43 80.7027 595.28 82.7909C602.222 76.5111 605.717 76.5684 614.447 82.5617C622.155 79.7507 628.94 77.4449 635.567 74.7509C637.413 74.0005 638.795 72.1013 641.054 70.5244C644.411 69.5307 647.06 68.4939 649.806 67.9937C665.291 65.173 680.799 62.4811 697.076 59.8047C702.635 59.7596 707.434 59.8574 712.191 59.4572C714.263 59.283 718.053 57.9396 718.007 57.3768C717.171 47.081 727.715 47.7532 732.409 42.7604C735.665 42.6553 738.431 42.2649 741.278 41.7889C741.361 41.7035 741.589 41.6403 742.201 41.3439C748.441 41.1624 754.218 42.1457 759.665 41.2049C769.855 39.445 779.854 36.5695 790.362 34.25C791.033 34.1761 791.274 34.0103 792.246 33.9009C805.216 30.7018 817.506 27.6163 829.64 24.0027C831.407 23.4764 833.595 20.4191 833.58 18.5483C833.533 12.3394 836.874 11.5966 841.978 10.7697C845.887 10.1364 849.39 6.98314 853.611 4.6034C858.802 2.75034 863.456 1.24458 868.721 0C879.65 3.10287 889.968 5.94455 900.665 9.23624C907.123 14.3986 913.175 13.5183 919.831 9.54368C931.64 4.06787 934.294 5.18519 938.092 17.1454C939.844 22.6646 941.396 28.248 943.128 34.397C945.438 39.7462 947.659 44.5007 949.704 49.8638C949.527 51.7313 949.524 52.9902 949.196 54.6439C948.493 55.9855 948.116 56.9323 947.222 58.1817C944.913 60.1611 943.122 61.8378 941.33 63.5146C943.992 66.078 946.286 69.3682 949.434 70.9698C951.854 72.2007 955.348 71.3054 958.814 71.7306C965.479 78.1087 967.796 72.4806 970.546 68.2489C970.5 68.2145 970.561 68.3156 971.113 68.1029C975.883 68.4631 980.101 69.036 984.293 69.6055C984.142 66.8977 983.978 63.9587 983.814 61.0197C984.77 60.6768 985.725 60.3338 986.681 59.9908C990.031 67.8076 993.38 75.6243 996.993 84.0556C999.869 83.138 1002.92 82.1646 1006.24 81.1052C1004.77 78.0702 1003.58 75.5954 1003.05 72.959C1016.94 76.4264 1029.07 87.5549 1044.39 79.2523C1044.83 81.0042 1044.98 82.2107 1044.65 83.7463C1040.42 86.6455 1036.67 89.2156 1032.35 92.1103C1028.39 99.6046 1028.09 106.324 1032.39 110.517C1041.58 107.438 1049.18 104.893 1057.09 102.855C1060.28 104.654 1063.14 105.946 1066.17 107.761C1067.27 109.924 1068.2 111.562 1068.77 112.555C1074.76 105.409 1079.61 99.6279 1085.1 93.7233C1088.89 92.5742 1091.97 91.2148 1095.19 90.5874C1103.89 88.8913 1109.91 84.3694 1112.75 75.1314C1126.91 69.7524 1140.55 64.7615 1154.83 59.7595C1158.22 58.6687 1160.97 57.5891 1163.71 56.5095C1164.42 56.9945 1165.13 57.4794 1165.83 57.9644C1163.77 62.0034 1161.71 66.0425 1159.04 70.0523C1156.85 70.1503 1155.26 70.2775 1153.12 70.1505C1151.43 70.4264 1150.3 70.9566 1149.1 71.9521C1149.74 73.4358 1150.45 74.4541 1151.24 75.6009C1151.32 75.7293 1151.5 75.9797 1151.81 76.4318C1160.11 83.7481 1168.09 90.6123 1176.27 97.9329C1177.56 99.0771 1178.65 99.7648 1180.05 100.932C1189.76 109.596 1199.17 117.78 1208.66 126.429C1209.2 127.282 1209.66 127.668 1210.28 128.612C1216.04 137.28 1221.64 145.392 1227.35 154.087C1233.55 163.874 1240.02 172.855 1245.61 182.352C1250.1 189.96 1253.53 198.195 1257.52 206.702C1261.52 214.41 1265.42 221.568 1269.45 229.336C1273.58 237.036 1277.59 244.126 1281.6 251.692C1282.18 252.85 1282.75 253.532 1283.43 254.826C1288.72 264.578 1290.45 264.851 1298.14 257.555C1299.12 256.625 1299.76 255.33 1301.03 253.995C1301.81 252.816 1302.12 251.846 1302.92 250.495C1303.82 244.175 1306.37 239.638 1312.63 238.976C1319.76 238.223 1325.83 240.558 1329.42 247.877C1329.35 249.223 1329.38 249.993 1329.12 251.214C1329.59 253.003 1330.34 254.34 1331.66 255.805C1333 255.782 1333.77 255.631 1335.1 255.545C1336.41 255.54 1337.17 255.468 1338.47 255.688C1342.14 262.552 1345.73 268.069 1354.48 267.538C1362.64 267.043 1370.92 268.117 1379.02 267.312C1383.07 266.911 1386.92 263.976 1390.75 261.976C1399.42 257.447 1407.77 251.784 1418.37 255.684C1430.79 260.254 1440.16 268.384 1446.75 280.378C1447.15 282.358 1447.56 283.781 1447.83 285.827C1447.92 287.638 1448.16 288.826 1448.43 290.571C1449.24 292.737 1450.04 294.346 1450.85 295.923C1450.87 295.892 1450.83 295.965 1451.19 296.537C1452.53 297.588 1453.48 298.411 1454.49 298.494C1466.22 299.456 1475.92 302.895 1479.15 316.123C1480.24 320.614 1482.07 325.35 1484.92 328.861C1487.53 332.067 1491.7 334.75 1495.68 335.894C1501.08 337.445 1507.34 336.259 1512.55 338.149C1519.75 340.767 1524.96 340.257 1529.38 333.178C1531.25 331.828 1532.61 330.649 1534.56 329.345C1538.32 327.777 1541.48 326.334 1544.63 324.891C1544.95 325.496 1545.27 326.101 1545.58 326.706C1544.51 327.859 1543.44 329.012 1542.38 330.189C1542.4 330.215 1542.38 330.15 1541.95 330.451C1542.26 332.706 1542.99 334.661 1543.8 337.059C1544.75 338.254 1545.63 339.007 1546.75 340.259C1548.18 342.147 1549.36 343.537 1550.57 344.877C1550.59 344.826 1550.49 344.865 1550.6 345.456C1553.24 353.318 1559.49 355.166 1566 356.632Z" fill="#0769CD"/>
<path d="M570.256 399.088H611.856V418.032H570.256V399.088ZM572.048 434.416H618.896V454H546.96V364.4H617.232V383.984H572.048V434.416ZM626.688 454L666.24 364.4H691.2L730.88 454H704.512L673.536 376.816H683.52L652.544 454H626.688ZM648.32 436.592L654.848 417.904H698.624L705.152 436.592H648.32ZM774.033 455.792C766.694 455.792 759.612 454.896 752.785 453.104C746.044 451.227 740.54 448.837 736.273 445.936L744.593 427.248C748.604 429.808 753.212 431.941 758.417 433.648C763.708 435.269 768.956 436.08 774.161 436.08C777.66 436.08 780.476 435.781 782.609 435.184C784.742 434.501 786.278 433.648 787.217 432.624C788.241 431.515 788.753 430.235 788.753 428.784C788.753 426.736 787.814 425.115 785.937 423.92C784.06 422.725 781.628 421.744 778.641 420.976C775.654 420.208 772.326 419.44 768.657 418.672C765.073 417.904 761.446 416.923 757.777 415.728C754.193 414.533 750.908 412.997 747.921 411.12C744.934 409.157 742.502 406.64 740.625 403.568C738.748 400.411 737.809 396.443 737.809 391.664C737.809 386.288 739.26 381.424 742.161 377.072C745.148 372.72 749.585 369.221 755.473 366.576C761.361 363.931 768.7 362.608 777.489 362.608C783.377 362.608 789.137 363.291 794.769 364.656C800.486 365.936 805.564 367.856 810.001 370.416L802.193 389.232C797.926 386.928 793.702 385.221 789.521 384.112C785.34 382.917 781.286 382.32 777.361 382.32C773.862 382.32 771.046 382.704 768.913 383.472C766.78 384.155 765.244 385.093 764.305 386.288C763.366 387.483 762.897 388.848 762.897 390.384C762.897 392.347 763.793 393.925 765.585 395.12C767.462 396.229 769.894 397.168 772.881 397.936C775.953 398.619 779.281 399.344 782.865 400.112C786.534 400.88 790.161 401.861 793.745 403.056C797.414 404.165 800.742 405.701 803.729 407.664C806.716 409.541 809.105 412.059 810.897 415.216C812.774 418.288 813.713 422.171 813.713 426.864C813.713 432.069 812.22 436.891 809.233 441.328C806.332 445.68 801.937 449.179 796.049 451.824C790.246 454.469 782.908 455.792 774.033 455.792ZM850.681 454V416.112L856.569 431.344L816.505 364.4H843.257L872.185 412.912H856.697L885.753 364.4H910.329L870.393 431.344L876.025 416.112V454H850.681ZM946.343 454L916.391 364.4H929.575L957.095 447.088H950.439L978.983 364.4H990.759L1018.66 447.088H1012.26L1040.17 364.4H1052.33L1022.38 454H1008.94L982.823 377.328H986.279L960.039 454H946.343ZM1056.02 454L1096.6 364.4H1109.27L1149.97 454H1136.53L1100.31 371.568H1105.43L1069.21 454H1056.02ZM1073.3 431.6L1076.76 421.36H1127.19L1130.9 431.6H1073.3ZM1184.08 454V419.696L1187.02 427.632L1148.49 364.4H1162.19L1194.57 417.776H1187.15L1219.66 364.4H1232.33L1193.93 427.632L1196.75 419.696V454H1184.08Z" fill="white"/>
</svg>
