<svg width="100" height="100" viewBox="0 0 100 100" fill="none" xmlns="http://www.w3.org/2000/svg">
<g clip-path="url(#clip0_420_12)">
<rect width="100" height="100" fill="white"/>
<path d="M1.26567 54.0629C-1.53275 49.8018 0.681301 45.2132 4.22221 42.9125C5.9519 41.7887 6.16213 40.9848 5.13602 39.1343C3.99328 37.0735 3.08404 34.9485 3.31462 32.4983C3.50804 30.4429 4.54288 28.922 6.18659 27.7641C7.50946 26.8322 8.99168 26.2637 10.5679 25.9471C12.3003 25.5991 12.8377 24.951 12.7171 23.1598C12.6152 21.6465 12.4094 20.1547 12.6787 18.6199C13.2538 15.3418 15.4407 13.2271 18.7682 12.7328C20.2294 12.5157 21.652 12.6416 23.0974 12.7562C24.8123 12.8921 25.4625 12.3702 25.902 10.712C26.2013 9.58258 26.5675 8.47498 27.1303 7.44158C29.0594 3.89907 32.2098 2.59639 36.0823 3.74412C37.1759 4.06822 38.1929 4.54851 39.1493 5.17382C40.5745 6.10558 41.6881 5.90953 42.731 4.5565C43.6649 3.34501 44.6674 2.21178 45.9559 1.35409C48.7289 -0.491715 51.6656 -0.456088 54.3669 1.49552C55.4673 2.29048 56.3987 3.2569 57.1512 4.38967C58.1581 5.90513 59.1369 6.14398 60.7357 5.23671C62.5686 4.19655 64.4492 3.38816 66.6297 3.37742C69.0082 3.3657 70.7674 4.39987 72.1134 6.26553C73.1023 7.63613 73.6495 9.20191 74.0604 10.8242C74.4453 12.344 75.1557 12.8655 76.7342 12.7717C78.1759 12.6861 79.597 12.4198 81.0639 12.6864C85.0431 13.4092 87.2698 15.9125 87.4306 19.9676C87.4714 20.9961 87.3645 22.0107 87.2368 23.0317C87.024 24.7342 87.5275 25.4387 89.1476 25.9428C90.3967 26.3314 91.6564 26.6917 92.8084 27.3395C96.3408 29.3257 97.466 32.1568 96.2328 36.0116C95.8759 37.1273 95.3783 38.1818 94.7846 39.1936C93.8563 40.7755 94.0298 41.6944 95.489 42.8578C96.461 43.6329 97.3903 44.4488 98.1766 45.4157C100.64 48.4452 100.611 51.8214 98.0665 54.7718C97.3505 55.6021 96.5608 56.3651 95.6704 57.0213C94.0036 58.2498 93.8324 59.1089 94.8412 60.875C95.7059 62.389 96.3647 63.9674 96.6195 65.7202C97.0073 68.3874 96.0265 70.4168 93.9082 71.9654C92.5746 72.9404 91.0498 73.4985 89.4763 73.9521C87.3889 74.5538 86.8917 75.3235 87.2764 77.4498C87.546 78.9395 87.4917 80.407 87.1498 81.8681C86.1284 86.2328 82.5802 87.6827 78.36 87.3937C78.2196 87.3841 78.0816 87.3427 77.9421 87.318C74.8347 86.7663 74.3355 87.6664 73.8255 89.9967C73.5828 91.1053 73.1017 92.1391 72.5018 93.1104C70.5852 96.2136 67.835 97.2914 64.3157 96.3143C63.0445 95.9614 61.876 95.3754 60.7232 94.7486C59.0973 93.8643 58.1353 94.1043 57.1384 95.6043C56.3462 96.7964 55.3769 97.8211 54.1799 98.6152C51.0385 100.699 47.8026 100.408 44.8652 97.7776C44.1245 97.1143 43.4746 96.3665 42.8704 95.577C41.6999 94.0477 40.6742 93.8651 39.0557 94.8784C37.5665 95.8107 35.9731 96.4976 34.2059 96.6042C30.6836 96.8166 28.1149 95.1056 26.7373 91.6645C26.3967 90.8138 26.1411 89.9267 25.8845 89.0453C25.4635 87.5991 24.6004 87.0076 23.1334 87.213C21.5844 87.4298 20.039 87.5049 18.4883 87.2066C13.5255 86.2519 12.203 82.3 12.5828 78.118C12.6083 77.837 12.6809 77.5601 12.7027 77.279C12.8835 74.9498 12.5746 74.5191 10.297 73.9761C8.98007 73.6621 7.7187 73.2209 6.57343 72.4831C3.80379 70.6988 2.74766 68.0014 3.51512 64.7948C3.86544 63.3311 4.47593 61.9898 5.21602 60.6936C6.07305 59.1925 5.86689 58.2668 4.47149 57.2386C3.26897 56.3526 2.1413 55.3892 1.26567 54.0629ZM72.7639 16.53C70.3845 15.1622 69.4212 12.8767 68.8055 10.3794C68.222 8.01301 67.0898 7.47474 64.8544 8.50997C63.7634 9.0152 62.6636 9.50471 61.549 9.95487C58.8204 11.0569 56.4299 10.4651 54.3319 8.46312C53.4843 7.65436 52.7168 6.7762 51.9665 5.87853C50.819 4.50545 49.3731 4.43408 48.1265 5.70556C47.3093 6.53899 46.5785 7.45857 45.7453 8.27444C43.5948 10.3802 41.0649 10.8995 38.2113 9.98084C37.126 9.63147 36.1059 9.15181 35.1209 8.58585C33.2039 7.48448 31.9389 7.96383 31.1747 10.0627C30.7272 11.2918 30.3334 12.5474 29.7873 13.732C28.8337 15.8005 27.2125 17.0126 24.9215 17.4003C23.2132 17.6894 21.5414 17.4464 19.8499 17.3711C18.0574 17.2913 17.2301 18.1471 17.3263 19.949C17.3865 21.077 17.5644 22.1969 17.5219 23.3338C17.401 26.5656 15.9643 28.9282 12.9862 30.2971C11.9839 30.7578 10.9243 31.0334 9.86538 31.3184C8.11087 31.7907 7.48432 33.2541 8.37055 34.842C8.99277 35.957 9.58191 37.0831 9.9764 38.3028C10.8413 40.9769 10.3782 43.3768 8.56509 45.5401C7.78233 46.4741 6.8496 47.2229 5.90541 47.9691C4.32459 49.2183 4.30801 50.7496 5.88134 52.0165C7.07129 52.9747 8.23597 53.9631 9.10767 55.2289C10.1427 56.7317 10.659 58.363 10.335 60.2338C10.0389 61.9439 9.32213 63.4606 8.4776 64.9423C7.43951 66.7635 8.0455 68.1967 10.0573 68.7303C10.7062 68.9024 11.3597 69.0687 11.991 69.2942C15.0356 70.3813 17.0296 72.3875 17.4525 75.7027C17.6326 77.1148 17.4464 78.5228 17.3357 79.9357C17.1805 81.9183 18.2907 82.9339 20.2584 82.6235C21.2848 82.4616 22.3027 82.4568 23.327 82.4614C26.8798 82.4773 29.0132 83.9752 30.257 87.3161C30.6272 88.3105 30.9431 89.3263 31.3404 90.3094C32.0023 91.9469 33.2973 92.3891 34.8398 91.5775C35.7472 91.0999 36.6499 90.5956 37.6015 90.223C40.7891 88.975 43.637 89.4957 46.0441 92.0035C46.6569 92.642 47.2533 93.2974 47.835 93.9644C49.2801 95.6214 50.7643 95.6066 52.1707 93.8856C53.0468 92.8135 53.9504 91.7708 55.0527 90.9222C56.5855 89.7423 58.2569 89.1989 60.2161 89.6571C61.8552 90.0406 63.3486 90.7561 64.8517 91.465C67.1326 92.5408 68.2266 92.0358 68.7857 89.6052C69.1309 88.1044 69.6578 86.6761 70.5697 85.4372C72.7187 82.5173 75.8051 82.1675 79.0609 82.565C82.1508 82.9424 82.8754 82.162 82.5138 79.0793C81.9618 74.3726 83.0148 70.9069 88.3724 69.2373C89.1482 68.9955 89.9374 68.7653 90.6691 68.4208C91.9318 67.8262 92.3166 66.6537 91.7199 65.4038C91.4762 64.8936 91.1683 64.4144 90.9047 63.9132C88.9486 60.1938 89.0975 56.8939 91.3537 54.3166C92.1273 53.4329 92.9949 52.6134 94.0165 52.0556C95.7117 51.13 95.401 49 94.1801 48.0501C93.2886 47.3566 92.4408 46.5907 91.6609 45.7737C90.2912 44.3389 89.5362 42.6562 89.6097 40.5992C89.6847 38.4984 90.5318 36.7021 91.5218 34.9323C92.445 33.282 91.9561 31.9797 90.1696 31.3355C89.0056 30.9158 87.808 30.5748 86.6781 30.0787C84.6564 29.1911 83.2981 27.6797 82.716 25.5114C82.3047 23.9791 82.2743 22.4164 82.5105 20.8765C82.9556 17.975 82.1278 17.0534 79.2191 17.3962C79.0436 17.4169 78.8715 17.4698 78.6959 17.4861C76.6928 17.6717 74.736 17.5438 72.7639 16.53Z" fill="#0769CD"/>
<path d="M32.7529 23.2179C38.0227 19.8583 43.7389 18.1257 49.8835 18.154C65.2293 18.2247 77.7394 28.5736 81.0143 42.9342C84.3105 57.3882 77.3079 71.9767 64.1017 78.5679C47.7591 86.7245 27.6709 79.2347 20.6194 62.3558C14.633 48.0265 19.5745 32.0175 32.7529 23.2179ZM26.7784 63.9669C32.9725 74.072 44.7659 79.0937 56.01 76.414C70.1686 73.0397 79.1055 59.5173 76.6451 45.191C74.19 30.8955 60.3273 21.061 45.876 23.2555C33.4692 25.1395 23.2349 35.6334 22.8677 49.5773C22.7337 54.6673 24.089 59.44 26.7784 63.9669Z" fill="#0769CD"/>
<path d="M35.0478 48.121C35.2598 47.9468 35.5026 47.8083 35.7673 47.7357C36.8047 47.4511 37.6074 47.8823 38.3257 48.5977C40.4079 50.6709 42.4874 52.7469 44.555 54.8347V54.8347C44.9477 55.2313 45.4789 55.5938 45.9062 55.2346C46.0764 55.0915 46.1976 54.9283 46.3348 54.7914C51.3973 49.7409 56.4556 44.6863 61.5068 39.6246C62.1598 38.9702 62.8556 38.4974 63.842 38.6257C64.7264 38.7407 65.356 39.1771 65.7234 39.987C66.1123 40.8442 65.9764 41.6447 65.4253 42.3817C65.2569 42.6069 65.0457 42.8014 64.8456 43.0015C59.0883 48.7597 53.331 54.5178 47.5711 60.2735C45.9839 61.8596 44.8413 61.8521 43.238 60.2516C40.4569 57.4753 37.6676 54.7071 34.9039 51.9135C33.6201 50.6159 33.6757 49.2479 35.0478 48.121Z" fill="#0769CD"/>
</g>
<defs>
<clipPath id="clip0_420_12">
<rect width="100" height="100" fill="white"/>
</clipPath>
</defs>
</svg>
