<svg width="100" height="100" viewBox="0 0 100 100" fill="none" xmlns="http://www.w3.org/2000/svg"><path d="M5.03 49.981c0-8.527.027-16.911-.023-25.296-.01-1.6.545-2.62 1.938-3.436C18.291 14.602 29.65 7.973 40.897 1.163c2.437-1.475 4.223-1.6 6.739-.068 11.27 6.867 22.683 13.503 34.061 20.192 1.31.77 1.901 1.68 1.891 3.295-.073 11.653-.029 23.306-.058 34.96-.003.963.276 1.462 1.154 1.972 5.886 3.414 9.51 8.428 10.55 15.24 1.624 10.633-6.21 21.337-16.866 22.983-9.902 1.531-19.043-3.735-22.632-13.036-.152-.393-.317-.781-.535-1.315-3.143 1.863-6.273 3.68-9.358 5.57-1.055.646-1.915.646-3.001 0A5814.163 5814.163 0 007.04 69.833C5.53 68.95 4.975 67.89 5 66.182c.081-5.352.03-10.706.03-16.2zm57.864-28.755l-28.005 16.59c3.03 1.798 5.803 3.495 8.64 5.075.453.253 1.3.177 1.789-.08 1.668-.876 3.255-1.906 4.879-2.868 8.193-4.858 16.376-9.734 24.608-14.524.544-.317 1.64-.245 2.182.106 1.313.849.982 2.2-.7 3.197-9.578 5.676-19.153 11.358-28.76 16.984-.994.582-1.353 1.196-1.346 2.34.048 8.528.029 17.057.024 25.585-.001 1.621-.646 2.507-1.818 2.555-1.206.05-1.936-.904-1.97-2.575-.005-.285 0-.569 0-.853 0-7.344-.174-14.695.082-22.03.11-3.1-.547-5.128-3.557-6.364-2.004-.822-3.801-2.146-5.914-3.375v1.686c0 3.364.012 6.728-.004 10.092-.01 1.883-1.426 2.652-3.07 1.68-3.776-2.232-7.535-4.492-11.326-6.699-.97-.564-1.344-1.283-1.33-2.408.053-4.216.032-8.434.004-12.65-.003-.417-.114-1.042-.395-1.215-2.627-1.626-5.302-3.174-8.041-4.79-.062.334-.108.466-.108.598-.004 12.793.009 25.587-.033 38.38-.003.919.498 1.234 1.105 1.592 7.88 4.65 15.762 9.297 23.643 13.945 2.912 1.718 5.822 3.438 8.945 5.282 0-1.743-.022-3.244.006-4.744.025-1.304.949-2.429 1.911-2.403.954.026 1.86 1.197 1.87 2.448.01 1.492.002 2.984.002 4.7l8.257-4.887c-1.226-13.203 10.434-25.312 25.25-22.067.038-.13.112-.263.112-.395.01-11.324.022-22.648-.013-33.972-.002-.409-.37-.978-.734-1.197a407.437 407.437 0 00-9.766-5.713c-.338-.191-.976-.142-1.338.052-1.66.89-3.27 1.87-5.081 2.922zm-12.828 3.407l15.064-8.911c-2.537-1.491-4.949-2.788-7.221-4.295-1.116-.74-1.896-.546-2.912.065-4.32 2.6-8.686 5.126-13.015 7.71-1.018.608-1.775.396-2.464-.48-.727-.922-.395-1.684.373-2.34.462-.395.974-.742 1.498-1.052 3.783-2.242 7.576-4.469 11.525-6.794-2.544-1.52-4.953-2.904-7.298-4.389-.922-.583-1.627-.562-2.561-.003C35.898 8.428 28.71 12.66 21.53 16.906c-3.609 2.134-7.22 4.264-11.03 6.514 2.635 1.555 5.133 2.96 7.55 4.493.83.527 1.396.433 2.169-.03 4.728-2.836 9.483-5.629 14.23-8.434 1.165-.689 2.4-.56 2.896.295.501.864.104 2.165-.943 2.794-2.181 1.31-4.396 2.567-6.59 3.858-2.326 1.37-4.643 2.754-7.115 4.221 2.635 1.569 5.08 2.98 7.473 4.475.796.498 1.397.471 2.19 0 5.83-3.472 11.686-6.9 17.706-10.46zm14.88 41.3c-9.037 6.623-9.195 20.079-.315 26.966 8.355 6.479 20.79 3.588 25.417-5.938 3.358-6.916 1.736-14.593-3.264-19.464-6.033-5.88-14.623-6.43-21.837-1.564zm-40.16-29.88L20.94 33.86c0 3.678-.008 7.104.016 10.53.002.233.179.563.375.682 2.635 1.6 5.288 3.17 8.168 4.885 0-3.747.02-7.221-.033-10.694-.005-.3-.427-.676-.744-.876-1.232-.775-2.5-1.493-3.935-2.334z" fill="#0769CD"/><path d="M19.072 68.593c-.164-1.348-.299-2.596-.348-3.847-.05-1.223-.027-2.451-.006-3.676.02-1.21.823-2.17 1.828-2.068 1.135.115 1.757.785 1.746 1.992-.02 2.122.07 4.248-.051 6.362-.037.642-.491 1.597-.99 1.785-.567.214-1.398-.269-2.18-.548zm-3.477-8.647c0 1.318.02 2.498-.005 3.677-.027 1.366-.868 2.44-1.862 2.434-1.115-.007-1.838-.926-1.848-2.395a369.53 369.53 0 010-5.66c.013-1.509.685-2.351 1.832-2.355 1.159-.005 1.816.794 1.879 2.32.025.612.004 1.226.004 1.979zm52.982 11.75c-3.31 2.747-4.272 6.267-3.385 10.193.897 3.964 3.478 6.59 7.529 7.37 6.874 1.327 12.399-3.33 12.203-10.244-.092-3.252-1.65-5.81-4.219-7.797-1.334-1.032-1.139-2.743.374-3.204.491-.149 1.253.003 1.675.312 4.105 3.004 6.248 7.108 5.848 12.169-.448 5.658-3.497 9.78-8.81 11.8-8.295 3.155-17.005-2.025-18.427-10.734-1.3-7.97 5.308-15.831 13.183-15.718 1.153.017 2.014.403 2.12 1.588.103 1.143-.551 1.814-1.746 1.954-2.256.266-4.461.706-6.345 2.311z" fill="#0769CD"/><path d="M74.945 83.771c-.338.34-.598.616-.874.876-1.325 1.253-2.053 1.24-3.36-.05-.64-.633-1.279-1.265-1.92-1.896-.823-.808-1.004-1.736-.282-2.653.661-.84 1.795-.79 2.752.015.36.303.693.638 1.29 1.193 1.94-2.007 3.863-4.007 5.802-5.991.724-.74 1.52-1.35 2.59-.596 1.132.797 1.19 1.86.087 2.993-1.98 2.036-4.006 4.027-6.085 6.11z" fill="#0769CD"/></svg>