<svg width="203" height="44" fill="none" xmlns="http://www.w3.org/2000/svg"><path d="M.957 42v-7.7h7.018V42H6.204v-6.655l.407.407h-4.29l.407-.407V42H.957zm12.612.132a4.727 4.727 0 01-1.694-.297 4.068 4.068 0 01-1.342-.836 3.924 3.924 0 01-.88-1.265 4.013 4.013 0 01-.308-1.584c0-.572.102-1.1.308-1.584.212-.484.51-.906.89-1.265.382-.36.83-.638 1.343-.836a4.607 4.607 0 011.672-.297c.608 0 1.166.099 1.672.297a3.94 3.94 0 011.33.836 3.846 3.846 0 011.21 2.849c0 .572-.106 1.104-.318 1.595-.213.484-.51.906-.891 1.265a4.038 4.038 0 01-1.331.825 4.52 4.52 0 01-1.661.297zm-.011-1.518c.344 0 .66-.059.946-.176a2.245 2.245 0 001.276-1.287c.124-.3.187-.634.187-1.001 0-.367-.063-.7-.187-1.001a2.245 2.245 0 00-.506-.781 2.155 2.155 0 00-.76-.506 2.555 2.555 0 00-.956-.176c-.345 0-.664.059-.957.176a2.295 2.295 0 00-.76.506c-.22.22-.392.48-.516.781-.118.3-.176.634-.176 1.001 0 .36.058.693.176 1.001.124.3.293.561.506.781.22.22.476.389.77.506.293.117.612.176.957.176zm10.475.594v-5.456h-2.64l-.033 1.122c-.022.477-.055.928-.1 1.353a8.524 8.524 0 01-.175 1.166 3.51 3.51 0 01-.32.88c-.124.242-.282.414-.472.517l-1.903-.242a.796.796 0 00.649-.275c.176-.19.315-.458.418-.803a6.71 6.71 0 00.22-1.232c.051-.47.088-.979.11-1.529l.088-2.409h5.918v6.908h-1.76zm-5.896 2.387l.01-3.047h8.724v3.047h-1.65V42h-5.434v1.595h-1.65zm14.715-6.765c.924 0 1.639.209 2.145.627.506.41.759 1.03.759 1.859 0 .88-.282 1.547-.847 2.002-.557.455-1.331.682-2.321.682h-3.465v-6.248h-2.167V34.3h3.927v2.53h1.969zm-.363 3.85c.462 0 .821-.114 1.078-.341.264-.227.396-.557.396-.99 0-.425-.132-.73-.396-.913-.257-.19-.616-.286-1.078-.286h-1.606v2.53h1.606zm6.19-3.278h3.707v1.386h-3.707v-1.386zm.132 3.168h4.191V42H37.04v-7.7h5.819v1.43h-4.048v4.84zm5.63 1.43v-7.7h1.474l3.278 5.434h-.78l3.222-5.434h1.474l.011 7.7h-1.672l-.01-5.137h.318l-2.585 4.323h-.792l-2.64-4.323h.374V42h-1.672zm15.872-7.7h1.782V42h-1.782v-7.7zM56.815 42h-1.782v-7.7h1.782V42zm3.63-3.157h-3.762v-1.507h3.762v1.507zM64.025 42v-7.7h1.77v5.016L69.47 34.3h1.672V42h-1.76v-5.005L65.707 42h-1.683zm14.017 0l-2.398-3.707 1.44-.869L80.067 42h-2.024zm-5.005 0v-7.7h1.77V42h-1.77zm1.254-3.102v-1.485h2.684v1.485H74.29zm2.959-.55l-1.64-.198 2.498-3.85h1.88l-2.738 4.048zM80.9 42v-7.7h1.771v5.016l3.674-5.016h1.672V42h-1.76v-5.005L82.583 42H80.9zm17.254-.792v-5.456h-2.64l-.033 1.122c-.022.477-.055.928-.1 1.353a8.524 8.524 0 01-.175 1.166 3.51 3.51 0 01-.32.88c-.124.242-.282.414-.472.517l-1.903-.242a.796.796 0 00.649-.275c.176-.19.315-.458.418-.803a6.71 6.71 0 00.22-1.232c.051-.47.088-.979.11-1.529l.088-2.409h5.918v6.908h-1.76zm-5.896 2.387l.01-3.047h8.724v3.047h-1.65V42h-5.434v1.595h-1.65zm10.01-1.474c-.132 0-.271-.011-.418-.033a8.332 8.332 0 01-.462-.088l.11-1.507c.103.03.209.044.319.044a.81.81 0 00.704-.363c.169-.25.29-.605.363-1.067.074-.462.121-1.023.143-1.683l.11-3.124h5.918V42h-1.76v-6.655l.407.407h-3.399l.363-.429-.066 2.035a18.895 18.895 0 01-.154 2.013c-.08.587-.205 1.085-.374 1.496-.168.41-.399.722-.693.935-.293.213-.663.319-1.111.319zM115.367 42v-2.431l.44.385h-2.112c-.667 0-1.243-.11-1.727-.33a2.459 2.459 0 01-1.111-.957c-.256-.418-.385-.917-.385-1.496 0-.601.136-1.115.407-1.54a2.67 2.67 0 011.166-.99c.499-.227 1.086-.341 1.76-.341h3.322V42h-1.76zm-4.873 0l1.914-2.761h1.804L112.375 42h-1.881zm4.873-3.003V35.29l.44.462h-1.958c-.506 0-.894.117-1.166.352-.264.235-.396.583-.396 1.045 0 .447.129.792.385 1.034.257.242.635.363 1.133.363h2.002l-.44.451zM122.172 42v-7.7h1.771v5.016l3.674-5.016h1.672V42h-1.76v-5.005L123.855 42h-1.683zm14.314-7.7h1.782V42h-1.782v-7.7zm-3.498 7.7h-1.782v-7.7h1.782V42zm3.63-3.157h-3.762v-1.507h3.762v1.507zM140.197 42v-7.7h3.586c.895 0 1.592.172 2.09.517.499.345.748.836.748 1.474 0 .63-.234 1.122-.704 1.474-.469.345-1.092.517-1.87.517l.209-.462c.866 0 1.537.172 2.013.517.477.345.715.843.715 1.496 0 .675-.256 1.206-.77 1.595-.506.381-1.246.572-2.222.572h-3.795zm1.771-1.32h1.958c.411 0 .723-.08.935-.242.213-.161.319-.41.319-.748 0-.323-.106-.561-.319-.715-.212-.161-.524-.242-.935-.242h-1.958v1.947zm0-3.19h1.661c.389 0 .682-.077.88-.231.198-.161.297-.396.297-.704 0-.308-.099-.539-.297-.693-.198-.161-.491-.242-.88-.242h-1.661v1.87zm5.557 4.51l3.432-7.7h1.76l3.443 7.7h-1.87l-2.816-6.798h.704L149.351 42h-1.826zm1.716-1.65l.473-1.353h3.96l.484 1.353h-4.917zm8.06 1.771c-.132 0-.272-.011-.418-.033a7.996 7.996 0 01-.462-.088l.11-1.507c.102.03.209.044.319.044.3 0 .535-.121.704-.363.168-.25.289-.605.363-1.067.073-.462.121-1.023.143-1.683l.11-3.124h5.918V42h-1.76v-6.655l.407.407h-3.399l.363-.429-.066 2.035a19.161 19.161 0 01-.154 2.013c-.081.587-.206 1.085-.374 1.496-.169.41-.4.722-.693.935-.294.213-.664.319-1.111.319zm8.71-.121v-7.7h1.771v5.016l3.674-5.016h1.672V42h-1.76v-5.005L167.694 42h-1.683zm14.084-.792v-5.456h-2.64l-.033 1.122c-.022.477-.055.928-.099 1.353a8.357 8.357 0 01-.176 1.166 3.48 3.48 0 01-.319.88c-.124.242-.282.414-.473.517l-1.903-.242a.795.795 0 00.649-.275c.176-.19.316-.458.418-.803.103-.352.176-.763.22-1.232.052-.47.088-.979.11-1.529l.088-2.409h5.918v6.908h-1.76zm-5.896 2.387l.011-3.047h8.723v3.047h-1.65V42h-5.434v1.595h-1.65zm13.619-1.463a4.723 4.723 0 01-1.694-.297 4.06 4.06 0 01-1.342-.836 3.915 3.915 0 01-.88-1.265 4.002 4.002 0 01-.308-1.584c0-.572.102-1.1.308-1.584.212-.484.509-.906.891-1.265a4.06 4.06 0 011.342-.836 4.603 4.603 0 011.672-.297c.608 0 1.166.099 1.672.297a3.95 3.95 0 011.331.836c.381.36.678.781.891 1.265.212.477.319 1.005.319 1.584 0 .572-.107 1.104-.319 1.595-.213.484-.51.906-.891 1.265a4.041 4.041 0 01-1.331.825 4.521 4.521 0 01-1.661.297zm-.011-1.518c.344 0 .66-.059.946-.176a2.253 2.253 0 001.276-1.287c.124-.3.187-.634.187-1.001 0-.367-.063-.7-.187-1.001a2.253 2.253 0 00-.506-.781 2.16 2.16 0 00-.759-.506 2.559 2.559 0 00-.957-.176c-.345 0-.664.059-.957.176a2.295 2.295 0 00-.759.506c-.22.22-.393.48-.517.781-.118.3-.176.634-.176 1.001 0 .36.058.693.176 1.001.124.3.293.561.506.781.22.22.476.389.77.506.293.117.612.176.957.176zM193.393 42v-7.7h3.586c.894 0 1.591.172 2.09.517.498.345.748.836.748 1.474 0 .63-.235 1.122-.704 1.474-.47.345-1.093.517-1.87.517l.209-.462c.865 0 1.536.172 2.013.517.476.345.715.843.715 1.496 0 .675-.257 1.206-.77 1.595-.506.381-1.247.572-2.222.572h-3.795zm1.771-1.32h1.958c.41 0 .722-.08.935-.242.212-.161.319-.41.319-.748 0-.323-.107-.561-.319-.715-.213-.161-.525-.242-.935-.242h-1.958v1.947zm0-3.19h1.661c.388 0 .682-.077.88-.231.198-.161.297-.396.297-.704 0-.308-.099-.539-.297-.693-.198-.161-.492-.242-.88-.242h-1.661v1.87zM8.374 11.28H20.23v6.46H8.374v-6.46zm.608 9.956h13.3V28H.166V1.4h21.622v6.764H8.982v13.072zM23.986 28L35.614 1.4h8.816L56.058 28h-9.272L38.198 5.656h3.496L33.106 28h-9.12zm6.916-4.636l2.28-6.46h12.236l2.28 6.46H30.902zm37.646 5.244c-2.23 0-4.383-.253-6.46-.76-2.078-.507-3.788-1.165-5.13-1.976l2.888-6.536c1.266.735 2.672 1.33 4.218 1.786 1.57.43 3.09.646 4.56.646.86 0 1.532-.05 2.014-.152.506-.127.874-.291 1.102-.494.228-.228.342-.494.342-.798 0-.481-.266-.861-.798-1.14-.532-.279-1.242-.507-2.128-.684a76.335 76.335 0 00-2.85-.608 30.972 30.972 0 01-3.154-.874 12.716 12.716 0 01-2.888-1.406 6.7 6.7 0 01-2.09-2.28c-.532-.963-.798-2.153-.798-3.572 0-1.647.456-3.141 1.368-4.484.937-1.368 2.318-2.457 4.142-3.268 1.849-.81 4.142-1.216 6.878-1.216 1.798 0 3.572.19 5.32.57 1.748.38 3.318.963 4.712 1.748l-2.698 6.498C75.78 8.949 74.5 8.455 73.26 8.126a13.631 13.631 0 00-3.572-.494c-.862 0-1.546.076-2.052.228-.507.152-.874.355-1.102.608a1.308 1.308 0 00-.304.836c0 .456.266.823.798 1.102.532.253 1.228.469 2.09.646.886.177 1.849.367 2.888.57 1.064.203 2.115.481 3.154.836 1.038.355 1.988.823 2.85 1.406a6.562 6.562 0 012.128 2.28c.532.937.798 2.103.798 3.496 0 1.621-.47 3.116-1.406 4.484-.912 1.343-2.28 2.432-4.104 3.268-1.824.81-4.117 1.216-6.878 1.216zM91.028 28V16.334l2.052 5.358L80.996 1.4h9.462l8.17 13.87h-5.51l8.246-13.87h8.664L98.02 21.692l1.976-5.358V28h-8.968zm29.22 0l-8.892-26.6h3.914l8.17 24.548h-1.976L129.938 1.4h3.496l8.284 24.548h-1.9L148.102 1.4h3.61L142.82 28h-3.99l-7.752-22.762h1.026L124.314 28h-4.066zm31.041 0l12.046-26.6h3.762L179.181 28h-3.99L164.437 3.528h1.52L155.203 28h-3.914zm5.13-6.65l1.026-3.04h14.972l1.102 3.04h-17.1zM187.785 28V17.816l.874 2.356L177.221 1.4h4.066l9.614 15.846h-2.204L198.349 1.4h3.762l-11.4 18.772.836-2.356V28h-3.762z" fill="#101010"/></svg>191.488 40.229 191.191 40.6507 190.81 41.01C190.436 41.362 189.992 41.637 189.479 41.835C188.973 42.033 188.419 42.132 187.818 42.132ZM187.807 40.614C188.151 40.614 188.467 40.5553 188.753 40.438C189.046 40.3207 189.303 40.152 189.523 39.932C189.743 39.712 189.911 39.4517 190.029 39.151C190.153 38.8503 190.216 38.5167 190.216 38.15C190.216 37.7833 190.153 37.4497 190.029 37.149C189.911 36.8483 189.743 36.588 189.523 36.368C189.31 36.148 189.057 35.9793 188.764 35.862C188.47 35.7447 188.151 35.686 187.807 35.686C187.462 35.686 187.143 35.7447 186.85 35.862C186.564 35.9793 186.311 36.148 186.091 36.368C185.871 36.588 185.698 36.8483 185.574 37.149C185.456 37.4497 185.398 37.7833 185.398 38.15C185.398 38.5093 185.456 38.843 185.574 39.151C185.698 39.4517 185.867 39.712 186.08 39.932C186.3 40.152 186.556 40.3207 186.85 40.438C187.143 40.5553 187.462 40.614 187.807 40.614ZM193.393 42V34.3H196.979C197.873 34.3 198.57 34.4723 199.069 34.817C199.567 35.1617 199.817 35.653 199.817 36.291C199.817 36.9217 199.582 37.413 199.113 37.765C198.643 38.1097 198.02 38.282 197.243 38.282L197.452 37.82C198.317 37.82 198.988 37.9923 199.465 38.337C199.941 38.6817 200.18 39.1803 200.18 39.833C200.18 40.5077 199.923 41.0393 199.41 41.428C198.904 41.8093 198.163 42 197.188 42H193.393ZM195.164 40.68H197.122C197.532 40.68 197.844 40.5993 198.057 40.438C198.269 40.2767 198.376 40.0273 198.376 39.69C198.376 39.3673 198.269 39.129 198.057 38.975C197.844 38.8137 197.532 38.733 197.122 38.733H195.164V40.68ZM195.164 37.49H196.825C197.213 37.49 197.507 37.413 197.705 37.259C197.903 37.0977 198.002 36.863 198.002 36.555C198.002 36.247 197.903 36.016 197.705 35.862C197.507 35.7007 197.213 35.62 196.825 35.62H195.164V37.49Z" fill="#101010"/>
<path d="M8.37402 11.28H20.23V17.74H8.37402V11.28ZM8.98202 21.236H22.282V28H0.166016V1.39999H21.788V8.16399H8.98202V21.236ZM23.9864 28L35.6144 1.39999H44.4304L56.0584 28H46.7864L38.1984 5.65599H41.6944L33.1064 28H23.9864ZM30.9024 23.364L33.1824 16.904H45.4184L47.6984 23.364H30.9024ZM68.5476 28.608C66.3183 28.608 64.1649 28.3547 62.0876 27.848C60.0103 27.3413 58.3003 26.6827 56.9576 25.872L59.8456 19.336C61.1123 20.0707 62.5183 20.666 64.0636 21.122C65.6343 21.5527 67.1543 21.768 68.6236 21.768C69.4849 21.768 70.1563 21.7173 70.6376 21.616C71.1443 21.4893 71.5116 21.3247 71.7396 21.122C71.9676 20.894 72.0816 20.628 72.0816 20.324C72.0816 19.8427 71.8156 19.4627 71.2836 19.184C70.7516 18.9053 70.0423 18.6773 69.1556 18.5C68.2943 18.2973 67.3443 18.0947 66.3056 17.892C65.2669 17.664 64.2156 17.3727 63.1516 17.018C62.1129 16.6633 61.1503 16.1947 60.2636 15.612C59.4023 15.0293 58.7056 14.2693 58.1736 13.332C57.6416 12.3693 57.3756 11.1787 57.3756 9.75999C57.3756 8.11329 57.8316 6.61869 58.7436 5.27599C59.6809 3.90799 61.0616 2.81869 62.8856 2.00799C64.7349 1.19729 67.0276 0.791992 69.7636 0.791992C71.5623 0.791992 73.3356 0.981993 75.0836 1.36199C76.8316 1.74199 78.4023 2.32469 79.7956 3.10999L77.0976 9.60799C75.7803 8.94929 74.5009 8.45529 73.2596 8.12599C72.0436 7.79669 70.8529 7.63199 69.6876 7.63199C68.8263 7.63199 68.1423 7.70799 67.6356 7.85999C67.1289 8.01199 66.7616 8.21469 66.5336 8.46799C66.3309 8.72129 66.2296 8.99999 66.2296 9.30399C66.2296 9.75999 66.4956 10.1273 67.0276 10.406C67.5596 10.6593 68.2563 10.8747 69.1176 11.052C70.0043 11.2293 70.9669 11.4193 72.0056 11.622C73.0696 11.8247 74.1209 12.1033 75.1596 12.458C76.1983 12.8127 77.1483 13.2813 78.0096 13.864C78.8963 14.4467 79.6056 15.2067 80.1376 16.144C80.6696 17.0813 80.9356 18.2467 80.9356 19.64C80.9356 21.2613 80.4669 22.756 79.5296 24.124C78.6176 25.4667 77.2496 26.556 75.4256 27.392C73.6016 28.2027 71.3089 28.608 68.5476 28.608ZM91.0276 28V16.334L93.0796 21.692L80.9956 1.39999H90.4576L98.628 15.27H93.1176L101.364 1.39999H110.028L98.02 21.692L99.996 16.334V28H91.0276ZM120.248 28L111.356 1.39999H115.27L123.44 25.948H121.464L129.938 1.39999H133.434L141.718 25.948H139.818L148.102 1.39999H151.712L142.82 28H138.83L131.078 5.23799H132.104L124.314 28H120.248ZM151.289 28L163.335 1.39999H167.097L179.181 28H175.191L164.437 3.52799H165.957L155.203 28H151.289ZM156.419 21.35L157.445 18.31H172.417L173.519 21.35H156.419ZM187.785 28V17.816L188.659 20.172L177.221 1.39999H181.287L190.901 17.246H188.697L198.349 1.39999H202.111L190.711 20.172L191.547 17.816V28H187.785Z" fill="#101010"/>
</svg>
