<svg width="354" height="355" fill="none" xmlns="http://www.w3.org/2000/svg"><path d="M109.012 175.99A1749870.3 1749870.3 0 0124.66 91.695c-5.806-5.803-5.827-8.292-.076-14.046 24.258-24.267 48.52-48.531 72.784-72.792 5.643-5.641 8.553-5.68 14.127-.051 7.019 7.088 13.974 14.239 20.847 21.251 11.005-4.055 21.377-7.985 31.825-11.701 16.985-6.042 33.328-3.734 49.049 4.358 14.31 7.367 28.418 15.129 42.814 22.32 4.637 2.316 9.904 3.373 14.888 5.008 2.828-8.81 3.393-9.212 11.925-9.212h14.239c.391-.546.717-.79.737-1.057.815-11.161 1.904-12.16 13.339-12.16 10.833 0 21.665-.034 32.498.013 7.153.03 9.422 2.39 9.423 9.576.001 27.498.002 54.995-.001 82.493-.001 7.429-2.593 10.022-10.217 10.035-17.999.032-36.001.205-53.994-.122-4.665-.085-7.668 1.351-10.493 4.864-8.598 10.695-19.431 17.927-33.196 20.248-.651.11-1.348.453-1.942.321-8.004-1.782-12.743 2.941-17.803 8.095-19.722 20.085-39.73 39.889-59.645 59.785-5.275 5.27-8.598 5.274-13.797.075-14.248-14.248-28.486-28.503-42.979-43.006zm96.33-55.906c8.314 11.752 20.459 16.458 34.04 16.397 13.255-.058 22.847-8.064 30.435-18.346 1.254-1.701 1.99-4.189 2.017-6.325.174-14.163.09-28.329.09-42.493v-8.989c-10.566-1.026-19.808-4.191-28.614-9.195-11.398-6.476-23.133-12.36-34.764-18.422-8.651-4.508-17.792-8.308-27.62-6.652-8.553 1.442-16.835 4.557-25.183 7.106-3.698 1.129-7.266 2.685-11.563 4.299 5.901 5.883 11.569 10.827 16.372 16.502 5.773 6.82 12.989 10.2 21.416 12.492 12.144 3.303 24.047 7.51 36.005 11.477 4.362 1.446 6.736 5.785 5.481 9.281-1.461 4.07-5.734 6.002-10.147 4.59-3.477-1.112-6.955-2.218-10.432-3.33-16.45-5.264-32.889-10.56-49.354-15.775-5.389-1.707-10.411-.543-14.184 3.524-3.818 4.116-4.334 9.253-2.043 14.402 2.106 4.732 6.258 7.086 10.958 8.684 13.369 4.543 26.755 9.041 40.078 13.717 5.582 1.959 11.023 4.323 17.012 7.056zm-13.811 20.966c.151-2.264.55-4.548.374-6.786-.139-1.765-.543-4.615-1.591-5.023-6.559-2.55-13.332-4.55-20.14-6.766-.652 1.601-1.08 2.664-1.518 3.723-7.185 17.383-24.713 27.454-43.174 24.808-17.221-2.468-32.376-18.737-33.482-35.942-1.216-18.925 10.628-36.066 28.424-41.304 1.644-.484 3.67-1.258 4.531-2.554 4.582-6.897 10.77-11.427 18.79-13.476l-13.628-13.798c-17.087 10.668-34.37 10.932-50.39.503L63.701 58.984c5.538 7.751 8.204 16.285 8.266 25.375.063 9.235-2.706 17.859-8.32 25.71 22.686 22.644 45.15 45.124 67.772 67.443.916.904 3.715.987 4.984.28 15.214-8.471 30.243-8.401 45.404.146 1.162.656 3.721.245 4.821-.657 3.692-3.031 6.896-6.65 10.529-9.762 2.253-1.931 1.81-3.468.886-5.964-2.384-6.448-4.168-13.118-6.513-20.505zm136.94-102.2h-15.494v71.145h25.338V38.849h-9.844zM149.31 129.834l7.626-12.213c-16.59-4.676-31.362-10.172-35.494-28.345-9.97 4.054-16.106 14.689-14.689 24.835 1.397 10.009 6.462 17.23 16.033 20.88 9.548 3.64 18.183 1.767 26.524-5.157zm136.96-27.421v7.603h11.489V51.321H286.27v51.093zm-127.732 83.738l-14.109 2.935 14.623 14.856 15.393-14.577c-5.527-1.182-10.275-2.198-15.907-3.214zM92.825 34.831c9.06 3.652 17.792 3.175 25.866-1.191l-14.654-15.714c-4.289 4.4-8.41 8.724-12.646 12.93-1.763 1.752-2.086 2.94 1.434 3.974zM46.597 92.904l6.774 6.546c4.816-10.361 5.05-19.89.062-29.44L38.528 85.154a1286.8 1286.8 0 018.068 7.75zm159.772 51.423l3.372 9.172 6.598-6.527c-2.699-1.592-5.172-3.176-7.784-4.478-.468-.233-1.516.696-2.186 1.833z" fill="#0769CD"/><path d="M46.695 341.175c-12.793 0-25.121.021-37.45-.009-6.915-.016-8.985-2.073-8.987-8.845-.008-27.821-.008-55.643 0-83.464.003-6.87 2.004-8.861 8.876-8.864 18.992-.008 37.985-.074 56.976.065 3.27.024 5.367-.901 7.46-3.544 9.461-11.945 21.016-20.903 36.786-22.269 15.745-1.363 30.042 2.897 41.653 13.831 4.608 4.34 9.345 7.477 15.412 9.349 12.83 3.958 25.392 8.783 38.212 12.778 11.313 3.525 20.411 9.398 25.248 21.035 13.913-3.893 27.534-7.953 41.298-11.456 7.172-1.825 14.573-3.569 21.908-3.737 10.08-.23 17.498 5.255 22.236 14.169 4.914 9.246 4.935 18.307-.871 27.269-4.612 7.119-11.006 11.839-18.884 14.676-35.886 12.924-71.715 26.01-107.7 38.652-14.805 5.201-29.764 4.57-43.951-2.526-15.432-7.719-30.549-16.072-45.995-23.761-4.939-2.459-10.49-3.684-16.36-5.676-1.228 8.372-6.084 9.912-12.665 9.315-4.593-.417-9.255-.081-13.807-.081-1.646 11.8-2.263 12.676-9.395 13.093zm66.944-112.232c-12.373.239-21.135 7.059-28.467 16.073-1.743 2.143-3.122 5.28-3.171 7.987-.293 15.986-.1 31.981-.187 47.972-.015 2.784.657 3.815 3.732 4.451 6.425 1.327 13.043 2.8 18.887 5.641 15.359 7.469 30.259 15.872 45.508 23.574 10.849 5.479 22.425 6.375 33.864 2.363 29.55-10.362 58.966-21.108 88.423-31.734 7.796-2.812 15.677-5.443 23.286-8.702 7.521-3.221 11.019-10.773 8.757-17.345-2.565-7.451-8.179-10.463-17.122-8.164-17.786 4.572-35.473 9.534-53.154 14.5-1.285.361-2.753 1.865-3.193 3.158-5.042 14.83-21.659 22.835-37.28 16.973-12.087-4.535-24.639-7.824-36.967-11.724-7.124-2.254-14.311-4.361-21.288-7.013-6.51-2.474-7.508-8.887-1.881-12.616 1.915-1.269 5.436-1.209 7.834-.479 18.89 5.747 37.708 11.735 56.502 17.79 11.694 3.768 20.517-1.951 19.469-13.067-.611-6.481-4.938-10.442-10.727-12.464-15.966-5.574-32.071-10.754-48.03-16.349-3.817-1.338-8.267-2.846-10.724-5.727-8.825-10.347-19.679-15.356-34.071-15.098zM14.943 304.5v22.04H40.7v-71.858H14.943V304.5zm40.636-3.012v11.802h11.245v-58.564H55.579v46.762zm184.673-201.424c-6.421-2.994-8.246-7.211-5.165-11.093 2.279-2.873 5.275-4.286 8.744-2.819 3.115 1.318 5.03 4.01 4.319 7.558-.783 3.909-3.034 6.559-7.898 6.354z" fill="#0769CD"/><path d="M107.795 277.411c-3.751-3.882-3.361-7.181.242-10.509 2.972-2.746 5.884-2.708 8.894-.331 3.125 2.468 3.936 6.768 1.672 9.743-2.958 3.889-6.65 3.737-10.808 1.097z" fill="#0769CD"/></svg>