<svg width="319" height="352" viewBox="0 0 319 352" fill="none" xmlns="http://www.w3.org/2000/svg"><path d="M.107 175.795c0-29.99.094-59.482-.082-88.971-.034-5.626 1.918-9.216 6.817-12.086 39.906-23.38 79.853-46.696 119.416-70.647 8.569-5.188 14.851-5.63 23.703-.238 39.642 24.151 79.78 47.49 119.801 71.017 4.608 2.708 6.687 5.912 6.651 11.59-.259 40.986-.102 81.974-.206 122.961-.009 3.388.971 5.145 4.06 6.936 20.702 12.01 33.45 29.643 37.108 53.602 5.71 37.4-21.846 75.048-59.323 80.84-34.83 5.383-66.978-13.138-79.604-45.854-.533-1.382-1.114-2.745-1.879-4.624-11.057 6.555-22.065 12.943-32.915 19.59-3.712 2.274-6.735 2.275-10.555.005-41.9-24.895-83.848-49.708-125.924-74.302-5.308-3.102-7.262-6.83-7.172-12.838.283-18.823.104-37.653.104-56.981zM203.625 74.658l-98.498 58.348c10.66 6.327 20.409 12.295 30.387 17.852 1.595.889 4.571.621 6.293-.283 5.868-3.081 11.45-6.703 17.16-10.088 28.817-17.087 57.599-34.234 86.555-51.084 1.913-1.113 5.766-.859 7.672.374 4.618 2.986 3.454 7.737-2.463 11.244-33.687 19.966-67.364 39.951-101.156 59.738-3.493 2.046-4.757 4.205-4.734 8.227.172 29.997.103 59.994.085 89.992-.003 5.701-2.273 8.816-6.395 8.986-4.239.175-6.808-3.18-6.924-9.059-.02-.999-.003-1.999-.003-2.999 0-25.831-.613-51.684.29-77.483.382-10.907-1.926-18.036-12.514-22.384-7.045-2.893-13.367-7.549-20.798-11.873v5.932c0 11.832.04 23.665-.016 35.497-.032 6.621-5.013 9.328-10.796 5.91-13.281-7.851-26.505-15.803-39.839-23.563-3.413-1.986-4.724-4.514-4.675-8.471.185-14.83.113-29.664.014-44.495-.01-1.465-.403-3.662-1.389-4.272-9.24-5.718-18.65-11.164-28.284-16.85-.217 1.178-.378 1.643-.378 2.108-.015 44.996.03 89.992-.117 134.988-.01 3.232 1.752 4.344 3.885 5.602 27.717 16.355 55.44 32.697 83.159 49.047 10.242 6.041 20.478 12.093 31.46 18.58 0-6.135-.077-11.412.024-16.687.087-4.586 3.336-8.544 6.721-8.452 3.356.091 6.541 4.208 6.574 8.609.04 5.249.009 10.497.009 16.534l29.041-17.191c-4.311-46.44 36.699-89.027 88.81-77.614.136-.461.396-.926.396-1.392.034-39.829.075-79.658-.048-119.487-.005-1.436-1.301-3.439-2.579-4.21a1434.64 1434.64 0 00-34.351-20.093c-1.187-.671-3.433-.5-4.704.182-5.839 3.13-11.506 6.581-17.874 10.28zm-45.119 11.981l52.986-31.341c-8.925-5.245-17.406-9.808-25.4-15.107-3.923-2.6-6.669-1.922-10.243.23-15.194 9.147-30.547 18.029-45.776 27.119-3.581 2.137-6.241 1.39-8.665-1.689-2.556-3.245-1.391-5.925 1.311-8.232 1.625-1.388 3.426-2.608 5.269-3.7 13.307-7.885 26.646-15.718 40.535-23.898-8.948-5.346-17.419-10.214-25.667-15.433-3.242-2.052-5.723-1.979-9.008-.012-25.173 15.067-50.455 29.952-75.708 44.886-12.693 7.506-25.395 14.997-38.797 22.91 9.271 5.47 18.058 10.41 26.556 15.804 2.922 1.854 4.91 1.524 7.629-.106 16.63-9.976 33.354-19.796 50.049-29.664 4.1-2.423 8.442-1.972 10.188 1.04 1.762 3.038.366 7.613-3.316 9.825-7.674 4.61-15.463 9.027-23.178 13.57-8.181 4.816-16.33 9.685-25.026 14.848 9.266 5.516 17.868 10.476 26.283 15.737 2.802 1.752 4.913 1.659 7.702-.002 20.506-12.208 41.102-24.264 62.276-36.785zm52.34 145.261c-31.789 23.295-32.342 70.623-1.109 94.846 29.384 22.788 73.125 12.622 89.395-20.884 11.813-24.326 6.105-51.326-11.478-68.46-21.221-20.679-51.435-22.617-76.808-5.502zM69.595 126.807l-13.531-7.715c0 12.937-.026 24.988.057 37.038.006.819.629 1.979 1.318 2.397 9.269 5.627 18.6 11.15 28.73 17.184 0-13.18.067-25.4-.117-37.615-.015-1.057-1.501-2.378-2.617-3.08-4.332-2.725-8.79-5.25-13.84-8.209z" fill="#1472C9"/><path d="M49.493 241.257c-.574-4.742-1.05-9.13-1.224-13.53-.172-4.304-.093-8.622-.022-12.932.07-4.255 2.897-7.629 6.431-7.271 3.992.403 6.18 2.762 6.14 7.007-.067 7.461.25 14.938-.178 22.375-.13 2.256-1.727 5.615-3.48 6.278-1.995.754-4.917-.944-7.667-1.927z" fill="#1A76CB"/><path d="M37.266 210.843c0 4.638.066 8.787-.018 12.933-.097 4.806-3.054 8.586-6.55 8.563-3.923-.026-6.465-3.257-6.5-8.427-.047-6.635-.054-13.272.002-19.908.044-5.304 2.408-8.268 6.44-8.283 4.078-.014 6.388 2.794 6.61 8.163.09 2.153.016 4.312.016 6.959z" fill="#1271C9"/><path d="M223.613 252.172c-11.646 9.66-15.027 22.043-11.905 35.85 3.152 13.941 12.231 23.176 26.48 25.924 24.178 4.664 43.61-11.717 42.922-36.032-.323-11.438-5.806-20.437-14.839-27.424-4.693-3.629-4.007-9.648 1.315-11.268 1.726-.524 4.406.01 5.891 1.097 14.437 10.565 21.975 25 20.568 42.799-1.574 19.903-12.3 34.4-30.988 41.507-29.173 11.095-59.81-7.124-64.809-37.758-4.574-28.029 18.669-55.68 46.367-55.281 4.055.059 7.083 1.416 7.456 5.585.361 4.02-1.939 6.378-6.14 6.873-7.937.936-15.694 2.483-22.318 8.128z" fill="#1472C9"/><path d="M246.013 294.642c-1.191 1.197-2.107 2.166-3.074 3.081-4.661 4.407-7.221 4.362-11.819-.179-2.25-2.223-4.499-4.447-6.754-6.664-2.894-2.844-3.531-6.107-.992-9.332 2.327-2.956 6.314-2.778 9.681.052 1.267 1.064 2.437 2.244 4.537 4.194 6.826-7.057 13.585-14.094 20.405-21.071 2.547-2.605 5.345-4.75 9.113-2.096 3.979 2.804 4.182 6.543.304 10.528-6.966 7.16-14.091 14.165-21.401 21.487z" fill="#1472C9"/></svg>