<svg width="354" height="354" fill="none" xmlns="http://www.w3.org/2000/svg"><path d="M301.824 239.089c.033 1.942-.159 3.888.677 5.159 4.01 6.098 8.459 11.907 12.45 18.016 6.615 10.126 5.6 19.944-2.792 28.462-7.363 7.475-14.831 14.847-22.257 22.261-6.91 6.899-18.207 8.356-26.908 2.448-6.309-4.283-12.415-8.868-18.796-13.037-1.303-.851-3.653-1.051-5.135-.505-5.437 2.001-10.574 4.902-16.095 6.564-3.87 1.165-5.163 3.311-5.67 6.859-.82 5.724-2.132 11.385-2.775 17.124-1.357 12.107-11.637 21.546-23.718 20.709-9.62-.665-19.341-.503-28.985-.042-12.438.595-21.251-8.657-23.239-20.191-1.289-7.483-2.397-14.996-3.543-22.23-6.93-2.974-13.57-6.01-20.379-8.599-1.494-.568-3.94-.077-5.351.842-5.691 3.705-11.16 7.751-16.69 11.703-10.235 7.317-21.114 6.477-30.028-2.388-7.087-7.048-14.192-14.08-21.191-21.214-8.22-8.379-9.112-18.781-2.464-28.521 4.018-5.887 8.338-11.571 12.21-17.55.873-1.35 1.067-3.772.504-5.308-2.11-5.756-4.795-11.298-6.993-17.024-1.058-2.756-2.408-4.066-5.592-4.466-7.532-.945-15.061-2.222-22.445-3.982C6.34 211.73.296 203.6.294 193.168c-.003-10 .786-20.078-.2-29.979-1.226-12.297 9.838-22.717 20.616-23.968a183.775 183.775 0 0018.552-3.122c1.684-.373 3.605-2.101 4.376-3.707 2.22-4.621 3.386-9.801 5.948-14.188 2.636-4.511 1.9-7.8-1.056-11.605-3.96-5.097-7.654-10.417-11.21-15.807-6.103-9.246-4.95-19.835 2.792-27.569 7.306-7.298 14.637-14.574 21.937-21.878 8.185-8.19 19.408-9.185 28.935-2.473 5.559 3.916 11.195 7.746 16.514 11.97 2.381 1.89 4.181 1.717 6.677.559 5.095-2.365 10.232-4.735 15.558-6.47 3.516-1.145 4.977-3.293 5.501-6.55.997-6.197 2.077-12.384 2.894-18.605C139.616 8.453 150.22-.714 160.639.044c9.781.712 19.682.612 29.482.041 13.676-.796 21.97 9.021 23.705 20.055 1.028 6.534 2.147 13.061 3.517 19.53.293 1.385 1.586 3.067 2.859 3.65 6.023 2.752 12.249 5.057 18.295 7.763 2.554 1.144 4.479 1.047 6.762-.696 5.533-4.225 11.265-8.19 16.928-12.243 8.797-6.298 20.018-5.545 27.781 2.056 7.972 7.808 15.841 15.722 23.664 23.68 6.291 6.398 7.61 17.272 2.741 24.85-4.213 6.558-9.064 12.704-13.274 19.262-1.016 1.583-1.363 4.347-.731 6.105 2.517 7.004 5.542 13.825 8.37 20.693 8.059 1.462 16.175 2.965 24.303 4.399 10.615 1.874 18.796 11.653 18.125 22.747-.603 9.963-.483 20.007-.03 29.986.477 10.505-7.475 20.378-19.358 22.359a1032.739 1032.739 0 01-19.089 2.993c-3.013.444-4.92 1.703-5.989 4.86-1.913 5.65-4.387 11.11-6.876 16.955zm-31.91 56.104l5.469 3.5c6.534-6.596 12.54-13.081 19.029-19.039 3.571-3.28 4.342-5.646 1.025-9.712-5.025-6.161-9.319-12.914-14.007-19.354-3.425-4.705-4.032-9.213-1.335-14.793 4.384-9.074 8.22-18.452 11.643-27.935 2.134-5.909 5.731-8.874 11.8-9.748 8.508-1.225 16.941-2.968 25.447-4.213 3.13-.458 4.243-1.763 4.192-4.863-.138-8.33-.092-16.665-.024-24.997.024-2.944-.845-4.457-4.155-4.893-8.032-1.057-15.967-2.874-24.005-3.864-7.764-.956-11.771-5.006-14.1-12.443-2.658-8.488-6.315-16.734-10.275-24.719-2.839-5.724-3.017-10.373.975-15.614 6.002-7.88 11.466-16.172 17.442-24.69-7.562-7.43-14.725-14.617-22.135-21.54-.815-.763-3.45-.613-4.549.133a604.114 604.114 0 00-21.876 15.572c-4.424 3.298-8.506 3.823-13.779 1.39-9.897-4.564-20.163-8.333-30.311-12.341-4.725-1.866-7.578-5.052-8.405-10.163-1.453-8.975-3.204-17.904-4.553-26.894-.397-2.649-1.241-3.817-3.993-3.789-8.832.092-17.672-.136-26.491.206-1.488.057-3.864 2.13-4.168 3.613-1.724 8.404-3.186 16.88-4.257 25.393-.857 6.815-4.549 10.462-10.796 12.771-8.978 3.32-17.868 6.968-26.503 11.09-5.4 2.578-10.001 2.645-14.828-.877-7.095-5.178-14.383-10.094-21.421-15.346-2.497-1.863-4.02-1.907-6.253.468a410.22 410.22 0 01-17.66 17.673c-2.614 2.46-2.776 4.323-.636 7.173 5.175 6.89 9.995 14.045 15.09 20.996 3.364 4.587 3.827 8.944 1.32 14.347-4.24 9.133-7.884 18.568-11.298 28.049-1.933 5.37-4.879 8.668-10.71 9.584-9.886 1.551-19.712 3.485-29.473 5.243v33.546c8.716 1.466 17.146 3.076 25.636 4.253 6.968.965 12.526 2.999 15.15 10.577 3.244 9.369 7.109 18.557 11.28 27.557 2.42 5.222 2.708 9.528-.882 14.322-6.034 8.06-11.652 16.431-17.225 24.358l23.774 24.002c8.398-5.909 16.995-11.795 25.401-17.943 4.051-2.962 7.861-3.355 12.494-1.306 9.83 4.345 19.809 8.36 29.796 12.339 4.223 1.682 6.95 4.347 7.688 8.927 1.367 8.479 2.887 16.934 4.143 25.429.636 4.296 1.946 6.854 7.169 6.482 7.13-.507 14.349-.491 21.482-.003 5.092.349 6.619-1.855 7.237-6.344 1.147-8.345 2.714-16.632 4.06-24.95.793-4.899 3.524-7.829 8.207-9.632 10.033-3.862 20.056-7.817 29.79-12.363 4.826-2.254 8.738-2.18 12.918.861 6.564 4.777 13.208 9.443 20.446 14.514z" fill="#1271C9"/><path d="M175.385 253.13c-35.134-1.153-63.557-24.489-72.175-55.506-10.386-37.377 7.066-74.637 42.233-91.043 27.496-12.828 61.727-6.617 83.586 14.525 17.348 16.778 25.649 37.095 23.976 60.883-2.555 36.324-30.664 65.484-65.79 70.253-3.757.51-7.571.602-11.83.888zm-15.678-23.671c28.049 9.543 60.677-5.817 70.26-36.341 9.13-29.084-7.163-60.249-36.213-69.751-28.041-9.173-60.018 6.324-69.34 33.603-10.535 30.828 4.226 61.773 35.293 72.489z" fill="#1371C9"/></svg>