<svg width="13" height="8" viewBox="0 0 13 8" fill="none" xmlns="http://www.w3.org/2000/svg">
<g clip-path="url(#clip0_37_2)">
<path d="M1.93623 0.688981C3.47094 2.35656 4.96794 3.98372 6.47679 5.62377C8.06677 3.90953 9.59072 2.26655 11.1145 0.62333C11.1658 0.567952 11.2129 0.507878 11.2654 0.453865C11.7845 -0.0800419 12.3505 -0.144942 12.7288 0.312442C13.1795 0.857305 13.0237 1.35192 12.589 1.81948C11.0118 3.51598 9.44194 5.22049 7.86425 6.91651C6.51304 8.36905 6.47276 8.36187 5.10907 6.89046C3.53416 5.19115 1.94854 3.50332 0.37692 1.8005C-0.0868547 1.29801 -0.126447 0.662862 0.279232 0.284025C0.743708 -0.149717 1.20684 -0.0623815 1.63324 0.38118C1.72034 0.471786 1.81003 0.559513 1.93623 0.688981Z" fill="#0769CD"/>
</g>
<defs>
<clipPath id="clip0_37_2">
<rect width="13" height="8" fill="white"/>
</clipPath>
</defs>
</svg>
