<svg width="323" height="68" fill="none" xmlns="http://www.w3.org/2000/svg"><path d="M38.598 32.786H11.382v3.948H39.69V44H3.15V14.6h36.456v7.266H11.382v3.906h27.216v7.014zM71.441 14.6L89.921 44h-9.66l-3.318-5.46H57.371L54.095 44h-9.66l18.48-29.4h8.526zm-4.284 7.686l-5.922 9.828h11.844l-5.922-9.828zM124.342 44H94.774v-7.266h29.274c.28 0 .504-.084.672-.252a.84.84 0 00.294-.672v-2.1a.84.84 0 00-.294-.672c-.168-.168-.392-.252-.672-.252h-21.672c-2.828 0-5.026-.672-6.594-2.016-1.54-1.344-2.31-3.234-2.31-5.67v-2.772c0-2.436.784-4.326 2.352-5.67 1.568-1.372 3.752-2.058 6.552-2.058h28.518v7.266H102.67c-.28 0-.518.084-.714.252-.168.168-.252.392-.252.672v2.058c0 .28.084.504.252.672.196.168.434.252.714.252h21.672c2.8 0 4.984.686 6.552 2.058 1.568 1.344 2.352 3.22 2.352 5.628v2.898c0 2.408-.784 4.284-2.352 5.628-1.568 1.344-3.752 2.016-6.552 2.016zm12.219-29.4h10.542l11.592 13.104L170.287 14.6h10.542l-18.018 19.656V44h-8.232v-9.744L136.561 14.6zm106.107 0L227.59 44h-5.754l-8.652-18.522L204.532 44h-5.754L183.7 14.6h9.66l8.148 17.85 8.106-17.85h7.14l8.106 17.85 8.148-17.85h9.66zm23.505 0l18.48 29.4h-9.66l-3.318-5.46h-19.572L248.827 44h-9.66l18.48-29.4h8.526zm-4.284 7.686l-5.922 9.828h11.844l-5.922-9.828zm16.23-7.686h10.542l11.592 13.104L311.845 14.6h10.542l-18.018 19.656V44h-8.232v-9.744L278.119 14.6zM3.044 65v-8.4H10.7V65H8.768v-7.26l.444.444h-4.68l.444-.444V65H3.044zm17.898.144c-.664 0-1.28-.108-1.848-.324a4.439 4.439 0 01-1.464-.912 4.282 4.282 0 01-.96-1.38 4.379 4.379 0 01-.336-1.728c0-.624.112-1.2.336-1.728.232-.528.556-.988.972-1.38a4.439 4.439 0 011.464-.912 5.026 5.026 0 011.824-.324c.664 0 1.272.108 1.824.324.56.216 1.044.52 1.452.912a4.194 4.194 0 011.32 3.108c0 .624-.116 1.204-.348 1.74a4.195 4.195 0 01-.972 1.38 4.405 4.405 0 01-1.452.9 4.93 4.93 0 01-1.812.324zm-.012-1.656c.376 0 .72-.064 1.032-.192a2.448 2.448 0 001.392-1.404c.136-.328.204-.692.204-1.092 0-.4-.068-.764-.204-1.092a2.448 2.448 0 00-.552-.852 2.351 2.351 0 00-.828-.552 2.786 2.786 0 00-1.044-.192c-.376 0-.724.064-1.044.192a2.504 2.504 0 00-.828.552c-.24.24-.428.524-.564.852a2.98 2.98 0 00-.192 1.092c0 .392.064.756.192 1.092.136.328.32.612.552.852.24.24.52.424.84.552.32.128.668.192 1.044.192zm15.568.648v-5.952h-2.88l-.037 1.224c-.024.52-.06 1.012-.108 1.476a9.28 9.28 0 01-.191 1.272 3.829 3.829 0 01-.348.96c-.136.264-.308.452-.517.564l-2.076-.264a.868.868 0 00.708-.3c.192-.208.345-.5.457-.876.111-.384.192-.832.24-1.344.056-.512.096-1.068.12-1.668l.096-2.628h6.455v7.536h-1.92zm-6.432 2.604l.012-3.324h9.515v3.324h-1.8V65h-5.927v1.74h-1.8zm20.193-7.38c1.008 0 1.788.228 2.34.684.552.448.828 1.124.828 2.028 0 .96-.308 1.688-.924 2.184-.608.496-1.452.744-2.532.744h-3.78v-6.816h-2.364V56.6h4.284v2.76h2.148zm-.396 4.2c.504 0 .896-.124 1.176-.372.288-.248.432-.608.432-1.08 0-.464-.144-.796-.432-.996-.28-.208-.672-.312-1.176-.312H48.11v2.76h1.752zm10.892-3.576H64.8v1.512h-4.044v-1.512zm.144 3.456h4.572V65h-6.504v-8.4h6.348v1.56H60.9v5.28zM71.181 65v-8.4h1.609l3.575 5.928h-.852L79.03 56.6h1.609l.011 8.4h-1.823l-.012-5.604h.348l-2.82 4.716h-.864l-2.88-4.716h.407V65h-1.823zm21.455-8.4h1.944V65h-1.944v-8.4zM88.82 65h-1.944v-8.4h1.944V65zm3.96-3.444h-4.104v-1.644h4.104v1.644zM100.825 65v-8.4h1.932v5.472l4.008-5.472h1.824V65h-1.92v-5.46L102.661 65h-1.836zm19.431 0l-2.616-4.044 1.572-.948L122.464 65h-2.208zm-5.46 0v-8.4h1.932V65h-1.932zm1.368-3.384v-1.62h2.928v1.62h-2.928zm3.228-.6l-1.788-.216 2.724-4.2h2.052l-2.988 4.416zM127.515 65v-8.4h1.932v5.472l4.008-5.472h1.824V65h-1.92v-5.46L129.351 65h-1.836zm27.102-.864v-5.952h-2.88l-.036 1.224c-.024.52-.06 1.012-.108 1.476a9.28 9.28 0 01-.192 1.272 3.829 3.829 0 01-.348.96c-.136.264-.308.452-.516.564l-2.076-.264a.868.868 0 00.708-.3c.192-.208.344-.5.456-.876.112-.384.192-.832.24-1.344.056-.512.096-1.068.12-1.668l.096-2.628h6.456v7.536h-1.92zm-6.432 2.604l.012-3.324h9.516v3.324h-1.8V65h-5.928v1.74h-1.8zm15.06-1.608c-.144 0-.296-.012-.456-.036a8.997 8.997 0 01-.504-.096l.12-1.644c.112.032.228.048.348.048a.884.884 0 00.768-.396c.184-.272.316-.66.396-1.164.08-.504.132-1.116.156-1.836l.12-3.408h6.456V65h-1.92v-7.26l.444.444h-3.708l.396-.468-.072 2.22c-.024.824-.08 1.556-.168 2.196-.088.64-.224 1.184-.408 1.632-.184.448-.436.788-.756 1.02-.32.232-.724.348-1.212.348zm18.43-.132v-2.652l.48.42h-2.304c-.728 0-1.356-.12-1.884-.36-.528-.24-.932-.588-1.212-1.044-.28-.456-.42-1-.42-1.632 0-.656.148-1.216.444-1.68a2.907 2.907 0 011.272-1.08c.544-.248 1.184-.372 1.92-.372h3.624V65h-1.92zm-5.316 0l2.088-3.012h1.968L178.411 65h-2.052zm5.316-3.276V57.68l.48.504h-2.136c-.552 0-.976.128-1.272.384-.288.256-.432.636-.432 1.14 0 .488.14.864.42 1.128.28.264.692.396 1.236.396h2.184l-.48.492zM197.378 65v-8.4h1.932v5.472l4.008-5.472h1.824V65h-1.92v-5.46L199.214 65h-1.836zm19.756-8.4h1.944V65h-1.944v-8.4zm-3.816 8.4h-1.944v-8.4h1.944V65zm3.96-3.444h-4.104v-1.644h4.104v1.644zM225.322 65v-8.4h3.912c.976 0 1.736.188 2.28.564.544.376.816.912.816 1.608 0 .688-.256 1.224-.768 1.608-.512.376-1.192.564-2.04.564l.228-.504c.944 0 1.676.188 2.196.564.52.376.78.92.78 1.632 0 .736-.28 1.316-.84 1.74-.552.416-1.36.624-2.424.624h-4.14zm1.932-1.44h2.136c.448 0 .788-.088 1.02-.264.232-.176.348-.448.348-.816 0-.352-.116-.612-.348-.78-.232-.176-.572-.264-1.02-.264h-2.136v2.124zm0-3.48h1.812c.424 0 .744-.084.96-.252.216-.176.324-.432.324-.768s-.108-.588-.324-.756c-.216-.176-.536-.264-.96-.264h-1.812v2.04zM237.456 65l3.744-8.4h1.92l3.756 8.4h-2.04l-3.072-7.416h.768L239.448 65h-1.992zm1.872-1.8l.516-1.476h4.32l.528 1.476h-5.364zm12.933 1.932c-.144 0-.296-.012-.456-.036a8.997 8.997 0 01-.504-.096l.12-1.644c.112.032.228.048.348.048a.884.884 0 00.768-.396c.184-.272.316-.66.396-1.164.08-.504.132-1.116.156-1.836l.12-3.408h6.456V65h-1.92v-7.26l.444.444h-3.708l.396-.468-.072 2.22c-.024.824-.08 1.556-.168 2.196-.088.64-.224 1.184-.408 1.632-.184.448-.436.788-.756 1.02-.32.232-.724.348-1.212.348zM265.903 65v-8.4h1.932v5.472l4.008-5.472h1.824V65h-1.92v-5.46L267.739 65h-1.836zm19.504-.864v-5.952h-2.88l-.036 1.224c-.024.52-.06 1.012-.108 1.476a9.28 9.28 0 01-.192 1.272 3.829 3.829 0 01-.348.96c-.136.264-.308.452-.516.564l-2.076-.264a.868.868 0 00.708-.3c.192-.208.344-.5.456-.876.112-.384.192-.832.24-1.344.056-.512.096-1.068.12-1.668l.096-2.628h6.456v7.536h-1.92zm-6.432 2.604l.012-3.324h9.516v3.324h-1.8V65h-5.928v1.74h-1.8zm18.997-1.596c-.664 0-1.28-.108-1.848-.324a4.439 4.439 0 01-1.464-.912 4.282 4.282 0 01-.96-1.38 4.379 4.379 0 01-.336-1.728c0-.624.112-1.2.336-1.728.232-.528.556-.988.972-1.38a4.439 4.439 0 011.464-.912 5.026 5.026 0 011.824-.324c.664 0 1.272.108 1.824.324.56.216 1.044.52 1.452.912a4.194 4.194 0 011.32 3.108c0 .624-.116 1.204-.348 1.74a4.195 4.195 0 01-.972 1.38 4.405 4.405 0 01-1.452.9 4.93 4.93 0 01-1.812.324zm-.012-1.656c.376 0 .72-.064 1.032-.192a2.448 2.448 0 001.392-1.404c.136-.328.204-.692.204-1.092 0-.4-.068-.764-.204-1.092a2.448 2.448 0 00-.552-.852 2.351 2.351 0 00-.828-.552 2.786 2.786 0 00-1.044-.192c-.376 0-.724.064-1.044.192a2.504 2.504 0 00-.828.552c-.24.24-.428.524-.564.852a2.98 2.98 0 00-.192 1.092c0 .392.064.756.192 1.092.136.328.32.612.552.852.24.24.52.424.84.552.32.128.668.192 1.044.192zM308.194 65v-8.4h3.912c.976 0 1.736.188 2.28.564.544.376.816.912.816 1.608 0 .688-.256 1.224-.768 1.608-.512.376-1.192.564-2.04.564l.228-.504c.944 0 1.676.188 2.196.564.52.376.78.92.78 1.632 0 .736-.28 1.316-.84 1.74-.552.416-1.36.624-2.424.624h-4.14zm1.932-1.44h2.136c.448 0 .788-.088 1.02-.264.232-.176.348-.448.348-.816 0-.352-.116-.612-.348-.78-.232-.176-.572-.264-1.02-.264h-2.136v2.124zm0-3.48h1.812c.424 0 .744-.084.96-.252.216-.176.324-.432.324-.768s-.108-.588-.324-.756c-.216-.176-.536-.264-.96-.264h-1.812v2.04z" fill="#101010"/></svg>