<svg width="230" height="44" fill="none" xmlns="http://www.w3.org/2000/svg"><path d="M2.957 41v-7.7h7.018V41H8.204v-6.655l.407.407h-4.29l.407-.407V41H2.957zm13.712.132a4.727 4.727 0 01-1.694-.297 4.068 4.068 0 01-1.342-.836 3.924 3.924 0 01-.88-1.265 4.013 4.013 0 01-.308-1.584c0-.572.102-1.1.308-1.584.212-.484.51-.906.89-1.265.382-.36.83-.638 1.343-.836a4.607 4.607 0 011.672-.297c.608 0 1.166.099 1.672.297a3.94 3.94 0 011.33.836 3.846 3.846 0 011.21 2.849c0 .572-.106 1.104-.318 1.595-.213.484-.51.906-.891 1.265a4.038 4.038 0 01-1.331.825 4.52 4.52 0 01-1.661.297zm-.011-1.518c.344 0 .66-.059.946-.176a2.245 2.245 0 001.276-1.287c.124-.3.187-.634.187-1.001 0-.367-.063-.7-.187-1.001a2.245 2.245 0 00-.506-.781 2.155 2.155 0 00-.76-.506 2.555 2.555 0 00-.956-.176c-.345 0-.664.059-.957.176a2.295 2.295 0 00-.76.506c-.22.22-.392.48-.516.781-.118.3-.176.634-.176 1.001 0 .36.058.693.176 1.001.124.3.293.561.506.781.22.22.476.389.77.506.293.117.612.176.957.176zm11.575.594v-5.456h-2.64l-.033 1.122c-.022.477-.055.928-.1 1.353a8.524 8.524 0 01-.175 1.166 3.51 3.51 0 01-.32.88c-.124.242-.282.414-.472.517l-1.903-.242a.796.796 0 00.649-.275c.176-.19.315-.458.418-.803a6.71 6.71 0 00.22-1.232c.051-.47.088-.979.11-1.529l.088-2.409h5.918v6.908h-1.76zm-5.896 2.387l.01-3.047h8.724v3.047h-1.65V41h-5.434v1.595h-1.65zm15.815-6.765c.924 0 1.639.209 2.145.627.506.41.759 1.03.759 1.859 0 .88-.282 1.547-.847 2.002-.557.455-1.331.682-2.321.682h-3.465v-6.248h-2.167V33.3h3.927v2.53h1.969zm-.363 3.85c.462 0 .821-.114 1.078-.341.264-.227.396-.557.396-.99 0-.425-.132-.73-.396-.913-.257-.19-.616-.286-1.078-.286h-1.606v2.53h1.606zm7.29-3.278h3.707v1.386h-3.707v-1.386zm.132 3.168h4.191V41H43.44v-7.7h5.819v1.43h-4.048v4.84zm6.73 1.43v-7.7h1.474l3.278 5.434h-.78l3.222-5.434h1.474l.011 7.7h-1.672l-.01-5.137h.318l-2.585 4.323h-.792l-2.64-4.323h.374V41h-1.672zm16.972-7.7h1.782V41h-1.782v-7.7zM65.415 41h-1.782v-7.7h1.782V41zm3.63-3.157h-3.762v-1.507h3.762v1.507zM73.725 41v-7.7h1.77v5.016L79.17 33.3h1.672V41h-1.76v-5.005L75.407 41h-1.683zm15.117 0l-2.398-3.707 1.44-.869L90.867 41h-2.024zm-5.005 0v-7.7h1.77V41h-1.77zm1.254-3.102v-1.485h2.684v1.485H85.09zm2.959-.55l-1.64-.198 2.498-3.85h1.88l-2.738 4.048zM92.8 41v-7.7h1.771v5.016l3.674-5.016h1.672V41h-1.76v-5.005L94.483 41H92.8zm19.454-.792v-5.456h-2.64l-.033 1.122c-.022.477-.055.928-.099 1.353a8.665 8.665 0 01-.176 1.166 3.522 3.522 0 01-.319.88c-.125.242-.283.414-.473.517l-1.903-.242a.796.796 0 00.649-.275c.176-.19.315-.458.418-.803a6.71 6.71 0 00.22-1.232c.051-.47.088-.979.11-1.529l.088-2.409h5.918v6.908h-1.76zm-5.896 2.387l.011-3.047h8.723v3.047h-1.65V41h-5.434v1.595h-1.65zm11.11-1.474c-.132 0-.271-.011-.418-.033a8.332 8.332 0 01-.462-.088l.11-1.507c.103.03.209.044.319.044a.81.81 0 00.704-.363c.169-.25.29-.605.363-1.067.074-.462.121-1.023.143-1.683l.11-3.124h5.918V41h-1.76v-6.655l.407.407h-3.399l.363-.429-.066 2.035a18.895 18.895 0 01-.154 2.013c-.08.587-.205 1.085-.374 1.496-.168.41-.399.722-.693.935-.293.213-.663.319-1.111.319zM131.667 41v-2.431l.44.385h-2.112c-.667 0-1.243-.11-1.727-.33a2.459 2.459 0 01-1.111-.957c-.256-.418-.385-.917-.385-1.496 0-.601.136-1.115.407-1.54a2.67 2.67 0 011.166-.99c.499-.227 1.086-.341 1.76-.341h3.322V41h-1.76zm-4.873 0l1.914-2.761h1.804L128.675 41h-1.881zm4.873-3.003V34.29l.44.462h-1.958c-.506 0-.894.117-1.166.352-.264.235-.396.583-.396 1.045 0 .447.129.792.385 1.034.257.242.635.363 1.133.363h2.002l-.44.451zM140.672 41v-7.7h1.771v5.016l3.674-5.016h1.672V41h-1.76v-5.005L142.355 41h-1.683zm15.414-7.7h1.782V41h-1.782v-7.7zm-3.498 7.7h-1.782v-7.7h1.782V41zm3.63-3.157h-3.762v-1.507h3.762v1.507zM160.897 41v-7.7h3.586c.895 0 1.592.172 2.09.517.499.345.748.836.748 1.474 0 .63-.234 1.122-.704 1.474-.469.345-1.092.517-1.87.517l.209-.462c.866 0 1.537.172 2.013.517.477.345.715.843.715 1.496 0 .675-.256 1.206-.77 1.595-.506.381-1.246.572-2.222.572h-3.795zm1.771-1.32h1.958c.411 0 .723-.08.935-.242.213-.161.319-.41.319-.748 0-.323-.106-.561-.319-.715-.212-.161-.524-.242-.935-.242h-1.958v1.947zm0-3.19h1.661c.389 0 .682-.077.88-.231.198-.161.297-.396.297-.704 0-.308-.099-.539-.297-.693-.198-.161-.491-.242-.88-.242h-1.661v1.87zm6.657 4.51l3.432-7.7h1.76l3.443 7.7h-1.87l-2.816-6.798h.704L171.151 41h-1.826zm1.716-1.65l.473-1.353h3.96l.484 1.353h-4.917zm9.16 1.771c-.132 0-.272-.011-.418-.033a7.996 7.996 0 01-.462-.088l.11-1.507c.102.03.209.044.319.044.3 0 .535-.121.704-.363.168-.25.289-.605.363-1.067.073-.462.121-1.023.143-1.683l.11-3.124h5.918V41h-1.76v-6.655l.407.407h-3.399l.363-.429-.066 2.035a19.161 19.161 0 01-.154 2.013c-.081.587-.206 1.085-.374 1.496-.169.41-.4.722-.693.935-.294.213-.664.319-1.111.319zm9.81-.121v-7.7h1.771v5.016l3.674-5.016h1.672V41h-1.76v-5.005L191.694 41h-1.683zm15.184-.792v-5.456h-2.64l-.033 1.122c-.022.477-.055.928-.099 1.353a8.357 8.357 0 01-.176 1.166 3.48 3.48 0 01-.319.88c-.124.242-.282.414-.473.517l-1.903-.242a.795.795 0 00.649-.275c.176-.19.316-.458.418-.803.103-.352.176-.763.22-1.232.052-.47.088-.979.11-1.529l.088-2.409h5.918v6.908h-1.76zm-5.896 2.387l.011-3.047h8.723v3.047h-1.65V41h-5.434v1.595h-1.65zm14.719-1.463a4.723 4.723 0 01-1.694-.297 4.06 4.06 0 01-1.342-.836 3.915 3.915 0 01-.88-1.265 4.002 4.002 0 01-.308-1.584c0-.572.102-1.1.308-1.584.212-.484.509-.906.891-1.265a4.06 4.06 0 011.342-.836 4.603 4.603 0 011.672-.297c.608 0 1.166.099 1.672.297a3.95 3.95 0 011.331.836c.381.36.678.781.891 1.265.212.477.319 1.005.319 1.584 0 .572-.107 1.104-.319 1.595-.213.484-.51.906-.891 1.265a4.041 4.041 0 01-1.331.825 4.521 4.521 0 01-1.661.297zm-.011-1.518c.344 0 .66-.059.946-.176a2.253 2.253 0 001.276-1.287c.124-.3.187-.634.187-1.001 0-.367-.063-.7-.187-1.001a2.253 2.253 0 00-.506-.781 2.16 2.16 0 00-.759-.506 2.559 2.559 0 00-.957-.176c-.345 0-.664.059-.957.176a2.295 2.295 0 00-.759.506c-.22.22-.393.48-.517.781-.118.3-.176.634-.176 1.001 0 .36.058.693.176 1.001.124.3.293.561.506.781.22.22.476.389.77.506.293.117.612.176.957.176zM220.693 41v-7.7h3.586c.894 0 1.591.172 2.09.517.498.345.748.836.748 1.474 0 .63-.235 1.122-.704 1.474-.47.345-1.093.517-1.87.517l.209-.462c.865 0 1.536.172 2.013.517.476.345.715.843.715 1.496 0 .675-.257 1.206-.77 1.595-.506.381-1.247.572-2.222.572h-3.795zm1.771-1.32h1.958c.41 0 .722-.08.935-.242.212-.161.319-.41.319-.748 0-.323-.107-.561-.319-.715-.213-.161-.525-.242-.935-.242h-1.958v1.947zm0-3.19h1.661c.388 0 .682-.077.88-.231.198-.161.297-.396.297-.704 0-.308-.099-.539-.297-.693-.198-.161-.492-.242-.88-.242h-1.661v1.87zM3.004 28V.64h25.27v5.928H8.97v4.788h15.542v5.928H8.97v4.788h19.304V28H3.004zm29.018 0V6.264c0-1.039.253-1.976.76-2.812A5.69 5.69 0 0134.834 1.4a5.448 5.448 0 012.812-.76H53.72c1.038 0 1.976.253 2.812.76a5.691 5.691 0 012.052 2.052c.532.836.798 1.773.798 2.812V28h-5.966v-8.816H37.912V28h-5.89zm5.89-14.744h15.504V6.568H37.912v6.688zM69.183 28a5.447 5.447 0 01-2.812-.76 5.69 5.69 0 01-2.052-2.052 5.448 5.448 0 01-.76-2.812V19.83h5.89v2.242h15.504v-4.788h-15.77a5.447 5.447 0 01-2.812-.76 5.79 5.79 0 01-2.052-2.014 5.517 5.517 0 01-.76-2.85V6.264c0-1.039.254-1.976.76-2.812A5.69 5.69 0 0166.371 1.4a5.448 5.448 0 012.812-.76h16.112a5.25 5.25 0 012.774.76 5.691 5.691 0 012.052 2.052c.532.836.798 1.773.798 2.812V8.81h-5.966V6.568H69.45v4.788h15.846a5.25 5.25 0 012.774.76 5.692 5.692 0 012.052 2.052c.532.836.798 1.773.798 2.812v5.396c0 1.013-.266 1.95-.798 2.812a5.692 5.692 0 01-2.052 2.052 5.25 5.25 0 01-2.774.76H69.183zm36.029 0V17.778L92.558.64h7.03l8.588 10.792L116.726.64h7.106L111.14 17.816V28h-5.928zm29.513 0L124.769.64h3.268l8.018 21.964L144.035.64h3.724l8.018 21.964L163.719.64h3.344L157.107 28h-2.698l-8.512-23.37L137.385 28h-2.66zm34.594 0V5.2c0-.836.203-1.596.608-2.28.405-.71.95-1.267 1.634-1.672a4.591 4.591 0 012.318-.608h18.24c.836 0 1.596.203 2.28.608a4.416 4.416 0 011.672 1.672c.405.684.608 1.444.608 2.28V28h-3.078v-9.994h-21.204V28h-3.078zm3.078-13.072h21.204V5.2c0-.405-.152-.747-.456-1.026a1.339 1.339 0 00-1.026-.456h-18.24c-.405 0-.76.152-1.064.456-.279.279-.418.62-.418 1.026v9.728zM212.116 28V17.702L199.538.64h3.534l10.602 13.376L224.162.64h3.61l-12.578 17.062V28h-3.078z" fill="#101010"/></svg>