<svg width="277" height="58" fill="none" xmlns="http://www.w3.org/2000/svg"><path d="M33.084 28.388H9.756v3.384H34.02V38H2.7V12.8h31.248v6.228H9.756v3.348h23.328v6.012zM61.235 12.8L77.075 38h-8.28l-2.844-4.68H49.175L46.367 38h-8.28l15.84-25.2h7.308zm-3.672 6.588l-5.076 8.424H62.64l-5.076-8.424zM106.58 38H81.235v-6.228h25.092c.24 0 .432-.072.576-.216a.72.72 0 00.252-.576v-1.8a.72.72 0 00-.252-.576c-.144-.144-.336-.216-.576-.216H87.751c-2.424 0-4.308-.576-5.652-1.728-1.32-1.152-1.98-2.772-1.98-4.86v-2.376c0-2.088.672-3.708 2.016-4.86 1.344-1.176 3.216-1.764 5.616-1.764h24.444v6.228H88.003a.908.908 0 00-.612.216c-.144.144-.216.336-.216.576v1.764c0 .24.072.432.216.576a.908.908 0 00.612.216h18.576c2.4 0 4.272.588 5.616 1.764 1.344 1.152 2.016 2.76 2.016 4.824v2.484c0 2.064-.672 3.672-2.016 4.824-1.344 1.152-3.216 1.728-5.616 1.728zm10.473-25.2h9.036l9.936 11.232L145.96 12.8h9.036l-15.444 16.848V38h-7.056v-8.352L117.052 12.8zm90.949 0L195.077 38h-4.932l-7.416-15.876L175.313 38h-4.932l-12.924-25.2h8.28l6.984 15.3 6.948-15.3h6.12l6.948 15.3 6.984-15.3h8.28zm20.148 0L243.99 38h-8.28l-2.844-4.68H216.09L213.281 38h-8.28l15.84-25.2h7.308zm-3.672 6.588l-5.076 8.424h10.152l-5.076-8.424zm13.911-6.588h9.036l9.936 11.232 9.936-11.232h9.036l-15.444 16.848V38h-7.056v-8.352L238.388 12.8zM3.044 55v-8.4H10.7V55H8.768v-7.26l.444.444h-4.68l.444-.444V55H3.044zm16.098.144c-.664 0-1.28-.108-1.848-.324a4.439 4.439 0 01-1.464-.912 4.282 4.282 0 01-.96-1.38 4.379 4.379 0 01-.336-1.728c0-.624.112-1.2.336-1.728.232-.528.556-.988.972-1.38a4.439 4.439 0 011.464-.912 5.026 5.026 0 011.824-.324c.664 0 1.272.108 1.824.324.56.216 1.044.52 1.452.912a4.194 4.194 0 011.32 3.108c0 .624-.116 1.204-.348 1.74a4.195 4.195 0 01-.972 1.38 4.405 4.405 0 01-1.452.9 4.93 4.93 0 01-1.812.324zm-.012-1.656c.376 0 .72-.064 1.032-.192a2.448 2.448 0 001.392-1.404c.136-.328.204-.692.204-1.092 0-.4-.068-.764-.204-1.092a2.448 2.448 0 00-.552-.852 2.351 2.351 0 00-.828-.552 2.786 2.786 0 00-1.044-.192c-.376 0-.724.064-1.044.192a2.504 2.504 0 00-.828.552c-.24.24-.428.524-.564.852a2.98 2.98 0 00-.192 1.092c0 .392.064.756.192 1.092.136.328.32.612.552.852.24.24.52.424.84.552.32.128.668.192 1.044.192zm13.768.648v-5.952h-2.88l-.037 1.224c-.024.52-.06 1.012-.108 1.476a9.28 9.28 0 01-.192 1.272 3.829 3.829 0 01-.348.96c-.135.264-.307.452-.515.564l-2.077-.264a.868.868 0 00.709-.3c.192-.208.344-.5.456-.876.111-.384.192-.832.24-1.344.055-.512.095-1.068.12-1.668l.096-2.628h6.456v7.536h-1.92zm-6.433 2.604l.012-3.324h9.516v3.324h-1.8V55h-5.927v1.74h-1.8zm18.394-7.38c1.008 0 1.788.228 2.34.684.552.448.828 1.124.828 2.028 0 .96-.308 1.688-.924 2.184-.608.496-1.452.744-2.532.744h-3.78v-6.816h-2.364V46.6h4.284v2.76h2.148zm-.396 4.2c.504 0 .896-.124 1.176-.372.288-.248.432-.608.432-1.08 0-.464-.144-.796-.432-.996-.28-.208-.672-.312-1.176-.312H42.71v2.76h1.752zm9.092-3.576H57.6v1.512h-4.044v-1.512zm.144 3.456h4.572V55h-6.504v-8.4h6.348v1.56H53.7v5.28zM62.182 55v-8.4h1.607l3.576 5.928h-.852L70.03 46.6h1.609l.011 8.4h-1.823l-.012-5.604h.348l-2.82 4.716h-.864l-2.88-4.716h.407V55h-1.823zm19.654-8.4h1.944V55h-1.944v-8.4zM78.02 55h-1.944v-8.4h1.944V55zm3.96-3.444h-4.104v-1.644h4.104v1.644zM88.225 55v-8.4h1.932v5.472l4.008-5.472h1.824V55h-1.92v-5.46L90.06 55h-1.836zm17.631 0l-2.616-4.044 1.572-.948L108.064 55h-2.208zm-5.46 0v-8.4h1.932V55h-1.932zm1.368-3.384v-1.62h2.928v1.62h-2.928zm3.228-.6l-1.788-.216 2.724-4.2h2.052l-2.988 4.416zM111.315 55v-8.4h1.932v5.472l4.008-5.472h1.824V55h-1.92v-5.46L113.151 55h-1.836zm23.502-.864v-5.952h-2.88l-.036 1.224c-.024.52-.06 1.012-.108 1.476a9.28 9.28 0 01-.192 1.272 3.829 3.829 0 01-.348.96c-.136.264-.308.452-.516.564l-2.076-.264a.868.868 0 00.708-.3c.192-.208.344-.5.456-.876.112-.384.192-.832.24-1.344.056-.512.096-1.068.12-1.668l.096-2.628h6.456v7.536h-1.92zm-6.432 2.604l.012-3.324h9.516v3.324h-1.8V55h-5.928v1.74h-1.8zm13.261-1.608c-.144 0-.296-.012-.456-.036a8.997 8.997 0 01-.504-.096l.12-1.644c.112.032.228.048.348.048a.884.884 0 00.768-.396c.184-.272.316-.66.396-1.164.08-.504.132-1.116.156-1.836l.12-3.408h6.456V55h-1.92v-7.26l.444.444h-3.708l.396-.468-.072 2.22c-.024.824-.08 1.556-.168 2.196-.088.64-.224 1.184-.408 1.632-.184.448-.436.788-.756 1.02-.32.232-.724.348-1.212.348zM158.275 55v-2.652l.48.42h-2.304c-.728 0-1.356-.12-1.884-.36-.528-.24-.932-.588-1.212-1.044-.28-.456-.42-1-.42-1.632 0-.656.148-1.216.444-1.68a2.907 2.907 0 011.272-1.08c.544-.248 1.184-.372 1.92-.372h3.624V55h-1.92zm-5.316 0l2.088-3.012h1.968L155.011 55h-2.052zm5.316-3.276V47.68l.48.504h-2.136c-.552 0-.976.128-1.272.384-.288.256-.432.636-.432 1.14 0 .488.14.864.42 1.128.28.264.692.396 1.236.396h2.184l-.48.492zM170.378 55v-8.4h1.932v5.472l4.008-5.472h1.824V55h-1.92v-5.46L172.214 55h-1.836zm17.956-8.4h1.944V55h-1.944v-8.4zm-3.816 8.4h-1.944v-8.4h1.944V55zm3.96-3.444h-4.104v-1.644h4.104v1.644zM194.722 55v-8.4h3.912c.976 0 1.736.188 2.28.564.544.376.816.912.816 1.608 0 .688-.256 1.224-.768 1.608-.512.376-1.192.564-2.04.564l.228-.504c.944 0 1.676.188 2.196.564.52.376.78.92.78 1.632 0 .736-.28 1.316-.84 1.74-.552.416-1.36.624-2.424.624h-4.14zm1.932-1.44h2.136c.448 0 .788-.088 1.02-.264.232-.176.348-.448.348-.816 0-.352-.116-.612-.348-.78-.232-.176-.572-.264-1.02-.264h-2.136v2.124zm0-3.48h1.812c.424 0 .744-.084.96-.252.216-.176.324-.432.324-.768s-.108-.588-.324-.756c-.216-.176-.536-.264-.96-.264h-1.812v2.04zm8.402 4.92l3.744-8.4h1.92l3.756 8.4h-2.04l-3.072-7.416h.768L207.048 55h-1.992zm1.872-1.8l.516-1.476h4.32l.528 1.476h-5.364zm11.133 1.932c-.144 0-.296-.012-.456-.036a8.997 8.997 0 01-.504-.096l.12-1.644c.112.032.228.048.348.048a.884.884 0 00.768-.396c.184-.272.316-.66.396-1.164.08-.504.132-1.116.156-1.836l.12-3.408h6.456V55h-1.92v-7.26l.444.444h-3.708l.396-.468-.072 2.22c-.024.824-.08 1.556-.168 2.196-.088.64-.224 1.184-.408 1.632-.184.448-.436.788-.756 1.02-.32.232-.724.348-1.212.348zM229.903 55v-8.4h1.932v5.472l4.008-5.472h1.824V55h-1.92v-5.46L231.739 55h-1.836zm17.704-.864v-5.952h-2.88l-.036 1.224c-.024.52-.06 1.012-.108 1.476a9.28 9.28 0 01-.192 1.272 3.829 3.829 0 01-.348.96c-.136.264-.308.452-.516.564l-2.076-.264a.868.868 0 00.708-.3c.192-.208.344-.5.456-.876.112-.384.192-.832.24-1.344.056-.512.096-1.068.12-1.668l.096-2.628h6.456v7.536h-1.92zm-6.432 2.604l.012-3.324h9.516v3.324h-1.8V55h-5.928v1.74h-1.8zm17.197-1.596c-.664 0-1.28-.108-1.848-.324a4.439 4.439 0 01-1.464-.912 4.282 4.282 0 01-.96-1.38 4.379 4.379 0 01-.336-1.728c0-.624.112-1.2.336-1.728.232-.528.556-.988.972-1.38a4.439 4.439 0 011.464-.912 5.026 5.026 0 011.824-.324c.664 0 1.272.108 1.824.324.56.216 1.044.52 1.452.912a4.194 4.194 0 011.32 3.108c0 .624-.116 1.204-.348 1.74a4.195 4.195 0 01-.972 1.38 4.405 4.405 0 01-1.452.9 4.93 4.93 0 01-1.812.324zm-.012-1.656c.376 0 .72-.064 1.032-.192a2.448 2.448 0 001.392-1.404c.136-.328.204-.692.204-1.092 0-.4-.068-.764-.204-1.092a2.448 2.448 0 00-.552-.852 2.351 2.351 0 00-.828-.552 2.786 2.786 0 00-1.044-.192c-.376 0-.724.064-1.044.192a2.504 2.504 0 00-.828.552c-.24.24-.428.524-.564.852a2.98 2.98 0 00-.192 1.092c0 .392.064.756.192 1.092.136.328.32.612.552.852.24.24.52.424.84.552.32.128.668.192 1.044.192zM266.794 55v-8.4h3.912c.976 0 1.736.188 2.28.564.544.376.816.912.816 1.608 0 .688-.256 1.224-.768 1.608-.512.376-1.192.564-2.04.564l.228-.504c.944 0 1.676.188 2.196.564.52.376.78.92.78 1.632 0 .736-.28 1.316-.84 1.74-.552.416-1.36.624-2.424.624h-4.14zm1.932-1.44h2.136c.448 0 .788-.088 1.02-.264.232-.176.348-.448.348-.816 0-.352-.116-.612-.348-.78-.232-.176-.572-.264-1.02-.264h-2.136v2.124zm0-3.48h1.812c.424 0 .744-.084.96-.252.216-.176.324-.432.324-.768s-.108-.588-.324-.756c-.216-.176-.536-.264-.96-.264h-1.812v2.04z" fill="#101010"/></svg>