<svg width="266" height="48" viewBox="0 0 266 48" fill="none" xmlns="http://www.w3.org/2000/svg">
<path d="M30.584 16.388H7.256V19.772H31.52V26H0.199997V0.800003H31.448V7.028H7.256V10.376H30.584V16.388Z" fill="#1D6BB9"/>
<path d="M57.2952 0.800003L73.1352 26H64.8552L62.0112 21.32H45.2352L42.4272 26H34.1472L49.9872 0.800003H57.2952ZM53.6232 7.388L48.5472 15.812H58.6992L53.6232 7.388Z" fill="#1D6BB9"/>
<path d="M101.199 26H75.8548V19.772H100.947C101.187 19.772 101.379 19.7 101.523 19.556C101.691 19.412 101.775 19.22 101.775 18.98V17.18C101.775 16.94 101.691 16.748 101.523 16.604C101.379 16.46 101.187 16.388 100.947 16.388H82.3708C79.9468 16.388 78.0628 15.812 76.7188 14.66C75.3988 13.508 74.7388 11.888 74.7388 9.8V7.424C74.7388 5.336 75.4108 3.716 76.7548 2.564C78.0988 1.388 79.9708 0.800003 82.3708 0.800003H106.815V7.028H82.6228C82.3828 7.028 82.1788 7.1 82.0108 7.244C81.8668 7.388 81.7948 7.58 81.7948 7.82V9.584C81.7948 9.824 81.8668 10.016 82.0108 10.16C82.1788 10.304 82.3828 10.376 82.6228 10.376H101.199C103.599 10.376 105.471 10.964 106.815 12.14C108.159 13.292 108.831 14.9 108.831 16.964V19.448C108.831 21.512 108.159 23.12 106.815 24.272C105.471 25.424 103.599 26 101.199 26Z" fill="#1D6BB9"/>
<path d="M110.232 0.800003H119.268L129.204 12.032L139.14 0.800003H148.176L132.732 17.648V26H125.676V17.648L110.232 0.800003Z" fill="#1D6BB9"/>
<path d="M199.741 0.800003L186.817 26H181.885L174.469 10.124L167.053 26H162.121L149.197 0.800003H157.477L164.461 16.1L171.409 0.800003H177.529L184.477 16.1L191.461 0.800003H199.741Z" fill="#1D6BB9"/>
<path d="M218.449 0.800003L234.289 26H226.009L223.165 21.32H206.389L203.581 26H195.301L211.141 0.800003H218.449ZM214.777 7.388L209.701 15.812H219.853L214.777 7.388Z" fill="#1D6BB9"/>
<path d="M227.248 0.800003H236.284L246.22 12.032L256.156 0.800003H265.192L249.748 17.648V26H242.692V17.648L227.248 0.800003Z" fill="#1D6BB9"/>
<path d="M0.217991 45V35.2H9.14999V45H6.89599V36.53L7.41399 37.048H1.95399L2.47199 36.53V45H0.217991Z" fill="#101010"/>
<path d="M16.7593 45.168C15.9847 45.168 15.266 45.042 14.6033 44.79C13.95 44.538 13.3807 44.1833 12.8953 43.726C12.4193 43.2687 12.046 42.732 11.7753 42.116C11.514 41.5 11.3833 40.828 11.3833 40.1C11.3833 39.372 11.514 38.7 11.7753 38.084C12.046 37.468 12.424 36.9313 12.9093 36.474C13.3947 36.0167 13.964 35.662 14.6173 35.41C15.2707 35.158 15.98 35.032 16.7453 35.032C17.52 35.032 18.2293 35.158 18.8733 35.41C19.5267 35.662 20.0913 36.0167 20.5673 36.474C21.0527 36.9313 21.4307 37.468 21.7013 38.084C21.972 38.6907 22.1073 39.3627 22.1073 40.1C22.1073 40.828 21.972 41.5047 21.7013 42.13C21.4307 42.746 21.0527 43.2827 20.5673 43.74C20.0913 44.188 19.5267 44.538 18.8733 44.79C18.2293 45.042 17.5247 45.168 16.7593 45.168ZM16.7453 43.236C17.184 43.236 17.5853 43.1613 17.9493 43.012C18.3227 42.8627 18.6493 42.648 18.9293 42.368C19.2093 42.088 19.424 41.7567 19.5733 41.374C19.732 40.9913 19.8113 40.5667 19.8113 40.1C19.8113 39.6333 19.732 39.2087 19.5733 38.826C19.424 38.4433 19.2093 38.112 18.9293 37.832C18.6587 37.552 18.3367 37.3373 17.9633 37.188C17.59 37.0387 17.184 36.964 16.7453 36.964C16.3067 36.964 15.9007 37.0387 15.5273 37.188C15.1633 37.3373 14.8413 37.552 14.5613 37.832C14.2813 38.112 14.062 38.4433 13.9033 38.826C13.754 39.2087 13.6793 39.6333 13.6793 40.1C13.6793 40.5573 13.754 40.982 13.9033 41.374C14.062 41.7567 14.2767 42.088 14.5473 42.368C14.8273 42.648 15.154 42.8627 15.5273 43.012C15.9007 43.1613 16.3067 43.236 16.7453 43.236Z" fill="#101010"/>
<path d="M30.567 43.992V37.048H27.207L27.165 38.476C27.137 39.0827 27.095 39.6567 27.039 40.198C26.9924 40.7393 26.9177 41.234 26.815 41.682C26.7124 42.1207 26.577 42.494 26.409 42.802C26.2504 43.11 26.0497 43.3293 25.807 43.46L23.385 43.152C23.721 43.1613 23.9964 43.0447 24.211 42.802C24.435 42.5593 24.6124 42.2187 24.743 41.78C24.8737 41.332 24.967 40.8093 25.023 40.212C25.0884 39.6147 25.135 38.966 25.163 38.266L25.275 35.2H32.807V43.992H30.567ZM23.063 47.03L23.077 43.152H34.179V47.03H32.079V45H25.163V47.03H23.063Z" fill="#101010"/>
<path d="M42.2816 38.42C43.4576 38.42 44.3677 38.686 45.0117 39.218C45.6557 39.7407 45.9776 40.5293 45.9776 41.584C45.9776 42.704 45.6183 43.5533 44.8997 44.132C44.1903 44.7107 43.2056 45 41.9456 45H37.5356V37.048H34.7776V35.2H39.7757V38.42H42.2816ZM41.8196 43.32C42.4076 43.32 42.865 43.1753 43.1917 42.886C43.5276 42.5967 43.6956 42.1767 43.6956 41.626C43.6956 41.0847 43.5276 40.6973 43.1917 40.464C42.865 40.2213 42.4076 40.1 41.8196 40.1H39.7757V43.32H41.8196Z" fill="#101010"/>
<path d="M50.1878 39.148H54.9058V40.912H50.1878V39.148ZM50.3558 43.18H55.6898V45H48.1018V35.2H55.5078V37.02H50.3558V43.18Z" fill="#101010"/>
<path d="M58.0117 45V35.2H59.8877L64.0597 42.116H63.0657L67.1677 35.2H69.0437L69.0577 45H66.9297L66.9157 38.462H67.3217L64.0317 43.964H63.0237L59.6637 38.462H60.1397V45H58.0117Z" fill="#101010"/>
<path d="M78.7022 35.2H80.9702V45H78.7022V35.2ZM74.2502 45H71.9822V35.2H74.2502V45ZM78.8702 40.982H74.0822V39.064H78.8702V40.982Z" fill="#101010"/>
<path d="M83.9156 45V35.2H86.1696V41.584L90.8456 35.2H92.9736V45H90.7336V38.63L86.0576 45H83.9156Z" fill="#101010"/>
<path d="M102.246 45L99.1936 40.282L101.028 39.176L104.822 45H102.246ZM95.8756 45V35.2H98.1296V45H95.8756ZM97.4716 41.052V39.162H100.888V41.052H97.4716ZM101.238 40.352L99.1516 40.1L102.33 35.2H104.724L101.238 40.352Z" fill="#101010"/>
<path d="M106.374 45V35.2H108.628V41.584L113.304 35.2H115.432V45H113.192V38.63L108.516 45H106.374Z" fill="#101010"/>
<path d="M129.313 43.992V37.048H125.953L125.911 38.476C125.883 39.0827 125.841 39.6567 125.785 40.198C125.738 40.7393 125.664 41.234 125.561 41.682C125.458 42.1207 125.323 42.494 125.155 42.802C124.996 43.11 124.796 43.3293 124.553 43.46L122.131 43.152C122.467 43.1613 122.742 43.0447 122.957 42.802C123.181 42.5593 123.358 42.2187 123.489 41.78C123.62 41.332 123.713 40.8093 123.769 40.212C123.834 39.6147 123.881 38.966 123.909 38.266L124.021 35.2H131.553V43.992H129.313ZM121.809 47.03L121.823 43.152H132.925V47.03H130.825V45H123.909V47.03H121.809Z" fill="#101010"/>
<path d="M135.04 45.154C134.872 45.154 134.694 45.14 134.508 45.112C134.33 45.084 134.134 45.0467 133.92 45L134.06 43.082C134.19 43.1193 134.326 43.138 134.466 43.138C134.848 43.138 135.147 42.984 135.362 42.676C135.576 42.3587 135.73 41.906 135.824 41.318C135.917 40.73 135.978 40.016 136.006 39.176L136.146 35.2H143.678V45H141.438V36.53L141.956 37.048H137.63L138.092 36.502L138.008 39.092C137.98 40.0533 137.914 40.9073 137.812 41.654C137.709 42.4007 137.55 43.0353 137.336 43.558C137.121 44.0807 136.827 44.4773 136.454 44.748C136.08 45.0187 135.609 45.154 135.04 45.154Z" fill="#101010"/>
<path d="M152.201 45V41.906L152.761 42.396H150.073C149.224 42.396 148.491 42.256 147.875 41.976C147.259 41.696 146.788 41.29 146.461 40.758C146.135 40.226 145.971 39.5913 145.971 38.854C145.971 38.0887 146.144 37.4353 146.489 36.894C146.844 36.3433 147.339 35.9233 147.973 35.634C148.608 35.3447 149.355 35.2 150.213 35.2H154.441V45H152.201ZM145.999 45L148.435 41.486H150.731L148.393 45H145.999ZM152.201 41.178V36.46L152.761 37.048H150.269C149.625 37.048 149.131 37.1973 148.785 37.496C148.449 37.7947 148.281 38.238 148.281 38.826C148.281 39.3953 148.445 39.834 148.771 40.142C149.098 40.45 149.579 40.604 150.213 40.604H152.761L152.201 41.178Z" fill="#101010"/>
<path d="M161.841 45V35.2H164.095V41.584L168.771 35.2H170.899V45H168.659V38.63L163.983 45H161.841Z" fill="#101010"/>
<path d="M180.549 35.2H182.817V45H180.549V35.2ZM176.097 45H173.829V35.2H176.097V45ZM180.717 40.982H175.929V39.064H180.717V40.982Z" fill="#101010"/>
<path d="M185.763 45V35.2H190.327C191.466 35.2 192.352 35.4193 192.987 35.858C193.621 36.2967 193.939 36.922 193.939 37.734C193.939 38.5367 193.64 39.162 193.043 39.61C192.445 40.0487 191.652 40.268 190.663 40.268L190.929 39.68C192.03 39.68 192.884 39.8993 193.491 40.338C194.098 40.7767 194.401 41.4113 194.401 42.242C194.401 43.1007 194.074 43.7773 193.421 44.272C192.777 44.7573 191.834 45 190.593 45H185.763ZM188.017 43.32H190.509C191.032 43.32 191.428 43.2173 191.699 43.012C191.97 42.8067 192.105 42.4893 192.105 42.06C192.105 41.6493 191.97 41.346 191.699 41.15C191.428 40.9447 191.032 40.842 190.509 40.842H188.017V43.32ZM188.017 39.26H190.131C190.626 39.26 190.999 39.162 191.251 38.966C191.503 38.7607 191.629 38.462 191.629 38.07C191.629 37.678 191.503 37.384 191.251 37.188C190.999 36.9827 190.626 36.88 190.131 36.88H188.017V39.26Z" fill="#101010"/>
<path d="M195.578 45L199.946 35.2H202.186L206.568 45H204.188L200.604 36.348H201.5L197.902 45H195.578ZM197.762 42.9L198.364 41.178H203.404L204.02 42.9H197.762Z" fill="#101010"/>
<path d="M208.511 45.154C208.343 45.154 208.165 45.14 207.979 45.112C207.801 45.084 207.605 45.0467 207.391 45L207.531 43.082C207.661 43.1193 207.797 43.138 207.937 43.138C208.319 43.138 208.618 42.984 208.833 42.676C209.047 42.3587 209.201 41.906 209.295 41.318C209.388 40.73 209.449 40.016 209.477 39.176L209.617 35.2H217.149V45H214.909V36.53L215.427 37.048H211.101L211.563 36.502L211.479 39.092C211.451 40.0533 211.385 40.9073 211.283 41.654C211.18 42.4007 211.021 43.0353 210.807 43.558C210.592 44.0807 210.298 44.4773 209.925 44.748C209.551 45.0187 209.08 45.154 208.511 45.154Z" fill="#101010"/>
<path d="M220.086 45V35.2H222.34V41.584L227.016 35.2H229.144V45H226.904V38.63L222.228 45H220.086Z" fill="#101010"/>
<path d="M238.502 43.992V37.048H235.142L235.1 38.476C235.072 39.0827 235.03 39.6567 234.974 40.198C234.927 40.7393 234.853 41.234 234.75 41.682C234.647 42.1207 234.512 42.494 234.344 42.802C234.185 43.11 233.985 43.3293 233.742 43.46L231.32 43.152C231.656 43.1613 231.931 43.0447 232.146 42.802C232.37 42.5593 232.547 42.2187 232.678 41.78C232.809 41.332 232.902 40.8093 232.958 40.212C233.023 39.6147 233.07 38.966 233.098 38.266L233.21 35.2H240.742V43.992H238.502ZM230.998 47.03L231.012 43.152H242.114V47.03H240.014V45H233.098V47.03H230.998Z" fill="#101010"/>
<path d="M248.821 45.168C248.046 45.168 247.327 45.042 246.665 44.79C246.011 44.538 245.442 44.1833 244.957 43.726C244.481 43.2687 244.107 42.732 243.837 42.116C243.575 41.5 243.445 40.828 243.445 40.1C243.445 39.372 243.575 38.7 243.837 38.084C244.107 37.468 244.485 36.9313 244.971 36.474C245.456 36.0167 246.025 35.662 246.679 35.41C247.332 35.158 248.041 35.032 248.807 35.032C249.581 35.032 250.291 35.158 250.935 35.41C251.588 35.662 252.153 36.0167 252.629 36.474C253.114 36.9313 253.492 37.468 253.763 38.084C254.033 38.6907 254.169 39.3627 254.169 40.1C254.169 40.828 254.033 41.5047 253.763 42.13C253.492 42.746 253.114 43.2827 252.629 43.74C252.153 44.188 251.588 44.538 250.935 44.79C250.291 45.042 249.586 45.168 248.821 45.168ZM248.807 43.236C249.245 43.236 249.647 43.1613 250.011 43.012C250.384 42.8627 250.711 42.648 250.991 42.368C251.271 42.088 251.485 41.7567 251.635 41.374C251.793 40.9913 251.873 40.5667 251.873 40.1C251.873 39.6333 251.793 39.2087 251.635 38.826C251.485 38.4433 251.271 38.112 250.991 37.832C250.72 37.552 250.398 37.3373 250.025 37.188C249.651 37.0387 249.245 36.964 248.807 36.964C248.368 36.964 247.962 37.0387 247.589 37.188C247.225 37.3373 246.903 37.552 246.623 37.832C246.343 38.112 246.123 38.4433 245.965 38.826C245.815 39.2087 245.741 39.6333 245.741 40.1C245.741 40.5573 245.815 40.982 245.965 41.374C246.123 41.7567 246.338 42.088 246.609 42.368C246.889 42.648 247.215 42.8627 247.589 43.012C247.962 43.1613 248.368 43.236 248.807 43.236Z" fill="#101010"/>
<path d="M256.406 45V35.2H260.97C262.109 35.2 262.995 35.4193 263.63 35.858C264.265 36.2967 264.582 36.922 264.582 37.734C264.582 38.5367 264.283 39.162 263.686 39.61C263.089 40.0487 262.295 40.268 261.306 40.268L261.572 39.68C262.673 39.68 263.527 39.8993 264.134 40.338C264.741 40.7767 265.044 41.4113 265.044 42.242C265.044 43.1007 264.717 43.7773 264.064 44.272C263.42 44.7573 262.477 45 261.236 45H256.406ZM258.66 43.32H261.152C261.675 43.32 262.071 43.2173 262.342 43.012C262.613 42.8067 262.748 42.4893 262.748 42.06C262.748 41.6493 262.613 41.346 262.342 41.15C262.071 40.9447 261.675 40.842 261.152 40.842H258.66V43.32ZM258.66 39.26H260.774C261.269 39.26 261.642 39.162 261.894 38.966C262.146 38.7607 262.272 38.462 262.272 38.07C262.272 37.678 262.146 37.384 261.894 37.188C261.642 36.9827 261.269 36.88 260.774 36.88H258.66V39.26Z" fill="#101010"/>
</svg>
