<svg width="266" height="48" fill="none" xmlns="http://www.w3.org/2000/svg"><path d="M31.084 16.388H7.756v3.384H32.02V26H.7V.8h31.248v6.228H7.756v3.348h23.328v6.012zM57.795.8L73.635 26h-8.28l-2.844-4.68H45.735L42.927 26h-8.28L50.487.8h7.308zm-3.672 6.588l-5.076 8.424H59.2l-5.076-8.424zM101.699 26H76.355v-6.228h25.092c.24 0 .432-.072.576-.216a.72.72 0 00.252-.576v-1.8a.72.72 0 00-.252-.576c-.144-.144-.336-.216-.576-.216H82.871c-2.424 0-4.308-.576-5.652-1.728-1.32-1.152-1.98-2.772-1.98-4.86V7.424c0-2.088.672-3.708 2.016-4.86C78.599 1.388 80.47.8 82.87.8h24.444v6.228H83.123a.908.908 0 00-.612.216c-.144.144-.216.336-.216.576v1.764c0 .24.072.432.216.576a.908.908 0 00.612.216h18.576c2.4 0 4.272.588 5.616 1.764 1.344 1.152 2.016 2.76 2.016 4.824v2.484c0 2.064-.672 3.672-2.016 4.824-1.344 1.152-3.216 1.728-5.616 1.728zM110.732.8h9.036l9.936 11.232L139.64.8h9.036l-15.444 16.848V26h-7.056v-8.352L110.732.8zm89.509 0L187.317 26h-4.932l-7.416-15.876L167.553 26h-4.932L149.697.8h8.28l6.984 15.3L171.909.8h6.12l6.948 15.3L191.961.8h8.28zm18.708 0l15.84 25.2h-8.28l-2.844-4.68h-16.776L204.081 26h-8.28L211.641.8h7.308zm-3.672 6.588l-5.076 8.424h10.152l-5.076-8.424zM227.748.8h9.036l9.936 11.232L256.656.8h9.036l-15.444 16.848V26h-7.056v-8.352L227.748.8zM.718 45v-9.8H9.65V45H7.396v-8.47l.518.518h-5.46l.518-.518V45H.718zm16.542.168a6.017 6.017 0 01-2.157-.378 5.18 5.18 0 01-1.708-1.064 4.996 4.996 0 01-1.12-1.61 5.11 5.11 0 01-.392-2.016c0-.728.131-1.4.392-2.016a4.895 4.895 0 011.134-1.61 5.18 5.18 0 011.708-1.064 5.864 5.864 0 012.128-.378c.775 0 1.484.126 2.128.378a5.023 5.023 0 011.694 1.064 4.893 4.893 0 011.54 3.626c0 .728-.135 1.405-.406 2.03a4.892 4.892 0 01-1.134 1.61 5.139 5.139 0 01-1.694 1.05 5.752 5.752 0 01-2.114.378zm-.015-1.932c.439 0 .84-.075 1.204-.224a2.856 2.856 0 001.624-1.638 3.29 3.29 0 00.238-1.274 3.29 3.29 0 00-.238-1.274 2.856 2.856 0 00-.644-.994 2.741 2.741 0 00-.966-.644 3.25 3.25 0 00-1.218-.224 3.25 3.25 0 00-1.218.224c-.364.15-.686.364-.966.644-.28.28-.499.611-.658.994a3.484 3.484 0 00-.224 1.274c0 .457.075.882.224 1.274.159.383.374.714.644.994.28.28.607.495.98.644.374.15.78.224 1.218.224zm13.822.756v-6.944h-3.36l-.042 1.428c-.028.607-.07 1.18-.126 1.722a10.813 10.813 0 01-.224 1.484 4.464 4.464 0 01-.406 1.12c-.159.308-.36.527-.602.658l-2.422-.308c.336.01.611-.107.826-.35.224-.243.401-.583.532-1.022.13-.448.224-.97.28-1.568a28.37 28.37 0 00.14-1.946l.112-3.066h7.532v8.792h-2.24zm-7.504 3.038l.014-3.878h11.102v3.878h-2.1V45h-6.916v2.03h-2.1zm19.219-8.61c1.176 0 2.086.266 2.73.798.644.523.966 1.311.966 2.366 0 1.12-.36 1.97-1.078 2.548-.71.579-1.694.868-2.954.868h-4.41v-7.952h-2.758V35.2h4.998v3.22h2.506zm-.462 4.9c.588 0 1.045-.145 1.372-.434.336-.29.504-.71.504-1.26 0-.541-.168-.929-.504-1.162-.327-.243-.784-.364-1.372-.364h-2.044v3.22h2.044zm8.368-4.172h4.718v1.764h-4.718v-1.764zm.168 4.032h5.334V45h-7.588v-9.8h7.406v1.82h-5.152v6.16zM58.512 45v-9.8h1.876l4.172 6.916h-.994l4.102-6.916h1.876l.014 9.8H67.43l-.014-6.538h.406l-3.29 5.502h-1.008l-3.36-5.502h.476V45h-2.128zm20.69-9.8h2.268V45h-2.268v-9.8zM74.75 45h-2.268v-9.8h2.268V45zm4.62-4.018h-4.788v-1.918h4.788v1.918zM84.416 45v-9.8h2.254v6.384l4.676-6.384h2.128V45h-2.24v-6.37L86.558 45h-2.142zm18.33 0l-3.052-4.718 1.834-1.106L105.322 45h-2.576zm-6.37 0v-9.8h2.254V45h-2.254zm1.596-3.948v-1.89h3.416v1.89h-3.416zm3.766-.7l-2.086-.252 3.178-4.9h2.394l-3.486 5.152zM106.874 45v-9.8h2.254v6.384l4.676-6.384h2.128V45h-2.24v-6.37L109.016 45h-2.142zm22.939-1.008v-6.944h-3.36l-.042 1.428c-.028.607-.07 1.18-.126 1.722a10.829 10.829 0 01-.224 1.484 4.48 4.48 0 01-.406 1.12c-.159.308-.359.527-.602.658l-2.422-.308c.336.01.611-.107.826-.35.224-.243.401-.583.532-1.022.131-.448.224-.97.28-1.568a28.61 28.61 0 00.14-1.946l.112-3.066h7.532v8.792h-2.24zm-7.504 3.038l.014-3.878h11.102v3.878h-2.1V45h-6.916v2.03h-2.1zm13.231-1.876c-.168 0-.346-.014-.532-.042a10.244 10.244 0 01-.588-.112l.14-1.918c.13.037.266.056.406.056.382 0 .681-.154.896-.462.214-.317.368-.77.462-1.358.093-.588.154-1.302.182-2.142l.14-3.976h7.532V45h-2.24v-8.47l.518.518h-4.326l.462-.546-.084 2.59a24.338 24.338 0 01-.196 2.562c-.103.747-.262 1.381-.476 1.904-.215.523-.509.92-.882 1.19-.374.27-.845.406-1.414.406zM152.701 45v-3.094l.56.49h-2.688c-.849 0-1.582-.14-2.198-.42-.616-.28-1.087-.686-1.414-1.218-.326-.532-.49-1.167-.49-1.904 0-.765.173-1.419.518-1.96.355-.55.85-.97 1.484-1.26.635-.29 1.382-.434 2.24-.434h4.228V45h-2.24zm-6.202 0l2.436-3.514h2.296L148.893 45h-2.394zm6.202-3.822V36.46l.56.588h-2.492c-.644 0-1.138.15-1.484.448-.336.299-.504.742-.504 1.33 0 .57.164 1.008.49 1.316.327.308.808.462 1.442.462h2.548l-.56.574zm9.64 3.822v-9.8h2.254v6.384l4.676-6.384h2.128V45h-2.24v-6.37L164.483 45h-2.142zm18.708-9.8h2.268V45h-2.268v-9.8zm-4.452 9.8h-2.268v-9.8h2.268V45zm4.62-4.018h-4.788v-1.918h4.788v1.918zM186.263 45v-9.8h4.564c1.139 0 2.025.22 2.66.658.634.439.952 1.064.952 1.876 0 .803-.299 1.428-.896 1.876-.598.439-1.391.658-2.38.658l.266-.588c1.101 0 1.955.22 2.562.658.607.439.91 1.073.91 1.904 0 .859-.327 1.535-.98 2.03-.644.485-1.587.728-2.828.728h-4.83zm2.254-1.68h2.492c.523 0 .919-.103 1.19-.308.271-.205.406-.523.406-.952 0-.41-.135-.714-.406-.91-.271-.205-.667-.308-1.19-.308h-2.492v2.478zm0-4.06h2.114c.495 0 .868-.098 1.12-.294.252-.205.378-.504.378-.896s-.126-.686-.378-.882c-.252-.205-.625-.308-1.12-.308h-2.114v2.38zm7.561 5.74l4.368-9.8h2.24l4.382 9.8h-2.38l-3.584-8.652H202L198.402 45h-2.324zm2.184-2.1l.602-1.722h5.04l.616 1.722h-6.258zm10.749 2.254c-.168 0-.346-.014-.532-.042a10.244 10.244 0 01-.588-.112l.14-1.918c.13.037.266.056.406.056.382 0 .681-.154.896-.462.214-.317.368-.77.462-1.358.093-.588.154-1.302.182-2.142l.14-3.976h7.532V45h-2.24v-8.47l.518.518h-4.326l.462-.546-.084 2.59a24.338 24.338 0 01-.196 2.562c-.103.747-.262 1.381-.476 1.904-.215.523-.509.92-.882 1.19-.374.27-.845.406-1.414.406zM220.586 45v-9.8h2.254v6.384l4.676-6.384h2.128V45h-2.24v-6.37L222.728 45h-2.142zm18.416-1.008v-6.944h-3.36l-.042 1.428c-.028.607-.07 1.18-.126 1.722a10.829 10.829 0 01-.224 1.484 4.48 4.48 0 01-.406 1.12c-.159.308-.359.527-.602.658l-2.422-.308c.336.01.611-.107.826-.35.224-.243.401-.583.532-1.022.131-.448.224-.97.28-1.568a28.61 28.61 0 00.14-1.946l.112-3.066h7.532v8.792h-2.24zm-7.504 3.038l.014-3.878h11.102v3.878h-2.1V45h-6.916v2.03h-2.1zm17.823-1.862a6.012 6.012 0 01-2.156-.378 5.169 5.169 0 01-1.708-1.064 4.985 4.985 0 01-1.12-1.61 5.097 5.097 0 01-.392-2.016c0-.728.13-1.4.392-2.016a4.874 4.874 0 011.134-1.61 5.169 5.169 0 011.708-1.064 5.86 5.86 0 012.128-.378c.774 0 1.484.126 2.128.378a5.026 5.026 0 011.694 1.064 4.9 4.9 0 011.134 1.61c.27.607.406 1.279.406 2.016 0 .728-.136 1.405-.406 2.03a4.903 4.903 0 01-1.134 1.61 5.143 5.143 0 01-1.694 1.05 5.754 5.754 0 01-2.114.378zm-.014-1.932c.438 0 .84-.075 1.204-.224a2.865 2.865 0 001.624-1.638c.158-.383.238-.807.238-1.274 0-.467-.08-.891-.238-1.274a2.865 2.865 0 00-.644-.994 2.748 2.748 0 00-.966-.644 3.255 3.255 0 00-1.218-.224c-.439 0-.845.075-1.218.224-.364.15-.686.364-.966.644-.28.28-.5.611-.658.994-.15.383-.224.807-.224 1.274 0 .457.074.882.224 1.274.158.383.373.714.644.994.28.28.606.495.98.644.373.15.779.224 1.218.224zM256.906 45v-9.8h4.564c1.139 0 2.025.22 2.66.658.635.439.952 1.064.952 1.876 0 .803-.299 1.428-.896 1.876-.597.439-1.391.658-2.38.658l.266-.588c1.101 0 1.955.22 2.562.658.607.439.91 1.073.91 1.904 0 .859-.327 1.535-.98 2.03-.644.485-1.587.728-2.828.728h-4.83zm2.254-1.68h2.492c.523 0 .919-.103 1.19-.308.271-.205.406-.523.406-.952 0-.41-.135-.714-.406-.91-.271-.205-.667-.308-1.19-.308h-2.492v2.478zm0-4.06h2.114c.495 0 .868-.098 1.12-.294.252-.205.378-.504.378-.896s-.126-.686-.378-.882c-.252-.205-.625-.308-1.12-.308h-2.114v2.38z" fill="#101010"/></svg>