<svg width="212" height="48" viewBox="0 0 212 48" fill="none" xmlns="http://www.w3.org/2000/svg">
<path d="M46.9766 45V37.8613H52.2939V45H51.4736V38.5938H47.8066V45H46.9766ZM60.4531 41.4209C60.4531 41.971 60.3831 42.4723 60.2432 42.9248C60.1032 43.374 59.8949 43.7614 59.6182 44.0869C59.3447 44.4092 59.0046 44.6582 58.5977 44.834C58.1908 45.0098 57.7188 45.0977 57.1816 45.0977C56.6283 45.0977 56.1449 45.0098 55.7314 44.834C55.3213 44.6582 54.9795 44.4076 54.7061 44.082C54.4359 43.7565 54.2324 43.3675 54.0957 42.915C53.9622 42.4626 53.8955 41.9613 53.8955 41.4111C53.8955 40.682 54.016 40.0423 54.2568 39.4922C54.4977 38.9421 54.8623 38.514 55.3506 38.208C55.8421 37.902 56.4574 37.749 57.1963 37.749C57.9027 37.749 58.4967 37.9004 58.9785 38.2031C59.4635 38.5059 59.8298 38.9323 60.0771 39.4824C60.3278 40.0293 60.4531 40.6755 60.4531 41.4209ZM54.7695 41.4209C54.7695 42.0264 54.8558 42.5505 55.0283 42.9932C55.2008 43.4359 55.4645 43.7777 55.8193 44.0186C56.1774 44.2594 56.6315 44.3799 57.1816 44.3799C57.735 44.3799 58.1875 44.2594 58.5391 44.0186C58.8939 43.7777 59.1559 43.4359 59.3252 42.9932C59.4945 42.5505 59.5791 42.0264 59.5791 41.4209C59.5791 40.4997 59.3854 39.7803 58.998 39.2627C58.6139 38.7419 58.0133 38.4814 57.1963 38.4814C56.6429 38.4814 56.1872 38.6003 55.8291 38.8379C55.471 39.0755 55.2041 39.4141 55.0283 39.8535C54.8558 40.2897 54.7695 40.8122 54.7695 41.4209ZM66.8008 37.8613V44.2578H67.6797V46.8652H66.8838V45H61.9229V46.8652H61.127V44.2578H61.6738C61.918 43.8411 62.1458 43.374 62.3574 42.8564C62.5723 42.3356 62.7627 41.792 62.9287 41.2256C63.098 40.6559 63.2347 40.0846 63.3389 39.5117C63.4463 38.9388 63.5146 38.3887 63.5439 37.8613H66.8008ZM65.9756 38.6084H64.2764C64.2471 39.012 64.182 39.4629 64.0811 39.9609C63.9801 40.4557 63.8499 40.9635 63.6904 41.4844C63.5342 42.0052 63.3584 42.5049 63.1631 42.9834C62.971 43.4619 62.7676 43.8867 62.5527 44.2578H65.9756V38.6084ZM69.6523 45V38.5938H67.9873V37.8613H70.4775V40.8984H71.6445C72.2923 40.8984 72.8066 40.9863 73.1875 41.1621C73.5684 41.3346 73.8418 41.5739 74.0078 41.8799C74.1771 42.1826 74.2617 42.5277 74.2617 42.915C74.2617 43.5531 74.0599 44.0609 73.6562 44.4385C73.2526 44.8128 72.6227 45 71.7666 45H69.6523ZM70.4775 44.2871H71.6738C72.2663 44.2871 72.7025 44.1748 72.9824 43.9502C73.2624 43.7223 73.4023 43.3773 73.4023 42.915C73.4023 42.5928 73.334 42.3372 73.1973 42.1484C73.0605 41.9596 72.8538 41.8245 72.5771 41.7432C72.3037 41.6618 71.9587 41.6211 71.542 41.6211H70.4775V44.2871ZM79.7305 45H75.7559V37.8613H79.7305V38.5938H76.5859V40.9033H79.5498V41.626H76.5859V44.2676H79.7305V45ZM84.4521 45L82.0547 38.6816H82.0156C82.0286 38.8151 82.04 38.9779 82.0498 39.1699C82.0596 39.362 82.0677 39.5719 82.0742 39.7998C82.0807 40.0244 82.084 40.2539 82.084 40.4883V45H81.3125V37.8613H82.543L84.8037 43.7988H84.8379L87.1328 37.8613H88.3535V45H87.5332V40.4297C87.5332 40.2181 87.5365 40.0065 87.543 39.7949C87.5495 39.5801 87.5576 39.3783 87.5674 39.1895C87.5771 38.9974 87.5869 38.8314 87.5967 38.6914H87.5576L85.1309 45H84.4521ZM95.7168 45H94.8867V41.6357H91.1367V45H90.3066V37.8613H91.1367V40.9033H94.8867V37.8613H95.7168V45ZM97.6895 37.8613H98.4658V41.9873C98.4658 42.1436 98.4642 42.3145 98.4609 42.5C98.4577 42.6823 98.4528 42.8613 98.4463 43.0371C98.4398 43.2129 98.4316 43.3724 98.4219 43.5156C98.4154 43.6589 98.4089 43.7695 98.4023 43.8477H98.4414L102.416 37.8613H103.329V45H102.553V40.9229C102.553 40.7503 102.556 40.568 102.562 40.376C102.569 40.1807 102.576 39.9919 102.582 39.8096C102.592 39.6273 102.602 39.4645 102.611 39.3213C102.621 39.1748 102.628 39.0625 102.631 38.9844H102.587L98.6074 45H97.6895V37.8613ZM110.395 45H109.389L106.107 41.377V45H105.277V37.8613H106.107V41.3184L109.306 37.8613H110.258L107.099 41.3281L110.395 45ZM111.391 37.8613H112.167V41.9873C112.167 42.1436 112.165 42.3145 112.162 42.5C112.159 42.6823 112.154 42.8613 112.147 43.0371C112.141 43.2129 112.133 43.3724 112.123 43.5156C112.117 43.6589 112.11 43.7695 112.104 43.8477H112.143L116.117 37.8613H117.03V45H116.254V40.9229C116.254 40.7503 116.257 40.568 116.264 40.376C116.27 40.1807 116.277 39.9919 116.283 39.8096C116.293 39.6273 116.303 39.4645 116.312 39.3213C116.322 39.1748 116.329 39.0625 116.332 38.9844H116.288L112.309 45H111.391V37.8613ZM126.332 37.8613V44.2578H127.211V46.8652H126.415V45H121.454V46.8652H120.658V44.2578H121.205C121.449 43.8411 121.677 43.374 121.889 42.8564C122.104 42.3356 122.294 41.792 122.46 41.2256C122.629 40.6559 122.766 40.0846 122.87 39.5117C122.978 38.9388 123.046 38.3887 123.075 37.8613H126.332ZM125.507 38.6084H123.808C123.778 39.012 123.713 39.4629 123.612 39.9609C123.511 40.4557 123.381 40.9635 123.222 41.4844C123.065 42.0052 122.89 42.5049 122.694 42.9834C122.502 43.4619 122.299 43.8867 122.084 44.2578H125.507V38.6084ZM133.5 45H132.67V38.5938H130.355C130.31 38.9583 130.261 39.3392 130.209 39.7363C130.157 40.1335 130.103 40.529 130.048 40.9229C129.993 41.3167 129.937 41.6895 129.882 42.041C129.826 42.3926 129.771 42.7051 129.716 42.9785C129.631 43.431 129.525 43.8167 129.398 44.1357C129.275 44.4515 129.109 44.694 128.9 44.8633C128.695 45.0293 128.424 45.1123 128.085 45.1123C127.971 45.1123 127.857 45.1009 127.743 45.0781C127.632 45.0553 127.535 45.0277 127.45 44.9951V44.2969C127.525 44.3294 127.608 44.3571 127.699 44.3799C127.794 44.4027 127.893 44.4141 127.997 44.4141C128.202 44.4141 128.363 44.3327 128.48 44.1699C128.601 44.0039 128.695 43.7939 128.764 43.54C128.835 43.2861 128.897 43.0257 128.949 42.7588C128.992 42.5374 129.04 42.2575 129.096 41.9189C129.151 41.5804 129.21 41.1963 129.271 40.7666C129.333 40.3337 129.397 39.8714 129.462 39.3799C129.53 38.8883 129.597 38.3822 129.662 37.8613H133.5V45ZM137.528 42.0166L135.673 45H134.701L136.698 41.8652C136.438 41.7839 136.194 41.6683 135.966 41.5186C135.741 41.3656 135.559 41.1556 135.419 40.8887C135.282 40.6217 135.214 40.2799 135.214 39.8633C135.214 39.2122 135.435 38.7158 135.878 38.374C136.324 38.0322 136.986 37.8613 137.865 37.8613H139.823V45H138.993V42.0166H137.528ZM138.993 38.5693H137.895C137.501 38.5693 137.167 38.6149 136.894 38.7061C136.623 38.7972 136.418 38.9404 136.278 39.1357C136.138 39.3311 136.068 39.5866 136.068 39.9023C136.068 40.3548 136.218 40.7031 136.518 40.9473C136.817 41.1882 137.274 41.3086 137.89 41.3086H138.993V38.5693ZM144.389 37.8613H145.165V41.9873C145.165 42.1436 145.163 42.3145 145.16 42.5C145.157 42.6823 145.152 42.8613 145.146 43.0371C145.139 43.2129 145.131 43.3724 145.121 43.5156C145.115 43.6589 145.108 43.7695 145.102 43.8477H145.141L149.115 37.8613H150.028V45H149.252V40.9229C149.252 40.7503 149.255 40.568 149.262 40.376C149.268 40.1807 149.275 39.9919 149.281 39.8096C149.291 39.6273 149.301 39.4645 149.311 39.3213C149.32 39.1748 149.327 39.0625 149.33 38.9844H149.286L145.307 45H144.389V37.8613ZM157.387 45H156.557V41.6357H152.807V45H151.977V37.8613H152.807V40.9033H156.557V37.8613H157.387V45ZM159.35 37.8613H161.371C162.263 37.8613 162.934 37.9948 163.383 38.2617C163.832 38.5286 164.057 38.9827 164.057 39.624C164.057 39.9007 164.003 40.1497 163.896 40.3711C163.791 40.5892 163.638 40.7699 163.437 40.9131C163.235 41.0563 162.986 41.1556 162.689 41.2109V41.2598C163.002 41.3086 163.279 41.3981 163.52 41.5283C163.76 41.6585 163.949 41.8408 164.086 42.0752C164.223 42.3096 164.291 42.6074 164.291 42.9688C164.291 43.4082 164.188 43.7793 163.983 44.082C163.782 44.3848 163.495 44.6143 163.124 44.7705C162.753 44.9235 162.313 45 161.806 45H159.35V37.8613ZM160.18 40.9229H161.547C162.169 40.9229 162.598 40.8203 162.836 40.6152C163.077 40.4102 163.197 40.1107 163.197 39.7168C163.197 39.3099 163.054 39.0169 162.768 38.8379C162.484 38.6589 162.032 38.5693 161.41 38.5693H160.18V40.9229ZM160.18 41.6211V44.292H161.664C162.299 44.292 162.748 44.1683 163.012 43.9209C163.275 43.6702 163.407 43.3333 163.407 42.9102C163.407 42.64 163.347 42.4089 163.227 42.2168C163.109 42.0247 162.917 41.8783 162.65 41.7773C162.387 41.6732 162.034 41.6211 161.591 41.6211H160.18ZM170.292 45L169.413 42.7344H166.552L165.678 45H164.838L167.631 37.832H168.378L171.151 45H170.292ZM169.164 41.9971L168.329 39.7461C168.31 39.6875 168.277 39.5915 168.231 39.458C168.189 39.3245 168.145 39.1862 168.1 39.043C168.054 38.8997 168.017 38.7842 167.987 38.6963C167.955 38.8298 167.919 38.9632 167.88 39.0967C167.844 39.2269 167.808 39.349 167.772 39.4629C167.737 39.5736 167.706 39.668 167.68 39.7461L166.83 41.9971H169.164ZM177.221 45H176.391V38.5938H174.076C174.031 38.9583 173.982 39.3392 173.93 39.7363C173.878 40.1335 173.824 40.529 173.769 40.9229C173.713 41.3167 173.658 41.6895 173.603 42.041C173.547 42.3926 173.492 42.7051 173.437 42.9785C173.352 43.431 173.246 43.8167 173.119 44.1357C172.995 44.4515 172.829 44.694 172.621 44.8633C172.416 45.0293 172.144 45.1123 171.806 45.1123C171.692 45.1123 171.578 45.1009 171.464 45.0781C171.353 45.0553 171.256 45.0277 171.171 44.9951V44.2969C171.246 44.3294 171.329 44.3571 171.42 44.3799C171.514 44.4027 171.614 44.4141 171.718 44.4141C171.923 44.4141 172.084 44.3327 172.201 44.1699C172.322 44.0039 172.416 43.7939 172.484 43.54C172.556 43.2861 172.618 43.0257 172.67 42.7588C172.712 42.5374 172.761 42.2575 172.816 41.9189C172.872 41.5804 172.93 41.1963 172.992 40.7666C173.054 40.3337 173.118 39.8714 173.183 39.3799C173.251 38.8883 173.318 38.3822 173.383 37.8613H177.221V45ZM179.184 37.8613H179.96V41.9873C179.96 42.1436 179.958 42.3145 179.955 42.5C179.952 42.6823 179.947 42.8613 179.94 43.0371C179.934 43.2129 179.926 43.3724 179.916 43.5156C179.91 43.6589 179.903 43.7695 179.896 43.8477H179.936L183.91 37.8613H184.823V45H184.047V40.9229C184.047 40.7503 184.05 40.568 184.057 40.376C184.063 40.1807 184.07 39.9919 184.076 39.8096C184.086 39.6273 184.096 39.4645 184.105 39.3213C184.115 39.1748 184.122 39.0625 184.125 38.9844H184.081L180.102 45H179.184V37.8613ZM191.527 37.8613V44.2578H192.406V46.8652H191.61V45H186.649V46.8652H185.854V44.2578H186.4C186.645 43.8411 186.872 43.374 187.084 42.8564C187.299 42.3356 187.489 41.792 187.655 41.2256C187.825 40.6559 187.961 40.0846 188.065 39.5117C188.173 38.9388 188.241 38.3887 188.271 37.8613H191.527ZM190.702 38.6084H189.003C188.974 39.012 188.909 39.4629 188.808 39.9609C188.707 40.4557 188.576 40.9635 188.417 41.4844C188.261 42.0052 188.085 42.5049 187.89 42.9834C187.698 43.4619 187.494 43.8867 187.279 44.2578H190.702V38.6084ZM199.809 41.4209C199.809 41.971 199.739 42.4723 199.599 42.9248C199.459 43.374 199.25 43.7614 198.974 44.0869C198.7 44.4092 198.36 44.6582 197.953 44.834C197.546 45.0098 197.074 45.0977 196.537 45.0977C195.984 45.0977 195.5 45.0098 195.087 44.834C194.677 44.6582 194.335 44.4076 194.062 44.082C193.791 43.7565 193.588 43.3675 193.451 42.915C193.318 42.4626 193.251 41.9613 193.251 41.4111C193.251 40.682 193.371 40.0423 193.612 39.4922C193.853 38.9421 194.218 38.514 194.706 38.208C195.198 37.902 195.813 37.749 196.552 37.749C197.258 37.749 197.852 37.9004 198.334 38.2031C198.819 38.5059 199.185 38.9323 199.433 39.4824C199.683 40.0293 199.809 40.6755 199.809 41.4209ZM194.125 41.4209C194.125 42.0264 194.211 42.5505 194.384 42.9932C194.556 43.4359 194.82 43.7777 195.175 44.0186C195.533 44.2594 195.987 44.3799 196.537 44.3799C197.09 44.3799 197.543 44.2594 197.895 44.0186C198.249 43.7777 198.511 43.4359 198.681 42.9932C198.85 42.5505 198.935 42.0264 198.935 41.4209C198.935 40.4997 198.741 39.7803 198.354 39.2627C197.969 38.7419 197.369 38.4814 196.552 38.4814C195.998 38.4814 195.543 38.6003 195.185 38.8379C194.826 39.0755 194.56 39.4141 194.384 39.8535C194.211 40.2897 194.125 40.8122 194.125 41.4209ZM201.4 37.8613H203.422C204.314 37.8613 204.984 37.9948 205.434 38.2617C205.883 38.5286 206.107 38.9827 206.107 39.624C206.107 39.9007 206.054 40.1497 205.946 40.3711C205.842 40.5892 205.689 40.7699 205.487 40.9131C205.285 41.0563 205.036 41.1556 204.74 41.2109V41.2598C205.053 41.3086 205.329 41.3981 205.57 41.5283C205.811 41.6585 206 41.8408 206.137 42.0752C206.273 42.3096 206.342 42.6074 206.342 42.9688C206.342 43.4082 206.239 43.7793 206.034 44.082C205.832 44.3848 205.546 44.6143 205.175 44.7705C204.804 44.9235 204.364 45 203.856 45H201.4V37.8613ZM202.23 40.9229H203.598C204.219 40.9229 204.649 40.8203 204.887 40.6152C205.128 40.4102 205.248 40.1107 205.248 39.7168C205.248 39.3099 205.105 39.0169 204.818 38.8379C204.535 38.6589 204.083 38.5693 203.461 38.5693H202.23V40.9229ZM202.23 41.6211V44.292H203.715C204.35 44.292 204.799 44.1683 205.062 43.9209C205.326 43.6702 205.458 43.3333 205.458 42.9102C205.458 42.64 205.398 42.4089 205.277 42.2168C205.16 42.0247 204.968 41.8783 204.701 41.7773C204.438 41.6732 204.084 41.6211 203.642 41.6211H202.23Z" fill="#101010"/>
<path d="M34.8684 0.846296C34.9441 0.359215 35.3635 0 35.8565 0H44.8324C45.446 0 45.9148 0.547439 45.8205 1.15371L39 45H28L34.8684 0.846296Z" fill="#0769CD"/>
<path d="M18.8607 15.8356C18.9411 15.3534 19.3583 15 19.8471 15H28.8195C29.4375 15 29.9075 15.5549 29.8059 16.1644L25 45H14L18.8607 15.8356Z" fill="#0769CD"/>
<path d="M2.83922 30.8039C2.93271 30.3365 3.34312 30 3.8198 30H12.7802C13.4112 30 13.8845 30.5773 13.7608 31.1961L11 45H0L2.83922 30.8039Z" fill="#0769CD"/>
<path d="M48 28.0684L53.4316 2.36914H68.6894L67.5469 7.94141H59.1621L58.3359 11.9844H66.1406L64.875 17.5567H57.0703L56.0684 22.4082H64.4531L63.2578 28.0684H48ZM65.5429 28.0684L78.6211 2.36914H87.4629L89.625 28.0684H82.9277L82.7519 23.252H74.8769L72.6797 28.0684H65.5429ZM77.3906 17.7676H82.541L82.2773 10.3848C82.2656 9.81055 82.2539 9.24219 82.2422 8.67969C82.2304 8.11719 82.2304 7.58398 82.2422 7.08008H82.1367C81.9609 7.61914 81.7676 8.14648 81.5566 8.66211C81.3574 9.17774 81.1347 9.70508 80.8887 10.2441L77.3906 17.7676ZM99.3808 28.42C98.1035 28.42 96.8847 28.2735 95.7246 27.9805C94.5761 27.6875 93.5859 27.2715 92.7539 26.7325V20.5801C93.6914 21.1543 94.7929 21.6641 96.0586 22.1094C97.3359 22.5547 98.5137 22.7774 99.5918 22.7774C100.025 22.7774 100.406 22.7305 100.734 22.6368C101.063 22.543 101.338 22.4082 101.561 22.2325C101.783 22.0567 101.947 21.8399 102.053 21.5821C102.17 21.3125 102.229 21.0137 102.229 20.6856C102.229 20.252 102.1 19.8477 101.842 19.4727C101.584 19.0977 101.232 18.7286 100.787 18.3653C100.354 17.9903 99.873 17.586 99.3457 17.1524C98.5605 16.5079 97.8691 15.834 97.2715 15.1309C96.6855 14.4278 96.2285 13.6602 95.9004 12.8282C95.584 11.9844 95.4258 11.041 95.4258 9.99805C95.4258 8.83789 95.6426 7.77148 96.0761 6.79883C96.5097 5.82617 97.125 4.98242 97.9219 4.26758C98.7304 3.54102 99.6914 2.98438 100.805 2.59766C101.93 2.19922 103.172 2 104.531 2C105.914 2 107.25 2.16406 108.539 2.49219C109.84 2.82031 111.023 3.2832 112.09 3.88086L109.717 9.10156C108.897 8.69141 108.035 8.33398 107.133 8.0293C106.242 7.71289 105.398 7.55469 104.602 7.55469C104.109 7.55469 103.711 7.61914 103.406 7.74805C103.102 7.86524 102.867 8.02344 102.703 8.22266C102.539 8.41016 102.422 8.61524 102.352 8.83789C102.293 9.06055 102.264 9.27734 102.264 9.48828C102.264 9.85156 102.34 10.2031 102.492 10.543C102.656 10.8711 102.943 11.2403 103.354 11.6504C103.764 12.0489 104.344 12.5293 105.094 13.0918C106.043 13.795 106.816 14.5098 107.414 15.2364C108.023 15.9629 108.469 16.7305 108.75 17.5391C109.031 18.336 109.172 19.2149 109.172 20.1758C109.172 21.4532 108.955 22.6016 108.522 23.6211C108.088 24.6407 107.455 25.5079 106.623 26.2227C105.791 26.9375 104.766 27.4825 103.547 27.8575C102.34 28.2325 100.951 28.42 99.3808 28.42ZM116.66 28.0684L118.77 18.1016L114.604 2.36914H121.688L123.27 11.8965L128.754 2.36914H136.418L125.66 18.1016L123.533 28.0684H116.66ZM137.508 28.0684L136.717 2.36914H141.762L141.867 16.3965C141.867 17.2989 141.85 18.3067 141.814 19.42C141.779 20.5332 141.715 21.5586 141.621 22.4961H141.762C142.09 21.5586 142.453 20.5567 142.852 19.4903C143.262 18.4122 143.631 17.5039 143.959 16.7657L150.445 2.36914H155.191L155.543 16.7657C155.566 17.375 155.566 18.2422 155.543 19.3672C155.52 20.4805 155.473 21.5235 155.402 22.4961H155.543C155.766 21.8282 156.006 21.125 156.264 20.3868C156.533 19.6485 156.803 18.9278 157.072 18.2246C157.342 17.5215 157.588 16.9004 157.811 16.3614L163.611 2.36914H169.043L157.67 28.0684H151.588L151.307 16.3614C151.283 15.3184 151.266 14.4571 151.254 13.7774C151.242 13.086 151.236 12.4649 151.236 11.9141C151.236 11.3633 151.248 10.7832 151.272 10.1738H151.131C150.826 11.1348 150.51 12.0489 150.182 12.9161C149.854 13.7832 149.508 14.6211 149.145 15.4297L143.449 28.0684H137.508ZM163.524 28.0684L176.988 2.36914H183.545L186.129 28.0684H180.908L180.486 21.9512H172.172L169.149 28.0684H163.524ZM174.369 17.3809H180.223L179.766 10.7539C179.719 10.0508 179.672 9.3418 179.625 8.62695C179.578 7.91211 179.566 7.17969 179.59 6.42969H179.502C179.279 7.07422 179.022 7.71875 178.729 8.36328C178.436 9.00781 178.108 9.69336 177.744 10.4199L174.369 17.3809ZM193.617 28.0684L195.709 18.2422L191.561 2.36914H197.045L199.313 12.7754L205.887 2.36914H211.899L201.035 18.2422L198.943 28.0684H193.617Z" fill="#101010"/>
</svg>
