<svg width="221" height="54" viewBox="0 0 221 54" fill="none" xmlns="http://www.w3.org/2000/svg">
<path d="M2.957 51V43.3H9.975V51H8.204V44.345L8.611 44.752H4.321L4.728 44.345V51H2.957ZM15.5688 51.132C14.9601 51.132 14.3954 51.033 13.8748 50.835C13.3614 50.637 12.9141 50.3583 12.5328 49.999C12.1588 49.6397 11.8654 49.218 11.6528 48.734C11.4474 48.25 11.3448 47.722 11.3448 47.15C11.3448 46.578 11.4474 46.05 11.6528 45.566C11.8654 45.082 12.1624 44.6603 12.5438 44.301C12.9251 43.9417 13.3724 43.663 13.8858 43.465C14.3991 43.267 14.9564 43.168 15.5578 43.168C16.1664 43.168 16.7238 43.267 17.2298 43.465C17.7431 43.663 18.1868 43.9417 18.5608 44.301C18.9421 44.6603 19.2391 45.082 19.4518 45.566C19.6644 46.0427 19.7708 46.5707 19.7708 47.15C19.7708 47.722 19.6644 48.2537 19.4518 48.745C19.2391 49.229 18.9421 49.6507 18.5608 50.01C18.1868 50.362 17.7431 50.637 17.2298 50.835C16.7238 51.033 16.1701 51.132 15.5688 51.132ZM15.5578 49.614C15.9024 49.614 16.2178 49.5553 16.5038 49.438C16.7971 49.3207 17.0538 49.152 17.2738 48.932C17.4938 48.712 17.6624 48.4517 17.7798 48.151C17.9044 47.8503 17.9668 47.5167 17.9668 47.15C17.9668 46.7833 17.9044 46.4497 17.7798 46.149C17.6624 45.8483 17.4938 45.588 17.2738 45.368C17.0611 45.148 16.8081 44.9793 16.5148 44.862C16.2214 44.7447 15.9024 44.686 15.5578 44.686C15.2131 44.686 14.8941 44.7447 14.6008 44.862C14.3148 44.9793 14.0618 45.148 13.8418 45.368C13.6218 45.588 13.4494 45.8483 13.3248 46.149C13.2074 46.4497 13.1488 46.7833 13.1488 47.15C13.1488 47.5093 13.2074 47.843 13.3248 48.151C13.4494 48.4517 13.6181 48.712 13.8308 48.932C14.0508 49.152 14.3074 49.3207 14.6008 49.438C14.8941 49.5553 15.2131 49.614 15.5578 49.614ZM26.0327 50.208V44.752H23.3927L23.3597 45.874C23.3377 46.3507 23.3047 46.8017 23.2607 47.227C23.224 47.6523 23.1653 48.041 23.0847 48.393C23.004 48.7377 22.8977 49.031 22.7657 49.273C22.641 49.515 22.4833 49.6873 22.2927 49.79L20.3897 49.548C20.6537 49.5553 20.87 49.4637 21.0387 49.273C21.2147 49.0823 21.354 48.8147 21.4567 48.47C21.5593 48.118 21.6327 47.7073 21.6767 47.238C21.728 46.7687 21.7647 46.259 21.7867 45.709L21.8747 43.3H27.7927V50.208H26.0327ZM20.1367 52.595L20.1477 49.548H28.8707V52.595H27.2207V51H21.7867V52.595H20.1367ZM34.852 45.83C35.776 45.83 36.491 46.039 36.997 46.457C37.503 46.8677 37.756 47.4873 37.756 48.316C37.756 49.196 37.4737 49.8633 36.909 50.318C36.3517 50.7727 35.578 51 34.588 51H31.123V44.752H28.956V43.3H32.883V45.83H34.852ZM34.489 49.68C34.951 49.68 35.3103 49.5663 35.567 49.339C35.831 49.1117 35.963 48.7817 35.963 48.349C35.963 47.9237 35.831 47.6193 35.567 47.436C35.3103 47.2453 34.951 47.15 34.489 47.15H32.883V49.68H34.489ZM40.679 46.402H44.386V47.788H40.679V46.402ZM40.811 49.57H45.002V51H39.04V43.3H44.859V44.73H40.811V49.57ZM46.4414 51V43.3H47.9154L51.1934 48.734H50.4124L53.6354 43.3H55.1094L55.1204 51H53.4484L53.4374 45.863H53.7564L51.1714 50.186H50.3794L47.7394 45.863H48.1134V51H46.4414ZM62.3132 43.3H64.0952V51H62.3132V43.3ZM58.8152 51H57.0332V43.3H58.8152V51ZM62.4452 47.843H58.6832V46.336H62.4452V47.843ZM66.0244 51V43.3H67.7954V48.316L71.4694 43.3H73.1414V51H71.3814V45.995L67.7074 51H66.0244ZM80.0416 51L77.6436 47.293L79.0846 46.424L82.0656 51H80.0416ZM75.0366 51V43.3H76.8076V51H75.0366ZM76.2906 47.898V46.413H78.9746V47.898H76.2906ZM79.2496 47.348L77.6106 47.15L80.1076 43.3H81.9886L79.2496 47.348ZM82.9004 51V43.3H84.6714V48.316L88.3454 43.3H90.0174V51H88.2574V45.995L84.5834 51H82.9004ZM100.154 50.208V44.752H97.5138L97.4808 45.874C97.4588 46.3507 97.4258 46.8017 97.3818 47.227C97.3451 47.6523 97.2864 48.041 97.2058 48.393C97.1251 48.7377 97.0188 49.031 96.8868 49.273C96.7621 49.515 96.6044 49.6873 96.4138 49.79L94.5108 49.548C94.7748 49.5553 94.9911 49.4637 95.1598 49.273C95.3358 49.0823 95.4751 48.8147 95.5778 48.47C95.6804 48.118 95.7538 47.7073 95.7978 47.238C95.8491 46.7687 95.8858 46.259 95.9078 45.709L95.9958 43.3H101.914V50.208H100.154ZM94.2578 52.595L94.2688 49.548H102.992V52.595H101.342V51H95.9078V52.595H94.2578ZM104.268 51.121C104.136 51.121 103.997 51.11 103.85 51.088C103.711 51.066 103.557 51.0367 103.388 51L103.498 49.493C103.601 49.5223 103.707 49.537 103.817 49.537C104.118 49.537 104.353 49.416 104.521 49.174C104.69 48.9247 104.811 48.569 104.884 48.107C104.958 47.645 105.005 47.084 105.027 46.424L105.137 43.3H111.055V51H109.295V44.345L109.702 44.752H106.303L106.666 44.323L106.6 46.358C106.578 47.1133 106.527 47.7843 106.446 48.371C106.366 48.9577 106.241 49.4563 106.072 49.867C105.904 50.2777 105.673 50.5893 105.379 50.802C105.086 51.0147 104.716 51.121 104.268 51.121ZM117.367 51V48.569L117.807 48.954H115.695C115.028 48.954 114.452 48.844 113.968 48.624C113.484 48.404 113.114 48.085 112.857 47.667C112.601 47.249 112.472 46.7503 112.472 46.171C112.472 45.5697 112.608 45.0563 112.879 44.631C113.158 44.1983 113.547 43.8683 114.045 43.641C114.544 43.4137 115.131 43.3 115.805 43.3H119.127V51H117.367ZM112.494 51L114.408 48.239H116.212L114.375 51H112.494ZM117.367 47.997V44.29L117.807 44.752H115.849C115.343 44.752 114.955 44.8693 114.683 45.104C114.419 45.3387 114.287 45.687 114.287 46.149C114.287 46.5963 114.416 46.941 114.672 47.183C114.929 47.425 115.307 47.546 115.805 47.546H117.807L117.367 47.997ZM124.172 51V43.3H125.943V48.316L129.617 43.3H131.289V51H129.529V45.995L125.855 51H124.172ZM138.486 43.3H140.268V51H138.486V43.3ZM134.988 51H133.206V43.3H134.988V51ZM138.618 47.843H134.856V46.336H138.618V47.843ZM142.197 51V43.3H145.783C146.678 43.3 147.375 43.4723 147.873 43.817C148.372 44.1617 148.621 44.653 148.621 45.291C148.621 45.9217 148.387 46.413 147.917 46.765C147.448 47.1097 146.825 47.282 146.047 47.282L146.256 46.82C147.122 46.82 147.793 46.9923 148.269 47.337C148.746 47.6817 148.984 48.1803 148.984 48.833C148.984 49.5077 148.728 50.0393 148.214 50.428C147.708 50.8093 146.968 51 145.992 51H142.197ZM143.968 49.68H145.926C146.337 49.68 146.649 49.5993 146.861 49.438C147.074 49.2767 147.18 49.0273 147.18 48.69C147.18 48.3673 147.074 48.129 146.861 47.975C146.649 47.8137 146.337 47.733 145.926 47.733H143.968V49.68ZM143.968 46.49H145.629C146.018 46.49 146.311 46.413 146.509 46.259C146.707 46.0977 146.806 45.863 146.806 45.555C146.806 45.247 146.707 45.016 146.509 44.862C146.311 44.7007 146.018 44.62 145.629 44.62H143.968V46.49ZM149.525 51L152.957 43.3H154.717L158.16 51H156.29L153.474 44.202H154.178L151.351 51H149.525ZM151.241 49.35L151.714 47.997H155.674L156.158 49.35H151.241ZM159.301 51.121C159.169 51.121 159.029 51.11 158.883 51.088C158.743 51.066 158.589 51.0367 158.421 51L158.531 49.493C158.633 49.5223 158.74 49.537 158.85 49.537C159.15 49.537 159.385 49.416 159.554 49.174C159.722 48.9247 159.843 48.569 159.917 48.107C159.99 47.645 160.038 47.084 160.06 46.424L160.17 43.3H166.088V51H164.328V44.345L164.735 44.752H161.336L161.699 44.323L161.633 46.358C161.611 47.1133 161.559 47.7843 161.479 48.371C161.398 48.9577 161.273 49.4563 161.105 49.867C160.936 50.2777 160.705 50.5893 160.412 50.802C160.118 51.0147 159.748 51.121 159.301 51.121ZM168.011 51V43.3H169.782V48.316L173.456 43.3H175.128V51H173.368V45.995L169.694 51H168.011ZM182.095 50.208V44.752H179.455L179.422 45.874C179.4 46.3507 179.367 46.8017 179.323 47.227C179.287 47.6523 179.228 48.041 179.147 48.393C179.067 48.7377 178.96 49.031 178.828 49.273C178.704 49.515 178.546 49.6873 178.355 49.79L176.452 49.548C176.716 49.5553 176.933 49.4637 177.101 49.273C177.277 49.0823 177.417 48.8147 177.519 48.47C177.622 48.118 177.695 47.7073 177.739 47.238C177.791 46.7687 177.827 46.259 177.849 45.709L177.937 43.3H183.855V50.208H182.095ZM176.199 52.595L176.21 49.548H184.933V52.595H183.283V51H177.849V52.595H176.199ZM189.818 51.132C189.209 51.132 188.644 51.033 188.124 50.835C187.61 50.637 187.163 50.3583 186.782 49.999C186.408 49.6397 186.114 49.218 185.902 48.734C185.696 48.25 185.594 47.722 185.594 47.15C185.594 46.578 185.696 46.05 185.902 45.566C186.114 45.082 186.411 44.6603 186.793 44.301C187.174 43.9417 187.621 43.663 188.135 43.465C188.648 43.267 189.205 43.168 189.807 43.168C190.415 43.168 190.973 43.267 191.479 43.465C191.992 43.663 192.436 43.9417 192.81 44.301C193.191 44.6603 193.488 45.082 193.701 45.566C193.913 46.0427 194.02 46.5707 194.02 47.15C194.02 47.722 193.913 48.2537 193.701 48.745C193.488 49.229 193.191 49.6507 192.81 50.01C192.436 50.362 191.992 50.637 191.479 50.835C190.973 51.033 190.419 51.132 189.818 51.132ZM189.807 49.614C190.151 49.614 190.467 49.5553 190.753 49.438C191.046 49.3207 191.303 49.152 191.523 48.932C191.743 48.712 191.911 48.4517 192.029 48.151C192.153 47.8503 192.216 47.5167 192.216 47.15C192.216 46.7833 192.153 46.4497 192.029 46.149C191.911 45.8483 191.743 45.588 191.523 45.368C191.31 45.148 191.057 44.9793 190.764 44.862C190.47 44.7447 190.151 44.686 189.807 44.686C189.462 44.686 189.143 44.7447 188.85 44.862C188.564 44.9793 188.311 45.148 188.091 45.368C187.871 45.588 187.698 45.8483 187.574 46.149C187.456 46.4497 187.398 46.7833 187.398 47.15C187.398 47.5093 187.456 47.843 187.574 48.151C187.698 48.4517 187.867 48.712 188.08 48.932C188.3 49.152 188.556 49.3207 188.85 49.438C189.143 49.5553 189.462 49.614 189.807 49.614ZM195.393 51V43.3H198.979C199.873 43.3 200.57 43.4723 201.069 43.817C201.567 44.1617 201.817 44.653 201.817 45.291C201.817 45.9217 201.582 46.413 201.113 46.765C200.643 47.1097 200.02 47.282 199.243 47.282L199.452 46.82C200.317 46.82 200.988 46.9923 201.465 47.337C201.941 47.6817 202.18 48.1803 202.18 48.833C202.18 49.5077 201.923 50.0393 201.41 50.428C200.904 50.8093 200.163 51 199.188 51H195.393ZM197.164 49.68H199.122C199.532 49.68 199.844 49.5993 200.057 49.438C200.269 49.2767 200.376 49.0273 200.376 48.69C200.376 48.3673 200.269 48.129 200.057 47.975C199.844 47.8137 199.532 47.733 199.122 47.733H197.164V49.68ZM197.164 46.49H198.825C199.213 46.49 199.507 46.413 199.705 46.259C199.903 46.0977 200.002 45.863 200.002 45.555C200.002 45.247 199.903 45.016 199.705 44.862C199.507 44.7007 199.213 44.62 198.825 44.62H197.164V46.49Z" fill="#101010"/>
<path d="M10.374 20.28H22.23V26.74H10.374V20.28ZM10.982 30.236H24.282V37H2.166V10.4H23.788V17.164H10.982V30.236ZM25.9864 37L37.6144 10.4H46.4304L58.0584 37H48.7864L40.1984 14.656H43.6944L35.1064 37H25.9864ZM32.9024 32.364L35.1824 25.904H47.4184L49.6984 32.364H32.9024ZM70.5476 37.608C68.3183 37.608 66.1649 37.3547 64.0876 36.848C62.0103 36.3413 60.3003 35.6827 58.9576 34.872L61.8456 28.336C63.1123 29.0707 64.5183 29.666 66.0636 30.122C67.6343 30.5527 69.1543 30.768 70.6236 30.768C71.4849 30.768 72.1563 30.7173 72.6376 30.616C73.1443 30.4893 73.5116 30.3247 73.7396 30.122C73.9676 29.894 74.0816 29.628 74.0816 29.324C74.0816 28.8427 73.8156 28.4627 73.2836 28.184C72.7516 27.9053 72.0423 27.6773 71.1556 27.5C70.2943 27.2973 69.3443 27.0947 68.3056 26.892C67.2669 26.664 66.2156 26.3727 65.1516 26.018C64.1129 25.6633 63.1503 25.1947 62.2636 24.612C61.4023 24.0293 60.7056 23.2693 60.1736 22.332C59.6416 21.3693 59.3756 20.1787 59.3756 18.76C59.3756 17.1133 59.8316 15.6187 60.7436 14.276C61.6809 12.908 63.0616 11.8187 64.8856 11.008C66.7349 10.1973 69.0276 9.792 71.7636 9.792C73.5623 9.792 75.3356 9.982 77.0836 10.362C78.8316 10.742 80.4023 11.3247 81.7956 12.11L79.0976 18.608C77.7803 17.9493 76.5009 17.4553 75.2596 17.126C74.0436 16.7967 72.8529 16.632 71.6876 16.632C70.8263 16.632 70.1423 16.708 69.6356 16.86C69.1289 17.012 68.7616 17.2147 68.5336 17.468C68.3309 17.7213 68.2296 18 68.2296 18.304C68.2296 18.76 68.4956 19.1273 69.0276 19.406C69.5596 19.6593 70.2563 19.8747 71.1176 20.052C72.0043 20.2293 72.9669 20.4193 74.0056 20.622C75.0696 20.8247 76.1209 21.1033 77.1596 21.458C78.1983 21.8127 79.1483 22.2813 80.0096 22.864C80.8963 23.4467 81.6056 24.2067 82.1376 25.144C82.6696 26.0813 82.9356 27.2467 82.9356 28.64C82.9356 30.2613 82.4669 31.756 81.5296 33.124C80.6176 34.4667 79.2496 35.556 77.4256 36.392C75.6016 37.2027 73.3089 37.608 70.5476 37.608ZM93.0276 37V25.334L95.0796 30.692L82.9956 10.4H92.4576L100.628 24.27H95.1176L103.364 10.4H112.028L100.02 30.692L101.996 25.334V37H93.0276ZM122.248 37L113.356 10.4H117.27L125.44 34.948H123.464L131.938 10.4H135.434L143.718 34.948H141.818L150.102 10.4H153.712L144.82 37H140.83L133.078 14.238H134.104L126.314 37H122.248ZM153.289 37L165.335 10.4H169.097L181.181 37H177.191L166.437 12.528H167.957L157.203 37H153.289ZM158.419 30.35L159.445 27.31H174.417L175.519 30.35H158.419ZM189.785 37V26.816L190.659 29.172L179.221 10.4H183.287L192.901 26.246H190.697L200.349 10.4H204.111L192.711 29.172L193.547 26.816V37H189.785Z" fill="#101010"/>
</svg>
